<?xml version="1.0" encoding="UTF-8"?>
<!DOCTYPE svg PUBLIC "-//W3C//DTD SVG 1.1//EN" "http://www.w3.org/Graphics/SVG/1.1/DTD/svg11.dtd">
<!-- Creator: CorelDRAW X8 -->
<svg xmlns="http://www.w3.org/2000/svg" xml:space="preserve" width="1550px" height="1450px" version="1.1" style="shape-rendering:geometricPrecision; text-rendering:geometricPrecision; image-rendering:optimizeQuality; fill-rule:evenodd; clip-rule:evenodd"
viewBox="0 0 2145 2007"
 xmlns:xlink="http://www.w3.org/1999/xlink">
 <defs>
  <style type="text/css">
   <![CDATA[
    .str0 {stroke:black;stroke-width:3.26912}
    .fil8 {fill:none}
    .fil2 {fill:#009933}
    .fil7 {fill:#6666FF}
    .fil1 {fill:#6699FF}
    .fil0 {fill:#CCCCFF}
    .fil6 {fill:red}
    .fil3 {fill:#FF45DA}
    .fil5 {fill:#FF6200}
    .fil4 {fill:#FFD500}
   ]]>
  </style>
 </defs>
 <g id="Camada_x0020_1">
  <metadata id="CorelCorpID_0Corel-Layer"/>
  <rect class="fil0" width="2145" height="2007"/>
  <path class="fil1 str0" d="M618 132c-4,3 -9,7 -11,13 -2,7 -3,15 -3,21 0,7 1,12 1,19 0,7 0,15 0,21 0,7 0,12 0,17 0,6 1,13 1,18 0,5 -1,9 -1,12 0,3 1,6 3,9 3,2 7,4 11,5 5,0 9,-1 14,-2 4,-1 9,-1 11,-2 3,-1 3,-3 3,-6 0,-3 0,-7 -1,-13 0,-5 -1,-12 -1,-17 0,-6 0,-11 2,-13 1,-3 5,-4 9,-5 5,0 10,0 14,0 5,1 9,3 11,6 3,3 4,8 4,12 1,5 1,9 1,15 -1,7 -1,15 0,19 1,5 4,5 10,5 6,0 15,-1 20,-4 5,-2 6,-7 5,-11 0,-5 -2,-8 -3,-16 -1,-8 -2,-20 -2,-31 -1,-12 -1,-23 -1,-33 0,-9 0,-18 -1,-27 -2,-8 -4,-16 -9,-20 -5,-4 -12,-5 -22,-5 -10,0 -22,2 -31,3 -9,1 -15,3 -20,4 -5,2 -10,3 -14,6z"/>
  <path class="fil2 str0" d="M789 259c1,-3 5,-8 13,-11 7,-3 17,-4 27,-4 9,0 18,1 27,1 8,1 17,0 22,1 5,1 5,3 5,7 1,5 0,11 0,18 1,8 1,18 2,27 0,8 0,16 1,21 0,6 0,9 2,11 3,1 7,1 12,1 4,-1 9,-2 14,-3 5,-1 11,-2 15,-2 4,1 7,3 7,8 1,4 -1,12 -2,19 -1,8 -1,15 -3,21 -1,6 -4,9 -8,11 -5,2 -12,2 -20,1 -7,0 -15,0 -24,0 -8,0 -17,0 -27,0 -9,0 -18,0 -26,0 -8,0 -15,0 -20,-4 -5,-5 -9,-13 -9,-22 -1,-10 1,-19 1,-28 1,-8 0,-15 -1,-25 0,-11 -2,-25 -4,-33 -2,-9 -5,-11 -4,-15z"/>
  <path class="fil3 str0" d="M1039 309c-1,-9 -2,-19 -1,-27 0,-8 3,-15 8,-19 6,-4 15,-5 26,-5 10,-1 22,-1 34,-1 12,0 23,0 34,0 12,0 22,-1 30,-1 8,0 13,1 19,5 5,3 10,9 13,15 3,7 2,14 2,22 1,9 1,19 1,26 0,8 0,12 -1,15 -1,4 -2,5 -7,8 -4,3 -11,6 -16,9 -5,2 -8,2 -9,3 -2,0 -2,0 0,0 3,1 9,2 14,3 6,1 10,2 15,4 4,3 7,5 10,10 2,4 3,10 4,18 1,8 1,18 0,25 -1,7 -3,11 -7,14 -4,3 -10,6 -17,8 -8,2 -17,4 -28,5 -11,1 -23,1 -38,0 -15,0 -32,-1 -44,-2 -13,-1 -20,-3 -26,-6 -5,-3 -9,-7 -11,-15 -2,-7 -1,-17 -1,-27 1,-10 1,-19 0,-30 0,-10 -1,-21 -1,-30 -1,-10 -2,-18 -3,-27z"/>
  <path class="fil4 str0" d="M1312 330c-2,-17 -3,-30 -4,-43 -2,-14 -5,-28 -7,-42 -2,-15 -4,-29 -1,-38 2,-9 8,-13 20,-15 11,-2 27,-1 45,0 18,2 37,5 52,5 14,0 23,-4 33,-4 10,0 21,4 27,10 7,5 9,13 10,21 1,9 0,19 0,31 0,12 0,26 -4,32 -5,7 -13,6 -24,5 -11,0 -25,-1 -35,-1 -11,0 -19,0 -22,3 -3,2 -2,7 -1,11 1,5 1,9 5,10 3,2 10,2 17,2 8,-1 15,-1 23,-1 7,0 14,0 18,2 5,3 7,8 8,13 2,5 3,11 -1,14 -4,4 -14,5 -25,3 -11,-1 -24,-5 -33,-7 -9,-1 -14,1 -17,6 -2,5 -1,13 0,19 2,5 4,9 8,11 5,1 13,0 20,-1 7,-1 14,-2 23,-3 9,-1 20,-1 28,-1 9,1 13,2 16,5 2,4 3,10 2,18 0,8 -2,19 -4,25 -3,7 -8,10 -14,11 -5,1 -13,0 -30,-1 -18,-1 -47,-3 -67,-3 -21,0 -33,2 -42,1 -9,-1 -15,-5 -18,-11 -3,-7 -3,-16 -3,-32 -1,-16 -2,-38 -3,-55z"/>
  <path class="fil5 str0" d="M1534 785c-3,9 -1,25 -1,35 0,10 -2,14 -6,15 -5,1 -12,0 -23,0 -10,-1 -25,-1 -33,-3 -9,-3 -11,-7 -12,-14 -2,-8 -2,-18 -2,-34 0,-17 0,-40 0,-55 0,-16 0,-23 0,-31 0,-9 -1,-17 -2,-25 -1,-9 -2,-17 -1,-25 1,-7 3,-13 12,-17 9,-4 24,-6 38,-7 14,-1 26,0 39,0 13,1 26,1 38,1 12,0 23,0 33,1 11,0 20,0 27,3 7,3 12,8 15,19 4,10 7,24 9,39 1,14 1,28 -2,38 -3,9 -8,13 -16,16 -8,3 -18,5 -25,8 -7,3 -9,8 -8,11 2,3 8,5 15,8 7,4 14,10 23,15 8,6 18,10 27,14 8,4 14,8 19,12 4,4 5,8 4,11 -2,4 -8,8 -17,10 -8,1 -21,1 -34,1 -14,-1 -29,-3 -41,-4 -13,-1 -23,-1 -30,-7 -7,-6 -12,-17 -16,-26 -4,-9 -8,-15 -14,-18 -6,-2 -13,0 -16,9z"/>
  <path class="fil6 str0" d="M1259 1111c-12,-1 -19,-5 -23,-11 -3,-6 -3,-14 -3,-26 1,-13 2,-29 1,-46 0,-16 -2,-31 -2,-45 0,-14 1,-26 2,-37 0,-11 1,-21 -2,-27 -3,-7 -10,-10 -19,-12 -8,-2 -19,-2 -30,-2 -11,0 -23,0 -30,-2 -6,-1 -8,-5 -8,-12 0,-6 0,-15 1,-27 1,-12 2,-26 2,-37 0,-11 0,-20 1,-26 2,-6 6,-9 13,-11 8,-1 18,0 38,2 19,2 48,4 72,6 24,2 44,2 61,3 17,0 31,1 43,2 11,1 19,2 23,5 5,2 5,7 6,21 2,14 4,37 4,54 0,17 -2,28 -8,32 -5,5 -14,3 -25,1 -11,-2 -24,-5 -35,-4 -10,0 -18,3 -21,12 -3,8 -1,23 1,42 2,18 3,41 5,62 2,20 4,39 5,52 0,14 0,23 -4,28 -4,4 -13,3 -25,3 -13,1 -31,2 -43,0z"/>
  <path class="fil7 str0" d="M721 1097c-3,-22 -4,-33 -3,-54 1,-21 2,-52 13,-78 11,-26 31,-48 52,-63 21,-16 44,-25 66,-30 22,-4 45,-5 64,-1 20,4 37,14 52,26 15,12 28,28 39,45 10,18 19,38 24,57 6,19 8,37 10,58 2,22 4,47 3,70 -1,22 -6,42 -11,58 -6,17 -14,32 -23,42 -8,10 -17,17 -32,23 -14,5 -33,11 -50,13 -18,3 -34,3 -50,1 -17,-1 -34,-4 -51,-8 -16,-4 -31,-10 -45,-23 -14,-13 -27,-34 -37,-59 -10,-26 -17,-56 -21,-77z"/>
  <path class="fil8 str0" d="M573 101c0,29 -28,-11 -2,-3 7,2 2,5 2,7"/>
  <path class="fil8 str0" d="M570 111c-1,9 1,15 10,17"/>
  <path class="fil8 str0" d="M569 122c-2,3 -8,18 -6,21"/>
  <path class="fil8 str0" d="M514 192c-2,-1 -8,-11 -8,-14 -1,-10 13,-16 20,-9 4,4 5,1 6,10 1,10 -7,12 -15,12 -1,0 -6,1 -7,0"/>
  <path class="fil8 str0" d="M521 191c0,0 -2,14 -2,16 -3,13 -1,18 13,22l0 0"/>
  <path class="fil8 str0" d="M525 194c5,-3 16,-6 21,-1 1,1 2,2 2,3"/>
  <path class="fil8 str0" d="M520 198c-6,0 -16,3 -19,-5"/>
  <path class="fil8 str0" d="M517 217c-3,2 -15,11 -16,14"/>
  <path class="fil8 str0" d="M664 232c-4,-9 4,-26 19,-29 18,-3 23,0 23,21 -1,17 -38,15 -42,8z"/>
  <path class="fil8 str0" d="M690 237c2,14 -16,28 -32,28"/>
  <path class="fil8 str0" d="M770 196c-16,-29 40,-33 28,7 -10,3 -22,4 -27,-6l-1 -1z"/>
  <path class="fil8 str0" d="M793 210c1,3 17,31 17,31"/>
  <path class="fil8 str0" d="M783 211c-9,-3 -22,-8 -26,5l0 1"/>
  <path class="fil8 str0" d="M805 208c0,-2 11,-9 16,2"/>
  <path class="fil8 str0" d="M794 231c-5,12 -21,6 -30,0"/>
  <path class="fil8 str0" d="M943 288c-14,2 -20,3 -20,-17 -1,-18 45,-17 33,11 -2,4 -11,5 -13,6z"/>
  <path class="fil8 str0" d="M925 296c3,-1 21,16 19,18 -8,6 -22,9 -23,10"/>
  <path class="fil8 str0" d="M927 287c-6,-2 -17,-13 -18,-13 0,0 -9,6 -10,8"/>
  <path class="fil8 str0" d="M1044 219c-13,-7 -23,-8 -21,-30 2,-18 49,-27 45,23 -1,10 -23,11 -29,7 0,4 -15,23 -16,37 0,5 -22,9 -29,9l-1 0"/>
  <path class="fil8 str0" d="M1038 239c0,0 22,-20 22,1 0,0 1,8 2,9"/>
  <path class="fil8 str0" d="M1018 209c-13,0 -22,0 -31,10"/>
  <path class="fil8 str0" d="M1217 244c-49,-18 -2,-65 24,-29 6,10 2,29 -20,29 -2,0 -2,1 -4,0z"/>
  <path class="fil8 str0" d="M1214 250c8,0 18,-1 24,4 12,11 -22,19 -23,25"/>
  <path class="fil8 str0" d="M1370 133c-66,12 -71,-58 -11,-64 41,-4 51,56 11,64z"/>
  <path class="fil8 str0" d="M1331 128c-8,3 -27,-9 -28,11 0,2 0,2 2,2"/>
  <path class="fil8 str0" d="M1395 111c4,-13 25,-23 27,-11"/>
  <path class="fil8 str0" d="M1386 134c19,0 25,18 25,35"/>
  <path class="fil8 str0" d="M1355 143c6,5 10,28 2,36l0 1"/>
  <path class="fil8 str0" d="M1426 514c-38,0 -75,1 -61,-52 18,-73 132,-33 114,23 -6,17 -31,22 -46,22"/>
  <path class="fil8 str0" d="M1362 484c-9,-4 -27,-34 -30,-46"/>
  <path class="fil8 str0" d="M1486 464c-9,-17 -4,-51 -8,-57"/>
  <path class="fil8 str0" d="M1426 514c-13,23 10,53 -11,107l0 2"/>
  <path class="fil8 str0" d="M1428 547c-23,11 -6,27 -67,10 -2,0 -6,-2 -9,-3"/>
  <path class="fil8 str0" d="M1532 803c11,-3 12,-17 13,-27 1,-28 -90,-82 -91,-6 -1,65 82,38 90,28 -13,11 -73,39 -5,38 12,-1 23,2 36,2"/>
  <path class="fil8 str0" d="M1554 792c10,7 46,38 59,27"/>
  <path class="fil8 str0" d="M1244 680c-23,25 -34,38 -71,31 -36,-7 -37,-120 29,-97 47,17 54,53 42,66z"/>
  <path class="fil8 str0" d="M1278 668c0,0 17,-48 29,-41 7,4 27,23 28,32"/>
  <path class="fil8 str0" d="M1255 687c23,27 16,46 47,57 15,5 21,14 45,21 1,1 11,7 12,8"/>
  <path class="fil8 str0" d="M1271 738c-23,5 -45,-18 -35,16 1,3 18,34 21,39"/>
  <path class="fil8 str0" d="M1144 688c-44,-17 -36,0 -30,-63"/>
  <path class="fil8 str0" d="M1049 797c-38,0 -46,-2 -44,-45 0,-19 88,-64 83,33 -1,13 -42,16 -51,16"/>
  <path class="fil8 str0" d="M933 822c0,-84 71,-4 69,9"/>
  <path class="fil8 str0" d="M1068 848c-1,1 -46,-51 -62,-24 -3,4 -3,46 -3,53"/>
  <path class="fil8 str0" d="M1093 784c12,-13 27,-53 27,-54"/>
  <path class="fil8 str0" d="M1046 744c-7,-18 -19,-48 -24,-66"/>
  <path class="fil8 str0" d="M851 1087c-35,-1 -55,12 -86,-33 -39,-58 24,-169 120,-108 37,24 59,26 50,80 -8,42 -56,57 -93,57"/>
  <path class="fil8 str0" d="M881 1077c7,32 29,64 60,76 3,1 9,6 13,6"/>
  <path class="fil8 str0" d="M891 1125c-70,0 -61,20 -73,22 -25,-21 -39,-74 -87,-71 -17,1 -8,48 14,69 10,10 78,58 92,53 11,-31 50,-38 80,-38"/>
  <path class="fil8 str0" d="M760 1045c-22,4 -100,-47 -116,-48 -6,0 0,-74 74,9 4,5 23,17 29,19"/>
  <path class="fil8 str0" d="M1519 1438c-4,-8 -195,36 -184,-166 4,-71 144,-207 253,-128 107,77 145,160 38,259 -27,25 -99,28 -136,28"/>
  <path class="fil8 str0" d="M1662 1325c-126,56 -114,-182 -51,-135 34,26 49,69 49,113"/>
  <path class="fil8 str0" d="M1482 1313c5,53 -92,73 -92,-80 0,-74 128,-80 115,80l-2 4"/>
  <path class="fil8 str0" d="M1401 1419c-31,2 -72,-64 -113,-86 -39,-21 -144,-59 -176,-6 -42,68 191,-7 233,90 18,41 -36,16 -28,104 3,40 166,197 214,25 1,-5 47,-108 51,-113"/>
  <path class="fil8 str0" d="M1568 1463c106,84 159,33 133,-79 -4,-14 -24,-86 -31,-28 -3,23 -3,85 -33,85 -5,0 -10,0 -16,0"/>
  <path class="fil8 str0" d="M1358 1578c-16,-20 -88,-32 -135,-76 -25,-23 -65,109 -21,78 27,-19 -11,-82 58,-29 37,29 56,43 100,32l-2 -5z"/>
  <path class="fil8 str0" d="M1470 1623c184,63 95,253 141,233 17,-8 13,-258 75,-92 11,28 -5,177 -92,173 -34,-1 -37,-163 -76,-224 -5,-7 -51,-70 -56,-72"/>
 </g>
</svg>
