<?xml version="1.0" encoding="UTF-8"?>
<!DOCTYPE svg PUBLIC "-//W3C//DTD SVG 1.0//EN" "http://www.w3.org/TR/2001/REC-SVG-20010904/DTD/svg10.dtd">
<!-- Creator: CorelDRAW X8 -->
<svg xmlns="http://www.w3.org/2000/svg" xml:space="preserve" width="66.0401mm" height="55.88mm" version="1.0" style="shape-rendering:geometricPrecision; text-rendering:geometricPrecision; image-rendering:optimizeQuality; fill-rule:evenodd; clip-rule:evenodd"
viewBox="0 0 3740 3165"
 xmlns:xlink="http://www.w3.org/1999/xlink">
 <defs>
  <style type="text/css">
   <![CDATA[
    .str0 {stroke:aqua;stroke-width:19.9767}
    .fil9 {fill:none}
    .fil3 {fill:#00A859}
    .fil2 {fill:#00AFEF}
    .fil0 {fill:#1A1A1A}
    .fil8 {fill:#ED3237}
    .fil6 {fill:#FFCC00}
    .fil1 {fill:white;fill-opacity:0.101961}
    .fil4 {fill:white;fill-opacity:0.149020}
    .fil5 {fill:white;fill-opacity:0.200000}
    .fil7 {fill:white;fill-opacity:0.301961}
   ]]>
  </style>
 </defs>
 <g id="Camada_x0020_1">
  <metadata id="CorelCorpID_0Corel-Layer"/>
  <rect class="fil0" width="3740" height="3165"/>
  <path class="fil1" d="M1753 3124l281 0c228,0 358,-210 289,-467l-249 -924 -353 0 132 491c36,134 -66,173 -131,173l-164 0 195 727z"/>
  <path class="fil1" d="M465 1563l-149 -552c-69,-256 61,-466 289,-466l281 0 195 726 -127 0c-73,0 -149,65 -120,173l32 119 -401 0z"/>
  <path class="fil1" d="M1581 3124l-281 0c-228,0 -471,-210 -540,-467l-249 -924 401 0 132 491c36,134 159,173 224,173l117 0 196 727z"/>
  <path class="fil1" d="M2028 1563l-149 -552c-94,-349 -354,-466 -587,-466l-234 0 196 726 175 0c73,0 185,65 214,173l32 119 353 0z"/>
  <path class="fil2" d="M1924 2887l281 0c228,0 357,-210 288,-467l-249 -924 -353 0 133 491c35,134 -67,173 -131,173l-165 0 196 727z"/>
  <path class="fil3" d="M635 1326l-148 -552c-70,-256 60,-466 288,-466l281 0 196 726 -128 0c-72,0 -149,65 -120,173l32 119 -401 0z"/>
  <path class="fil4" d="M1063 334l189 700 -128 0c-72,0 -149,65 -120,173l32 119 -286 0 -147 -545c-38,-141 -55,-270 6,-354 38,-53 110,-93 216,-93l238 0z"/>
  <path class="fil5" d="M1161 697c-284,73 -141,356 -488,345l-70 -261c-38,-141 -55,-270 6,-354 38,-53 110,-93 216,-93l238 0 98 363z"/>
  <path class="fil6" d="M1751 2887l-281 0c-228,0 -471,-210 -540,-467l-249 -924 401 0 133 491c35,134 159,173 224,173l116 0 196 727z"/>
  <path class="fil7" d="M795 1496l287 0 133 491c35,134 159,173 224,173l116 0 161 597 -171 0c-267,0 -453,-160 -523,-421l-227 -840z"/>
  <path class="fil8" d="M2198 1326l-148 -552c-95,-349 -355,-466 -587,-466l-234 0 195 726 176 0c39,0 68,5 103,27 43,26 91,75 110,146l32 119 353 0z"/>
  <path class="fil4" d="M1236 334l188 700 179 0c10,0 20,1 30,2 34,4 63,17 91,40 42,32 75,79 89,131l32 119 324 0 -139 -521c-38,-143 -105,-269 -214,-356 -96,-77 -232,-115 -340,-115l-240 0z"/>
  <path class="fil5" d="M1236 334l91 340c219,22 163,197 417,167 72,-9 87,15 103,74 24,93 99,175 255,162l-72 -272c-38,-143 -105,-269 -214,-356 -96,-77 -232,-115 -340,-115l-240 0z"/>
  <path class="fil7" d="M1888 2753l341 0c243,0 298,-151 238,-366l-250 -891 -326 0 133 492c5,21 7,37 7,53 -1,35 -14,62 -32,80 -30,30 -77,39 -113,39l-158 0 160 593z"/>
  <path class="fil9 str0" d="M2195 2658l281 0c227,0 357,-210 288,-466l-249 -924 -353 0 132 491c36,133 -66,173 -130,173l-165 0 196 726z"/>
  <path class="fil9 str0" d="M906 1098l-149 -552c-69,-257 61,-467 289,-467l281 0 196 727 -128 0c-72,0 -149,65 -120,173l32 119 -401 0z"/>
  <path class="fil9 str0" d="M2022 2658l-281 0c-228,0 -471,-210 -540,-466l-249 -924 401 0 132 491c36,133 160,173 224,173l117 0 196 726z"/>
  <path class="fil9 str0" d="M2469 1098l-149 -552c-94,-349 -354,-467 -586,-467l-235 0 196 727 176 0c72,0 184,65 213,173l32 119 353 0z"/>
 </g>
</svg>
