<?xml version="1.0" encoding="UTF-8"?>
<!DOCTYPE svg PUBLIC "-//W3C//DTD SVG 1.0//EN" "http://www.w3.org/TR/2001/REC-SVG-20010904/DTD/svg10.dtd">
<!-- Creator: CorelDRAW X8 -->
<svg xmlns="http://www.w3.org/2000/svg" xml:space="preserve" width="206.375mm" height="174.697mm" version="1.0" style="shape-rendering:geometricPrecision; text-rendering:geometricPrecision; image-rendering:optimizeQuality; fill-rule:evenodd; clip-rule:evenodd"
viewBox="0 0 1849 1565"
 xmlns:xlink="http://www.w3.org/1999/xlink">
 <defs>
  <style type="text/css">
   <![CDATA[
    .str3 {stroke:aqua;stroke-width:4.93834;stroke-opacity:0.400000}
    .str2 {stroke:lime;stroke-width:4.93834}
    .str1 {stroke:aqua;stroke-width:4.93834}
    .str5 {stroke:aqua;stroke-width:4.93834}
    .str4 {stroke:fuchsia;stroke-width:4.93834}
    .str0 {stroke:white;stroke-width:4.93834}
    .str6 {stroke:white;stroke-width:4.93834}
    .fil1 {fill:none}
    .fil8 {fill:none}
    .fil9 {fill:aqua}
    .fil4 {fill:#5C9AE0}
    .fil13 {fill:white}
    .fil7 {fill:lime;fill-rule:nonzero}
    .fil2 {fill:aqua;fill-rule:nonzero}
    .fil12 {fill:#4C9CFF;fill-rule:nonzero}
    .fil3 {fill:white;fill-rule:nonzero}
    .fil6 {fill:fuchsia;fill-opacity:0.501961}
    .fil5 {fill:white;fill-opacity:0.501961}
    .fil10 {fill:#2687FF;fill-opacity:0.600000}
    .fil11 {fill:white}
    .fil0 {fill:url(#id0)}
   ]]>
  </style>
  <radialGradient id="id0" gradientUnits="userSpaceOnUse" gradientTransform="matrix(3.27739 -0 -0 1.84353 42 -634)" cx="-18.4873" cy="751.188" r="926.24" fx="-18.4873" fy="751.188">
   <stop offset="0" style="stop-opacity:1; stop-color:#66084F"/>
   <stop offset="1" style="stop-opacity:1; stop-color:#263942"/>
  </radialGradient>
 </defs>
 <g id="Camada_x0020_1">
  <metadata id="CorelCorpID_0Corel-Layer"/>
  <path class="fil0" d="M0 0l1849 0 0 1565 -1849 0 0 -1565z"/>
  <path class="fil1 str0" d="M217 1183l529 214"/>
  <path class="fil1 str0" d="M23 1294l95 38c2,1 4,3 4,6 0,3 -1,5 -4,7l-110 63"/>
  <path class="fil1 str0" d="M155 1218l286 116c2,1 4,3 4,6 0,3 -1,5 -4,7l-147 85"/>
  <path class="fil2" d="M0 77l51 21c3,1 6,2 9,2 2,0 5,-1 8,-3l169 -97 10 0 -177 101c-3,2 -7,3 -10,4 -3,0 -7,-1 -11,-2l-49 -20 0 -6z"/>
  <path class="fil2" d="M339 34l-85 -34 13 0 74 30 -2 4z"/>
  <path class="fil2" d="M0 171c16,7 31,13 47,19 3,2 8,2 12,2 4,0 8,-1 11,-3l263 -151c3,-1 4,-2 5,-4 1,-1 1,-2 1,-5l0 -29 5 0 0 29c0,4 0,6 -2,8 -1,2 -3,4 -7,6l-263 150c-4,3 -8,4 -13,4 -5,0 -10,0 -14,-2l-45 -18 0 -6z"/>
  <path class="fil1 str1" d="M60 104l0 89"/>
  <path class="fil2" d="M1767 615l82 33 0 5 -84 -34 2 -4zm82 274l0 6 -273 156 -2 -4 275 -158zm-378 222l-27 16 -2 -4 27 -16 2 4zm-131 76l-66 37c-1,1 -1,2 -2,2 0,1 0,2 0,3 0,1 0,2 1,2 0,1 1,1 2,2l134 54 -2 5 -134 -55c-2,0 -3,-1 -4,-3 -1,-1 -2,-3 -2,-5 0,-2 0,-3 1,-5 1,-2 2,-3 4,-4l66 -38 2 5z"/>
  <path class="fil3" d="M1732 1012l117 47 0 6 -119 -48 2 -5z"/>
  <path class="fil2" d="M179 541l-179 103 0 -5 179 -103c253,101 505,204 757,306l0 37c-133,76 -266,153 -400,229 -178,-72 -357,-145 -536,-217l0 -5 536 217 395 -227 0 -30 -752 -305z"/>
  <path class="fil1 str0" d="M751 965l0 17 103 42c7,3 12,2 18,-2l406 -232c5,-3 4,-11 -1,-13l-265 -107c-5,-3 -6,-10 -1,-13l172 -99"/>
  <path class="fil2" d="M1302 0l-887 508 -204 -82 2 -5 202 82 877 -503 10 0z"/>
  <path class="fil3" d="M163 1055l539 219c3,1 5,1 7,1 2,0 4,-1 6,-2l104 -60 3 4 -105 60c-2,1 -5,2 -8,3 -3,0 -6,-1 -9,-2l-538 -218 1 -5zm962 -17l147 -85 2 5 -147 84 -2 -4z"/>
  <path class="fil3" d="M1053 0l13 0 47 19 -251 143 -2 -4 241 -139 -48 -19z"/>
  <path class="fil1 str1" d="M284 822l-97 55c-3,2 -4,4 -4,7 1,3 2,5 5,6l214 87c6,2 12,2 18,-1l96 -55c2,-2 4,-4 4,-7 -1,-3 -2,-5 -5,-6l-215 -87c-6,-2 -11,-2 -16,1z"/>
  <path class="fil1 str1" d="M1438 127l-257 147c-2,1 -3,4 -3,6 0,3 2,5 4,6l385 156c5,2 10,2 15,-1l259 -149c2,-1 4,-3 4,-6 -1,-3 -2,-5 -5,-6l-381 -155c-8,-3 -14,-3 -21,2z"/>
  <path class="fil1 str1" d="M1178 280l0 164c0,4 0,6 3,8l382 154c8,3 12,3 19,-1l257 -148c5,-2 6,-4 6,-9l0 -162"/>
  <path class="fil1 str0" d="M1025 995l-158 90c-2,1 -3,4 -3,7 0,2 2,5 4,6l85 34c4,2 10,1 14,-1l155 -89c5,-3 5,-11 -1,-13l-86 -35c-3,-1 -7,-1 -10,1z"/>
  <path class="fil1 str0" d="M1127 1094l-95 -39c-3,-1 -5,0 -8,1l-160 92"/>
  <path class="fil1 str0" d="M864 1090l0 59c0,6 1,7 7,9l83 33c4,2 7,2 11,0l157 -90c3,-2 4,-3 4,-7l0 -59"/>
  <path class="fil1 str1" d="M1386 586l-58 33 51 21 58 -33 -51 -21z"/>
  <path class="fil1 str1" d="M1477 623l-57 33 51 21 58 -33 -52 -21z"/>
  <path class="fil2" d="M49 277l-49 28 0 -6 47 -27c2,-1 4,-2 7,-2 2,0 4,0 7,1l165 67c2,1 4,2 5,4 1,1 1,3 1,5 0,2 0,3 -1,5 -1,1 -2,3 -3,4l-86 49c-2,1 -5,2 -7,2 -2,0 -5,0 -7,-1l-128 -52 0 -5 130 52c1,1 3,1 5,1 1,0 3,-1 5,-2l85 -49c1,0 2,-1 2,-1 0,-1 0,-2 0,-3 0,-1 0,-2 0,-2 -1,-1 -2,-2 -2,-2l-166 -67c-2,-1 -3,-1 -5,-1 -2,0 -3,1 -5,2z"/>
  <path class="fil2" d="M232 406l-173 -70c-1,0 -2,0 -3,0 -1,0 -2,0 -3,1l-53 30 0 -6 51 -29c1,-1 3,-1 5,-1 1,0 3,0 5,1l172 70 -1 4z"/>
  <path class="fil2" d="M0 408l128 52c2,1 5,1 7,1 2,0 4,-1 6,-2l93 -54c1,0 2,-1 2,-1 0,-1 1,-2 1,-3l0 -55 4 0 0 55c0,2 0,4 -1,5 -1,2 -2,3 -3,4l-94 53c-2,2 -5,3 -8,3 -3,0 -6,0 -9,-2l-126 -51 0 -5z"/>
  <path class="fil4" d="M200 497l722 293c9,3 17,-2 17,-11l0 -565c0,-16 -6,-25 -20,-31l-453 -183 -283 0 0 471c0,15 4,21 17,26z"/>
  <path class="fil3" d="M201 495l722 293c2,0 3,0 5,0 2,0 3,0 4,-1 2,-1 3,-2 3,-4 1,-1 1,-2 1,-4l0 -565c0,-8 -1,-13 -4,-18 -3,-4 -8,-8 -14,-11l-458 -185 13 0 447 181c7,3 12,7 16,12 4,6 5,12 5,21l0 565c0,2 0,4 -1,6 -1,3 -3,5 -5,6 -2,2 -4,2 -7,2 -2,0 -4,0 -7,-1l-722 -292c-7,-3 -12,-7 -15,-11 -2,-5 -3,-10 -3,-18l0 -471 5 0 0 471c0,7 0,12 3,15 2,4 6,6 12,9z"/>
  <path class="fil5" d="M149 233l281 114c10,4 22,0 22,-12l0 -335 -317 0 0 211c0,10 4,18 14,22z"/>
  <path class="fil6" d="M487 600l399 161c4,2 9,2 13,-1 4,-3 6,-7 6,-12l0 -305c0,-13 -4,-19 -16,-24l-395 -160c-9,-4 -20,2 -20,13l0 310c0,8 5,15 13,18z"/>
  <path class="fil1 str1" d="M1388 1058c34,-4 58,-29 55,-55 -3,-26 -33,-44 -66,-40 -34,5 -58,29 -55,55 3,26 33,44 66,40z"/>
  <path class="fil1 str1" d="M1322 1035l0 88 0 32c0,31 41,44 66,41 34,-4 58,-29 55,-55l0 -138"/>
  <path class="fil1 str1" d="M1520 983c34,-4 58,-29 55,-55 -3,-26 -33,-43 -66,-39 -34,4 -58,28 -55,54 3,26 33,44 66,40z"/>
  <path class="fil1 str1" d="M1454 960l0 120c0,31 41,45 66,41 34,-4 58,-28 55,-54l0 -139"/>
  <path class="fil1 str1" d="M1598 277l-58 33 52 21 58 -33 -52 -21z"/>
  <path class="fil1 str1" d="M1682 311l-57 34 51 20 58 -33 -52 -21z"/>
  <path class="fil1 str1" d="M1772 348l-57 33 51 21 58 -33 -52 -21z"/>
  <path class="fil2" d="M1849 397l-37 21 37 15 0 5 -48 -19 4 -3 44 -25 0 6z"/>
  <path class="fil1 str1" d="M1574 445l0 165"/>
  <path class="fil1 str0" d="M960 1135l0 59"/>
  <path class="fil1 str1" d="M135 406l0 59"/>
  <path class="fil1 str1" d="M829 764l-58 33 95 38 57 -33 -94 -38z"/>
  <path class="fil1 str1" d="M1503 660l293 119c3,1 4,3 5,6 0,2 -2,5 -4,6l-221 127m-118 68l-13 7m-119 69l-387 222c-3,1 -4,3 -4,6 0,3 2,5 5,6l464 188"/>
  <path class="fil1 str1" d="M767 930l0 26 -39 23 0 -26 39 -23z"/>
  <path class="fil1 str1" d="M854 1172l-58 33 26 11 26 10 57 -33 -51 -21z"/>
  <path class="fil1 str1" d="M1728 579l-46 26 62 25 46 -26 -62 -25z"/>
  <path class="fil1 str1" d="M1322 1096c0,30 41,44 66,41 34,-4 58,-29 55,-55"/>
  <path class="fil1 str1" d="M1454 1021c0,31 41,44 66,41 34,-4 58,-28 55,-55"/>
  <path class="fil7" d="M0 1097l158 -90c1,-1 1,-1 2,-2 0,-1 0,-2 0,-3 0,0 0,-1 -1,-2 0,-1 -1,-1 -2,-2l-157 -63 0 -5 159 64c2,1 3,2 4,3 1,2 2,3 2,5 0,2 0,4 -1,5 -1,2 -2,3 -4,4l-160 92 0 -6z"/>
  <path class="fil7" d="M0 1212l159 -91c0,-1 1,-1 1,-1 0,0 0,-1 0,-1l0 -117 5 0 0 117c0,1 0,3 -1,4 -1,1 -2,1 -3,2l-161 92 0 -5z"/>
  <path class="fil1 str1" d="M1198 460l0 26 364 147c13,6 16,3 28,-3l231 -133 0 -29"/>
  <path class="fil1 str1" d="M1823 467l-370 -150c-3,-1 -5,-1 -8,0l-247 142"/>
  <path class="fil1 str0" d="M1456 771l-278 -112c-6,-2 -6,-10 -1,-13l90 -52"/>
  <path class="fil1 str0" d="M1537 725l-167 96 146 59 168 -96 -147 -59z"/>
  <path class="fil1 str1" d="M1212 515l-58 34 51 20 58 -33 -51 -21z"/>
  <path class="fil1 str1" d="M1296 549l-58 34 51 20 58 -33 -51 -21z"/>
  <path class="fil1 str1" d="M176 1148l-38 22 59 24 39 -22 -60 -24z"/>
  <path class="fil1 str1" d="M115 1183l-38 22 59 24 39 -22 -60 -24z"/>
  <path class="fil1 str1" d="M50 1220l-39 23 60 24 38 -23 -59 -24z"/>
  <path class="fil2" d="M0 1301l3 1 34 -19 -37 -15 0 -5c16,6 32,13 48,19l-44 26 -4 -2 0 -5z"/>
  <path class="fil7" d="M160 1121l-160 -65 0 -6 162 66 -2 5z"/>
  <g id="_1055020160">
   <path class="fil1 str2" d="M115 615l-33 19c-2,1 -1,3 0,4l37 15c2,1 4,1 6,-1l32 -18c2,-1 2,-3 0,-4l-37 -15c-2,-1 -3,-1 -5,0z"/>
   <path class="fil1 str2" d="M174 639l-32 19c-2,1 -2,4 0,4l36 15c3,1 5,1 7,0l32 -19c2,-1 1,-3 0,-4l-37 -15c-2,-1 -4,-1 -6,0z"/>
   <path class="fil1 str2" d="M234 664l-32 18c-2,1 -2,4 0,5l36 14c2,1 5,1 7,0l32 -19c1,-1 1,-3 -1,-4l-36 -15c-2,0 -4,0 -6,1z"/>
   <path class="fil1 str2" d="M294 688l-33 18c-2,1 -1,4 0,5l37 14c2,1 4,1 6,0l32 -18c2,-1 2,-4 0,-5l-37 -15c-2,0 -3,0 -5,1z"/>
   <path class="fil1 str2" d="M353 712l-32 19c-2,1 -2,3 0,4l36 14c3,1 5,1 7,0l32 -18c2,-1 1,-4 0,-5l-37 -14c-2,-1 -4,-1 -6,0z"/>
   <path class="fil1 str2" d="M413 736l-32 19c-2,1 -2,3 0,4l36 15c2,1 5,0 7,-1l32 -18c1,-1 1,-4 -1,-4l-36 -15c-2,-1 -4,-1 -6,0z"/>
   <path class="fil1 str2" d="M473 760l-33 19c-2,1 -1,3 0,4l37 15c2,1 4,1 6,-1l32 -18c2,-1 2,-3 0,-4l-37 -15c-2,-1 -3,-1 -5,0z"/>
   <path class="fil1 str2" d="M532 784l-32 19c-2,1 -2,4 0,4l36 15c3,1 5,1 7,0l32 -19c2,-1 1,-3 0,-4l-37 -15c-2,-1 -4,-1 -6,0z"/>
   <path class="fil1 str2" d="M592 809l-32 18c-2,1 -2,4 0,4l36 15c2,1 5,1 7,0l32 -19c1,-1 1,-3 -1,-4l-36 -15c-2,0 -4,0 -6,1z"/>
   <path class="fil1 str2" d="M652 833l-33 18c-2,1 -1,4 0,5l37 14c2,1 4,1 6,0l32 -18c2,-1 2,-4 0,-5l-37 -15c-2,0 -3,0 -5,1z"/>
   <path class="fil1 str2" d="M711 857l-32 19c-2,1 -2,3 0,4l36 14c3,1 5,1 7,0l32 -18c2,-1 1,-4 0,-5l-37 -14c-2,-1 -4,-1 -6,0z"/>
  </g>
  <g id="_1055056800">
   <path class="fil1 str2" d="M52 651l-33 19c-1,1 -1,3 1,4l36 15c2,1 4,1 6,-1l32 -18c2,-1 2,-3 0,-4l-37 -15c-1,-1 -3,-1 -5,0z"/>
   <path class="fil1 str2" d="M112 675l-33 19c-2,1 -2,4 0,4l37 15c2,1 4,1 6,0l32 -19c2,-1 2,-3 0,-4l-37 -15c-2,-1 -4,-1 -5,0z"/>
   <path class="fil1 str2" d="M171 700l-32 18c-2,1 -2,4 0,5l36 14c2,1 5,1 7,0l32 -19c1,-1 1,-3 -1,-4l-36 -15c-2,0 -4,0 -6,1z"/>
   <path class="fil1 str2" d="M231 724l-33 18c-1,1 -1,4 1,5l36 14c2,1 4,1 6,0l32 -18c2,-1 2,-4 0,-5l-37 -15c-1,0 -3,0 -5,1z"/>
   <path class="fil1 str2" d="M291 748l-33 19c-2,1 -2,3 0,4l37 15c2,0 4,0 6,-1l32 -18c2,-1 2,-4 0,-5l-37 -14c-2,-1 -4,-1 -5,0z"/>
   <path class="fil1 str2" d="M350 772l-32 19c-2,1 -2,3 0,4l36 15c2,1 5,0 7,-1l32 -18c1,-1 1,-4 -1,-4l-36 -15c-2,-1 -4,-1 -6,0z"/>
   <path class="fil1 str2" d="M410 796l-33 19c-1,1 -1,3 1,4l36 15c2,1 4,1 6,-1l32 -18c2,-1 2,-3 0,-4l-37 -15c-1,-1 -3,-1 -5,0z"/>
   <path class="fil1 str2" d="M470 820l-33 19c-2,1 -2,4 0,4l37 15c2,1 4,1 6,0l32 -19c2,-1 2,-3 0,-4l-37 -15c-2,-1 -4,-1 -5,0z"/>
   <path class="fil1 str2" d="M529 845l-32 18c-2,1 -2,4 0,5l36 14c2,1 5,1 7,0l32 -19c1,-1 1,-3 -1,-4l-36 -15c-2,0 -4,0 -6,1z"/>
   <path class="fil1 str2" d="M589 869l-33 18c-1,1 -1,4 1,5l36 14c2,1 4,1 6,0l32 -18c2,-1 2,-4 0,-5l-37 -15c-1,0 -3,0 -5,1z"/>
   <path class="fil1 str2" d="M649 893l-33 19c-2,1 -2,3 0,4l37 15c2,0 4,0 6,-1l32 -18c2,-1 2,-4 0,-5l-37 -14c-2,-1 -4,-1 -5,0z"/>
  </g>
  <path class="fil2" d="M1793 355l56 -32 0 5 -54 31 -2 -4z"/>
  <path class="fil2" d="M1842 516l-40 23 47 18 0 6 -58 -24 4 -2 47 -27 7 3 0 6 -7 -3z"/>
  <path class="fil7" d="M0 1058l21 -12c4,-2 6,-5 7,-7 1,-2 1,-3 1,-5 0,-1 -1,-3 -2,-4 -2,-5 -8,-9 -15,-12 -3,-2 -8,-3 -12,-4l0 -5c5,1 10,3 14,4 8,4 15,9 18,14 1,2 2,5 2,7 0,2 0,4 -1,7 -2,3 -5,6 -9,9l-24 14 0 -6z"/>
  <path class="fil8 str3" d="M284 845l-97 56c-3,1 -4,4 -4,7 1,3 2,5 5,6l214 87c6,2 12,2 18,-1l96 -55c2,-2 4,-4 4,-7 -1,-3 -2,-5 -5,-6l-215 -87c-6,-3 -11,-3 -16,0z"/>
  <path class="fil9" d="M8 1425c14,0 25,-8 25,-17 0,-10 -11,-17 -25,-17 -3,0 -5,0 -8,1l0 32c3,1 5,1 8,1z"/>
  <path class="fil9" d="M500 1212c14,0 25,-8 25,-17 0,-10 -11,-18 -25,-18 -13,0 -24,8 -24,18 0,9 11,17 24,17z"/>
  <path class="fil9" d="M746 1414c14,0 25,-7 25,-17 0,-9 -11,-17 -25,-17 -13,0 -24,8 -24,17 0,10 11,17 24,17z"/>
  <path class="fil9" d="M1408 1307c13,0 24,-8 24,-18 0,-9 -11,-17 -24,-17 -14,0 -24,8 -24,17 0,10 10,18 24,18z"/>
  <path class="fil9" d="M1273 973c14,0 25,-8 25,-18 0,-9 -11,-17 -25,-17 -13,0 -24,8 -24,17 0,10 11,18 24,18z"/>
  <path class="fil1 str0" d="M1024 1176l-27 15 12 5 12 5 27 -15 -24 -10z"/>
  <path class="fil1 str0" d="M1074 1147l-27 16 12 5 12 5 27 -16 -24 -10z"/>
  <path class="fil1 str0" d="M1121 1121l-28 15 13 5 12 5 27 -16 -24 -9z"/>
  <path class="fil1 str0" d="M500 1239c35,0 64,-20 64,-44 0,-25 -29,-45 -64,-45 -35,0 -63,20 -63,45 0,24 28,44 63,44z"/>
  <path class="fil1 str1" d="M1678 1034c35,0 64,-19 64,-44 0,-25 -29,-45 -64,-45 -35,0 -63,20 -63,45 0,25 28,44 63,44z"/>
  <path class="fil1 str2" d="M1527 609l-113 65c-2,1 -3,3 -3,5 0,2 2,4 3,4l97 39c3,2 6,1 9,-1l113 -64c2,-1 2,-3 2,-5 0,-2 -1,-3 -3,-4l-96 -39c-3,-1 -6,-1 -9,0z"/>
  <path class="fil1 str2" d="M1634 786l-98 -40c-3,-2 -6,-1 -9,0l-115 66"/>
  <path class="fil1 str2" d="M1411 679l0 129c0,6 1,7 7,9l94 38c2,1 5,1 7,0l111 -64c4,-2 5,-2 5,-7l0 -132"/>
  <path class="fil1 str2" d="M1515 724l0 132"/>
  <path class="fil1 str1" d="M1843 455l-396 -161c-4,-1 -7,-1 -11,1l-258 148"/>
  <path class="fil3" d="M117 255l279 113c2,1 4,1 5,1 3,0 5,-1 7,-2 2,-1 3,-3 4,-5 1,-1 1,-3 1,-5l0 -357 5 0 0 357c0,3 0,5 -1,7 -1,3 -4,5 -6,7 -3,2 -6,3 -10,3 -2,0 -4,-1 -7,-2l-279 -113c-5,-2 -9,-5 -12,-9 -2,-4 -3,-10 -3,-15l0 -235 4 0 0 235c0,4 1,9 4,12 1,3 4,6 9,8z"/>
  <path class="fil1 str4" d="M454 623l399 161c4,2 9,2 13,-1 4,-3 7,-7 7,-12l0 -305c0,-13 -4,-19 -15,-24l-397 -160c-4,-2 -9,-2 -13,1 -4,3 -6,7 -6,12l0 310c0,8 4,15 12,18z"/>
  <path class="fil2" d="M619 224l253 103c2,1 3,1 5,1 2,0 4,-1 6,-2 2,-1 3,-2 4,-4 0,-2 1,-4 1,-6l0 -257c0,-3 -1,-6 -3,-8 -1,-3 -4,-5 -7,-6l-111 -45 14 0 99 40c4,2 7,4 9,8 3,3 4,7 4,11l0 257c0,3 -1,5 -2,7 -1,3 -3,6 -5,7 -3,2 -6,3 -9,3 -2,0 -5,-1 -7,-2l-253 -102c-5,-2 -8,-4 -10,-8 -2,-3 -3,-7 -3,-12l0 -209 5 0 0 209c0,4 0,7 2,10 1,2 4,4 8,5z"/>
  <g id="_1055505088">
   <path class="fil1 str2" d="M178 579l-33 19c-2,1 -2,3 0,4l37 15c2,1 4,1 6,-1l32 -18c2,-1 2,-4 0,-4l-37 -15c-2,-1 -4,-1 -5,0z"/>
   <path class="fil1 str2" d="M237 603l-32 19c-2,1 -2,4 0,4l36 15c2,1 5,1 7,-1l32 -18c1,-1 1,-3 -1,-4l-36 -15c-2,-1 -4,-1 -6,0z"/>
   <path class="fil1 str2" d="M297 628l-33 18c-1,1 -1,4 1,4l36 15c2,1 4,1 6,0l32 -19c2,-1 2,-3 0,-4l-37 -15c-1,-1 -3,0 -5,1z"/>
   <path class="fil1 str2" d="M357 652l-33 18c-2,1 -2,4 0,5l37 14c2,1 4,1 6,0l32 -18c2,-1 2,-4 0,-5l-37 -15c-2,0 -4,0 -5,1z"/>
   <path class="fil1 str2" d="M416 676l-32 19c-2,1 -2,3 0,4l36 14c2,1 5,1 7,0l32 -18c1,-1 1,-4 -1,-5l-36 -14c-2,-1 -4,-1 -6,0z"/>
   <path class="fil1 str2" d="M476 700l-33 19c-1,1 -1,3 1,4l36 15c2,1 4,0 6,-1l32 -18c2,-1 2,-4 0,-4l-37 -15c-1,-1 -3,-1 -5,0z"/>
   <path class="fil1 str2" d="M536 724l-33 19c-2,1 -2,3 0,4l37 15c2,1 4,1 6,-1l32 -18c2,-1 2,-4 0,-4l-37 -15c-2,-1 -4,-1 -5,0z"/>
   <path class="fil1 str2" d="M595 748l-32 19c-2,1 -2,4 0,4l36 15c2,1 5,1 7,-1l32 -18c1,-1 1,-3 -1,-4l-36 -15c-2,-1 -4,-1 -6,0z"/>
   <path class="fil1 str2" d="M655 773l-33 18c-1,1 -1,4 1,4l36 15c2,1 4,1 6,0l32 -19c2,-1 2,-3 0,-4l-37 -15c-1,-1 -3,0 -5,1z"/>
   <path class="fil1 str2" d="M715 797l-33 18c-2,1 -2,4 0,5l36 14c3,1 5,1 7,0l32 -19c2,0 2,-3 0,-4l-37 -15c-2,0 -4,0 -5,1z"/>
   <path class="fil1 str2" d="M774 821l-32 19c-2,1 -2,3 0,4l36 14c2,1 5,1 7,0l32 -18c1,-1 1,-4 -1,-5l-36 -14c-2,-1 -4,-1 -6,0z"/>
  </g>
  <path class="fil2" d="M0 869l25 10 0 -21 -25 -10 0 -5 30 12 0 31 -30 -12 0 -5z"/>
  <path class="fil1 str5" d="M476 1046c-6,0 -10,5 -10,11 0,5 4,10 10,10 6,0 11,-5 11,-10 0,-6 -5,-11 -11,-11z"/>
  <path class="fil1 str1" d="M868 872l0 27 -67 38 0 -27 67 -38z"/>
  <path class="fil2" d="M27 124l0 47 -27 -11 0 -5 22 9 0 -38 -22 -9 0 -5 27 11 0 1z"/>
  <path class="fil10" d="M589 251l253 102c4,2 9,2 13,0 4,-2 6,-6 6,-13l0 -255c0,-9 -3,-15 -11,-18l-165 -67 -108 0 0 233c0,9 3,14 12,18z"/>
  <path class="fil3" d="M812 481l-138 -56c-13,-5 -23,2 -25,12 -2,9 2,22 13,27l143 57c25,11 36,-28 7,-40z"/>
  <path class="fil11" d="M671 651l126 52c3,1 5,0 7,-1 2,-1 3,-3 3,-6l0 -129c0,-3 -2,-7 -5,-8l-127 -51c-3,-1 -5,-1 -7,0 -2,2 -3,4 -3,6l0 128c0,5 1,8 6,9z"/>
  <path class="fil12" d="M260 0l96 39c15,6 24,-3 25,-14 1,-9 -3,-19 -15,-25l-106 0z"/>
  <path class="fil12" d="M256 31l106 43c8,3 10,14 7,20 -2,6 -7,8 -13,6l-104 -43c-10,-4 -12,-12 -10,-18 1,-7 8,-11 14,-8z"/>
  <path class="fil13" d="M782 143c12,1 23,-8 23,-20 0,-13 -11,-25 -23,-26 -13,-1 -23,8 -23,20 0,13 10,25 23,26z"/>
  <path class="fil13" d="M809 164l0 19c0,13 -27,10 -44,1 -8,-4 -15,-11 -15,-16l0 -19c0,-12 17,-16 32,-12 14,4 27,15 27,27z"/>
  <path class="fil2" d="M1016 0l-25 14c-4,2 -8,3 -12,4 -5,0 -9,0 -12,-2l-41 -16 13 0 29 12c3,1 7,1 10,1 4,0 7,-1 10,-3l18 -10 10 0z"/>
  <path class="fil2" d="M983 0l0 16 -5 0 0 -16 5 0z"/>
  <path class="fil13" d="M378 532c5,0 9,-4 9,-9 0,-6 -4,-10 -9,-10 -5,0 -10,4 -10,10 0,5 5,9 10,9z"/>
  <path class="fil13" d="M339 517c6,0 10,-5 10,-10 0,-5 -4,-10 -10,-10 -5,0 -9,5 -9,10 0,5 4,10 9,10z"/>
  <path class="fil13" d="M301 501c5,0 9,-4 9,-10 0,-5 -4,-9 -9,-9 -5,0 -10,4 -10,9 0,6 5,10 10,10z"/>
  <path class="fil13" d="M262 486c6,0 10,-5 10,-10 0,-6 -4,-10 -10,-10 -5,0 -9,4 -9,10 0,5 4,10 9,10z"/>
  <path class="fil13" d="M903 225c6,0 10,-4 10,-10 0,-5 -4,-10 -10,-10 -5,0 -9,5 -9,10 0,6 4,10 9,10z"/>
  <path class="fil1 str6" d="M596 613c20,4 36,-9 36,-29 0,-20 -16,-41 -36,-45 -20,-5 -36,8 -36,29 0,20 16,40 36,45z"/>
  <path class="fil1 str6" d="M219 529c11,2 20,-5 20,-17 0,-11 -9,-22 -20,-25 -11,-3 -20,5 -20,16 0,12 9,23 20,26z"/>
 </g>
</svg>
