<?xml version="1.0" encoding="UTF-8"?>
<!DOCTYPE svg PUBLIC "-//W3C//DTD SVG 1.1//EN" "http://www.w3.org/Graphics/SVG/1.1/DTD/svg11.dtd">
<!-- Creator: CorelDRAW X8 -->
<svg xmlns="http://www.w3.org/2000/svg" xml:space="preserve" width="780px" height="660px" version="1.1" style="shape-rendering:geometricPrecision; text-rendering:geometricPrecision; image-rendering:optimizeQuality; fill-rule:evenodd; clip-rule:evenodd"
viewBox="0 0 222 188"
 xmlns:xlink="http://www.w3.org/1999/xlink">
 <defs>
  <style type="text/css">
   <![CDATA[
    .fil6 {fill:none}
    .fil1 {fill:#B2B2B2}
    .fil3 {fill:#E35A04}
    .fil0 {fill:#E8E8E8}
    .fil2 {fill:#F51119}
    .fil4 {fill:#F7660D}
    .fil8 {fill:#F7B10F}
    .fil9 {fill:#FAA00F}
    .fil7 {fill:#FAC278}
    .fil5 {fill:#FF9100}
    .fil10 {fill:#FFC300}
    .fil12 {fill:black;fill-rule:nonzero}
    .fil11 {fill:#B2B2B2;fill-rule:nonzero}
   ]]>
  </style>
 </defs>
 <g id="Camada_x0020_1">
  <metadata id="CorelCorpID_0Corel-Layer"/>
  <rect class="fil0" width="222" height="188"/>
  <polygon class="fil1" points="177,170 152,163 173,144 169,143 127,156 92,147 92,124 143,80 143,111 175,99 180,100 180,125 193,126 218,132 "/>
  <polygon class="fil2" points="135,81 133,58 92,95 92,147 123,119 123,91 "/>
  <polygon class="fil3" points="133,79 133,58 145,61 "/>
  <polygon class="fil4" points="145,61 123,91 127,92 145,87 "/>
  <polygon class="fil5" points="123,91 127,92 165,66 169,67 193,74 152,125 127,144 123,143 123,119 "/>
  <line class="fil6" x1="123" y1="113" x2="123" y2= "91" />
  <polygon class="fil7" points="123,143 127,144 127,92 123,91 "/>
  <polygon class="fil8" points="165,66 169,67 193,74 169,99 "/>
  <polygon class="fil9" points="165,102 169,99 169,67 165,66 "/>
  <polygon class="fil10" points="193,74 152,111 152,163 193,126 "/>
  <polygon class="fil11" points="188,153 198,166 188,175 197,177 202,172 207,179 216,181 206,168 216,159 210,155 208,157 202,162 196,155 193,152 "/>
  <path class="fil11" d="M171 171l4 1 0 3c0,3 1,6 5,8 2,0 4,1 6,1l0 -5c-1,0 -3,-1 -4,-1 -1,0 -1,-1 -1,-2l0 -3 4 1 0 -4 -4 -1 0 -18 -6 -2 0 18 -4 0 0 4z"/>
  <path class="fil12" d="M171 126l3 1 0 -3c0,-2 1,-4 4,-5 2,0 5,0 7,1l0 5c-1,0 -2,0 -3,0 -1,-1 -2,0 -2,1l0 2 5 1 0 5 -5 -1 0 18 -6 -1 0 -18 -3 -1 0 -5z"/>
  <polygon class="fil12" points="188,153 198,144 188,131 197,133 202,140 207,135 216,137 206,145 216,159 208,157 202,149 196,155 "/>
 </g>
</svg>
