<?xml version="1.0" encoding="UTF-8"?>
<!DOCTYPE svg PUBLIC "-//W3C//DTD SVG 1.0//EN" "http://www.w3.org/TR/2001/REC-SVG-20010904/DTD/svg10.dtd">
<!-- Creator: CorelDRAW X8 -->
<svg xmlns="http://www.w3.org/2000/svg" xml:space="preserve" width="780px" height="660px" version="1.0" style="shape-rendering:geometricPrecision; text-rendering:geometricPrecision; image-rendering:optimizeQuality; fill-rule:evenodd; clip-rule:evenodd"
viewBox="0 0 2009 1699"
 xmlns:xlink="http://www.w3.org/1999/xlink">
 <defs>
  <style type="text/css">
   <![CDATA[
    .str9 {stroke:black;stroke-width:8.04327}
    .str4 {stroke:black;stroke-width:8.04327}
    .str5 {stroke:#CFA58F;stroke-width:8.04327}
    .str7 {stroke:red;stroke-width:16.0896}
    .str11 {stroke:black;stroke-width:10.7254}
    .str6 {stroke:#2C57A6;stroke-width:10.7254}
    .str10 {stroke:#E82323;stroke-width:10.7254}
    .str3 {stroke:black;stroke-width:5.36117}
    .str0 {stroke:black;stroke-width:5.36117}
    .str12 {stroke:black;stroke-width:5.36117}
    .str2 {stroke:black;stroke-width:5.36117}
    .str8 {stroke:#CFA58F;stroke-width:5.36117}
    .str1 {stroke:#373435;stroke-width:2.31719}
    .fil5 {fill:none}
    .fil73 {fill:none;fill-rule:nonzero}
    .fil18 {fill:black}
    .fil17 {fill:black}
    .fil57 {fill:#097814}
    .fil56 {fill:#10961E}
    .fil30 {fill:#1A1A1A}
    .fil71 {fill:#207BB3}
    .fil61 {fill:#2488C7}
    .fil77 {fill:#262626}
    .fil70 {fill:#2876A6}
    .fil50 {fill:#333333}
    .fil59 {fill:#4EBA59}
    .fil33 {fill:#4F453B}
    .fil9 {fill:#513E99}
    .fil72 {fill:#57B5F0}
    .fil78 {fill:#58A3D1}
    .fil58 {fill:#58CC64}
    .fil29 {fill:#6B5E50}
    .fil35 {fill:#786E62}
    .fil11 {fill:#816DC7}
    .fil69 {fill:#999999}
    .fil10 {fill:#9999FF}
    .fil44 {fill:#9E8A48}
    .fil55 {fill:#A37F08}
    .fil8 {fill:#A968C7}
    .fil43 {fill:#B0984A}
    .fil25 {fill:#B37F1E}
    .fil45 {fill:#B3B3B3}
    .fil47 {fill:#BDA555}
    .fil52 {fill:#C29780}
    .fil42 {fill:#C7AB50}
    .fil15 {fill:#CCCCCC}
    .fil4 {fill:#CCCCFF}
    .fil7 {fill:#CCCCFF}
    .fil66 {fill:#CF2929}
    .fil31 {fill:#CFA006}
    .fil54 {fill:#CFA10B}
    .fil14 {fill:#CFA58F}
    .fil21 {fill:#CFAA95}
    .fil46 {fill:#D1B558}
    .fil36 {fill:#D9B29D}
    .fil41 {fill:#DEC676}
    .fil24 {fill:#E09F26}
    .fil26 {fill:#E36A19}
    .fil20 {fill:#E3BDA8}
    .fil63 {fill:#E63535}
    .fil67 {fill:#E6E6E6}
    .fil65 {fill:#E82323}
    .fil75 {fill:#EBDFD9}
    .fil76 {fill:#EBEBEB}
    .fil22 {fill:#ED151D}
    .fil64 {fill:#F03E3E}
    .fil68 {fill:#F06E6E}
    .fil13 {fill:#F09ED1}
    .fil32 {fill:#F2BC09}
    .fil49 {fill:#FCB0B0}
    .fil51 {fill:#FECE1B}
    .fil1 {fill:#FF3636}
    .fil19 {fill:#FF3D3D}
    .fil27 {fill:#FF791F}
    .fil62 {fill:#FF7DA2}
    .fil28 {fill:#FF9752}
    .fil34 {fill:#FFB482}
    .fil23 {fill:#FFB52B}
    .fil38 {fill:#FFBABA}
    .fil40 {fill:#FFBDE8}
    .fil53 {fill:#FFC300}
    .fil0 {fill:#FFCC00}
    .fil60 {fill:#FFDD6E}
    .fil12 {fill:#FFDECC}
    .fil48 {fill:white}
    .fil2 {fill:white}
    .fil74 {fill:black;fill-rule:nonzero}
    .fil16 {fill:black;fill-rule:nonzero}
    .fil6 {fill:#7EA6F1;fill-rule:nonzero}
    .fil3 {fill:#D4B699;fill-rule:nonzero}
    .fil39 {fill:#00CCFF;fill-opacity:0.400000}
    .fil37 {fill:#CFA58F}
   ]]>
  </style>
 </defs>
 <g id="Camada_x0020_1">
  <metadata id="CorelCorpID_0Corel-Layer"/>
  <path class="fil0" d="M0 1699l2008 0 0 -1699 -2008 0 0 1699z"/>
  <g id="_1060884736">
   <path class="fil1" d="M0 938l1153 -60 -1153 353 0 -293z"/>
   <path class="fil1" d="M0 1604l1153 -726 -785 821 -368 0 0 -95z"/>
   <path class="fil1" d="M740 1699l413 -821 -184 821 -229 0z"/>
   <path class="fil1" d="M1195 1699l-42 -821 251 821 -209 0z"/>
   <path class="fil1" d="M1678 1699l-525 -821 855 807 0 14 -330 0z"/>
   <path class="fil1" d="M2008 1301l-855 -423 855 185 0 238z"/>
   <path class="fil1" d="M2008 834l-855 44 855 -262 0 218z"/>
   <path class="fil1" d="M2008 338l-855 540 839 -878 16 0 0 338z"/>
   <path class="fil1" d="M1594 0l-441 878 196 -878 245 0z"/>
   <path class="fil1" d="M1107 0l46 878 -270 -878 224 0z"/>
   <path class="fil1" d="M591 0l562 878 -931 -878 369 0z"/>
   <path class="fil1" d="M0 308l1153 570 -1153 -250 0 -320z"/>
  </g>
  <path class="fil2 str0" d="M1641 729c-10,-119 -81,-224 -185,-291 2,-3 4,-6 4,-9 0,-7 -6,-13 -14,-13 -5,0 -10,3 -12,8 -71,-40 -155,-63 -245,-63 -94,0 -181,25 -253,69 -2,-5 -7,-8 -12,-8 -7,0 -13,6 -13,13 0,3 1,6 3,9 -98,67 -164,169 -173,285l-1 0 -33 396 968 0 -33 -396 -1 0z"/>
  <path class="fil3" d="M1171 374c0,-12 5,-21 9,-28 7,-13 10,-19 8,-23 -4,-7 -11,-4 -24,-4 -9,0 -18,-3 -25,-7 -6,-3 -11,-8 -14,-14 -3,-6 -5,-12 -5,-20 0,-8 3,-16 8,-25 -2,-4 -2,-8 -3,-12l0 -1c0,-3 0,-7 1,-10 0,-3 1,-6 2,-10 3,-11 10,-21 19,-28l0 -1 0 0c2,-17 16,-23 23,-38 4,-9 2,-19 -4,-27 -1,-2 -1,-3 0,-4 1,-1 2,-1 4,0 16,14 16,33 4,50 -2,3 -4,5 -6,8 6,-2 12,-3 18,-2 5,0 10,1 14,3 5,3 8,6 11,10 2,4 3,8 3,13 0,3 -1,5 -2,8l0 0 0 0 0 0c-1,1 -2,3 -3,5 -2,1 -3,2 -4,3 -8,6 -19,8 -32,5l0 0 0 0 0 0c-3,-1 -5,-1 -7,-2l0 0c-2,-1 -4,-3 -6,-4 -4,-3 -8,-6 -10,-10 -4,4 -7,10 -9,16 0,2 -1,4 -1,7 0,2 0,5 0,8 7,-6 15,-9 25,-10l0 0c2,0 4,0 6,0 6,0 13,1 18,4 7,3 11,7 14,14l0 0c2,5 3,9 2,14 -1,4 -3,8 -6,12 -3,3 -7,6 -11,8l0 0c-7,3 -15,4 -25,2l0 0 0 0c-3,0 -6,-1 -9,-2 -3,-1 -6,-3 -8,-4 -4,-3 -6,-4 -9,-7 -1,5 -1,11 0,17 5,13 16,16 28,15 6,0 15,-2 22,-2 15,-1 24,6 27,16 3,10 -2,23 -5,33 -3,8 -6,15 -6,26 -1,22 -34,21 -32,-2zm-25 -121c-1,1 -2,1 -2,2 2,4 5,8 9,11 2,1 4,2 6,2 2,1 4,2 7,2l0 0 0 0c6,1 12,1 16,-1l0 0c3,-1 5,-3 6,-4 2,-2 2,-4 3,-6 0,-2 0,-4 -1,-5l0 0c-1,-4 -4,-6 -7,-8 -3,-1 -8,-2 -12,-2 -1,0 -3,0 -5,0l0 0c-8,1 -15,4 -20,9zm21 -58c-2,1 -4,2 -5,3 1,4 3,7 6,10 1,0 2,1 4,2l0 0c1,0 3,1 4,1l0 0 0 0 0 0c9,2 16,1 20,-2 1,-1 1,-1 2,-2 0,0 1,-1 1,-1l0 0c0,-1 1,-2 1,-3 0,-2 -1,-3 -2,-5 0,-1 -2,-3 -4,-4 -3,-1 -6,-2 -9,-2 -5,0 -10,0 -14,2 -1,0 -2,0 -2,1 -1,0 -2,0 -2,0l0 0 0 0 0 0z"/>
  <path class="fil4 str0" d="M1641 822c-10,-132 -81,-249 -185,-323 2,-3 4,-6 4,-10 0,-8 -6,-15 -14,-15 -5,0 -10,4 -12,10 -71,-45 -155,-71 -245,-71 -94,0 -181,28 -253,77 -2,-6 -7,-9 -12,-9 -7,0 -13,6 -13,15 0,3 1,7 3,9 -98,75 -164,188 -173,317l-1 0 -13 149c23,-90 86,-179 187,-244 -2,-2 -3,-4 -3,-8 0,-6 6,-12 13,-12 5,0 10,3 12,7 72,-39 159,-63 253,-63 91,0 175,22 245,59 2,-5 7,-8 13,-8 7,0 13,5 13,12 0,3 -1,6 -3,8 91,52 179,167 198,251l-13 -151 -1 0z"/>
  <path class="fil5 str1" d="M1435 772l0 -349"/>
  <path class="fil6 str2" d="M1642 831l-1 0 -8 0 -1 -8 0 0c-1,-18 -4,-36 -7,-54 -4,-17 -9,-34 -15,-51 -29,-86 -86,-160 -159,-212l-7 -5 5 -8 0 0 0 0c0,0 1,0 1,0l0 -1 0 0c0,-1 1,-2 1,-3l0 0 0 0c0,-2 -1,-3 -2,-4 -1,-1 -2,-2 -3,-2l0 0 0 0 0 0 0 0c0,0 0,0 -1,1 0,0 0,0 0,0 -1,0 -2,1 -2,3l-4 10 -10 -6 0 0 0 0c-9,-6 -19,-12 -30,-17 -10,-5 -20,-10 -31,-15 -55,-24 -115,-37 -179,-37l0 0 0 0c-46,0 -90,7 -132,20 -7,2 -14,4 -20,7 -35,12 -67,28 -96,48l-9 6 -4 -10 0 0 0 0c-1,0 -1,-1 -1,-1 0,0 0,0 0,-1 -1,-1 -2,-1 -3,-1l0 0 0 0c-1,0 -2,0 -3,1 -1,1 -1,3 -1,5l0 0 0 0 0 0 0 0c0,0 0,1 0,2l0 0c0,1 1,1 1,2l5 7 -7 5 0 0 0 0c-13,10 -26,21 -38,33 -13,12 -24,24 -35,37 -55,67 -90,150 -96,241l0 8 -9 0 -1 0 0 -9 -8 0c7,-95 43,-182 101,-251 11,-14 23,-27 35,-39 11,-10 23,-20 35,-29 -1,-3 -1,-5 -1,-7l0 0 0 0 0 0 0 0c0,-7 2,-13 6,-17 4,-4 10,-7 16,-7l0 0 0 0c5,0 10,2 14,5 29,-18 60,-33 93,-45 7,-3 14,-5 21,-7 43,-14 89,-21 137,-21l0 0 0 0c66,0 129,14 186,39 11,5 22,10 33,15 8,4 16,9 24,14 1,-2 3,-3 4,-4 1,0 2,-1 3,-1 3,-1 5,-1 7,-1l0 0 0 0 0 0 0 0c7,0 12,2 16,7 4,4 6,10 6,16l1 0 0 0c0,2 -1,5 -1,7 73,54 129,129 159,216 6,18 11,35 15,54 4,18 6,37 8,56l0 0 -8 0 0 9z"/>
  <g id="_1060892096">
   <path class="fil7" d="M1911 206l0 -1 6 6c-2,-2 -4,-3 -6,-5zm96 96l0 498c-44,42 -99,73 -164,91 -38,9 -70,13 -109,12 -95,-2 -168,-35 -241,-111l486 -519 15 15c5,4 9,9 13,14z"/>
   <path class="fil8" d="M1963 266c17,16 31,32 44,48l0 -13c-9,-10 -20,-20 -30,-29 -5,-4 -9,-3 -14,-6zm44 500c-93,107 -257,151 -390,100 -42,-17 -82,-43 -118,-80 -4,5 -12,-4 -9,3 3,8 42,43 52,51 152,126 350,76 465,-33l0 -41z"/>
   <path class="fil9" d="M2007 849c-52,42 -115,71 -183,80 -12,2 -24,3 -36,3 -94,2 -195,-34 -284,-125l-104 -104 506 -501c2,2 4,3 6,5l-6 -6 4 -3 97 97 0 8c-6,-6 -11,-13 -18,-19l-15 -16c13,16 24,33 33,50l0 347c-24,44 -58,82 -99,112 -78,57 -183,86 -287,66 -46,-9 -89,-27 -128,-54 70,71 141,107 237,110 39,1 71,-3 109,-13 67,-18 124,-51 168,-95l0 58z"/>
   <path class="fil5" d="M2007 665c-24,44 -58,82 -99,112 -78,57 -183,86 -287,66 -46,-9 -89,-27 -128,-54 70,71 141,107 237,110 39,1 71,-3 109,-13 67,-18 124,-51 168,-95l0 58c-52,42 -115,71 -183,80 -12,2 -24,3 -36,3 -94,2 -195,-34 -284,-125l-104 -104 506 -501c2,2 4,3 6,5l-6 -6 4 -3 97 97 0 8c-6,-6 -11,-13 -18,-19l-15 -16c13,16 24,33 33,50"/>
   <path class="fil5 str3" d="M2005 669c-24,42 -57,78 -97,108 -78,57 -183,86 -287,66 -46,-9 -89,-27 -128,-54 70,71 141,107 237,110 39,1 71,-3 109,-13 66,-17 122,-49 166,-93m0 57c-51,42 -114,71 -181,79 -12,2 -24,3 -36,3 -94,2 -195,-34 -284,-125l-104 -104 506 -501c2,2 4,3 6,5l-6 -6 4 -3 95 95m-1 7c-5,-5 -9,-11 -15,-16l-15 -16c11,15 21,30 30,45"/>
   <path class="fil10 str2" d="M1673 817c5,5 24,4 23,-10l121 123c-5,11 -26,13 -31,2l-113 -115z"/>
   <path class="fil10" d="M1955 655c8,3 19,-5 13,-17l39 39 0 32 -52 -54z"/>
   <path class="fil5 str3" d="M2005 707l-50 -52c8,3 19,-5 13,-17l38 38"/>
   <path class="fil11" d="M1907 705c16,-15 29,-31 41,-48 1,-1 2,-3 3,-4 4,5 11,3 15,0 6,-6 5,-15 -2,-20 21,-35 35,-74 43,-113l0 -160c-2,0 -3,1 -4,1 -1,-5 -3,-10 -4,-14 -16,-55 -46,-106 -89,-149 -49,-50 -109,-83 -173,-97 0,-1 0,-3 0,-4 0,-6 -4,-10 -10,-10 -6,0 -11,4 -11,9 -110,-19 -228,14 -313,99 -120,119 -139,301 -56,440 -4,1 -6,5 -6,9 0,6 5,11 11,11 2,0 5,-1 7,-2 12,17 25,34 41,50 74,74 172,110 270,106 -1,2 0,7 5,10 8,4 23,0 21,-12 77,-9 152,-43 211,-102z"/>
   <path class="fil5 str2" d="M1890 688c131,-130 133,-342 3,-473 -130,-131 -342,-132 -473,-3 -131,130 -133,342 -3,473 130,131 342,133 473,3z"/>
   <path class="fil12 str4" d="M1871 669c121,-120 122,-314 2,-435 -119,-121 -313,-122 -434,-2 -121,119 -122,314 -3,434 120,121 314,122 435,3z"/>
   <ellipse class="fil13" cx="1436" cy="416" rx="55" ry="43"/>
   <ellipse class="fil13" cx="1867" cy="450" rx="57" ry="44"/>
   <path class="fil14" d="M1797 229c-19,-2 -39,7 -49,22 -3,4 -4,4 -3,0 7,-24 37,-33 54,-25 2,1 3,3 -2,3z"/>
   <path class="fil14" d="M1683 354c-11,-15 -32,-27 -56,-22 -4,1 -4,-1 0,-3 20,-11 51,-1 59,24 1,3 -1,3 -3,1z"/>
   <path class="fil5 str5" d="M1643 145c-1,12 -16,17 -30,25 -29,17 -30,43 -15,59 15,17 47,22 67,7 14,-11 17,-32 2,-45 -16,-13 -38,-11 -49,-1 -11,9 -13,24 0,33 11,7 31,4 34,-11"/>
   <path class="fil14" d="M1585 237c0,2 -1,4 -3,1 -6,-16 -23,-27 -37,-30 -4,-1 -4,-3 0,-3 19,-1 40,13 40,32z"/>
   <path class="fil14" d="M1579 223c-6,-20 -19,-29 -36,-34 -11,-3 -15,-7 2,-5 21,3 35,17 37,39 1,6 -1,7 -3,0z"/>
   <path class="fil2 str6" d="M1629 454c20,9 33,8 53,-3 98,-53 170,93 64,155 -52,31 -137,31 -184,-10 -80,-68 -20,-182 67,-142z"/>
   <path class="fil15" d="M1633 590c12,6 38,7 51,0 9,-5 8,-13 -7,-17 -14,-4 -37,-3 -46,3 -5,4 -7,10 2,14z"/>
   <path class="fil14" d="M1645 682c-2,66 73,72 116,39 18,-13 7,-11 -6,-4 -33,20 -93,24 -105,-25 -1,-4 -2,-8 -5,-10z"/>
   <path class="fil16" d="M1692 493c-45,6 -99,6 -140,-16 -37,-20 -49,-57 -50,-96 0,-2 1,-3 1,0 3,16 4,29 12,47 7,16 19,31 40,43 40,22 92,22 136,15 37,-5 77,-11 99,-46 4,-6 7,-13 10,-21 1,-3 4,-5 3,1 -2,8 -5,15 -8,22 -7,13 -19,24 -33,32 -21,11 -46,15 -70,19z"/>
   <path class="fil17" d="M1785 416c4,-5 11,-8 18,-8 5,0 10,3 13,9 3,7 0,16 -8,10 -4,-3 -8,-1 -9,1 -1,0 -1,-3 -1,-5 0,-5 -5,-9 -13,-7z"/>
   <path class="fil2 str4" d="M1567 355c-25,-16 -68,-19 -99,1 -7,4 -13,-1 -18,-9 -19,-29 -17,-72 7,-99 29,-34 85,-33 112,4 21,31 14,72 -2,103z"/>
   <path class="fil18" d="M1515 298l22 -6 -21 -14c14,-44 58,-38 66,3 3,15 0,33 -9,47 -16,26 -61,20 -58,-30z"/>
   <path class="fil19 str2" d="M1606 327c26,-6 48,3 61,19 10,12 14,32 11,51 -14,71 -126,73 -146,7 -8,-26 0,-58 26,-73 14,-7 30,-10 48,-4z"/>
   <path class="fil17" d="M1504 394c-1,-12 -8,-15 -19,-10 4,-7 16,-12 24,-10 4,2 4,5 4,8 -2,5 -8,9 -9,12z"/>
   <path class="fil2 str2" d="M1610 496c-1,-5 76,-5 75,-1 5,12 3,21 -3,26 -7,5 -18,5 -29,3 -3,0 -6,0 -9,1 -13,2 -24,1 -30,-4 -7,-5 -8,-16 -4,-25z"/>
   <path class="fil2 str4" d="M1892 395c-26,-16 -69,-19 -99,1 -6,4 -13,-1 -19,-9 -20,-29 -18,-72 4,-99 28,-34 84,-33 112,4 23,31 17,72 2,103z"/>
   <path class="fil18" d="M1838 338l22 -6 -20 -14c14,-44 57,-37 66,3 3,15 -1,34 -10,47 -16,26 -60,20 -58,-30z"/>
   <path class="fil5 str3" d="M2006 360c-1,0 -2,1 -3,1 -1,-5 -3,-10 -4,-14 -16,-55 -46,-106 -89,-149 -49,-50 -109,-83 -173,-97 0,-1 0,-3 0,-4 0,-6 -4,-10 -10,-10 -6,0 -11,4 -11,9 -110,-19 -228,14 -313,99 -120,119 -139,301 -56,440 -4,1 -6,5 -6,9 0,6 5,11 11,11 2,0 5,-1 7,-2 12,17 25,34 41,50 74,74 172,110 270,106 -1,2 0,7 5,10 8,4 23,0 21,-12 77,-9 152,-43 211,-102 16,-15 29,-31 41,-48 1,-1 2,-3 3,-4 4,5 11,3 15,0 6,-6 5,-15 -2,-20 19,-33 33,-68 41,-104"/>
   <path class="fil12" d="M1914 204c14,-24 44,-58 84,-66 8,-2 -15,8 -8,6 5,-1 11,-2 17,-3l0 135c-12,0 -24,3 -32,11 -13,10 -69,-68 -61,-83z"/>
   <path class="fil20" d="M2007 260c-3,0 -6,1 -8,2 -12,5 -26,9 -36,2 -3,-2 -6,-5 -1,-9 7,-4 5,-9 1,-10 -13,-5 -13,-13 -7,-21 13,-15 31,-23 51,-24l0 60z"/>
   <path class="fil21" d="M1967 248c6,-1 10,-4 14,-8 3,-4 8,-5 15,-5 2,-1 6,0 11,0l0 -36c-6,1 -11,2 -16,3 -16,5 -29,13 -36,24 -4,6 -4,10 -2,13 2,3 6,4 9,6 2,0 4,1 5,3z"/>
   <path class="fil12 str2" d="M1458 154c-4,-13 -20,-31 -24,-44 -1,-2 2,10 1,8 -7,-8 -20,-15 -30,-18 -21,-6 -42,-3 -55,-5 -4,0 12,3 8,3 -43,1 -87,13 -110,6 -2,73 31,112 107,112 8,0 17,1 24,6 6,4 23,-15 43,-34 17,-16 38,-30 36,-34z"/>
   <path class="fil20" d="M1392 189c-4,1 -7,3 -6,10 2,12 -7,9 -14,5 -10,-7 -22,-6 -33,-5 -15,1 -24,-3 -30,-9 -11,-14 -4,-36 23,-39 0,0 0,0 0,-1 -2,0 -7,-2 -4,-1 9,1 23,-1 27,-1 21,-2 40,0 51,23 7,13 -3,15 -14,18z"/>
   <path class="fil21" d="M1387 193c-8,0 -11,-5 -17,-9 -4,-4 -7,-5 -11,-6 -10,-2 -18,-4 -23,-8 -8,-7 -3,-17 20,-21 18,-4 39,0 48,18 0,1 1,2 1,3 4,8 1,15 -8,18 -4,2 -9,3 -10,5z"/>
   <path class="fil22" d="M1483 181l59 -8c13,-2 14,-10 12,-19l-3 -18c-1,-8 -8,-13 -19,-11l-54 11c-9,3 -11,6 -9,22 2,13 2,24 14,23z"/>
   <path class="fil22" d="M1855 205l-55 -9c-16,-4 -16,-11 -13,-24 0,-1 4,-15 5,-16 2,-8 8,-13 19,-10l55 15c8,3 9,8 6,23 -1,11 1,25 -17,21z"/>
   <g>
    <path class="fil17" d="M1462 153c-9,24 -10,68 35,72 -49,9 -59,-42 -35,-72z"/>
    <path class="fil17" d="M1481 164c-11,35 1,52 16,61 -23,-2 -38,-31 -16,-61z"/>
    <path class="fil17" d="M1517 228c-8,-7 -16,-25 2,-47 -20,10 -23,39 -2,47z"/>
    <path class="fil5 str4" d="M1500 224c-13,-8 -17,-28 -6,-41"/>
    <path class="fil17" d="M1475 231c-15,13 -42,3 -46,-15 12,16 33,18 46,15z"/>
    <path class="fil17" d="M1513 224c-5,-8 -1,-24 13,-24 -8,4 -13,11 -13,24z"/>
    <path class="fil5 str4" d="M1480 228c-21,2 -42,-12 -44,-35"/>
   </g>
   <path class="fil5 str3" d="M2007 276c-12,-1 -24,3 -32,11 -13,10 -69,-68 -61,-83 14,-24 44,-58 84,-66 8,-2 -15,8 -8,6 4,-1 9,-2 13,-3"/>
   <g>
    <path class="fil17" d="M1794 194c-10,23 -13,67 33,72 -50,8 -58,-44 -33,-72z"/>
    <path class="fil17" d="M1812 205c-12,35 0,52 15,61 -23,-3 -38,-32 -15,-61z"/>
    <path class="fil17" d="M1845 269c-8,-7 -16,-25 4,-47 -21,10 -24,39 -4,47z"/>
    <path class="fil5 str4" d="M1830 265c-13,-8 -16,-28 -5,-41"/>
    <path class="fil5 str4" d="M1809 269c-20,1 -41,-14 -43,-37"/>
    <path class="fil17" d="M1804 272c-15,12 -42,2 -45,-17 12,17 33,19 45,17z"/>
    <path class="fil17" d="M1840 266c-6,-8 -1,-25 13,-24 -8,4 -13,10 -13,24z"/>
   </g>
  </g>
  <g id="_1060907488">
   <path class="fil23" d="M729 897c-203,118 -476,31 -549,-201 -8,-26 -14,-55 -17,-87 -8,-74 0,-147 30,-221 -31,36 -51,76 -65,117 -41,121 -32,262 52,364 23,28 52,54 83,74 36,23 71,35 112,44 63,14 134,10 200,-10 44,-13 119,-51 154,-80z"/>
   <path class="fil24" d="M156 592l-41 33 -2 48 46 -41 -3 -40z"/>
   <path class="fil25" d="M156 592l-41 33 -3 21 46 -41 -2 -13z"/>
   <path class="fil2" d="M178 427l615 396 -127 103 -25 17 -11 -2 -50 9 -110 32 -127 -79 -175 -78 -13 -199 -4 -53 -21 -29 48 -117z"/>
   <path class="fil26" d="M210 382l87 -65c-23,6 -133,66 -179,196 -22,64 -32,144 -20,210 12,70 42,127 92,181 153,165 487,132 605,-84 -39,53 -79,87 -134,114 -86,41 -178,59 -272,42 -42,-8 -82,-22 -116,-44 -30,-20 -58,-45 -80,-72 -75,-92 -85,-207 -62,-319 12,-56 35,-112 79,-159z"/>
   <path class="fil27 str2" d="M204 368l71 -72c194,189 369,361 539,527l-71 73c-64,60 -129,98 -209,113 -75,14 -158,10 -232,-21 -51,-21 -97,-57 -135,-103 -30,-36 -52,-79 -65,-124 -14,-46 -17,-80 -15,-127 5,-91 42,-185 117,-266zm525 533c-25,14 -49,25 -75,34 -72,23 -175,24 -247,-2 -30,-10 -68,-30 -94,-48 -17,-12 -34,-26 -49,-41 -46,-44 -75,-91 -93,-147 -8,-26 -15,-56 -18,-87 -7,-74 4,-154 40,-219 -31,37 -51,76 -65,117 -41,122 -32,262 52,364 23,28 52,54 83,75 36,22 71,35 112,44 63,13 134,10 200,-10 44,-14 119,-51 154,-80z"/>
   <path class="fil28 str2" d="M599 933c-83,12 -171,-5 -243,-47 -3,3 -7,5 -11,6 -9,1 -19,-6 -17,-16 0,-2 1,-4 2,-6 -17,-12 -34,-26 -49,-41 -54,-53 -89,-118 -104,-186 -4,-17 -7,-37 -8,-56 -14,1 -22,-12 -17,-24 3,-4 7,-8 16,-9 0,-12 0,-22 1,-34 9,-81 44,-161 106,-224 14,-15 29,-27 44,-39 -2,-2 -3,-5 -3,-8 0,-6 5,-12 12,-12 4,0 8,3 10,7 107,-70 241,-80 356,-31 2,-5 6,-8 12,-8 6,0 11,5 11,12 0,2 0,4 -1,6 33,17 64,39 92,67 149,146 152,385 6,533 -38,40 -83,69 -131,87 -18,7 -35,13 -53,17 4,26 -33,23 -31,6z"/>
   <path class="fil5 str2" d="M300 806c-139,-135 -141,-357 -6,-495 136,-138 357,-141 495,-5 138,135 140,357 5,495 -135,138 -356,140 -494,5z"/>
   <path class="fil12 str4" d="M319 783c-127,-125 -130,-329 -5,-456 125,-128 329,-130 456,-5 128,125 130,329 5,456 -125,128 -329,130 -456,5z"/>
   <path class="fil20" d="M725 287c-119,-73 -253,-76 -370,7 -12,8 -6,13 2,13 43,4 73,0 104,-6 60,-13 91,-34 152,-13 28,10 91,28 112,-1z"/>
   <path class="fil29 str2" d="M393 243c-46,21 -74,21 -85,-7 -13,-34 1,-91 64,-121 6,-3 13,-7 16,-13 11,-21 25,-34 39,-42 26,-14 63,-14 88,1 25,15 41,41 41,67 0,8 0,3 10,2 31,-5 54,9 61,31 8,26 -3,50 -62,48 -68,-7 -103,1 -172,34z"/>
   <path class="fil30" d="M378 191c37,-34 110,-42 139,-41 10,1 17,4 21,7 5,6 2,13 -11,13 -65,3 -84,9 -136,36 -10,5 -17,7 -20,5 -4,-3 -3,-11 7,-20z"/>
   <path class="fil31" d="M374 228c6,-2 9,-10 6,-17 -2,-8 -9,-13 -15,-11l-7 2c-1,3 -2,12 0,15l9 13 7 -2z"/>
   <path class="fil32" d="M367 230c6,-1 9,-9 7,-17 -3,-8 -10,-13 -16,-11 -6,2 -9,10 -6,18 2,7 9,12 15,10z"/>
   <path class="fil33" d="M561 208c-75,-2 -121,19 -154,29 -18,6 -32,11 -38,7 -5,-3 -3,-16 17,-34 67,-62 159,-47 192,-27 21,12 19,26 -17,25z"/>
   <path class="fil14" d="M537 647c7,0 19,0 28,0 19,1 22,12 16,21 -6,10 -20,13 -32,13 -10,0 -18,-3 -24,-7 -16,-10 -13,-27 12,-27z"/>
   <path class="fil34" d="M354 888l-21 18 -33 24 -8 13 -25 22c-9,9 -21,6 -26,-1 -4,-4 -4,-12 1,-16l24 -22 26 -15 16 -21 22 -20c-8,14 8,27 24,18z"/>
   <path class="fil34" d="M168 587l-16 14 -20 12 -12 17 -34 30c-10,-6 -13,-27 -1,-38l22 -20 18 -8 12 -18 18 -17c-3,4 -4,10 -3,15 1,7 7,12 16,13z"/>
   <path class="fil34" d="M626 942l-15 13 -24 16 -17 20 -19 17c-2,2 -3,3 -5,4 -1,1 -2,2 -3,3 -5,3 -10,5 -16,5 -6,0 -16,-2 -20,-7l32 -27 18 -8 23 -28 19 -17c1,12 17,15 27,9z"/>
   <path class="fil35 str2" d="M451 166c-7,9 -15,11 -24,14 -15,5 -33,14 -45,25 -5,6 -4,9 12,9 20,-1 44,-12 64,-17 43,-9 70,-7 113,-7 145,0 123,-80 86,-83 -19,-1 -40,0 -59,0 -54,-1 -102,6 -147,59z"/>
   <path class="fil36 str2" d="M760 272c-1,-39 27,-65 63,-56 36,10 36,-43 1,-69 -52,-38 -145,2 -109,92 6,15 28,30 45,33z"/>
   <path class="fil12 str2" d="M707 229c-30,-76 34,-136 121,-104 10,4 19,3 29,1 45,-10 60,20 60,50 2,55 -34,83 -43,128 -52,-19 -62,-58 -86,-109 -10,-21 -24,-43 -50,-44 -25,15 -29,52 -23,80 4,20 -5,6 -8,-2z"/>
   <path class="fil36 str2" d="M264 308c1,-38 -27,-65 -63,-55 -36,9 -36,-44 -1,-69 52,-39 145,2 109,92 -6,14 -28,29 -45,32z"/>
   <path class="fil12 str2" d="M317 265c30,-75 -34,-136 -121,-103 -10,4 -19,2 -29,0 -40,-9 -64,20 -64,53 -1,25 12,51 36,75 17,17 35,34 43,52 24,-19 38,-48 48,-78 12,-33 22,-66 56,-76 25,14 29,51 23,80 -4,19 5,5 8,-3z"/>
   <path class="fil17" d="M502 489c31,43 78,47 110,11 36,-43 92,-11 82,39 -10,51 -61,81 -115,87 -64,8 -145,-21 -168,-86 -23,-65 49,-110 91,-51z"/>
   <path class="fil14" d="M588 361c-13,-33 -65,-28 -78,0 19,-19 58,-26 78,0z"/>
   <path class="fil14" d="M404 297c30,-13 72,3 79,35 1,3 1,6 -2,1 -14,-27 -46,-38 -76,-33 -6,2 -9,0 -1,-3z"/>
   <path class="fil37" d="M653 336c-3,4 -3,4 -3,2 2,-11 9,-21 19,-27 11,-7 26,-9 39,-5 5,2 1,5 -7,4 -17,-1 -36,6 -48,26z"/>
   <path class="fil2" d="M501 504c-4,3 -5,4 -7,6 -15,16 15,39 26,23 1,-1 3,-5 3,-6 2,-3 3,-6 0,-7 -5,-3 -12,-9 -17,-15 -2,-1 -4,-2 -5,-1z"/>
   <path class="fil2" d="M538 527c9,2 18,4 26,4 2,0 4,1 4,3 0,3 0,7 0,9 1,10 -7,15 -16,16 -11,1 -23,-6 -22,-18 1,-4 2,-9 3,-12 2,-3 3,-3 5,-2z"/>
   <path class="fil2" d="M578 535c0,3 1,7 2,9 4,12 24,11 30,2 4,-6 4,-14 -4,-23 -2,-2 -3,-3 -6,-1 -6,4 -13,6 -20,8 -3,1 -3,3 -2,5z"/>
   <path class="fil2" d="M444 574c-3,-1 -12,-11 -16,-18 -2,-4 -2,-5 0,-7 17,-17 43,10 22,26 -1,1 -3,2 -6,-1z"/>
   <path class="fil2" d="M626 504c0,-1 0,-2 0,-4 2,-4 7,-7 10,-9 3,-1 5,-1 7,1 6,5 6,11 3,15 -5,7 -17,7 -20,-3z"/>
   <path class="fil2" d="M313 885c-3,11 10,25 25,18l-53 46c-12,6 -27,-3 -25,-17l53 -47z"/>
   <path class="fil2" d="M138 574c-1,2 -2,4 -2,5 -2,6 0,12 5,16 3,3 7,5 11,6l-47 43c-8,-7 -12,-29 2,-42l31 -28z"/>
   <path class="fil2" d="M580 950c5,10 24,11 33,3l-43 38c-9,7 -27,4 -31,-5l41 -36z"/>
   <path class="fil17" d="M646 374c14,-48 88,-53 109,-7 -24,-31 -85,-34 -109,7z"/>
   <path class="fil30" d="M378 302c-15,6 -53,20 -59,23 -10,4 -18,6 -23,-4 -1,-1 -9,-18 -12,-24 -3,-8 -1,-16 9,-20 15,-7 53,-24 63,-29 11,-4 22,6 28,19 6,13 8,29 -6,35z"/>
   <path class="fil30" d="M721 304c14,6 49,21 55,24 11,4 19,-7 24,-20 3,-10 5,-21 -3,-26 -15,-7 -43,-22 -55,-28 -4,-2 -10,-3 -14,-1 -4,2 -7,6 -8,9 -1,2 -6,13 -7,16 -4,9 -7,20 8,26z"/>
   <path class="fil17" d="M472 370c-14,-48 -91,-52 -115,-7 26,-31 91,-32 115,7z"/>
   <path class="fil38" d="M763 413c-10,-5 -27,-8 -55,-2 -16,4 -17,-6 -12,-13 15,-22 57,-24 77,-4 12,12 21,35 -10,19z"/>
   <path class="fil38" d="M354 418c9,-7 24,-18 57,-11 27,5 25,-14 8,-24 -25,-15 -71,-9 -86,23 -2,5 -2,10 -1,13 2,6 11,7 22,-1z"/>
   <path class="fil14" d="M598 772c4,-7 9,-13 19,-15 -3,38 -32,65 -70,72 -30,6 -66,-1 -90,-26 -12,-13 -17,-38 14,-19 7,5 13,8 19,11 26,13 57,16 83,1 9,-5 18,-13 25,-24z"/>
   <path class="fil39" d="M420 405c-12,0 -37,0 -47,0 -33,-1 -54,-23 -65,-51 -14,-34 -13,-78 -1,-102 10,-19 29,-30 61,-32 17,0 44,-1 56,-1 40,-1 72,6 77,65 2,18 0,46 -4,66 -7,33 -26,54 -77,55z"/>
   <path class="fil5 str7" d="M502 311c28,-31 90,-35 121,0"/>
   <path class="fil39" d="M701 405c12,0 37,0 46,0 32,-1 52,-23 63,-51 13,-34 12,-78 0,-102 -9,-19 -27,-30 -58,-32 -17,0 -43,-1 -54,-1 -38,-1 -70,6 -74,65 -2,18 0,46 4,66 7,33 25,54 73,55z"/>
   <path class="fil5 str7" d="M420 405c-12,0 -37,0 -47,0 -33,-1 -54,-23 -65,-51 -14,-34 -13,-78 -1,-102 10,-19 29,-30 61,-32 17,0 44,-1 56,-1 40,-1 72,6 77,65 2,18 0,46 -4,66 -7,33 -26,54 -77,55z"/>
   <path class="fil5 str7" d="M701 405c12,0 37,0 46,0 32,-1 52,-23 63,-51 13,-34 12,-78 0,-102 -9,-19 -27,-30 -58,-32 -17,0 -43,-1 -54,-1 -38,-1 -70,6 -74,65 -2,18 0,46 4,66 7,33 25,54 73,55z"/>
   <path class="fil2" d="M412 249c9,-2 26,-2 38,1 5,1 9,3 12,6 6,6 8,18 9,27 0,10 -6,15 -13,6 -2,-3 -4,-7 -5,-9 -4,-7 -10,-8 -16,-9 -11,-1 -21,-3 -26,-9 -5,-4 -10,-12 1,-13z"/>
   <path class="fil2" d="M401 379c28,3 56,-6 61,-33 1,-7 1,-13 -3,-13 -13,2 -16,13 -18,21 -4,22 -24,24 -39,24 -8,-1 -9,1 -1,1z"/>
   <path class="fil2" d="M780 311c2,1 3,2 3,-1 2,-13 2,-31 -4,-44 -4,-6 -9,-11 -18,-13 -9,-3 -21,-3 -27,-3 -12,1 -15,19 18,19 10,0 22,2 22,17 0,6 -1,14 6,25z"/>
   <path class="fil2" d="M707 370c-22,3 -40,-4 -44,-27 -2,-10 -7,-11 -7,2 0,27 25,40 51,33 9,-2 8,-9 0,-8z"/>
   <path class="fil5 str8" d="M182 167c-6,5 -11,17 -11,28"/>
   <path class="fil5 str8" d="M840 131c14,9 15,22 15,29"/>
   <path class="fil5 str2" d="M354 888l-21 18 -33 24 -8 13 -25 22c-9,9 -21,6 -26,-1 -4,-4 -4,-12 1,-16l24 -22 26 -15 16 -21 22 -20c-8,14 8,27 24,18z"/>
   <path class="fil5 str2" d="M168 587l-16 14 -20 12 -12 17 -34 30c-10,-6 -13,-27 -1,-38l22 -20 18 -8 12 -18 18 -17c-3,4 -4,10 -3,15 1,7 7,12 16,13z"/>
   <path class="fil5 str2" d="M626 942l-15 13 -24 16 -17 20 -19 17c-2,2 -3,3 -5,4 -1,1 -2,2 -3,3 -5,3 -10,5 -16,5 -6,0 -16,-2 -20,-7l32 -27 18 -8 23 -28 19 -17c1,12 17,15 27,9z"/>
   <path class="fil40 str2" d="M552 474c-36,-4 -62,-36 -57,-71 5,-35 39,-60 75,-55 37,5 62,37 57,72 -5,35 -38,59 -75,54z"/>
   <ellipse class="fil18" transform="matrix(-0.320096 0.0136999 0.0128125 0.264278 535.98 386.925)" rx="43" ry="67"/>
   <ellipse class="fil18" transform="matrix(-0.315444 -0.0560759 -0.0448312 0.260762 590.564 388.785)" rx="43" ry="67"/>
  </g>
  <g id="_1060858560">
   <path class="fil41 str2" d="M249 494c77,-6 60,-83 73,-142 -10,0 -34,-1 -44,-2 -5,0 2,-8 -2,-5 -9,4 -13,3 -37,8 -34,6 -80,23 -72,87 17,20 63,50 82,54z"/>
   <path class="fil42" d="M87 1038c164,0 287,-142 274,-316 -13,-175 -156,-316 -321,-316 -13,0 -27,1 -40,3l0 615c28,9 57,14 87,14z"/>
   <circle class="fil43" transform="matrix(0.0435768 0.0590059 -0.0574412 0.0450813 78.6994 720.291)" r="907"/>
   <path class="fil2" d="M0 464c45,-9 93,-6 130,8 48,17 86,50 102,83 -31,3 -66,0 -95,-6 -35,-7 -63,-19 -96,-35 -13,-6 -27,-13 -41,-19l0 -31z"/>
   <path class="fil2" d="M0 552c5,-1 9,-1 13,-2 10,-2 2,-9 -3,-13 -3,-3 -6,-5 -10,-7l0 22z"/>
   <path class="fil2 str4" d="M231 621c3,0 5,-3 5,-6 3,-30 -8,-64 -27,-84 -40,-42 -111,-18 -102,52 4,30 24,58 48,71 14,8 26,7 35,-7 10,-15 21,-23 41,-26z"/>
   <path class="fil17" d="M208 737c-3,23 -12,42 -24,57 -43,52 -131,55 -184,13l0 -12c68,42 172,26 204,-59 2,-6 5,-2 4,1z"/>
   <path class="fil44" d="M105 857c8,-4 27,-8 38,-9 18,-3 17,12 10,22 -10,13 -38,18 -50,6 -7,-5 -9,-15 2,-19z"/>
   <path class="fil18" d="M176 587l13 -12 -18 -5c-2,-7 -3,-13 -3,-20 2,-37 33,-37 51,-7 6,12 12,27 12,40 0,7 -1,14 -2,19 -6,23 -23,27 -40,9 -6,-6 -11,-14 -13,-24z"/>
   <path class="fil17" d="M206 746c-1,2 -4,3 -6,2 2,-5 3,-10 -2,-12 -14,-7 10,-20 20,-5 4,6 3,11 -5,11 -3,-1 -6,0 -7,4z"/>
   <path class="fil17" d="M142 701c2,-21 -75,-69 -99,-24 -11,19 -10,43 2,59 21,28 68,23 87,-5 5,-8 9,-18 10,-30z"/>
   <path class="fil12 str2" d="M65 646c15,-19 41,-21 61,-11 27,10 42,39 28,64 -12,21 -46,35 -73,32 -38,-5 -49,-42 -27,-68 5,-6 6,-11 11,-17z"/>
   <ellipse class="fil18" transform="matrix(-0.237321 0.106616 0.0802544 0.204785 129.106 669.18)" rx="43" ry="67"/>
   <ellipse class="fil18" transform="matrix(-0.24905 0.106616 0.084221 0.204785 80.5522 688.514)" rx="43" ry="67"/>
   <path class="fil45 str2" d="M95 733c-10,-4 -17,-12 -18,-25 0,-4 0,-9 3,-13 4,-8 12,-4 13,2 4,18 44,18 46,-2 0,-4 -1,-8 -5,-11 -11,-11 2,-13 13,-8 14,6 19,20 16,33 -7,26 -43,35 -68,24z"/>
   <path class="fil2" d="M127 725c4,-1 10,-3 14,-5 3,-3 7,-2 8,1 1,2 0,5 -2,6 -5,4 -12,7 -18,8 -8,1 -10,-8 -2,-10z"/>
   <path class="fil5 str2" d="M175 674c10,7 37,7 48,-5"/>
   <path class="fil5 str2" d="M107 504c14,-29 52,-37 80,-18"/>
   <path class="fil46" d="M218 413c9,-2 21,-5 29,-7 20,-6 28,4 22,22 -3,10 -7,22 -10,31 -7,18 -28,11 -26,-3 0,-3 -5,-4 -9,-3 -26,0 -31,-33 -6,-40z"/>
   <path class="fil47" d="M237 443c-14,13 -29,8 -33,-3 -2,-5 -2,-11 1,-16 7,-11 31,-15 42,-18 6,-2 7,-1 6,5 0,4 -4,8 -6,11 -2,3 -6,8 -8,12 -1,3 -2,4 -2,9z"/>
   <path class="fil5 str3" d="M4 1025c26,8 54,13 83,13 164,0 287,-142 274,-316 -13,-175 -156,-316 -321,-316 -12,0 -24,1 -36,2"/>
  </g>
  <g id="_1060947984">
   <path class="fil48 str2" d="M1192 1594c268,0 485,-196 485,-439 0,-154 -87,-289 -219,-367 1,-2 2,-5 2,-8 0,-7 -6,-13 -13,-13 -6,0 -10,3 -12,8 -72,-38 -155,-59 -243,-59 -94,0 -181,24 -255,65 -2,-4 -7,-8 -12,-8 -8,0 -13,6 -13,14 0,3 1,6 2,8 -125,79 -207,211 -207,360 0,243 217,439 485,439z"/>
   <ellipse class="fil12 str9" cx="1192" cy="1157" rx="429" ry="385"/>
   <ellipse class="fil5 str0" cx="1192" cy="1157" rx="446" ry="401"/>
   <path class="fil20" d="M848 926c38,-24 88,-47 141,-55 10,-1 18,0 23,4 65,50 257,49 331,10 12,-7 -24,23 -24,24 27,-2 89,-6 126,-54 2,-2 7,-2 13,-1 -74,-51 -166,-82 -266,-82 -141,0 -266,60 -344,154z"/>
   <path class="fil14" d="M1447 898c8,3 7,1 2,-2 -50,-31 -128,-24 -154,31 -3,5 -3,7 2,1 42,-45 90,-51 150,-30z"/>
   <path class="fil14" d="M1371 874c-24,0 -44,11 -56,29 -3,5 -5,4 -4,1 4,-11 11,-19 18,-25 13,-8 29,-10 43,-7 5,1 2,2 -1,2z"/>
   <path class="fil14" d="M930 899c14,-55 86,-81 137,-60 3,2 2,2 0,2 -20,-4 -45,-5 -64,0 -4,1 -2,1 0,1 7,0 23,1 30,5 3,2 2,1 -1,1 -41,-5 -82,13 -101,53 -1,2 -2,2 -1,-2z"/>
   <circle class="fil49" cx="866" cy="1163" r="47"/>
   <circle class="fil49" cx="1509" cy="1163" r="47"/>
   <path class="fil5 str4" d="M1110 1197c55,78 256,84 306,-38"/>
   <path class="fil17" d="M1320 692c24,9 13,23 2,30 -43,27 -175,30 -221,7 -20,-10 -13,-21 0,-29 43,-25 174,-24 219,-8z"/>
   <path class="fil30 str2" d="M1084 709c-18,-7 -17,-17 -13,-31 5,-14 -24,-19 -12,-44 4,-7 2,-9 -2,-16 -35,-59 -17,-89 -32,-214 40,-11 351,-7 361,8 16,46 1,102 -18,147 -8,21 -14,34 -16,56 0,2 -1,4 0,6 11,22 2,29 -6,35 -4,4 -4,9 -2,14 6,17 8,25 -11,33 -61,25 -215,19 -249,6z"/>
   <ellipse class="fil50 str2" transform="matrix(0.322181 0.00805584 -0.0116363 0.254263 1205.66 407.201)" rx="561" ry="137"/>
   <path class="fil14" d="M1589 1170c-3,-29 -14,-52 -37,-63 -13,-6 -33,-9 -52,-4 -6,2 -11,4 -15,5 -6,0 -7,-3 -5,-5 2,-1 4,-2 6,-3 17,-6 37,-6 53,-1 33,9 59,37 59,76 0,7 -3,9 -5,8 -2,-2 -3,-6 -4,-13z"/>
   <path class="fil14" d="M1211 1294c7,1 23,3 31,4 23,3 21,18 6,26 -16,8 -43,4 -56,-9 -12,-12 -3,-23 19,-21z"/>
   <path class="fil14" d="M1326 1106c6,28 47,24 58,11 2,-2 3,-4 0,-3 -17,9 -43,8 -55,-8 -3,-4 -4,-5 -3,0z"/>
   <path class="fil20 str2" d="M903 793c-3,-5 -11,-25 -22,-40 -5,-7 -10,-7 -16,-15 -11,-19 -23,-23 -35,-33 1,2 4,5 6,8 -6,-5 -11,-4 -17,-8 -16,-11 -28,-8 -38,-10 5,2 6,3 8,4 -15,-4 -35,-2 -50,0 -34,5 -59,12 -66,13 3,13 7,25 10,37 1,3 2,8 2,9 -1,1 -4,-3 -2,2 2,9 13,33 16,41 9,24 15,39 34,52 -1,-1 -7,-2 -10,-3 11,7 17,10 30,13 4,1 4,2 8,3 4,2 11,4 16,6 15,3 34,3 43,1 23,-6 33,-23 50,-37 16,-13 41,-24 33,-43z"/>
   <path class="fil20 str2" d="M1468 791c0,-23 15,-55 37,-65 3,-1 5,-2 8,-4 9,-7 22,-13 26,-18 -2,2 -4,5 -6,7 10,-9 30,-4 41,-12 -1,2 -3,4 -7,6 36,-8 74,8 118,11 -10,32 -12,61 -27,82 2,-1 1,-1 9,-4 -13,7 -25,37 -46,47 -4,1 -3,1 -5,4 -4,6 -10,14 -28,14 5,2 8,4 13,7 -14,-8 -52,0 -61,-2 -23,-7 -32,-22 -49,-36 -14,-12 -23,-18 -23,-37z"/>
   <path class="fil14" d="M1046 1090c10,5 33,5 37,-12 0,0 -18,3 -29,7 -5,2 -11,4 -8,5z"/>
   <path class="fil14" d="M922 1054c-25,-10 -50,-7 -67,8 -5,5 -4,2 -2,-1 16,-25 54,-24 72,-9 3,3 0,3 -3,2z"/>
   <path class="fil51" d="M1165 718c-17,-20 -14,-51 -13,-57l50 -5c15,-2 26,-4 31,11 4,15 2,39 0,46 -4,8 -63,10 -68,5zm8 -5l43 0c3,0 6,-3 6,-6l0 -37c0,-3 -3,-6 -6,-6l-43 0c-3,0 -6,3 -6,6l0 37c0,3 3,6 6,6z"/>
   <path class="fil30 str2" d="M1332 704c-30,30 -189,43 -242,7 -116,13 -105,55 -60,81 49,27 143,33 215,26 76,-7 128,-27 142,-56 9,-19 -1,-42 -55,-58z"/>
   <path class="fil17" d="M1044 1122c3,-1 5,-3 0,-3 -7,1 -15,3 -21,8 -6,5 -9,11 -11,18 -3,12 0,25 7,33 17,18 47,13 68,7 23,-5 42,-6 65,4 18,9 -1,-49 -76,-28 -7,2 -14,4 -21,5 -13,3 -24,-1 -29,-10 -2,-6 -2,-13 0,-18 2,-5 5,-9 10,-11 2,-2 5,-3 8,-5z"/>
   <path class="fil5 str4" d="M1023 1134c5,-10 20,-15 30,-12 5,2 10,5 12,9 3,6 3,13 -2,19 -4,5 -13,6 -19,2 -6,-4 -6,-13 -1,-16 3,-2 8,-3 13,0"/>
   <path class="fil17" d="M1232 1355c17,-1 25,9 21,25 -1,6 -4,13 -7,20 0,1 0,1 -1,0 -1,-1 -2,-3 -3,-4 0,-1 0,-1 0,0 -2,7 -8,31 -13,45 -5,12 -7,14 -12,2 -2,-6 -6,-14 -9,-22 -1,-2 -1,-2 -1,-1 -1,1 -2,3 -3,5 -2,1 -3,2 -3,0 -1,-7 -6,-17 -10,-26 -13,-28 -3,-42 12,-45 9,-1 19,2 29,1z"/>
   <path class="fil17" d="M1289 1122c-3,-1 -6,-3 0,-3 7,1 15,3 21,8 6,5 9,11 11,18 3,12 0,25 -7,33 -17,18 -47,13 -68,7 -23,-5 -43,-6 -65,4 -18,9 1,-49 76,-28 7,2 14,4 21,5 13,3 24,-1 28,-10 3,-6 3,-13 1,-18 -2,-5 -6,-9 -10,-11 -2,-2 -5,-3 -8,-5z"/>
   <path class="fil5 str4" d="M1309 1133c-6,-9 -19,-14 -29,-11 -6,2 -10,5 -12,9 -3,6 -3,13 2,19 4,5 13,6 18,2 7,-4 7,-13 2,-16 -3,-2 -8,-3 -13,0"/>
   <path class="fil14" d="M827 828c14,8 37,0 30,-24 -6,-24 -27,-41 -53,-46 -16,-3 -26,-2 -46,-7 -33,-8 -36,32 -23,49 2,2 3,4 4,13 1,17 10,29 32,33 11,2 11,2 22,8 7,4 14,3 18,-1 3,-4 2,-10 -4,-14 -7,-4 -8,-10 -5,-14 3,-4 9,-6 16,-2 3,1 6,4 9,5z"/>
   <path class="fil14" d="M1522 817c-32,10 -37,-41 6,-54 14,-5 30,-3 44,-3 12,1 18,2 29,-3 24,-12 24,26 14,42 -3,7 -4,7 -6,15 -4,18 -13,30 -37,30 -10,0 -11,0 -22,3 -7,3 -14,1 -16,-4 -3,-4 -1,-10 5,-12 8,-3 9,-9 7,-13 -1,-4 -7,-7 -14,-5 -3,1 -6,3 -10,4z"/>
   <path class="fil52" d="M825 822c-6,-5 -15,-1 -18,-4 -8,-6 0,-19 -14,-28 -4,-3 -12,-9 -15,-16 -2,-5 -2,-12 6,-13 24,-4 50,5 63,24 3,4 6,9 8,15 8,24 -12,35 -30,22z"/>
   <path class="fil52" d="M1546 816c14,-2 12,-15 16,-24 3,-8 6,-11 13,-15 6,-3 4,-8 0,-11 -7,-4 -20,-4 -31,-4 -22,2 -51,16 -45,43 2,9 11,13 20,11 8,-3 19,-9 26,0 1,0 1,0 1,0z"/>
   <path class="fil30" d="M1381 794c26,0 47,2 72,3 39,1 36,77 -3,74 -23,-2 -49,-5 -74,-7 -12,-1 -22,-17 -22,-35 0,-17 9,-36 27,-35z"/>
   <path class="fil30" d="M982 767c-26,0 -47,2 -72,2 -38,2 -35,78 3,75 24,-2 50,-5 74,-7 13,-1 22,-18 22,-35 0,-17 -9,-36 -27,-35z"/>
   <path class="fil48 str4" d="M1341 1100c38,9 60,-15 115,4 22,-25 33,-50 35,-73 11,-126 -167,-142 -176,-20 -3,30 6,63 26,89z"/>
   <path class="fil48 str4" d="M1059 1062c-37,5 -55,-23 -110,-12 -18,-27 -24,-53 -23,-76 8,-126 180,-119 172,3 -2,30 -15,62 -39,85z"/>
   <path class="fil18" d="M1392 985l-21 4 17 16c-1,9 -5,20 -12,30 -12,17 -29,19 -41,13 -41,-21 -7,-118 38,-107 15,4 25,22 19,44z"/>
   <path class="fil18" d="M1003 944l-21 4 17 15c-1,9 -5,21 -12,30 -12,18 -29,20 -41,13 -41,-20 -7,-118 38,-106 15,4 25,22 19,44z"/>
   <path class="fil37" d="M1169 1004c13,-7 39,-5 51,9 5,6 7,4 4,-3 -9,-21 -44,-26 -59,-10 -5,6 -6,8 4,4z"/>
   <path class="fil40 str2" d="M1228 1132c-34,20 -94,20 -127,-4 -31,-22 -31,-64 4,-84 8,-5 12,-9 18,-16 16,-18 40,-23 62,-18 14,4 25,12 36,24 6,7 8,10 16,17 30,25 24,61 -9,81z"/>
   <circle class="fil18" cx="1129" cy="1061" r="19"/>
   <circle class="fil18" cx="1203" cy="1065" r="19"/>
   <path class="fil16" d="M1414 1165c2,0 4,0 6,0 2,-1 5,-1 6,-2 3,-1 3,-3 1,-7 -1,-1 -2,-3 -3,-4 -1,-1 -2,-3 -4,-3 -5,-3 -12,-3 -16,-1 -1,1 -2,1 -3,2 -1,1 -1,2 -1,3 0,2 2,3 5,5 1,1 3,2 5,3 1,1 2,3 2,4l1 1 1 -1z"/>
   <path class="fil14" d="M1488 1086c16,-25 60,-25 75,-1 1,2 1,3 -1,1 -18,-16 -53,-17 -73,2 -3,3 -4,3 -1,-2z"/>
  </g>
  <g id="_1060958832">
   <path class="fil53 str2" d="M784 1439l0 -23c13,-32 21,-68 21,-107l0 -36c-5,25 -12,45 -21,64l0 24c0,5 -1,9 -4,12 -4,4 -10,5 -16,4 -37,52 -100,100 -169,126 1,15 -21,16 -28,9 -118,36 -258,22 -370,-51 -14,1 -23,-5 -22,-16 -57,-44 -94,-110 -105,-172l0 36c0,94 43,169 105,219 0,9 6,18 22,16 105,66 249,81 370,47 6,7 28,7 28,-8 68,-25 132,-69 169,-128 8,1 20,0 20,-16z"/>
   <path class="fil54" d="M764 1370l-16 0 0 83c0,3 -1,6 -3,9l3 6 0 20 16 0 0 -118z"/>
   <path class="fil54" d="M567 1618l-30 0 0 -29 -8 -6c5,-1 8,-5 8,-10l0 -76 30 0 0 121z"/>
   <path class="fil54" d="M197 1448l26 0c0,29 0,58 0,86 0,6 1,9 5,11l-5 6 0 20 -26 0 0 -123z"/>
   <path class="fil54" d="M784 1439l0 -23c13,-32 21,-68 21,-107l0 -36c-1,5 -2,11 -4,16l0 4c0,52 -10,104 -40,147 -38,56 -103,104 -173,127 -121,41 -270,30 -380,-33 -83,-48 -135,-147 -135,-241l0 -4c-1,-4 -2,-8 -3,-12 0,0 0,1 0,2l0 30c0,94 43,169 105,219 0,9 6,18 22,16 105,66 249,81 370,47 6,7 28,7 28,-8 68,-25 132,-69 169,-128 8,1 20,0 20,-16z"/>
   <rect class="fil55" x="195" y="1442" width="8.89051" height="124.736"/>
   <rect class="fil55" x="561" y="1497" width="7.73552" height="124.736"/>
   <rect class="fil55" x="758" y="1359" width="8.96776" height="124.736"/>
   <path class="fil56 str2" d="M811 1323l0 -165c-235,0 -479,0 -748,0l0 165c0,98 37,176 94,231 13,12 26,23 42,33 48,31 108,51 160,59 67,11 143,9 206,-8 71,-20 135,-58 183,-119 43,-55 63,-120 63,-196zm-27 116l0 -23c13,-32 21,-68 21,-107l0 -36c-5,25 -12,45 -21,64l0 24c0,5 -1,9 -4,12 -4,4 -10,5 -16,4 -37,52 -100,100 -169,126 -4,13 -17,13 -28,9 -118,36 -258,22 -370,-51 -11,-2 -18,-6 -22,-16 -57,-44 -94,-110 -105,-172l0 36c0,94 43,169 105,219 4,6 7,11 22,16 105,66 249,81 370,47 9,1 17,2 28,-8 68,-25 132,-69 169,-128 8,1 20,0 20,-16z"/>
   <path class="fil57" d="M748 1518l0 -1c6,-7 11,-15 16,-23l0 -38c-5,8 -10,16 -16,24l0 38zm16 -198l-16 0 0 75c6,-7 11,-14 16,-21l0 -54z"/>
   <path class="fil57" d="M537 1644c9,-2 19,-4 28,-6l2 -1 0 -44c-10,3 -20,5 -30,7l0 44zm0 -124l0 -58 30 0 0 50c-10,3 -20,6 -30,8z"/>
   <path class="fil57" d="M197 1586l2 1c8,5 16,10 24,14l0 -40c-9,-5 -18,-10 -26,-15l0 40zm0 -176l26 0 0 65c-9,-5 -18,-10 -26,-16l0 -49z"/>
   <path class="fil58 str2" d="M595 1463c0,-3 -1,-5 -3,-6 73,-29 134,-77 172,-137 6,4 14,2 17,-1 5,-5 5,-16 -6,-18 23,-41 36,-88 36,-138 0,-120 -77,-226 -191,-281 5,-5 4,-12 0,-16 -6,-5 -18,-4 -21,7 -49,-20 -104,-32 -162,-32 -83,0 -159,23 -221,63 -4,-10 -13,-10 -19,-7 -8,4 -8,15 1,19 -68,49 -116,118 -130,196 -7,-3 -13,-1 -16,2 -6,6 -2,21 13,18 -1,10 -2,21 -2,31 0,93 45,176 117,234 -6,3 -6,10 -4,14 3,7 18,9 21,-1 65,46 149,76 240,76 46,0 90,-8 130,-21 3,10 15,11 23,7 3,-2 5,-6 5,-9z"/>
   <ellipse class="fil5 str2" cx="437" cy="1160" rx="351" ry="299"/>
   <ellipse class="fil12 str4" cx="437" cy="1156" rx="328" ry="276"/>
   <path class="fil20" d="M289 913c-4,2 -9,5 -1,5 53,-3 78,27 124,34 14,2 31,2 38,-4 2,-2 3,-4 1,-7 -1,-2 -2,-3 -1,-3 10,2 32,3 46,-6 3,-2 1,-3 6,-4 6,-1 29,-5 47,-27 -55,-25 -166,-28 -260,12z"/>
   <path class="fil59" d="M567 1465l0 47 4 47 -4 32 0 46c3,4 12,7 19,4 5,-1 10,-6 9,-13l0 -45 -4 -24 4 -48 0 -8 0 -40c0,10 -23,12 -28,2z"/>
   <path class="fil59" d="M784 1310l0 58 -2 49 2 22 0 38c1,17 -12,19 -20,18l0 -40 5 -34 -5 -44 0 -57c8,3 20,1 20,-10z"/>
   <path class="fil60" d="M595 1506c-1,12 -22,13 -28,6l0 79c6,7 28,7 28,-8l0 -77z"/>
   <path class="fil60" d="M784 1439l0 -23 0 -55c0,5 -1,9 -4,12 -4,4 -10,5 -16,4l0 78c8,1 20,0 20,-16z"/>
   <path class="fil59" d="M197 1410l0 51 -5 48 5 35 0 40c-14,6 -24,0 -22,-13l0 -43 4 -35 -4 -39 0 -44c3,7 19,8 22,0z"/>
   <path class="fil60" d="M197 1461l0 83c-16,2 -22,-7 -22,-16l0 -78c2,8 10,12 22,11z"/>
   <path class="fil14" d="M500 1382c-26,64 -108,56 -146,6 -17,-21 -5,-16 7,-3 34,34 100,44 134,-6 10,-15 10,-10 5,3z"/>
   <path class="fil14" d="M579 914c-37,-3 -58,20 -62,45 -1,5 -3,4 -3,-3 1,-38 35,-53 65,-44 3,1 4,2 0,2z"/>
   <path class="fil14" d="M351 945c-49,-41 -119,-9 -136,37 -3,7 -5,3 -4,0 7,-35 40,-59 74,-64 26,-4 53,5 67,24 2,2 4,7 -1,3z"/>
   <path class="fil14" d="M190 1098c-20,-16 -44,-14 -63,-5 -5,2 -6,1 -3,-2 18,-15 55,-15 68,6 2,3 0,3 -2,1z"/>
   <path class="fil20 str2" d="M326 899c45,-12 90,17 121,22 2,0 -5,-3 -4,-5 1,0 6,2 7,2 8,1 18,2 27,1 11,-2 21,-6 25,-16 1,-3 0,-5 -5,-5 -2,0 -4,0 -6,1 -2,0 -3,0 0,-2 22,-10 28,-31 19,-51 -3,-8 -8,-13 -9,-9 -3,18 -14,23 -25,24 -8,0 -20,-1 -24,-3 -1,0 -1,-1 0,-1 3,-3 3,-13 1,-10 -8,8 -22,7 -32,7 -38,0 -76,12 -95,45z"/>
   <path class="fil14" d="M757 1109c0,3 -1,5 -2,0 -6,-43 -51,-56 -83,-40 -5,3 -6,2 -3,-1 29,-27 87,-15 88,41z"/>
   <path class="fil30" d="M262 893c-21,11 -42,20 -59,29 -11,5 -20,-9 -28,-27 -6,-14 -4,-24 11,-31 18,-8 28,-12 46,-21 9,-5 20,-11 28,0 4,5 12,21 14,29 3,11 0,15 -12,21z"/>
   <path class="fil51 str2" d="M262 905l-30 36 68 -4 -38 -32z"/>
   <path class="fil61 str2" d="M563 892l-33 35 71 -3 -38 -32z"/>
   <path class="fil30" d="M613 893c-19,-8 -29,-12 -43,-18 -8,-4 -14,-10 -11,-23 1,-6 3,-13 7,-19 5,-9 10,-12 15,-13 5,-1 10,-1 15,2 12,5 37,18 47,23 5,2 10,6 13,12 2,4 2,10 -1,17 -3,7 -7,14 -9,17 -10,15 -18,8 -33,2z"/>
   <path class="fil2 str10" d="M316 1307c-92,-79 -21,-216 93,-170 34,13 43,8 73,-5 121,-52 180,91 97,168 -65,59 -196,66 -263,7z"/>
   <ellipse class="fil62 str2" transform="matrix(0.376609 -0.0314522 0.0273817 0.432594 191.808 1152.92)" rx="141" ry="101"/>
   <path class="fil15" d="M426 1291c-9,4 -7,9 -1,13 10,6 32,7 40,-3 2,-3 2,-7 -3,-10 -8,-4 -28,-4 -36,0z"/>
   <ellipse class="fil62 str2" transform="matrix(0.374194 0.0528614 -0.0696538 0.427847 679.441 1145.39)" rx="141" ry="101"/>
   <path class="fil2 str4" d="M234 1083c-2,-6 -3,-10 -5,-15 -5,-14 -8,-27 -9,-39 -8,-91 112,-103 130,-23 6,24 2,54 -8,78 -8,20 -25,13 -39,6 -25,-10 -55,-9 -69,-7z"/>
   <path class="fil2 str4" d="M654 1084c6,-40 12,-102 -33,-128 -21,-12 -47,-11 -65,2 -24,16 -34,52 -10,93 10,16 18,27 25,43 3,5 5,8 9,10 8,3 16,-1 22,-5 14,-10 30,-16 52,-15z"/>
   <path class="fil19 str2" d="M453 1035c24,-7 46,1 59,17 18,21 22,55 1,82 -28,36 -91,33 -119,0 -36,-42 -4,-117 59,-99z"/>
   <path class="fil18" d="M276 1020c-2,6 -1,10 -2,16 -1,14 -7,23 -16,26 -12,5 -27,0 -33,-17 -6,-18 -4,-49 8,-64 18,-26 54,-21 46,19 0,4 -3,16 -3,20z"/>
   <path class="fil18" d="M606 1036c1,-6 0,-10 -1,-15 -1,-14 4,-23 12,-27 11,-6 26,-3 34,12 7,14 8,40 2,58 -10,29 -50,27 -48,-9 0,-4 1,-15 1,-19z"/>
   <path class="fil5 str11" d="M326 1180c8,16 29,26 51,26 30,0 60,-12 77,-15 22,-4 74,-10 79,-31 2,-9 12,-10 20,-8"/>
   <path class="fil15" d="M304 1186c13,-3 21,-18 30,-27 -18,1 -30,11 -30,27z"/>
   <path class="fil17" d="M337 1213c-24,6 -1,-29 5,-23 2,2 6,3 12,3 0,0 -15,19 -17,20z"/>
   <path class="fil63" d="M385 1204c-6,-14 -34,-19 -45,-4 -4,4 -4,6 -4,6 -3,1 1,-7 5,-11 4,-4 3,-7 1,-9 -3,-2 -9,-2 -12,-1 -27,7 -36,36 -31,59 9,48 75,45 67,-10 -1,-12 0,-26 19,-30z"/>
   <path class="fil5 str2" d="M567 1465l0 172c3,4 12,7 19,4 5,-1 10,-6 9,-13l0 -165c0,10 -23,12 -28,2z"/>
   <path class="fil5 str2" d="M784 1310l0 167c1,17 -12,19 -20,18l0 -175c8,3 20,1 20,-10z"/>
   <path class="fil5 str2" d="M197 1410l0 174c-14,6 -24,0 -22,-13l0 -161c3,7 19,8 22,0z"/>
   <path class="fil64 str2" d="M384 1453c-5,16 -7,28 0,40 -41,13 -37,25 -77,52 -31,21 -64,12 -70,-24 -1,-10 -4,-16 -11,-23 -20,-22 -19,-48 -3,-65 41,-45 163,14 161,20z"/>
   <path class="fil64 str2" d="M474 1453c5,16 7,28 0,40 40,13 37,25 76,52 31,21 65,12 70,-24 1,-10 4,-16 11,-23 20,-22 19,-48 4,-65 -42,-45 -164,14 -161,20z"/>
   <path class="fil65" d="M340 1463c7,1 12,-1 19,-1 2,1 24,4 10,-3 -7,-5 -20,-7 -28,-7 -16,-1 -15,10 -1,11z"/>
   <path class="fil65" d="M504 1470c1,-1 2,-2 3,-3 1,-2 1,-4 -4,-4 -9,-1 -26,14 -8,15 7,0 14,0 20,1 4,0 7,0 9,0 4,-2 5,-6 1,-9 -1,-1 -5,-2 -9,-2 -5,0 -10,1 -12,2z"/>
   <path class="fil66" d="M369 1496c15,-8 -22,-12 -42,2 -2,2 -9,7 -14,13 -3,3 -4,7 -3,9 1,1 3,-1 0,2 -24,22 -9,30 10,11 10,-10 14,-16 26,-24 7,-5 13,-8 23,-13z"/>
   <path class="fil66" d="M492 1498c-15,-8 21,-12 41,3 2,1 10,7 15,12 3,3 4,7 3,9 -1,1 -3,0 0,3 23,22 9,29 -11,10 -9,-10 -13,-16 -25,-24 -7,-5 -13,-7 -23,-13z"/>
   <path class="fil64 str2" d="M415 1521c-11,2 -20,0 -28,-5 -21,-12 -23,-42 -10,-62 19,-29 75,-24 96,-7 28,23 18,77 -24,74 -16,-1 -18,-2 -34,0z"/>
   <path class="fil65" d="M421 1459c0,-4 0,-7 2,-10 5,-9 -12,-5 -14,7 -2,12 12,15 12,3z"/>
   <path class="fil65" d="M445 1471c1,-5 1,-13 -2,-19 -3,-5 2,-6 6,-2 6,4 12,11 10,23 -1,12 -16,10 -14,-2z"/>
   <path class="fil65" d="M452 1448c6,1 13,7 14,13 0,5 -5,6 -8,3 0,-1 0,-2 -1,-2 -1,-5 -4,-8 -7,-10 -5,-3 -2,-4 2,-4z"/>
   <path class="fil5 str2" d="M487 858c-8,15 -29,14 -54,13 -28,-2 -64,-3 -86,18 -3,4 -4,9 -12,8"/>
   <path class="fil5 str2" d="M357 897c39,-21 112,29 152,-15"/>
   <path class="fil12" d="M2 897c49,-19 121,-20 146,32 2,4 4,-8 5,-4 10,23 2,50 -17,65 -3,3 -7,6 -10,10 -5,8 -8,17 -12,24 -4,7 -10,13 -16,14 -60,11 -87,-25 -96,-61l0 -80z"/>
   <path class="fil20" d="M61 990c-2,-5 -6,-7 -9,-8 -23,-10 -21,-40 10,-41 8,-1 18,-2 28,-2 20,0 42,7 45,30 2,9 -3,17 -16,19 -9,2 -12,8 -12,14 -1,18 -22,23 -34,10 -5,-5 -9,-13 -12,-22z"/>
   <path class="fil36" d="M68 962c-10,-6 -16,-16 -3,-19 37,-7 57,2 65,14 7,12 3,27 -10,29 -8,2 -7,2 -10,7 -2,4 -6,5 -10,3 -6,-2 -8,-8 -10,-15 -5,-13 -10,-12 -22,-19z"/>
   <path class="fil12 str2" d="M878 890c-50,-35 -146,-37 -171,28 -1,3 -2,-7 -3,-3 -8,24 1,50 21,63 4,2 7,4 10,8 10,14 19,28 31,30 28,4 52,-3 67,-17 35,-33 23,-75 45,-109z"/>
   <path class="fil20" d="M801 959c24,-12 17,-36 -13,-36 -7,0 -13,1 -18,2 -41,3 -61,37 -32,53 6,3 8,7 10,9 10,15 24,12 31,6 9,-8 10,-28 22,-34z"/>
   <path class="fil36" d="M734 975c23,15 23,-3 31,-16 3,-5 7,-7 12,-8 5,-2 13,-5 18,-10 5,-5 6,-13 -3,-15 -11,-2 -28,-2 -42,3 -11,4 -21,12 -24,22 -2,7 -1,18 8,24z"/>
   <path class="fil5 str3" d="M3 897c49,-19 120,-20 145,32 2,4 4,-8 5,-4 10,23 2,50 -17,65 -7,6 -11,11 -13,16 -3,4 -4,9 -9,17 -4,7 -10,14 -18,15 -57,9 -85,-25 -93,-58"/>
  </g>
  <g id="_1060983120">
   <path class="fil67" d="M1564 1219c0,22 0,45 0,61 -1,56 11,115 41,165 9,16 12,18 20,30 42,61 120,107 191,124 10,2 12,18 28,5 51,11 109,11 164,2l0 -110c-55,9 -112,9 -164,-2 -71,-13 -159,-58 -219,-127 -2,-2 -2,-4 -4,-6 -7,5 -12,-14 -16,-20 -19,-31 -36,-81 -41,-122z"/>
   <path class="fil68" d="M1591 1277l14 64 -26 10 -13 -123 25 49z"/>
   <path class="fil15" d="M1652 1358l-27 0 0 153 27 0 0 -15 5 -7c-6,-6 -5,-10 -5,-20l0 -111z"/>
   <path class="fil69" d="M1621 1361l11 2 0 97c-2,-3 -5,-6 -7,-10l-9 -20 5 -69z"/>
   <path class="fil15" d="M1844 1479l31 0 0 99c0,8 3,12 11,13l-11 11 0 17 -31 0 0 -140z"/>
   <path class="fil69" d="M1837 1488l14 0 0 99 -14 -2 0 -97z"/>
   <path class="fil70" d="M1564 1215c0,23 -4,49 -4,65 -1,91 6,127 57,201 86,126 247,169 391,144l0 -38c-67,11 -137,8 -193,-8 -157,-43 -249,-167 -247,-318l0 -20c-1,-9 -3,-17 -4,-26z"/>
   <path class="fil68" d="M1668 1369l148 119 -105 45 -86 -165 43 1z"/>
   <path class="fil68" d="M2007 1454l1 0 0 121 -164 -81 163 -40z"/>
   <path class="fil61" d="M2008 1120l-451 0 0 227c0,64 19,121 49,166 7,10 11,15 19,25 47,55 116,92 191,111 23,6 2,1 28,6 53,10 110,11 164,3l0 -52c-55,9 -113,9 -164,-2 -16,13 -18,-3 -28,-5 -71,-17 -149,-63 -191,-124 -8,-12 -11,-14 -20,-30 -30,-50 -42,-109 -41,-165 0,-16 0,-39 0,-61 5,41 22,91 41,122 4,6 9,25 16,20 2,2 2,4 4,6 60,69 148,114 219,127 52,11 109,11 164,2l0 -376z"/>
   <path class="fil71" d="M1844 1655c10,2 20,3 31,5l0 -49c-11,-1 -21,-3 -31,-5l0 49zm0 -224l31 0 0 67c-11,-2 -21,-3 -31,-5l0 -62z"/>
   <path class="fil71" d="M1625 1537l0 1c8,9 17,18 27,27l0 -56c-10,-10 -19,-21 -27,-32l0 60zm27 -245l-27 0 0 73 0 0c8,10 17,19 27,28l0 -101z"/>
   <path class="fil72" d="M2008 806c-23,-4 -48,-6 -73,-6 -66,0 -129,15 -183,40 -3,-7 -11,-8 -16,-5 -5,2 -8,9 -3,15 -83,45 -144,117 -167,202 -16,-4 -19,17 -4,19 -3,17 -5,35 -5,53 0,61 20,118 54,167 -6,3 -7,10 -5,15 2,7 13,9 19,4 46,56 113,100 191,122 0,25 22,20 28,6 52,11 109,12 164,3l0 -635z"/>
   <path class="fil73 str12" d="M2006 1418c-23,4 -46,6 -71,6 -99,0 -188,-34 -253,-89 -65,-55 -105,-131 -105,-215 0,-83 40,-159 105,-214 65,-55 154,-89 253,-89 25,0 50,2 73,6"/>
   <path class="fil48" d="M1935 1396c25,0 50,-2 73,-7l0 -541c-23,-4 -48,-7 -73,-7 -182,0 -329,124 -329,278 0,153 147,277 329,277z"/>
   <path class="fil74" d="M1935 1393c25,0 50,-2 73,-7l0 7c-23,4 -48,7 -73,7 -92,0 -175,-32 -235,-83 -60,-50 -98,-121 -98,-198 0,-78 38,-148 98,-199 60,-51 143,-82 235,-82 25,0 50,2 73,7l0 6c-23,-4 -48,-7 -73,-7 -90,0 -172,31 -231,81 -59,50 -95,118 -95,194 0,75 36,144 95,193 59,50 141,81 231,81z"/>
   <path class="fil75" d="M1833 1049c-6,5 -14,6 -20,4 -8,-3 -14,-10 -20,-11 -5,-2 -4,1 -1,5 8,11 16,14 24,14 9,1 17,-4 20,-9 2,-3 2,-8 -3,-3z"/>
   <path class="fil75" d="M1861 902c-14,-26 -43,-37 -71,-35 -13,1 -9,-2 1,-5 31,-8 65,5 74,39 2,8 2,13 -4,1z"/>
   <path class="fil75" d="M1903 1264c13,8 32,6 42,-1 12,-8 6,-15 -3,-19 -11,-4 -28,-5 -38,-2 -15,5 -11,16 -1,22z"/>
   <path class="fil76" d="M2008 847c-64,-11 -128,-6 -175,12 8,-2 21,-3 29,-2 8,1 19,5 17,6 -32,12 -13,34 9,41 31,11 77,12 120,10l0 -67z"/>
   <path class="fil75" d="M1712 1033c6,2 5,-1 -1,-4 -36,-19 -88,-6 -96,40 -2,12 0,8 2,3 13,-35 50,-51 95,-39z"/>
   <path class="fil17" d="M1814 864c3,-4 6,-9 10,-12 1,-2 3,-4 4,-6 5,-6 4,-11 1,-14 -3,-4 -10,-4 -13,0 -2,2 -3,5 -3,8 0,8 2,15 1,24z"/>
   <path class="fil17" d="M1755 1045c-3,6 -7,11 -12,15 -2,2 -3,4 -5,7 -5,7 -4,14 -1,17 4,5 12,5 16,0 2,-2 3,-5 3,-10 1,-10 -2,-18 -1,-29z"/>
   <path class="fil17" d="M2000 1204c2,-2 5,-4 8,-7l0 -33c-4,1 -8,1 -12,2 -52,19 -129,10 -166,-16 -8,-6 -14,-7 -20,-15 -4,-5 -5,0 -3,6 22,82 125,105 193,63z"/>
   <path class="fil2" d="M1944 1183c-19,4 -46,2 -61,-5 -19,-7 -27,14 -9,27 17,13 51,16 73,8 22,-9 24,-35 -3,-30z"/>
   <path class="fil5 str2" d="M1826 1162l1 219"/>
   <path class="fil48 str4" d="M1842 1020c-5,7 -8,7 -14,4 -19,-9 -47,-12 -71,-7 -13,3 -20,8 -27,-7 -39,-89 22,-137 74,-131 53,5 90,75 38,141z"/>
   <path class="fil18" d="M1820 951c1,-15 6,-31 8,-46 3,-39 -41,-41 -55,-13 -9,19 -7,48 0,66 11,24 46,23 47,-7z"/>
   <path class="fil5 str12" d="M1557 1120l0 227c0,64 19,121 49,166 7,10 11,15 19,25 47,55 116,92 191,111 23,6 2,1 28,6 52,10 108,11 161,3m3 -52c-55,9 -113,9 -164,-2 -16,13 -18,-3 -28,-5 -71,-17 -149,-63 -191,-124 -8,-12 -11,-14 -20,-30 -30,-50 -42,-109 -41,-165 0,-16 0,-39 0,-61 5,41 22,91 41,122 4,6 9,25 16,20 2,2 2,4 4,6 60,69 148,114 219,127 51,10 107,11 161,3"/>
   <path class="fil5 str12" d="M2008 806c-23,-4 -48,-6 -73,-6 -66,0 -129,15 -183,40 -3,-7 -11,-8 -16,-5 -5,2 -8,9 -3,15 -83,45 -144,117 -167,202 -16,-4 -19,17 -4,19 -3,17 -5,35 -5,53 0,61 20,118 54,167 -6,3 -7,10 -5,15 2,7 13,9 19,4 46,56 113,100 191,122 0,25 22,20 28,6 52,11 109,12 164,3"/>
   <path class="fil12 str2" d="M1718 860c0,-28 -12,-64 -40,-80 -3,-1 6,10 3,8 -61,-44 -153,-20 -177,0 26,18 23,90 55,115 16,30 49,32 71,28 12,-1 22,-6 34,-15 7,-6 14,-13 22,-19 15,-11 32,-19 32,-37z"/>
   <path class="fil20" d="M1586 841c6,-6 17,-7 29,0 11,7 27,12 33,16 13,9 12,33 -14,31 -10,0 -13,3 -5,9 8,5 6,10 -1,12 -23,7 -50,-5 -61,-24 -12,-19 -9,-44 19,-44z"/>
   <path class="fil36" d="M1595 864c-1,-2 -2,-4 -3,-5 -11,-16 7,-23 21,-17 13,4 15,11 30,15 12,2 17,16 11,24 -7,10 -23,10 -36,4 -11,-4 -20,-12 -23,-21z"/>
   <path class="fil17" d="M1785 837l-48 21c-8,3 -15,2 -20,-5 -3,-4 -6,-11 -7,-16 -1,-6 -1,-14 4,-18 12,-12 38,-25 54,-29 13,-3 22,3 26,14 1,2 3,5 4,8 4,7 4,13 1,17 -2,4 -7,6 -14,8z"/>
   <path class="fil77" d="M1916 838c-63,-32 -24,-130 53,-142 12,-1 26,-1 39,1l0 165c-43,-13 -81,-19 -92,-24z"/>
   <path class="fil16" d="M1915 839c-14,-7 -23,-17 -28,-29 -5,-12 -6,-27 -2,-41 3,-15 11,-29 22,-41 15,-17 36,-30 61,-34 13,-1 27,-1 40,1l0 4c-13,-2 -27,-2 -39,-1 -24,4 -45,16 -59,32 -11,12 -18,26 -21,40 -4,13 -3,27 2,39 5,11 13,20 26,27 5,3 18,6 35,10 16,3 35,8 56,14l0 4c-21,-6 -41,-11 -57,-15 -17,-4 -30,-7 -36,-10z"/>
   <path class="fil30" d="M1920 839c-1,-9 -6,-19 17,-23 16,-2 42,1 71,7l0 44c-25,-6 -52,-10 -80,-14 -13,-1 -6,-6 -8,-14z"/>
   <path class="fil30" d="M1929 791c-1,21 9,19 9,27 -8,0 -14,-4 -16,-11 -1,-5 -1,-12 3,-17 2,-3 4,-4 4,1z"/>
   <path class="fil78" d="M1844 1438l0 59 -6 71 6 36 0 51c-6,13 -31,8 -28,-6l0 -53 6 -56 -6 -50 0 -57c0,14 23,14 28,5z"/>
   <path class="fil2" d="M1816 1488c1,13 22,14 28,7l0 109c-5,6 -28,6 -28,-6l0 -110z"/>
   <path class="fil5 str2" d="M1844 1438l0 217c-6,13 -31,8 -28,-6l0 -216c0,14 23,14 28,5z"/>
   <path class="fil78" d="M1605 1300l0 59 4 41 -4 58 0 61c-1,18 12,20 20,19l0 -63 -4 -69 4 -39 0 -57c-8,3 -20,0 -20,-10z"/>
   <path class="fil2" d="M1605 1458l0 -106c0,5 1,9 4,12 4,3 11,5 16,3l0 108c-8,0 -20,-1 -20,-17z"/>
   <path class="fil5 str2" d="M1605 1300l0 219c-1,18 12,20 20,19l0 -228c-8,3 -20,0 -20,-10z"/>
   <path class="fil75" d="M1979 1017c-5,-3 -11,-8 -16,-11 -15,-10 -34,-15 -51,-4 -4,3 -5,3 -3,1 9,-10 23,-15 35,-13 17,1 31,13 37,27 1,2 2,3 -2,0z"/>
   <path class="fil40 str2" d="M1878 986c28,-12 56,1 76,22 18,19 22,46 15,65 -9,21 -32,31 -56,34 -31,3 -74,-8 -88,-40 -11,-24 -2,-53 30,-68 9,-4 14,-9 23,-13z"/>
   <ellipse class="fil18" transform="matrix(0.329429 0.0418412 -0.0253631 0.27202 1856.71 1031.85)" rx="43" ry="67"/>
   <ellipse class="fil18" transform="matrix(0.329429 0.0418412 -0.0253631 0.27202 1924.3 1038.92)" rx="43" ry="67"/>
  </g>
 </g>
</svg>
