<?xml version="1.0" encoding="UTF-8"?>
<!DOCTYPE svg PUBLIC "-//W3C//DTD SVG 1.0//EN" "http://www.w3.org/TR/2001/REC-SVG-20010904/DTD/svg10.dtd">
<!-- Creator: CorelDRAW X8 -->
<svg xmlns="http://www.w3.org/2000/svg" xml:space="preserve" width="1560px" height="1320px" version="1.0" style="shape-rendering:geometricPrecision; text-rendering:geometricPrecision; image-rendering:optimizeQuality; fill-rule:evenodd; clip-rule:evenodd"
viewBox="0 0 219 185"
 xmlns:xlink="http://www.w3.org/1999/xlink">
 <defs>
  <style type="text/css">
   <![CDATA[
    .fil0 {fill:#0059D1}
    .fil1 {fill:white;fill-rule:nonzero}
   ]]>
  </style>
 </defs>
 <g id="Camada_x0020_1">
  <metadata id="CorelCorpID_0Corel-Layer"/>
  <rect class="fil0" width="219" height="185"/>
  <g>
   <path class="fil1" d="M103 131l-2 2 0 0 -1 -3 -2 -4 -1 -3 -2 -3 -1 -3 -2 -3 -2 -3 -2 -3 -1 -3 -2 -3 -2 -3 -2 -3 -2 -3 -3 -2 -2 -3 -2 -2 -3 -3 -2 -2 -3 -2 -3 -2 -3 -2 -3 -2 -3 -2 -3 -2 -4 -1 -3 -2 -4 -1 -4 -1 -4 -1 -4 -1 -4 -1 -5 0 1 -2 5 1 4 0 5 1 4 1 3 1 4 2 4 1 3 2 4 1 3 2 3 2 3 2 3 2 2 2 3 3 2 2 3 3 2 2 2 3 3 3 2 3 2 2 1 3 2 3 2 3 2 3 2 4 1 3 2 3 1 3 2 3 1 3 0 0zm18 31l-2 1 0 0 0 0 -1 -1 -1 -1 0 -1 -1 -1 -1 -1 0 0 -1 -1 0 -1 -1 -1 -1 -1 0 -1 -1 -1 0 -1 -1 -1 0 -1 -1 -1 -1 -1 0 -1 -1 -1 0 -1 -1 -1 0 -1 -1 -1 0 -1 -1 -1 0 -1 -1 -1 0 -1 -1 -1 0 -1 -1 -1 2 -2 1 2 0 1 1 1 0 1 1 1 0 1 1 1 0 1 1 1 0 1 1 1 0 1 1 1 0 1 1 1 0 1 1 1 1 1 0 1 1 1 0 1 1 1 0 0 1 1 1 1 0 1 1 1 0 1 1 1 1 0 0 1 1 1 0 0zm36 19l-1 1 0 0 -1 0 -2 0 -1 0 -1 0 -2 0 -1 -1 -1 0 -1 0 -2 -1 -1 0 -1 -1 -1 0 -2 -1 -1 0 -1 -1 -1 0 -1 -1 -1 0 -2 -1 -1 -1 -1 -1 -1 0 -1 -1 -1 -1 -1 -1 -1 -1 -1 -1 -1 -1 -1 -1 -1 -1 -1 -1 -1 -1 2 -1 1 1 1 1 1 1 1 1 1 1 1 1 1 1 1 1 1 0 1 1 1 1 1 1 1 0 1 1 1 1 2 0 1 1 1 0 1 1 1 0 1 1 2 0 1 1 1 0 1 0 2 1 1 0 1 0 1 0 2 1 1 0 1 0 0 0zm46 -14l1 1 0 0 -1 1 -2 1 -1 1 -1 1 -2 1 -1 0 -1 1 -2 1 -1 1 -2 1 -1 0 -2 1 -1 0 -2 1 -1 0 -2 1 -1 0 -2 1 -1 0 -2 0 -2 1 -1 0 -2 0 -1 0 -2 1 -2 0 -1 0 -2 0 -1 0 -2 0 -1 0 -2 -1 1 -1 2 0 1 0 2 0 1 0 2 0 1 0 2 0 2 0 1 0 2 -1 1 0 2 0 1 0 2 -1 1 0 2 -1 1 0 2 -1 1 0 2 -1 1 0 1 -1 2 -1 1 0 1 -1 2 -1 1 -1 1 0 1 -1 2 -1 1 -1 1 -1 0 0zm13 -10l0 1 0 0 -1 0 0 1 -1 0 0 0 0 0 -1 1 0 0 0 0 -1 0 0 1 -1 0 0 0 0 1 -1 0 0 0 0 1 -1 0 0 0 -1 0 0 1 0 0 -1 0 0 1 -1 0 0 1 0 0 -1 0 0 1 0 0 -1 0 0 1 -1 -1 0 0 1 -1 0 0 0 0 1 -1 0 0 0 -1 1 0 0 0 1 -1 0 0 0 0 1 -1 0 0 1 0 0 -1 0 0 1 0 0 -1 1 0 0 0 1 -1 0 0 0 0 1 -1 0 0 1 0 0 0 1 -1 0 0 0 0 1 0z"/>
  </g>
  <g>
   <path class="fil1" d="M121 102l-2 1 0 0 -2 -3 -1 -2 -2 -3 -2 -3 -2 -2 -1 -3 -2 -2 -2 -3 -2 -2 -2 -2 -2 -3 -2 -2 -2 -2 -2 -2 -2 -2 -2 -2 -3 -2 -2 -2 -2 -2 -2 -1 -3 -2 -2 -2 -3 -1 -2 -2 -3 -1 -2 -1 -3 -2 -2 -1 -3 -1 -3 -1 -2 -1 -3 -1 1 -1 3 0 3 1 3 1 2 2 3 1 3 1 2 1 3 2 2 1 3 2 2 1 2 2 3 2 2 2 2 2 2 1 2 2 3 3 2 2 2 2 2 2 2 2 2 3 2 2 2 2 1 3 2 2 2 3 2 2 2 3 1 3 2 3 0 0zm32 33l-2 2 0 0 -1 -1 -2 0 -1 -1 -2 -1 -1 -1 -1 -1 -1 -1 -2 -1 -1 -1 -1 -1 -1 -1 -1 -1 -1 -1 -2 -1 -1 -2 -1 -1 -1 -1 0 -1 -1 -1 -1 -2 -1 -1 -1 -1 -1 -1 0 -1 -1 -2 -1 -1 -1 -1 0 -1 -1 -1 -1 -1 0 -1 -1 -1 2 -1 1 1 0 1 1 1 1 1 0 1 1 1 1 1 0 1 1 1 1 2 1 1 1 1 1 1 0 1 1 2 1 1 1 1 1 1 1 1 1 1 2 1 1 2 1 1 1 1 1 1 2 1 1 0 1 1 2 1 1 1 1 1 2 0 0 0zm24 0l0 2 0 0 -1 0 0 0 -1 1 -1 0 -1 0 -1 1 0 0 -1 0 -1 0 -1 0 -1 0 -1 1 0 0 -1 0 -1 0 -1 0 -1 0 -1 0 0 0 -1 -1 -1 0 -1 0 -1 0 -1 0 0 0 -1 0 -1 -1 -1 0 -1 0 0 0 -1 -1 -1 0 2 -2 1 1 0 0 1 0 1 0 0 1 1 0 1 0 1 0 1 0 0 1 1 0 1 0 1 0 1 0 0 0 1 0 1 0 1 0 1 0 0 0 1 0 1 0 1 0 1 -1 0 0 1 0 1 0 0 0 1 -1 1 0 0 0 1 -1 0 0zm4 -4l2 0 0 0 0 0 0 0 0 0 -1 1 0 0 0 0 0 0 0 0 0 1 -1 0 0 0 0 0 0 0 0 1 -1 0 0 0 0 0 0 0 0 1 0 0 -1 0 0 0 0 0 0 0 0 1 -1 0 0 0 0 0 0 0 -1 0 0 0 0 1 0 -2 0 0 0 0 0 0 0 0 0 0 1 0 0 0 0 0 0 -1 0 0 0 0 1 0 0 0 0 0 0 0 0 0 0 -1 0 0 1 0 0 0 0 0 0 0 0 -1 0 0 0 0 1 0 0 0 0 0 0 -1 0 0 0 0 0 0 0 0zm34 -17l-1 2 -1 0 -1 0 -1 0 -1 0 -2 0 -1 0 -1 1 -1 0 -1 0 -1 0 -1 1 -2 0 -1 1 -1 0 -1 0 -1 1 -1 0 -1 1 -1 1 -1 0 -1 1 -1 0 -1 1 0 1 -1 0 -1 1 -1 1 -1 1 0 0 -1 1 0 1 -1 1 -2 0 1 -1 1 -1 0 -1 1 -1 1 -1 1 -1 1 0 1 -1 1 -1 1 -1 1 0 1 -1 1 -1 1 0 1 -1 1 0 1 -1 2 0 1 -1 1 0 1 -1 1 0 2 0 1 -1 1 0 1 0 1 0 2 0 1 -1 1 0 1 0 1 0z"/>
  </g>
  <g>
   <path class="fil1" d="M177 32l-2 2 0 0 -1 -1 0 -1 -1 -1 0 -1 -1 -1 0 -1 -1 -1 -1 -1 0 -1 -1 -1 0 -1 -1 0 0 -1 -1 -1 0 -1 -1 -1 0 -1 0 -1 -1 -1 0 -1 0 -1 0 -1 -1 -1 0 -1 0 -1 0 -1 0 -1 0 -1 0 -1 1 -1 0 -1 0 -2 2 0 0 1 0 1 -1 1 0 1 0 1 0 1 0 1 0 1 0 1 1 1 0 1 0 1 0 1 1 1 0 1 0 0 1 1 0 1 1 1 0 1 1 1 0 1 1 1 0 1 1 1 0 1 1 1 1 1 0 0 1 1 0 1 1 1 0 0zm6 23l-2 1 0 0 0 -1 0 -1 0 0 0 -1 0 -1 0 0 0 -1 0 -1 0 -1 0 0 -1 -1 0 -1 0 -1 0 0 0 -1 0 -1 -1 0 0 -1 0 -1 0 -1 -1 0 0 -1 0 -1 -1 0 0 -1 0 -1 0 0 -1 -1 0 -1 0 0 -1 -1 0 0 2 -2 0 1 0 0 1 1 0 1 0 0 1 1 0 1 0 0 1 1 0 1 0 0 1 1 0 1 0 1 0 0 1 1 0 1 0 1 0 0 0 1 0 1 1 1 0 0 0 1 0 1 0 0 0 1 0 1 0 1 0 0 0 1 0 1 0 0zm-22 19l1 -2 0 0 1 0 0 0 1 0 1 0 0 0 1 0 1 0 1 0 1 0 0 -1 1 0 1 0 1 0 0 -1 1 0 1 -1 0 0 1 -1 1 0 0 -1 1 0 1 -1 0 -1 1 -1 0 -1 1 0 0 -1 0 -1 1 -2 0 -1 0 -1 0 -1 2 -1 0 1 0 2 0 1 -1 1 0 1 -1 1 0 1 -1 1 0 1 -1 1 -1 1 0 1 -1 0 -1 1 -1 1 -1 0 -1 1 -1 0 0 1 -1 0 -1 1 -1 0 -1 0 -1 0 -1 1 -1 0 0 0 -1 0 -1 0 -1 0 -1 0 0 0 0 0zm0 -12l-1 2 0 0 -1 0 -1 0 0 0 -1 1 0 0 -1 0 0 0 0 0 0 0 0 0 -1 1 0 0 0 0 0 1 0 0 0 0 0 1 0 0 1 0 0 1 0 0 0 1 1 0 0 0 1 1 0 0 1 0 0 1 1 0 1 0 0 0 1 0 -1 2 -1 0 -1 0 -1 -1 0 0 -1 0 0 0 -1 -1 -1 0 0 -1 0 0 -1 0 0 -1 0 0 -1 -1 0 0 0 -1 0 0 0 -1 0 0 0 -1 1 0 0 -1 0 0 1 -1 1 0 0 0 1 -1 1 0 0 0 1 0 1 -1 1 0 0 0zm10 -15l2 -1 0 0 1 1 0 1 0 0 0 1 0 1 0 1 0 0 0 1 0 1 0 0 0 1 -1 1 0 1 0 0 -1 1 0 1 0 0 -1 1 0 1 -1 0 -1 1 0 0 -1 1 -1 0 -1 1 0 0 -1 0 -1 1 -1 0 -1 0 -1 0 -1 0 1 -2 1 0 1 0 1 0 0 0 1 0 1 -1 0 0 1 0 1 0 0 -1 0 0 1 0 0 -1 1 0 0 -1 0 0 1 -1 0 0 0 -1 0 -1 1 0 0 -1 0 0 0 -1 0 -1 0 -1 0 0 0 -1 0 -1 0 0 0 -1 -1 -1 0 0zm-6 -3l-2 1 0 0 0 -1 0 -1 0 0 0 -1 0 0 0 -1 1 0 0 -1 1 0 0 -1 1 0 0 0 1 0 0 0 1 0 0 0 0 0 1 0 0 1 1 0 0 0 0 1 1 0 0 0 1 1 0 0 0 1 1 1 0 0 0 1 0 0 0 1 -2 1 0 0 0 -1 0 -1 0 0 -1 -1 0 0 0 -1 -1 0 0 0 0 -1 -1 0 0 0 0 -1 -1 0 0 0 0 0 -1 0 0 0 0 0 -1 0 0 0 0 0 0 0 0 0 0 0 0 0 0 0 0 0 0 1 0 0 0 1 0 1 0 0zm-16 14l1 -1 0 0 0 0 1 0 1 0 0 -1 1 0 0 0 1 0 1 0 0 -1 1 0 0 0 1 0 0 -1 1 0 0 0 1 -1 0 0 1 0 0 -1 0 0 1 -1 0 0 0 -1 1 0 0 -1 0 0 0 -1 0 -1 1 0 0 -1 0 -1 0 0 2 -1 0 0 0 1 -1 1 0 1 0 0 0 1 0 1 -1 1 0 0 0 1 -1 0 0 1 -1 1 0 0 -1 1 0 0 -1 1 -1 0 0 1 -1 0 -1 0 0 1 -1 0 -1 0 0 0 -1 1 -1 0 -1 0 0 0 -1 0 -1 0 0 0 0 0zm-19 -8l2 -1 0 0 0 0 1 0 0 1 1 0 0 1 1 0 0 1 0 0 1 0 0 1 1 0 0 0 1 1 1 0 0 0 1 1 0 0 1 0 0 0 1 1 0 0 1 0 1 0 0 0 1 0 1 1 0 0 1 0 0 0 1 0 1 0 1 0 -1 1 -1 0 -1 0 -1 0 0 0 -1 0 -1 0 0 0 -1 0 -1 0 0 0 -1 -1 -1 0 0 0 -1 0 0 0 -1 -1 -1 0 0 0 -1 -1 0 0 -1 0 0 -1 -1 0 0 -1 -1 0 0 0 -1 -1 0 0 -1 -1 0 0 -1 -1 0 0 0 0zm-40 -33l1 -1 0 0 2 0 1 1 2 1 1 0 2 1 1 1 2 1 1 1 1 1 2 0 1 1 1 1 2 1 1 1 1 1 1 2 1 1 1 1 2 1 1 1 1 1 1 1 1 1 1 2 1 1 2 1 1 1 1 2 1 1 1 1 2 1 1 2 -2 1 -1 -1 -2 -2 -1 -1 -1 -1 -1 -1 -1 -1 -1 -2 -1 -1 -2 -1 -1 -1 -1 -1 -1 -2 -1 -1 -1 -1 -1 -1 -2 -1 -1 -1 -1 -1 -1 -1 -1 -1 -2 -1 -1 -1 -1 -1 -2 -1 -1 -1 -1 0 -2 -1 -1 -1 -2 -1 -1 0 -2 -1 -1 -1 0 0zm-10 9l-1 1 0 0 -2 0 -1 -1 -1 0 -1 -1 0 -1 -1 0 -1 -1 0 -1 -1 0 0 -1 0 -1 0 0 0 -1 0 -1 0 -1 1 0 0 -1 1 -1 1 0 1 -1 1 0 1 0 1 -1 1 0 1 0 2 0 1 1 1 0 2 0 2 1 1 0 2 1 -1 1 -2 0 -2 -1 -1 0 -2 -1 -1 0 -2 0 -1 0 -1 0 -1 0 -1 0 -1 1 0 0 -1 0 0 0 -1 0 0 1 0 0 0 0 0 1 0 0 0 1 0 1 0 0 1 1 0 1 1 0 0 1 1 1 1 0 1 1 1 0 1 1 0 0zm47 36l-1 2 0 0 -2 -1 -1 -2 -1 -1 -1 -2 -2 -1 -1 -1 -1 -2 -2 -1 -1 -1 -1 -2 -2 -1 -1 -1 -2 -1 -1 -2 -1 -1 -2 -1 -1 -1 -2 -1 -1 -1 -2 -1 -1 -2 -2 -1 -2 -1 -1 -1 -2 -1 -1 -1 -2 0 -2 -1 -1 -1 -2 -1 -2 -1 -1 -1 1 -1 2 1 2 0 1 1 2 1 2 1 1 1 2 1 2 1 1 1 2 1 1 1 2 1 1 1 2 1 1 1 2 2 1 1 2 1 1 1 2 1 1 2 1 1 2 1 1 2 1 1 2 1 1 2 1 1 2 1 1 2 1 1 1 1 0 0zm25 23l-2 2 0 0 -1 -1 -1 0 -1 -1 -1 0 0 -1 -1 -1 -1 0 -1 -1 -1 0 -1 -1 0 -1 -1 0 -1 -1 -1 -1 0 -1 -1 0 -1 -1 -1 -1 0 -1 -1 0 -1 -1 -1 -1 0 -1 -1 -1 -1 0 0 -1 -1 -1 -1 -1 0 -1 -1 0 -1 -1 0 -1 1 -2 1 1 1 1 0 1 1 1 1 1 1 0 0 1 1 1 1 1 0 1 1 0 1 1 0 1 1 1 1 0 1 1 0 1 1 1 1 0 1 1 0 1 1 0 1 1 1 1 1 0 0 1 1 0 1 1 1 0 1 1 1 0 1 1 0 0zm39 -19l2 -1 0 0 0 2 0 2 0 2 -1 2 -1 1 0 2 -1 1 -1 2 -1 1 -2 2 -1 1 -1 1 -2 1 -1 1 -2 1 -1 0 -2 1 -2 0 -1 1 -2 0 -2 0 -2 1 -1 0 -2 0 -2 -1 -2 0 -1 0 -2 0 -2 -1 -1 0 -2 -1 -2 0 2 -2 1 1 2 0 2 1 1 0 2 0 2 1 1 0 2 0 2 0 1 0 2 0 2 -1 1 0 2 0 1 -1 2 0 1 -1 2 -1 1 0 1 -1 1 -1 1 -1 1 -1 1 -1 1 -1 1 -2 0 -1 1 -2 1 -1 0 -2 0 -2 0 -2 0 0zm2 -7l2 0 0 0 -1 0 0 1 0 0 0 0 0 0 0 0 0 0 0 1 0 0 0 0 0 0 0 0 0 0 0 0 0 0 0 1 -1 0 0 0 0 0 0 0 0 0 0 1 0 0 0 0 0 0 0 0 0 1 0 0 0 0 0 1 0 0 0 0 -2 1 0 0 0 -1 0 0 0 0 0 0 0 -1 0 0 0 0 0 0 0 0 0 -1 0 0 0 0 0 0 1 0 0 -1 0 0 0 0 0 0 0 0 0 -1 0 0 0 0 0 0 0 0 0 0 0 -1 0 0 1 0 0 0 0 0 0 -1 0 0zm-6 -36l1 -1 0 0 1 1 1 1 0 1 1 1 1 1 0 1 1 1 1 1 0 1 1 1 0 1 1 1 0 2 1 1 0 1 0 1 1 1 0 1 0 2 0 1 1 1 0 1 0 1 -1 2 0 1 0 1 0 2 -1 1 0 1 -1 2 -1 1 0 1 -2 0 1 -1 0 -1 1 -1 0 -2 1 -1 0 -1 0 -1 0 -1 1 -2 0 -1 0 -1 -1 -1 0 -1 0 -2 0 -1 0 -1 -1 -1 0 -1 -1 -1 0 -1 -1 -1 0 -1 -1 -2 0 -1 -1 -1 -1 -1 0 -1 -1 -1 -1 -1 0 -1 -1 -1 0 -1 0 0zm5 -23l-1 2 0 0 -1 0 0 0 -1 0 0 1 -1 0 0 0 0 0 -1 0 0 1 -1 0 0 0 0 1 0 0 -1 1 0 0 0 1 0 1 -1 0 0 1 0 1 0 1 0 0 0 1 1 1 0 1 0 1 0 1 1 1 0 1 1 2 1 1 0 1 -1 1 -1 -1 -1 -1 -1 -1 0 -1 -1 -1 0 -2 0 -1 0 -1 -1 -1 0 0 0 -1 0 -1 0 -1 0 -1 1 -1 0 0 0 -1 0 -1 1 -1 0 0 1 -1 0 0 1 -1 0 0 1 -1 1 0 0 -1 1 0 1 0 0 0 1 -1 1 0 0 0zm5 9l-2 0 0 0 1 0 0 0 0 -1 0 0 0 -1 0 0 1 0 0 -1 0 0 0 0 -1 -1 0 0 0 0 0 -1 0 0 0 0 0 0 -1 -1 0 0 0 0 -1 0 0 0 0 -1 0 0 -1 0 0 0 0 0 -1 0 0 0 -1 0 0 0 0 0 1 -2 0 0 1 0 0 0 0 0 1 0 0 0 1 1 0 0 0 0 1 0 0 0 0 0 1 1 0 0 0 0 1 0 0 1 0 0 0 0 0 1 0 0 1 0 0 1 0 0 0 1 -1 0 0 1 0 0 0 1 0 0 -1 1 0 0 0 0zm1 10l-2 2 0 0 -1 -1 0 0 0 -1 0 0 0 0 0 -1 -1 0 0 0 0 -1 0 0 0 0 0 -1 0 0 0 0 0 -1 0 0 0 0 0 -1 0 0 0 0 0 -1 0 0 0 0 0 -1 0 0 0 0 0 -1 1 0 0 -1 0 0 0 0 0 -1 2 0 0 1 0 0 0 0 -1 0 0 1 0 0 0 0 0 1 0 0 0 0 0 0 0 1 0 0 0 0 0 1 0 0 0 0 0 0 0 1 0 0 0 0 0 1 0 0 0 0 0 1 0 0 1 0 0 1 0 0 0 0 0 1 1 0 0 0zm3 7l-1 1 -1 0 0 0 0 0 0 -1 0 0 0 0 0 0 0 -1 -1 0 0 0 0 0 0 0 0 -1 0 0 0 0 0 0 -1 0 0 -1 0 0 0 0 0 0 0 -1 0 0 0 0 -1 0 0 0 0 -1 0 0 0 0 0 0 0 0 0 0 2 -2 0 0 0 1 0 0 0 0 0 0 0 0 0 1 0 0 1 0 0 0 0 0 0 1 0 0 0 0 0 0 0 0 1 1 0 0 0 0 0 0 0 0 0 1 0 0 1 0 0 0 0 1 0 0 0 0 0 0 0 0 0 1 0 0z"/>
  </g>
  <g>
   <path class="fil1" d="M131 28l-1 2 0 0 -2 -2 -1 -1 -2 -1 -1 -2 -2 -1 -1 -1 -2 -1 -1 -2 -2 -1 -1 -1 -2 -1 -2 -1 -1 -1 -2 -1 -2 -1 -1 -1 -2 -1 -2 -1 -2 -1 -2 -1 -2 0 -2 -1 -2 0 -2 -1 -2 -1 -3 0 -2 0 -3 -1 -2 0 -3 0 -3 0 -3 0 1 -2 3 0 3 0 3 0 3 1 2 0 3 0 2 1 2 0 3 1 2 0 2 1 2 1 2 1 2 0 2 1 1 1 2 1 2 1 2 1 1 1 2 1 1 1 2 2 1 1 2 1 1 1 2 2 1 1 2 1 1 2 2 1 1 1 0 0zm12 7l-1 1 0 0 0 0 -1 0 0 0 -1 0 0 0 0 0 -1 0 0 0 -1 0 0 -1 0 0 -1 0 0 0 0 0 -1 0 0 -1 -1 0 0 0 0 0 -1 -1 0 0 -1 0 0 0 0 -1 -1 0 0 0 0 -1 -1 0 0 0 -1 0 0 -1 0 0 1 -2 1 1 0 0 1 0 0 1 0 0 1 0 0 1 0 0 1 0 0 0 1 1 0 0 0 0 1 0 0 1 0 0 1 0 0 0 1 0 0 0 0 1 1 0 0 0 0 0 1 0 0 0 0 0 1 0 0 0 1 1 0 0 0 0 0 0zm7 -10l2 -2 0 0 0 1 0 1 0 1 0 0 0 1 0 1 0 0 0 1 0 0 0 1 0 0 0 1 -1 0 0 1 0 0 -1 1 0 0 -1 1 0 0 -1 1 0 0 -1 0 0 0 -1 1 0 0 -1 0 0 0 -1 0 0 0 -1 0 0 0 -1 0 1 -1 1 0 0 0 1 0 0 -1 1 0 0 0 0 0 1 0 0 0 0 0 1 0 0 -1 0 0 0 0 1 0 0 0 0 -1 0 0 1 0 0 -1 0 0 0 -1 0 0 0 -1 0 0 0 -1 0 0 0 -1 0 0 0 -1 0 -1 0 0 0 0zm-2 -5l2 -1 0 0 0 0 0 0 0 0 0 0 1 0 0 0 0 1 0 0 0 0 0 0 0 0 0 0 0 0 0 1 0 0 0 0 0 0 0 0 0 0 0 0 1 1 0 0 0 0 0 0 0 0 0 0 0 1 0 0 0 0 0 0 0 0 0 0 -2 2 0 -1 0 0 0 0 0 0 0 0 0 0 0 -1 0 0 0 0 0 0 0 0 0 0 -1 0 0 -1 0 0 0 0 0 0 0 0 0 0 0 0 0 -1 0 0 0 0 0 0 0 0 0 0 0 0 0 -1 -1 0 0 0 0 0 0 0 0 0zm-4 -19l2 -1 0 1 0 0 0 1 0 0 0 1 0 0 0 1 0 0 0 1 0 0 0 1 0 0 0 1 0 0 0 1 0 0 0 1 0 0 1 1 0 1 0 0 0 1 0 0 1 1 0 1 0 0 0 1 1 1 0 0 0 1 1 1 0 1 -2 1 0 -1 0 -1 -1 0 0 -1 0 -1 -1 0 0 -1 0 -1 -1 0 0 -1 0 -1 0 0 0 -1 0 0 -1 -1 0 -1 0 0 0 -1 0 0 0 -1 0 0 0 -1 0 0 0 -1 0 0 0 -1 0 0 0 -1 0 0 0 -1 0 0 0 -1z"/>
  </g>
  <g>
   <path class="fil1" d="M67 150l-2 -1 0 0 -1 -2 0 -3 0 -3 -1 -3 0 -3 0 -2 -1 -3 0 -3 -1 -2 -1 -3 -1 -2 0 -3 -1 -2 -1 -2 -1 -3 -1 -2 -2 -2 -1 -2 -1 -2 -2 -2 -1 -2 -2 -2 -1 -1 -2 -2 -2 -2 -2 -1 -2 -1 -2 -2 -3 -1 -2 -1 -3 -1 -2 -1 1 -1 3 1 2 1 3 1 2 2 2 1 3 1 2 2 2 1 2 2 1 2 2 2 2 2 1 2 1 2 2 2 1 2 1 2 1 2 1 3 1 2 1 3 1 2 0 3 1 2 0 3 1 3 0 2 1 3 0 3 0 3 1 3 0 3 0 0zm7 31l-2 0 0 -1 -1 0 0 -1 0 -1 -1 -1 0 -1 0 0 -1 -1 0 -1 0 -1 -1 -1 0 -1 0 -1 0 -1 -1 -1 0 -1 0 -1 0 -1 -1 -1 0 -1 0 -1 0 -1 0 -1 0 -1 -1 -1 0 -1 0 -2 0 -1 0 -1 0 -1 0 -1 0 -2 2 1 0 1 0 1 0 1 0 1 0 2 1 1 0 1 0 1 0 1 0 1 0 1 1 1 0 1 0 1 0 1 0 1 1 1 0 1 0 1 0 1 1 1 0 1 0 1 1 1 0 0 0 1 1 1 0 1 0 1 1 0 0 1 0 1z"/>
  </g>
  <g>
   <path class="fil1" d="M23 120l2 0 0 0 1 2 1 2 1 1 0 2 1 2 0 2 1 2 0 2 0 2 0 2 0 2 0 2 0 2 -1 2 0 2 -1 1 0 2 -1 2 -1 2 -1 1 -1 2 -1 1 -2 2 -1 1 -1 2 -2 1 -2 1 -1 1 -2 1 -2 1 -2 1 -2 1 -2 -1 2 -1 2 -1 2 -1 2 -1 1 -1 2 -1 2 -1 1 -1 1 -2 1 -1 2 -2 1 -1 1 -2 0 -2 1 -1 1 -2 1 -2 0 -2 0 -1 1 -2 0 -2 0 -2 0 -2 0 -2 -1 -2 0 -2 0 -2 -1 -2 -1 -1 0 -2 -1 -2 -1 -2 0 0zm-15 -11l0 -1 0 0 1 0 1 0 0 0 1 0 1 1 1 0 0 0 1 0 0 1 1 0 1 0 0 1 1 0 0 0 1 1 0 0 1 1 0 0 1 0 0 1 1 0 0 1 1 0 0 1 1 0 0 1 0 0 1 1 0 0 0 1 1 0 0 1 -2 0 0 0 -1 -1 0 0 0 -1 -1 0 0 -1 -1 0 0 -1 0 0 -1 -1 0 0 -1 -1 0 0 0 0 -1 -1 0 0 -1 0 0 -1 -1 0 0 0 -1 -1 0 0 -1 0 -1 -1 0 0 -1 0 0 0 -1 0 0 -1 -1 0 -1 0 0 0 0 0zm0 9l-1 1 0 0 -1 0 -1 -1 -1 0 -1 -1 0 0 -1 -1 0 0 -1 -1 0 0 0 -1 -1 0 0 -1 0 0 0 -1 0 0 0 -1 0 0 0 0 1 -1 0 0 0 -1 1 0 0 0 1 -1 0 0 1 0 0 0 1 0 1 0 1 0 0 0 1 0 0 1 -1 0 0 0 -1 0 0 0 -1 0 0 0 0 0 -1 0 0 0 0 1 -1 0 0 0 0 1 0 0 0 0 -1 1 0 0 0 1 1 0 0 0 0 1 0 0 0 1 0 0 1 1 0 0 1 0 0 1 1 0 0 0 1 1 1 0 0 0zm12 24l-2 0 0 0 0 -1 0 -1 0 -1 0 -1 0 0 0 -1 0 -1 0 -1 0 -1 0 -1 0 -1 0 -1 -1 0 0 -1 0 -1 -1 -1 0 -1 -1 0 0 -1 -1 -1 0 0 -1 -1 0 -1 -1 0 0 -1 -1 0 -1 -1 0 0 -1 -1 -1 0 -1 -1 0 0 1 -1 1 1 1 0 0 0 1 1 1 0 1 1 1 1 0 0 1 1 1 1 0 0 1 1 0 1 1 0 0 1 0 1 1 1 0 1 1 1 0 0 0 1 0 1 0 1 1 1 0 1 0 1 0 1 0 1 0 0 0 1 0 1 -1 1 0 0zm-3 8l-2 0 0 0 0 -1 0 0 0 0 0 0 1 0 0 0 0 -1 0 0 0 0 0 0 0 -1 0 0 1 0 0 0 0 -1 0 0 0 0 0 0 0 0 0 -1 0 0 0 0 1 -1 0 0 0 0 0 0 0 -1 0 0 0 0 0 0 0 -1 0 0 2 0 0 1 0 0 0 0 0 0 0 1 0 0 0 0 0 1 0 0 0 0 0 0 0 1 -1 0 0 0 0 0 0 1 0 0 0 0 0 0 0 1 0 0 -1 0 0 0 0 1 0 0 0 0 0 0 0 0 -1 1 0 0 0 0 0 0 0 0zm-13 3l2 -1 0 0 1 0 0 0 0 1 0 0 0 0 1 0 0 0 0 0 0 0 0 0 1 0 0 0 0 0 0 0 1 0 0 0 0 0 0 0 1 0 0 0 0 0 1 -1 0 0 0 0 1 0 0 0 0 -1 1 0 0 0 0 -1 1 0 0 0 2 0 0 1 -1 0 0 0 0 1 -1 0 0 0 0 1 -1 0 0 0 -1 0 0 1 0 0 -1 0 0 0 -1 0 0 0 -1 0 0 0 0 0 -1 0 0 0 -1 0 0 0 -1 0 0 0 -1 0 0 0 0 0 -1 -1 0 0 0 0 -1 0 0 0zm1 -8l2 1 0 0 0 0 -1 0 0 1 0 0 0 0 0 0 0 1 0 0 0 0 0 0 0 1 0 0 -1 0 0 0 0 0 0 1 0 0 0 0 1 0 0 0 0 1 0 0 0 0 0 0 0 0 0 0 0 1 0 0 0 0 0 0 0 0 0 0 -2 1 0 0 0 -1 0 0 0 0 0 0 0 0 0 -1 0 0 -1 0 0 0 0 0 0 -1 0 0 0 0 0 0 0 -1 0 0 0 0 0 0 0 -1 0 0 0 0 0 0 0 -1 1 0 0 0 0 0 0 -1 0 0 0 0 0 -1 1 0 0 0zm2 -2l2 0 0 0 0 0 0 0 0 0 -1 1 0 0 0 0 0 0 0 0 0 0 0 0 0 0 0 0 0 0 0 0 0 1 0 0 0 0 0 0 0 0 -1 0 0 0 0 0 0 0 0 0 0 0 0 0 0 0 0 1 0 0 0 0 0 0 0 0 -2 -1 0 0 0 0 0 0 0 0 0 0 0 0 0 0 0 0 0 0 0 -1 0 0 0 0 0 0 0 0 0 0 1 0 0 0 0 0 0 0 0 0 0 0 0 0 0 -1 0 0 0 0 0 0 0 0 0 0 0 0 0 0 1 0 0 0 0 0zm0 -14l2 0 1 0 0 1 0 0 1 1 0 0 0 1 0 0 1 0 0 1 0 0 0 1 0 0 0 1 0 0 0 1 0 0 0 1 0 0 0 1 -1 0 0 0 0 1 0 0 0 1 0 0 -1 1 0 0 0 1 0 0 -1 0 0 1 0 0 -2 0 0 -1 0 0 0 -1 1 0 0 0 0 -1 0 0 1 -1 0 0 0 0 0 -1 0 0 0 -1 0 0 0 -1 1 0 0 0 0 -1 0 0 0 -1 0 0 -1 -1 0 0 0 0 0 -1 0 0 0 -1 -1 0 0 -1 0 0 0 0 -1 -1z"/>
  </g>
  <g>
   <path class="fil1" d="M111 117l-2 2 0 0 -2 -4 -2 -4 -2 -4 -2 -3 -3 -3 -2 -4 -2 -3 -3 -3 -2 -3 -2 -3 -3 -3 -3 -3 -2 -2 -3 -3 -3 -2 -3 -3 -3 -2 -3 -2 -3 -2 -3 -1 -3 -2 -4 -2 -3 -1 -4 -1 -3 -2 -4 -1 -4 -1 -4 0 -4 -1 -4 0 -5 -1 -4 0 1 -2 5 0 4 1 4 0 4 1 4 1 4 1 4 1 4 1 3 1 4 2 3 1 4 2 3 2 3 2 3 2 3 2 3 2 3 3 3 2 2 3 3 3 2 2 3 3 2 3 3 4 2 3 2 3 3 4 2 3 2 4 2 3 2 4 0 0zm26 36l-1 1 0 0 -2 0 -1 -1 -1 -1 -1 -1 -1 -1 -1 -1 -1 -1 -1 -1 -1 -1 -1 -1 -1 -1 -1 -1 0 -1 -1 -2 -1 -1 -1 -1 -1 -1 0 -1 -1 -2 -1 -1 -1 -1 0 -1 -1 -1 -1 -2 0 -1 -1 -1 -1 -1 0 -2 -1 -1 -1 -1 0 -1 -1 -1 2 -2 1 1 0 2 1 1 1 1 0 1 1 2 1 1 0 1 1 1 1 2 0 1 1 1 1 1 1 1 0 2 1 1 1 1 1 1 0 1 1 1 1 1 1 1 1 1 1 2 1 1 1 1 1 0 1 1 1 1 1 1 1 1 1 1 0 0zm48 4l0 2 0 0 -2 1 -1 0 -2 1 -1 0 -2 1 -1 0 -2 0 -2 1 -1 0 -2 0 -2 0 -1 0 -2 0 -1 0 -2 0 -2 0 -1 0 -2 0 -1 -1 -2 0 -2 0 -1 -1 -2 0 -1 -1 -2 0 -1 -1 -2 -1 -1 0 -1 -1 -2 -1 -1 -1 -1 -1 1 -1 2 1 1 1 1 0 2 1 1 1 1 1 2 0 1 1 2 0 1 1 2 0 1 0 2 1 2 0 1 0 2 0 1 0 2 1 1 0 2 0 2 -1 1 0 2 0 1 0 2 0 1 -1 2 0 1 0 2 -1 1 0 1 -1 2 -1 0 0zm8 -6l2 0 0 0 -1 1 0 0 0 0 0 0 -1 1 0 0 0 0 0 1 -1 0 0 0 0 0 0 1 -1 0 0 0 0 0 -1 1 0 0 0 0 -1 0 0 0 0 1 -1 0 0 0 0 0 -1 1 0 0 0 0 -1 0 0 0 -1 0 0 1 0 0 0 -2 0 0 0 0 1 0 0 0 0 0 1 -1 0 0 0 0 1 0 0 0 0 0 0 -1 1 0 0 0 0 0 1 0 0 -1 0 0 0 0 1 0 0 0 0 -1 0 0 1 0 0 0 0 0 0 -1 0 0 1 0 0 0 0 -1 0 0 0 0zm0 -2l1 -1 0 0 0 0 1 0 0 0 0 0 0 0 0 0 0 0 0 0 0 0 1 0 0 0 0 0 0 0 0 1 0 0 0 0 0 0 0 0 0 0 0 0 0 1 0 0 0 0 0 0 -1 0 0 0 0 0 0 1 0 0 0 0 0 0 0 0 -2 0 0 0 0 0 0 0 1 0 0 0 0 -1 0 0 0 0 0 0 0 0 0 0 0 0 0 0 0 0 0 0 0 0 0 0 0 0 0 0 0 0 0 0 0 0 0 0 0 0 0 0 0 0 0 0 -1 0 0 -1 0 0 0 0 0 0 0 0zm-1 -8l2 1 0 0 -1 0 0 0 0 1 0 0 0 0 -1 0 0 1 0 0 0 0 0 1 0 0 0 0 0 0 0 0 0 1 0 0 0 0 0 0 0 1 0 0 1 0 0 0 0 0 0 0 0 0 0 1 0 0 1 0 0 0 0 0 0 0 0 0 -1 1 0 0 0 0 -1 0 0 0 0 0 0 0 -1 0 0 0 0 0 0 -1 0 0 0 0 -1 0 0 0 0 -1 0 0 0 0 0 0 0 -1 0 0 0 0 0 -1 0 0 0 0 0 -1 1 0 0 -1 0 0 0 0 0 -1 1 0 0 -1 0 0zm26 -10l-1 2 -1 0 -1 0 -1 0 -1 0 -1 0 -1 0 -1 0 -1 1 -1 0 -1 0 -1 0 -1 1 -1 0 0 0 -1 0 -1 1 -1 0 0 0 -1 1 -1 0 0 1 -1 0 -1 0 0 1 -1 0 0 0 -1 1 0 0 0 1 -1 0 0 0 0 1 -2 -1 0 0 1 0 0 -1 1 0 0 -1 1 0 1 -1 0 0 1 -1 1 0 0 -1 1 0 1 -1 1 0 0 0 1 -1 1 0 1 0 1 -1 1 0 1 0 1 -1 1 0 0 0 1 0 1 -1 1 0 1 0 2 0 1 0 1 0 1 0z"/>
  </g>
  <g>
   <path class="fil1" d="M122 74l-2 1 0 0 -2 -3 -3 -3 -2 -3 -3 -2 -2 -3 -3 -3 -3 -2 -3 -3 -3 -2 -3 -2 -3 -2 -3 -2 -3 -2 -3 -2 -3 -2 -4 -1 -3 -2 -3 -2 -4 -1 -4 -1 -3 -1 -4 -1 -4 -1 -3 -1 -4 -1 -4 -1 -4 -1 -4 0 -4 0 -5 -1 -4 0 -4 0 1 -2 4 0 5 1 4 0 4 0 4 1 4 0 4 1 4 1 4 1 4 1 3 1 4 1 4 1 3 2 4 1 3 2 3 2 4 1 3 2 3 2 3 2 3 2 3 3 3 2 3 2 3 3 2 2 3 3 3 3 2 3 3 3 2 3 0 0zm23 25l-2 1 0 0 0 0 -1 -1 -1 0 -1 -1 -1 -1 0 0 -1 -1 -1 -1 0 -1 -1 0 -1 -1 -1 -1 0 -1 -1 0 -1 -1 -1 -1 0 -1 -1 -1 -1 0 0 -1 -1 -1 -1 -1 0 -1 -1 -1 -1 -1 -1 0 0 -1 -1 -1 -1 -1 0 -1 -1 -1 -1 -1 2 -1 1 1 1 1 0 0 1 1 1 1 0 1 1 1 1 1 0 1 1 1 1 0 0 1 1 1 1 1 1 1 0 1 1 0 1 1 0 1 1 1 1 0 1 1 0 1 1 1 1 0 1 1 0 1 1 0 1 1 1 1 0 0 1 1 0 0zm61 -8l2 0 0 0 -2 2 -1 1 -2 2 -2 1 -1 2 -2 1 -2 2 -2 1 -2 1 -2 1 -2 1 -2 0 -2 1 -3 1 -2 0 -2 1 -2 0 -2 0 -2 0 -3 0 -2 0 -2 0 -2 0 -2 -1 -3 0 -2 -1 -2 -1 -2 -1 -2 -1 -2 -1 -2 -1 -2 -2 2 -1 2 1 2 1 2 2 2 1 2 0 2 1 2 1 2 0 2 1 2 0 2 0 3 1 2 0 2 -1 2 0 2 0 2 0 2 -1 2 0 2 -1 2 -1 2 -1 2 -1 2 -1 1 -1 2 -1 2 -1 1 -1 2 -2 1 -1 2 -2 1 -1 0 0zm-8 5l0 -1 0 0 1 0 1 -1 0 0 1 0 0 -1 1 0 0 0 1 -1 1 0 0 -1 1 0 0 -1 0 0 1 0 0 -1 1 0 0 0 0 -1 1 0 0 0 0 0 0 0 1 -1 1 1 0 0 -1 0 0 0 0 1 0 0 -1 1 0 0 0 1 -2 0 1 -1 0 -1 0 0 1 0 0 -1 0 0 0 0 0 1 1 0 0 0 0 0 0 0 0 0 -1 0 0 0 0 1 -1 0 0 0 -1 1 0 0 -1 1 0 0 -1 1 0 0 -1 1 -1 0 0 0 -1 1 -1 0 0 1 -1 0 -1 0 0 0zm-4 -7l1 1 0 0 0 0 -1 0 0 1 0 0 -1 0 0 1 0 0 0 0 0 1 0 0 0 0 0 0 0 1 0 0 0 0 0 0 0 1 1 0 0 0 0 0 0 0 1 0 0 0 0 0 1 1 0 0 0 -1 1 0 0 0 1 0 0 0 0 0 0 1 0 1 -1 0 0 0 -1 0 0 0 -1 0 0 0 -1 0 0 0 -1 0 0 0 -1 0 0 0 0 -1 0 0 -1 0 0 0 0 -1 0 0 0 -1 0 0 0 0 0 -1 0 0 0 -1 1 0 0 -1 0 0 1 -1 0 0 1 -1 0 0 0 0zm9 -19l2 -1 0 0 0 1 0 0 0 1 0 1 0 0 0 1 0 1 0 0 0 1 -1 1 0 0 0 1 0 1 -1 0 0 1 0 1 -1 1 0 0 0 1 -1 1 0 0 0 1 -1 0 0 1 -1 1 0 0 -1 1 0 0 -1 1 -1 1 0 0 -1 1 -1 -1 1 -1 0 0 1 -1 0 0 1 -1 0 0 1 -1 0 0 0 -1 1 0 0 -1 1 0 0 -1 0 -1 1 0 0 -1 0 0 0 -1 1 -1 0 0 0 -1 0 -1 1 0 0 -1 0 -1 0 0 0 -1 0 0 0 -1 0 -1 0 0 0 -1 0 0zm3 -7l1 1 0 0 0 0 0 0 0 0 0 0 0 0 0 0 0 1 0 0 0 0 -1 0 0 0 0 0 0 0 0 0 0 1 0 0 0 0 0 0 0 0 0 0 0 0 0 1 0 0 0 0 0 0 0 0 0 1 0 0 0 0 -1 1 0 0 0 0 -2 1 0 0 0 -1 1 0 0 0 0 0 0 -1 0 0 0 0 0 0 0 -1 0 0 0 0 0 0 0 -1 0 0 0 0 0 0 0 0 0 0 1 -1 0 0 0 0 0 0 0 0 0 -1 0 0 0 0 1 0 0 0 0 0 0 0 0 -1 0 0zm2 -43l2 -1 0 0 1 1 1 2 0 1 1 1 0 2 1 1 0 2 0 1 1 2 0 1 0 1 0 2 0 1 1 2 0 1 0 2 0 1 -1 2 0 1 0 1 0 2 -1 1 0 2 0 1 -1 1 0 2 -1 1 -1 1 -1 2 -1 1 -1 1 -1 2 -1 -1 1 -1 1 -1 1 -1 0 -1 1 -2 1 -1 0 -1 1 -1 0 -2 1 -1 0 -1 0 -2 0 -1 0 -2 1 -1 0 -1 0 -2 0 -1 -1 -2 0 -1 0 -1 0 -2 0 -1 -1 -2 0 -1 0 -1 -1 -2 0 -1 -1 -2 0 -1 -1 -1 -1 -2 0 0zm9 -17l2 0 -1 1 0 1 -1 1 0 1 -1 0 0 1 -1 1 0 1 -1 0 0 1 -1 0 -1 0 0 1 -1 0 0 0 0 1 -1 0 0 0 0 0 0 0 -1 0 0 0 0 1 0 0 0 0 0 1 0 0 0 1 0 0 1 1 0 1 0 1 -2 1 0 -1 0 -1 -1 0 0 -1 0 -1 0 0 0 -1 0 0 0 -1 1 0 0 -1 0 0 1 -1 0 0 1 0 0 -1 1 0 0 0 0 0 1 -1 0 0 1 0 0 -1 1 0 0 0 0 -1 1 -1 0 0 1 -1 0 -1 0 -1 1 -1z"/>
  </g>
  <g>
   <path class="fil1" d="M79 135l-3 0 0 0 0 -3 -1 -3 0 -3 -1 -3 -1 -3 -1 -2 0 -3 -1 -3 -2 -3 -1 -2 -1 -3 -1 -3 -2 -2 -1 -2 -2 -3 -2 -2 -2 -2 -2 -2 -2 -2 -3 -2 -2 -2 -3 -2 -3 -1 -2 -2 -4 -1 -3 -2 -3 -1 -4 -1 -3 -1 -4 0 -4 -1 -5 0 1 -2 4 1 4 1 4 0 4 1 4 1 3 1 4 2 3 1 3 2 3 1 3 2 2 2 3 2 2 2 2 2 2 3 2 2 2 2 1 3 2 2 1 3 2 2 1 3 1 3 1 3 1 2 1 3 0 3 1 3 1 3 0 3 1 3 0 0zm3 10l-2 1 0 0 0 0 -1 -1 0 0 0 0 0 0 0 -1 0 0 -1 0 0 -1 0 0 0 0 0 -1 0 0 0 0 0 -1 -1 0 0 -1 0 0 0 0 0 -1 0 0 0 0 0 -1 0 0 0 -1 0 0 0 0 -1 -1 0 0 0 -1 0 0 0 0 3 0 0 0 0 1 0 0 0 0 0 1 0 0 0 0 0 1 0 0 0 1 0 0 0 0 0 1 1 0 0 0 0 1 0 0 0 1 0 0 0 0 0 1 0 0 1 0 0 1 0 0 0 0 0 0 0 1 0 0 1 0 0 0 0 0 0 0zm4 -6l3 0 0 0 0 1 0 0 0 1 0 1 1 0 0 1 0 1 -1 0 0 1 0 0 0 0 0 1 0 0 -1 1 0 0 0 0 -1 0 0 1 -1 0 0 0 -1 0 0 0 -1 0 0 0 -1 0 -1 0 0 -1 -1 0 0 0 0 0 -1 -1 0 0 2 -1 0 1 0 0 1 0 0 0 0 1 1 0 0 0 0 0 0 0 0 0 1 0 0 0 0 0 0 0 0 -1 1 0 0 0 0 0 0 0 1 -1 0 0 0 0 0 -1 0 0 0 -1 0 0 0 -1 0 0 0 -1 0 -1 0 0 -1 -1 0 0zm7 -2l-2 0 0 0 0 0 -1 0 0 -1 0 0 0 0 -1 0 0 0 0 0 0 0 0 0 0 0 0 0 0 0 0 0 0 0 0 0 0 0 0 0 0 0 -1 0 0 0 0 0 0 0 0 1 0 0 0 0 0 0 0 1 0 0 0 0 1 1 0 0 -3 0 0 0 0 -1 0 0 0 0 0 -1 0 0 0 0 0 -1 0 0 0 0 0 0 0 -1 0 0 1 0 0 0 0 0 0 0 1 0 0 -1 1 0 0 0 0 1 1 0 0 0 1 0 0 0 0 0 1 1 0 0 0 0 1 0 0 1 0 0zm23 44l-2 0 -1 -1 -1 -1 -2 -2 -1 -1 -1 -2 0 -1 -1 -2 -1 -1 -1 -2 -1 -1 -1 -2 0 -2 -1 -1 -1 -2 0 -1 -1 -2 -1 -2 0 -1 -1 -2 0 -1 -1 -2 0 -1 -1 -1 -1 -2 0 -1 -1 -1 0 -1 -1 -1 0 -1 -1 -1 -1 -1 0 -1 2 0 1 0 0 1 1 1 0 1 1 1 1 2 0 1 1 1 0 1 1 2 0 1 1 2 0 1 1 2 1 1 0 2 1 1 1 2 0 2 1 1 1 2 0 1 1 2 1 2 1 1 1 2 1 1 1 1 1 2 1 1 1 2 1 1z"/>
  </g>
  <g>
   <path class="fil1" d="M50 123l-3 0 0 0 0 -1 -1 -2 0 -2 -1 -1 -1 -2 -1 -1 0 -1 -1 -2 -1 -1 -1 -2 -1 -1 -1 -1 -1 -1 -1 -2 -1 -1 -2 -1 -1 -1 -1 -1 -2 -1 -1 -1 -1 -1 -2 -1 -1 0 -2 -1 -2 -1 -1 0 -2 -1 -2 0 -2 -1 -1 0 -2 -1 -2 0 0 -1 2 0 2 1 2 0 2 0 2 1 2 1 2 0 1 1 2 1 2 1 1 0 2 1 1 1 2 1 1 1 1 1 2 2 1 1 1 1 1 1 1 2 1 1 1 1 1 2 1 1 1 2 0 1 1 2 1 1 0 2 1 2 1 1 0 0zm-8 54l-2 0 0 0 1 -2 1 -1 1 -2 1 -1 0 -2 1 -1 1 -2 1 -1 0 -2 1 -2 0 -1 1 -2 0 -2 0 -2 1 -1 0 -2 0 -2 0 -2 0 -2 0 -2 0 -1 0 -2 0 -2 0 -2 0 -1 -1 -2 0 -2 0 -1 -1 -2 0 -2 0 -1 -1 -2 3 0 0 2 0 1 1 2 0 2 0 1 1 2 0 2 0 1 0 2 0 2 0 2 0 2 0 1 0 2 0 2 0 2 0 2 0 2 -1 1 0 2 -1 2 0 2 -1 1 0 2 -1 2 -1 1 0 2 -1 2 -1 1 -1 1 -1 2 -1 1 0 0zm-18 7l1 -1 0 0 1 0 0 0 0 0 0 0 1 0 0 0 0 0 1 0 0 0 0 0 1 0 0 0 1 0 0 0 1 0 0 -1 1 0 0 0 1 0 0 0 1 -1 0 0 1 0 0 -1 1 0 0 0 1 -1 1 0 0 -1 1 0 0 -1 1 0 2 0 -1 1 0 0 -1 1 0 1 -1 0 -1 0 0 1 -1 0 0 1 -1 0 -1 0 0 1 -1 0 0 0 -1 0 0 1 -1 0 -1 0 0 0 -1 0 0 0 -1 0 0 0 -1 0 -1 0 0 0 -1 0 0 0 -1 0 0 0 -1 0 0 0 0 0zm2 -12l2 1 0 0 -1 0 0 0 -1 1 0 0 -1 0 0 1 0 0 -1 0 0 1 0 0 -1 0 0 1 0 0 0 0 0 1 0 0 0 0 0 1 0 0 0 1 0 0 0 0 0 1 0 0 0 0 1 0 0 1 0 0 0 0 1 0 0 0 0 1 -1 1 0 -1 -1 0 0 0 -1 0 0 -1 -1 0 0 -1 0 0 0 0 0 -1 -1 0 0 0 0 -1 0 0 0 -1 0 0 0 -1 1 0 0 0 0 -1 0 0 0 -1 1 0 0 0 1 -1 0 0 0 -1 1 0 0 0 1 -1 1 0 0 0 0 0zm2 -65l2 0 2 2 1 2 2 2 1 2 2 2 1 3 1 2 1 3 0 2 1 3 0 2 1 3 0 2 0 3 0 2 0 3 0 2 -1 3 0 2 -1 2 0 3 -1 2 -1 2 -1 2 -1 2 -1 1 -1 2 -1 1 -2 1 -1 1 -2 1 -1 1 -2 -1 2 -1 1 0 1 -1 2 -2 1 -1 1 -1 1 -2 1 -2 1 -2 1 -2 0 -2 1 -2 1 -2 0 -2 0 -3 1 -2 0 -3 0 -2 0 -3 -1 -2 0 -3 0 -2 -1 -3 -1 -2 0 -3 -1 -2 -2 -3 -1 -2 -1 -2 -2 -2 -1 -2 -2 -2z"/>
  </g>
  <g>
   <path class="fil1" d="M157 118l1 -2 0 0 1 0 0 0 1 0 0 0 1 0 0 1 0 0 1 0 0 0 0 0 1 0 0 0 1 0 0 0 0 0 1 0 0 0 0 0 1 0 0 0 0 0 1 0 0 0 0 0 1 0 0 0 0 0 1 0 0 0 0 0 1 0 0 0 -1 2 0 0 -1 0 0 0 0 0 -1 0 0 0 0 0 -1 0 0 0 0 0 -1 0 0 0 -1 0 0 0 0 0 -1 0 0 0 0 0 -1 0 0 0 -1 0 0 -1 0 0 -1 0 0 0 0 0 -1 0 0 0 -1 0 0 0 -1 0 0 0 0 0zm-1 4l-2 2 0 0 0 0 -1 -1 0 0 0 0 0 -1 -1 0 0 0 0 -1 0 0 0 0 0 -1 0 0 0 0 0 -1 0 0 0 0 0 -1 0 0 0 0 1 -1 0 0 1 0 0 -1 1 0 0 0 0 0 1 0 0 0 1 0 0 0 1 0 0 0 -1 2 0 0 -1 0 0 0 -1 0 0 0 0 0 -1 0 0 0 0 0 0 0 0 0 0 0 0 0 0 0 0 0 0 0 0 0 0 1 0 0 0 0 0 0 0 1 0 0 0 0 0 0 0 1 0 0 1 0 0 1 0 0 1 0 0 0 0 0zm16 1l1 0 0 0 0 0 -1 1 0 0 -1 1 0 0 -1 0 -1 0 0 1 -1 0 0 0 -1 0 -1 0 0 0 -1 0 -1 0 0 0 -1 0 -1 0 0 0 -1 0 -1 0 0 0 -1 0 -1 0 0 0 -1 -1 0 0 -1 0 0 0 -1 -1 0 0 -1 0 2 -2 0 1 1 0 0 0 1 0 0 1 1 0 0 0 1 0 0 0 1 0 1 0 0 0 1 1 1 0 0 0 1 0 0 0 1 0 1 0 0 -1 1 0 0 0 1 0 0 0 1 0 0 0 1 0 0 -1 0 0 1 0 0 0 0 0 0 0zm-3 -4l1 -2 0 0 0 0 1 0 0 0 1 0 0 0 0 0 1 0 0 0 0 0 0 0 1 1 0 0 0 0 0 0 0 0 0 0 1 1 0 0 0 0 0 0 0 1 0 0 0 0 0 0 0 1 0 0 -1 0 0 1 0 0 0 0 0 1 -1 0 -1 0 0 -1 0 0 0 0 1 0 0 0 0 0 0 -1 0 0 0 0 0 0 0 0 0 0 0 -1 0 0 0 0 0 0 -1 0 0 -1 0 0 0 0 0 0 0 0 -1 0 0 0 0 0 0 0 0 0 -1 0 0 0 0 0 -1 0 0 0 0 0z"/>
  </g>
  <g>
   <path class="fil1" d="M128 15l-1 1 0 0 -1 0 0 0 0 0 0 -1 -1 0 0 0 0 0 0 -1 -1 0 0 0 0 0 0 0 -1 -1 0 0 0 0 0 0 -1 -1 0 0 0 0 0 0 -1 0 0 -1 0 0 0 0 -1 0 0 0 0 -1 0 0 -1 0 0 0 0 0 0 -1 1 -1 1 0 0 0 0 0 0 1 1 0 0 0 0 0 0 0 1 1 0 0 0 0 0 0 1 1 0 0 0 0 0 0 1 0 0 1 0 0 0 0 1 0 0 1 0 0 0 0 1 0 0 0 0 1 0 0 1 0 0 0 0 0 0 1 0 0zm4 -6l2 -2 0 0 1 1 0 1 0 0 1 1 0 0 0 1 0 0 0 1 0 1 0 0 0 1 0 0 0 1 0 0 0 1 0 0 -1 1 0 0 -1 1 0 0 -1 0 0 0 -1 1 0 0 -1 0 -1 -1 0 0 -1 0 0 0 -1 -1 -1 0 0 -1 1 -1 1 0 1 1 0 0 1 0 0 1 1 0 0 0 1 0 0 0 0 0 1 0 0 0 0 0 0 0 0 0 0 -1 0 0 0 0 0 -1 0 0 0 0 0 -1 0 0 0 -1 0 0 0 -1 0 0 0 -1 -1 0 0 -1 0 -1 -1 0 0 0zm-12 -1l-1 1 0 0 -1 0 -1 -1 0 0 0 -1 -1 0 0 -1 0 0 0 -1 1 0 0 -1 1 0 0 -1 1 0 1 -1 0 0 1 0 1 0 0 0 1 0 1 0 1 0 1 0 1 0 0 0 1 1 1 0 1 1 1 0 1 1 1 1 0 1 1 0 -2 2 0 -1 -1 -1 -1 -1 -1 0 -1 -1 0 0 -1 -1 -1 0 -1 0 -1 0 -1 -1 0 0 -1 0 -1 0 0 0 -1 0 0 1 -1 0 0 0 0 0 0 0 0 0 -1 0 0 1 0 0 0 0 0 1 1 0 0 0 0 1 1 0 0 1 0 0z"/>
  </g>
  <g>
   <path class="fil1" d="M203 181l2 0 0 0 0 0 0 0 0 0 0 0 0 0 0 0 0 1 0 0 0 0 0 0 0 0 -1 0 0 0 0 0 0 0 0 1 0 0 0 0 0 0 0 0 0 0 0 0 0 0 0 0 0 1 0 0 -1 0 0 0 0 0 0 0 0 0 0 0 -1 0 0 0 0 0 0 -1 0 0 0 0 0 0 0 0 0 0 0 0 0 0 0 0 0 0 0 0 0 0 0 0 1 0 0 0 0 0 0 0 0 -1 0 0 0 0 0 0 0 0 0 0 0 0 0 0 0 0 0 0 0 0 0 -1 0 0 0 0zm5 -8l1 1 0 0 0 0 0 1 0 0 0 0 -1 0 0 0 0 0 0 0 0 1 0 0 0 0 -1 0 0 0 0 0 0 1 0 0 0 0 0 0 0 0 -1 1 0 0 0 0 0 0 0 1 0 0 0 0 0 0 0 1 -1 0 0 0 0 1 0 0 -2 0 0 0 0 0 1 -1 0 0 0 0 0 0 0 -1 0 0 0 0 0 -1 1 0 0 0 0 0 0 -1 0 0 0 0 0 0 1 -1 0 0 0 0 0 0 0 -1 0 0 1 0 0 0 0 0 0 -1 0 0 1 0 0 0 0 0 0 -1 0 0zm11 -1l-2 1 0 0 0 0 -1 0 0 0 0 0 -1 0 0 0 0 0 -1 0 0 0 0 0 -1 0 0 0 0 0 0 0 -1 0 0 0 0 0 0 0 -1 0 0 0 0 0 0 0 0 1 -1 0 0 0 0 0 0 0 0 0 -1 0 0 0 0 0 -1 -1 1 0 0 0 0 0 1 0 0 0 0 -1 0 0 1 0 0 0 0 0 1 0 0 0 0 0 1 0 0 -1 0 0 1 0 0 0 0 0 1 0 0 0 0 0 1 0 0 0 0 0 1 0 0 0 0 0 1 1 0 0 0 0 1 0z"/>
  </g>
  <g>
   <path class="fil1" d="M38 8l1 -2 0 0 0 0 0 0 1 0 0 0 0 0 1 0 0 0 0 0 1 0 0 0 0 0 1 0 0 0 0 0 1 0 0 0 0 -1 1 0 0 0 0 0 0 0 1 0 0 0 0 0 1 0 0 0 0 0 1 0 0 0 0 0 1 0 0 -1 -1 2 0 0 0 0 -1 0 0 0 0 0 -1 1 0 0 0 0 -1 0 0 0 0 0 -1 0 0 0 0 0 -1 0 0 0 0 0 0 0 -1 0 0 0 0 1 -1 0 0 0 0 0 -1 0 0 0 0 0 -1 0 0 0 0 0 -1 0 0 0 0 0zm-26 -5l2 -1 0 0 0 1 1 0 0 0 1 1 0 0 1 0 1 1 0 0 1 0 1 0 0 1 1 0 1 0 1 0 1 0 1 1 0 0 1 0 1 0 1 0 1 0 1 0 1 0 1 0 1 0 1 0 1 0 1 0 1 0 1 0 1 -1 -1 2 -1 0 -1 0 -1 0 -1 1 -1 0 -1 0 -1 0 -1 0 -1 0 -1 0 -1 0 -1 0 -1 -1 -1 0 -1 0 -1 0 -1 0 0 0 -1 0 -1 -1 -1 0 -1 0 0 0 -1 -1 -1 0 0 0 -1 -1 0 0 -1 0 0 -1 -1 0 0 -1z"/>
  </g>
 </g>
</svg>
