<?xml version="1.0" encoding="UTF-8"?>
<!DOCTYPE svg PUBLIC "-//W3C//DTD SVG 1.0//EN" "http://www.w3.org/TR/2001/REC-SVG-20010904/DTD/svg10.dtd">
<!-- Creator: CorelDRAW X8 -->
<svg xmlns="http://www.w3.org/2000/svg" xml:space="preserve" width="206.369mm" height="174.62mm" version="1.0" style="shape-rendering:geometricPrecision; text-rendering:geometricPrecision; image-rendering:optimizeQuality; fill-rule:evenodd; clip-rule:evenodd"
viewBox="0 0 2286 1934"
 xmlns:xlink="http://www.w3.org/1999/xlink">
 <defs>
  <style type="text/css">
   <![CDATA[
    .fil0 {fill:#0059D1}
    .fil1 {fill:white;fill-rule:nonzero}
   ]]>
  </style>
 </defs>
 <g id="Camada_x0020_1">
  <metadata id="CorelCorpID_0Corel-Layer"/>
  <rect class="fil0" width="2286" height="1934"/>
  <g>
   <path class="fil1" d="M1083 1370l-30 20 0 0 -15 -34 -16 -33 -16 -33 -16 -33 -17 -33 -18 -32 -18 -32 -18 -32 -19 -31 -20 -30 -21 -30 -21 -29 -22 -29 -23 -28 -24 -27 -25 -26 -26 -25 -27 -24 -28 -23 -29 -22 -31 -21 -31 -20 -33 -19 -35 -17 -35 -17 -38 -14 -38 -14 -40 -11 -42 -11 -43 -9 -45 -7 -47 -5 20 -27 47 6 46 7 44 9 43 11 40 12 40 13 37 15 37 16 34 18 34 19 32 20 31 21 29 23 29 23 27 25 26 25 25 27 25 27 23 28 22 29 22 29 20 30 20 31 20 31 18 32 18 32 18 32 17 33 16 33 16 34 16 33 15 34 0 0zm186 318l-29 22 0 0 -7 -8 -7 -8 -6 -9 -7 -8 -7 -9 -6 -9 -6 -9 -7 -9 -6 -9 -6 -10 -6 -9 -6 -10 -6 -9 -6 -10 -6 -10 -5 -10 -6 -10 -6 -10 -5 -11 -6 -10 -5 -11 -6 -10 -5 -11 -6 -11 -5 -11 -5 -11 -6 -11 -5 -11 -5 -12 -5 -11 -6 -12 -5 -11 30 -20 6 11 5 12 5 11 5 11 6 11 5 12 5 11 6 10 5 11 5 11 6 10 5 11 6 10 5 11 6 10 6 10 5 10 6 10 6 9 6 10 6 10 6 9 6 9 6 9 6 9 6 9 7 9 6 8 7 9 6 8 7 8 7 9 0 0zm379 196l-20 27 0 0 -15 -2 -14 -1 -14 -2 -14 -3 -14 -2 -13 -3 -14 -4 -13 -3 -13 -4 -14 -4 -12 -5 -13 -5 -13 -5 -12 -5 -13 -6 -12 -6 -12 -7 -12 -6 -11 -8 -12 -7 -11 -8 -12 -8 -11 -8 -11 -8 -11 -9 -10 -10 -11 -9 -10 -10 -11 -10 -10 -11 -10 -11 -10 -11 29 -22 10 11 10 10 10 11 10 10 10 9 11 10 10 9 11 9 11 8 10 8 12 8 11 8 11 7 12 7 11 6 12 7 12 6 12 5 12 6 12 5 13 4 12 5 13 4 13 4 13 3 13 3 13 3 14 3 13 2 14 2 14 2 14 1 0 0zm468 -143l17 11 0 0 -13 12 -14 11 -13 10 -15 11 -14 9 -15 10 -15 9 -15 8 -15 8 -16 8 -16 7 -15 7 -17 6 -16 6 -16 5 -16 5 -17 5 -16 4 -17 4 -17 3 -16 3 -17 3 -17 2 -16 2 -17 1 -17 1 -16 1 -17 0 -16 0 -16 0 -16 -1 -16 -1 20 -27 15 1 16 1 15 1 16 0 16 -1 16 0 16 -1 16 -2 16 -1 16 -3 16 -2 15 -3 16 -3 16 -4 15 -4 16 -4 15 -5 15 -5 15 -5 15 -6 15 -6 14 -7 14 -6 14 -8 13 -7 14 -8 13 -8 12 -9 12 -9 12 -9 12 -10 11 -10 0 0zm140 -108l0 22 -4 2 -4 2 -3 2 -4 2 -4 2 -3 2 -4 3 -4 3 -4 2 -4 3 -4 3 -4 3 -3 3 -4 3 -4 3 -4 3 -4 4 -4 3 -4 3 -4 4 -4 3 -4 4 -4 3 -3 4 -4 3 -4 4 -4 3 -4 4 -4 3 -4 4 -3 4 -4 3 -17 -11 4 -3 4 -3 4 -4 3 -4 4 -3 4 -4 4 -3 4 -4 4 -4 4 -3 5 -4 4 -4 4 -4 4 -3 5 -4 4 -4 4 -3 5 -4 4 -3 5 -4 4 -3 5 -4 4 -3 5 -3 5 -3 5 -3 4 -3 5 -3 5 -3 5 -3 5 -3 5 -2z"/>
  </g>
  <g>
   <path class="fil1" d="M1269 1057l-29 22 0 0 -18 -29 -18 -28 -18 -27 -19 -27 -19 -27 -19 -26 -19 -26 -20 -25 -20 -24 -20 -25 -21 -23 -21 -23 -22 -23 -21 -21 -22 -22 -23 -20 -23 -20 -23 -20 -23 -18 -24 -19 -25 -17 -25 -17 -25 -16 -25 -15 -26 -15 -27 -14 -27 -13 -27 -12 -28 -12 -28 -10 -29 -10 -29 -10 24 -25 29 9 29 10 29 11 28 12 28 12 27 13 27 14 26 15 26 16 25 16 25 17 25 17 24 19 24 19 23 19 23 20 23 21 22 21 22 22 21 23 22 23 20 24 21 24 20 25 20 25 19 26 20 26 19 27 18 27 18 28 19 28 17 28 0 0zm332 353l-25 26 0 0 -16 -8 -15 -8 -15 -8 -15 -9 -14 -9 -14 -10 -13 -10 -13 -11 -13 -10 -13 -12 -12 -11 -11 -12 -12 -12 -11 -12 -10 -12 -11 -13 -10 -12 -9 -13 -10 -12 -9 -13 -9 -12 -9 -13 -8 -12 -8 -13 -8 -12 -8 -12 -7 -12 -7 -11 -7 -11 -7 -11 -6 -11 -6 -10 29 -22 7 11 6 10 7 11 7 12 7 11 7 12 8 12 8 12 8 12 8 12 8 13 9 12 9 13 10 12 9 13 10 12 11 12 10 13 11 11 11 12 12 12 11 11 13 11 12 11 13 10 13 10 14 10 14 9 14 8 15 9 15 7 15 7 0 0zm244 2l6 18 0 0 -8 5 -9 4 -8 4 -9 4 -8 3 -9 3 -9 2 -8 2 -9 2 -9 1 -9 2 -9 1 -9 0 -9 1 -9 0 -9 0 -9 -1 -9 0 -9 -1 -9 -1 -9 -1 -9 -1 -8 -2 -9 -1 -8 -2 -9 -2 -8 -3 -8 -2 -8 -3 -8 -2 -7 -3 -8 -3 25 -26 7 3 8 3 7 3 8 2 7 2 8 3 8 2 8 1 9 2 8 1 8 2 9 1 8 1 9 0 8 1 8 0 9 0 8 0 8 0 9 -1 8 -1 8 -1 7 -1 8 -2 7 -2 7 -1 7 -3 7 -2 6 -3 6 -2 6 -3 5 -3 0 0zm45 -46l26 0 0 0 -2 2 -2 3 -1 2 -2 2 -2 3 -1 2 -2 2 -2 3 -2 2 -2 2 -2 2 -2 2 -2 3 -1 2 -3 2 -2 2 -2 2 -2 2 -2 2 -2 2 -2 2 -2 2 -3 1 -2 2 -2 2 -2 2 -3 1 -2 2 -2 2 -3 1 -2 2 -2 1 -6 -18 1 -1 2 -1 1 -1 2 -1 1 -1 2 -1 1 -2 2 -1 1 -1 2 -1 1 -1 1 -2 2 -1 1 -1 2 -1 1 -2 1 -1 2 -2 1 -1 2 -2 1 -1 1 -2 2 -1 1 -2 1 -2 2 -1 1 -2 1 -2 2 -2 1 -2 1 -2 2 -2 0 0zm364 -175l-19 26 -12 0 -12 0 -12 1 -11 0 -12 2 -12 1 -12 2 -12 3 -12 2 -12 3 -11 4 -12 4 -11 4 -11 4 -11 5 -11 5 -11 5 -10 5 -10 6 -10 6 -10 6 -9 7 -9 6 -9 7 -8 7 -8 7 -7 7 -7 8 -7 8 -7 7 -6 8 -5 9 -26 0 6 -10 8 -10 8 -9 8 -10 9 -9 9 -9 10 -9 10 -8 11 -9 10 -8 11 -7 12 -7 11 -7 12 -7 12 -6 12 -6 13 -6 12 -5 13 -5 13 -5 12 -4 13 -4 13 -3 13 -3 13 -3 13 -2 13 -2 13 -1 13 -1 13 -1 12 0 13 1z"/>
  </g>
  <g>
   <path class="fil1" d="M1852 333l-30 21 0 0 -6 -9 -6 -10 -5 -10 -6 -9 -6 -10 -6 -9 -6 -10 -6 -10 -5 -9 -6 -10 -6 -10 -5 -9 -5 -10 -5 -10 -5 -10 -4 -10 -4 -9 -4 -11 -4 -10 -3 -10 -3 -10 -2 -11 -2 -10 -1 -11 -1 -11 0 -11 0 -11 1 -11 1 -11 3 -12 2 -12 4 -12 30 -8 -3 10 -3 11 -2 10 -1 11 -1 10 0 10 0 10 1 10 1 11 2 10 2 9 3 10 3 10 3 10 4 10 4 9 4 10 5 10 5 9 5 10 5 9 6 10 5 10 6 9 6 10 6 9 6 10 6 9 5 10 6 10 6 9 6 10 0 0zm66 239l-31 14 0 0 0 -7 0 -8 0 -7 0 -8 0 -7 -1 -8 -1 -7 -1 -8 -1 -7 -1 -8 -2 -8 -1 -7 -2 -8 -2 -7 -2 -8 -2 -7 -3 -8 -2 -7 -3 -7 -2 -8 -3 -7 -3 -7 -3 -7 -3 -7 -3 -7 -3 -7 -4 -7 -3 -7 -3 -7 -4 -6 -3 -6 -4 -7 30 -21 3 7 4 6 4 7 3 6 4 7 3 7 3 7 3 7 4 8 3 7 3 7 2 8 3 7 3 8 2 7 3 8 2 7 2 8 2 8 2 8 1 8 2 7 1 8 1 8 1 8 1 8 1 8 0 7 1 8 0 8 -1 8 0 8 0 0zm-242 204l21 -26 0 0 6 1 7 0 6 0 8 0 7 -1 8 -1 7 -1 8 -2 8 -2 8 -2 7 -3 8 -3 7 -3 8 -4 7 -4 7 -4 7 -5 6 -4 6 -6 6 -6 6 -6 6 -7 5 -7 5 -8 5 -8 5 -9 4 -10 3 -11 3 -11 3 -12 2 -12 1 -13 31 -14 -1 14 -2 13 -3 13 -3 13 -5 12 -4 12 -6 11 -6 10 -7 11 -7 10 -8 9 -8 9 -9 8 -9 8 -9 7 -10 7 -10 6 -10 5 -9 5 -10 4 -10 4 -10 4 -9 2 -10 3 -9 2 -9 1 -9 1 -9 1 -8 1 -8 -1 -8 0 -7 -1 0 0zm7 -128l-17 26 0 0 -8 1 -7 1 -6 1 -5 1 -4 1 -3 2 -2 1 0 1 -1 0 -1 1 -1 1 -1 3 0 2 -1 3 0 4 1 3 0 4 2 4 2 4 2 4 3 4 3 4 4 3 4 4 5 3 5 3 6 3 6 3 6 2 7 2 7 2 8 1 -21 26 -9 -1 -8 -2 -8 -2 -7 -3 -7 -3 -6 -3 -6 -3 -5 -4 -5 -4 -4 -5 -4 -4 -4 -5 -2 -4 -3 -5 -1 -5 -2 -5 0 -6 0 -5 1 -6 2 -5 2 -6 4 -7 5 -6 7 -7 7 -5 8 -5 8 -4 8 -3 9 -2 8 -2 9 -1 10 0 0 0zm103 -151l31 -19 0 0 2 8 1 8 2 7 0 8 1 8 0 8 0 8 -1 8 -1 8 -1 7 -2 8 -2 8 -3 7 -3 8 -4 7 -4 8 -5 7 -5 7 -6 7 -7 7 -7 7 -8 6 -9 6 -8 5 -9 4 -10 4 -10 4 -9 2 -11 3 -10 1 -11 2 -11 0 17 -26 10 -1 9 -1 9 -1 8 -2 7 -2 7 -3 6 -2 5 -3 5 -3 5 -3 4 -3 4 -3 3 -4 4 -4 3 -5 3 -4 3 -6 3 -5 2 -6 2 -6 2 -6 2 -7 1 -7 1 -7 0 -7 1 -7 0 -7 -1 -7 -1 -8 -1 -7 -1 -7 -2 -7 0 0zm-61 -45l-31 16 0 0 0 -7 0 -7 1 -7 2 -6 2 -6 3 -6 4 -6 5 -6 7 -6 8 -4 7 -3 6 -2 6 0 5 0 5 1 4 1 5 2 4 2 5 3 4 3 4 3 4 4 4 4 4 5 4 5 4 5 3 5 3 6 3 7 3 6 2 7 2 7 -31 19 -2 -7 -2 -6 -2 -6 -3 -6 -3 -6 -3 -5 -3 -4 -4 -5 -3 -4 -4 -4 -4 -3 -3 -3 -4 -3 -4 -2 -3 -2 -3 -1 -4 -1 -2 0 -3 0 -1 0 -1 0 1 -1 2 -1 1 -1 1 0 -1 0 -1 2 -1 3 -1 4 -1 5 0 6 0 6 0 0zm-176 163l16 -27 0 0 7 0 7 -1 6 -1 7 -1 6 -2 7 -1 6 -2 6 -2 6 -2 5 -3 5 -2 6 -3 4 -3 5 -3 4 -3 4 -3 4 -4 4 -3 4 -4 3 -4 3 -4 4 -5 2 -5 3 -5 3 -6 2 -6 2 -6 1 -7 1 -7 1 -7 1 -7 0 -8 31 -16 0 9 -1 8 0 9 -2 8 -2 8 -2 7 -3 8 -3 7 -4 7 -4 8 -5 6 -5 7 -5 7 -6 6 -6 6 -7 6 -7 5 -7 5 -7 5 -7 4 -8 4 -7 4 -8 3 -8 3 -7 3 -8 2 -8 2 -8 2 -8 1 -8 1 -7 1 -8 1 0 0zm-197 -89l29 -23 0 0 5 5 4 5 5 4 5 5 5 4 5 5 5 4 5 4 5 4 5 4 5 3 6 4 5 3 6 4 5 3 6 3 5 3 6 2 6 3 6 2 6 2 6 2 6 2 7 1 6 1 7 1 6 1 7 1 7 0 7 1 7 -1 7 0 -16 27 -8 0 -8 0 -8 0 -8 0 -7 -1 -7 -1 -7 -1 -7 -2 -7 -1 -7 -2 -7 -2 -6 -2 -7 -3 -6 -3 -6 -2 -6 -3 -6 -3 -6 -4 -5 -3 -6 -4 -6 -3 -5 -4 -5 -4 -6 -4 -5 -5 -5 -4 -5 -4 -5 -5 -5 -4 -5 -5 -5 -5 -5 -5 0 0zm-420 -341l25 -25 0 0 17 6 16 7 16 8 16 7 16 8 15 9 14 8 15 9 14 10 13 9 14 10 13 10 13 11 13 10 12 11 13 11 12 12 12 11 12 12 12 12 12 12 12 12 12 13 12 12 12 13 12 12 12 13 12 13 12 13 13 13 12 13 13 13 -29 23 -12 -13 -13 -13 -12 -13 -13 -13 -12 -13 -12 -13 -12 -12 -12 -13 -11 -12 -12 -13 -12 -12 -12 -12 -12 -12 -12 -11 -12 -12 -12 -11 -13 -11 -12 -11 -13 -10 -12 -11 -14 -10 -13 -10 -13 -9 -14 -9 -14 -9 -15 -9 -14 -8 -15 -8 -16 -7 -16 -7 -16 -7 -17 -7 0 0zm-89 81l-25 25 0 0 -13 -6 -12 -6 -11 -7 -9 -6 -9 -8 -7 -7 -7 -7 -5 -7 -4 -8 -4 -7 -2 -8 -1 -8 1 -7 1 -8 3 -9 6 -8 7 -9 9 -8 10 -6 11 -6 11 -4 11 -3 11 -1 13 -2 13 0 14 1 15 1 15 3 17 3 17 5 18 5 20 7 -25 25 -18 -6 -18 -5 -17 -5 -15 -3 -15 -2 -14 -2 -12 0 -12 0 -10 1 -9 1 -7 2 -6 2 -4 2 -3 2 -1 1 -2 2 -1 2 -1 4 -1 4 0 5 0 6 2 6 3 7 4 6 4 7 6 6 7 7 8 7 9 6 10 6 12 6 12 6 0 0zm493 383l-29 23 0 0 -13 -15 -13 -14 -13 -15 -13 -14 -13 -14 -14 -14 -14 -14 -14 -14 -14 -13 -14 -14 -14 -13 -15 -13 -15 -13 -15 -13 -15 -13 -15 -12 -15 -12 -16 -12 -16 -12 -15 -11 -17 -12 -16 -11 -16 -10 -16 -11 -17 -10 -17 -10 -17 -9 -17 -9 -17 -9 -18 -9 -17 -8 -18 -8 25 -25 18 8 18 8 17 9 18 9 17 9 17 10 17 10 17 10 17 10 16 11 16 11 17 11 16 12 15 12 16 12 16 12 15 13 15 12 15 13 15 13 15 13 14 14 14 13 15 14 14 14 13 14 14 14 13 14 14 15 13 14 13 14 13 15 0 0zm255 234l-25 25 0 0 -11 -5 -10 -5 -10 -5 -9 -6 -10 -6 -9 -6 -9 -6 -9 -7 -8 -6 -9 -7 -8 -7 -8 -7 -9 -8 -7 -7 -8 -8 -8 -8 -8 -7 -7 -8 -8 -8 -7 -9 -8 -8 -7 -8 -7 -8 -7 -9 -8 -8 -7 -9 -7 -8 -7 -9 -7 -8 -8 -9 -7 -8 -7 -8 29 -23 7 8 7 9 8 8 7 9 7 8 7 9 7 8 7 9 8 8 7 8 7 9 7 8 8 8 7 8 8 8 7 7 8 8 8 8 8 7 8 7 8 7 8 7 8 7 9 6 8 7 9 6 9 6 9 5 10 6 9 5 10 5 10 5 0 0zm402 -190l31 -15 0 0 -1 21 -3 21 -4 19 -5 19 -7 18 -9 17 -9 16 -11 16 -12 15 -13 14 -14 13 -15 12 -16 10 -17 10 -17 9 -17 7 -18 7 -17 5 -19 5 -18 3 -18 3 -19 2 -18 0 -19 0 -18 -1 -19 -2 -18 -2 -18 -4 -18 -4 -17 -6 -18 -6 -16 -7 25 -25 16 7 16 5 17 6 17 4 18 3 17 3 17 2 18 1 17 0 17 -1 17 -1 17 -3 17 -3 16 -4 15 -5 15 -5 14 -6 13 -7 13 -8 12 -8 11 -9 11 -9 10 -11 9 -11 9 -13 7 -13 7 -15 6 -16 5 -16 4 -18 3 -19 1 -20 0 0zm18 -73l26 -1 0 0 -1 2 -1 2 -1 2 -1 1 -1 2 -1 1 0 1 -1 2 0 1 -1 1 0 1 -1 2 0 1 -1 1 0 1 0 2 0 1 -1 2 0 1 0 2 0 2 -1 2 0 2 0 2 0 2 0 3 0 2 0 3 0 3 0 3 -1 3 0 3 -31 15 0 -3 0 -3 0 -3 0 -3 1 -3 0 -3 0 -2 0 -3 0 -2 0 -2 0 -2 1 -3 0 -2 0 -2 0 -2 1 -2 0 -2 1 -2 0 -1 1 -2 1 -2 0 -2 1 -2 1 -2 1 -3 1 -2 1 -2 1 -2 2 -2 1 -2 1 -2 2 -3 0 0zm-68 -373l30 -22 0 0 7 10 7 11 6 10 7 11 7 11 7 10 6 12 7 11 6 11 6 11 6 12 5 11 5 12 5 12 4 12 4 12 3 12 3 13 2 12 2 13 1 13 1 13 -1 13 -1 14 -2 13 -2 14 -4 13 -5 14 -5 15 -7 14 -7 15 -9 14 -26 1 7 -12 7 -13 6 -13 4 -12 4 -13 4 -12 2 -13 2 -12 1 -12 0 -13 0 -12 -1 -12 -2 -12 -2 -12 -3 -12 -3 -12 -4 -12 -4 -11 -4 -12 -5 -11 -6 -12 -5 -11 -6 -11 -6 -11 -6 -11 -7 -11 -7 -11 -6 -11 -7 -10 -7 -11 -7 -10 -7 -10 0 0zm59 -244l-15 26 0 0 -5 1 -5 1 -4 1 -4 2 -4 2 -4 1 -3 2 -3 3 -3 2 -3 3 -3 3 -3 3 -2 5 -3 4 -2 5 -3 6 -1 6 -2 7 -1 7 0 8 0 8 0 9 2 9 1 9 3 10 3 10 4 11 4 11 6 11 6 12 7 12 8 12 -30 22 -8 -13 -7 -13 -6 -12 -6 -11 -5 -12 -4 -11 -3 -10 -3 -11 -2 -10 -1 -10 -1 -9 0 -9 1 -9 1 -9 2 -8 2 -8 3 -8 4 -7 4 -8 4 -7 6 -7 6 -6 6 -6 7 -6 7 -5 8 -5 7 -4 8 -3 7 -2 8 -2 7 -2 7 -1 0 0zm60 96l-26 0 0 0 3 -4 2 -5 2 -4 2 -4 1 -4 1 -3 1 -4 0 -3 0 -3 -1 -4 0 -3 -1 -3 -2 -2 -1 -3 -2 -2 -2 -3 -2 -2 -3 -2 -3 -2 -3 -2 -3 -1 -3 -2 -3 -1 -4 -1 -3 -1 -4 -1 -3 0 -4 -1 -3 0 -4 0 -4 0 -3 0 15 -26 5 0 5 -1 4 1 5 0 4 0 5 1 4 1 5 1 4 1 4 2 4 1 3 2 4 3 3 2 3 2 3 3 3 3 2 3 2 4 2 4 1 4 1 4 1 4 0 5 0 5 -1 5 -1 6 -2 5 -3 6 -3 6 -3 7 -4 6 0 0zm7 98l-30 21 0 0 -3 -4 -2 -4 -2 -4 -1 -4 -2 -3 -2 -4 -1 -4 -2 -4 -1 -3 -1 -4 -1 -4 -1 -3 0 -4 -1 -4 0 -3 -1 -4 0 -3 0 -4 0 -4 1 -3 0 -4 1 -4 1 -3 1 -4 1 -4 1 -4 2 -3 1 -4 2 -4 2 -4 3 -3 2 -4 26 0 -2 2 -1 3 -2 2 -1 3 -1 2 -1 3 -1 2 -1 3 0 3 -1 3 -1 2 0 3 0 3 0 3 0 3 0 3 0 3 0 3 1 4 0 3 1 3 1 3 1 4 1 3 1 4 2 3 1 4 2 3 2 4 1 3 2 4 3 4 0 0zm40 70l-30 20 -1 -2 -1 -2 -1 -3 -1 -2 -2 -2 -1 -2 -1 -3 -1 -2 -2 -2 -1 -2 -1 -3 -2 -2 -1 -2 -1 -2 -2 -2 -1 -3 -1 -2 -1 -2 -2 -2 -1 -2 -1 -3 -2 -2 -1 -2 -1 -2 -2 -2 -1 -2 -1 -2 -1 -2 -2 -2 -1 -2 -1 -2 -1 -2 30 -21 1 1 1 2 1 2 1 2 2 2 1 3 1 2 1 2 2 2 1 2 1 2 2 2 1 2 1 3 2 2 1 2 1 2 2 3 1 2 1 2 2 2 1 3 1 2 2 2 1 2 1 3 1 2 2 2 1 3 1 2 1 2 1 3z"/>
  </g>
  <g>
   <path class="fil1" d="M1377 292l-28 24 0 0 -16 -15 -16 -14 -15 -14 -16 -14 -16 -13 -15 -14 -16 -13 -15 -12 -16 -13 -16 -12 -16 -12 -17 -11 -16 -11 -18 -11 -17 -10 -18 -10 -18 -9 -19 -9 -20 -9 -20 -8 -20 -7 -22 -7 -22 -6 -23 -6 -24 -5 -24 -4 -26 -4 -26 -3 -28 -3 -28 -2 -30 -1 -31 0 18 -27 31 1 31 1 29 2 28 2 27 3 26 4 25 5 25 5 23 6 23 6 22 7 21 8 20 8 20 8 19 9 19 10 18 10 18 10 17 11 17 11 17 12 16 12 16 12 16 13 16 13 16 13 15 13 16 14 15 14 16 14 16 14 16 14 0 0zm123 65l-19 26 0 0 -5 0 -4 0 -4 -1 -5 -1 -4 -1 -4 -1 -4 -1 -4 -1 -5 -1 -4 -2 -4 -1 -4 -2 -4 -2 -4 -2 -4 -2 -4 -2 -4 -2 -4 -3 -5 -2 -4 -3 -4 -2 -4 -3 -4 -3 -4 -3 -4 -3 -4 -3 -4 -3 -4 -4 -4 -3 -4 -3 -4 -4 -4 -3 28 -24 4 4 4 3 4 3 4 4 4 3 4 3 4 3 3 3 4 3 4 3 4 2 4 3 4 2 4 3 4 2 4 2 3 2 4 2 4 2 4 2 4 1 4 2 3 1 4 1 4 1 4 1 3 1 4 1 4 1 3 0 4 0 4 1 0 0zm62 -98l31 -18 0 0 2 8 1 8 1 7 1 7 0 7 -1 7 0 7 -1 6 -2 6 -1 6 -3 6 -2 6 -3 6 -3 6 -4 5 -5 6 -4 5 -6 5 -5 4 -6 4 -6 4 -6 4 -6 2 -6 3 -6 2 -6 2 -6 1 -6 1 -6 1 -6 0 -5 0 -6 0 19 -26 4 0 5 0 5 -1 4 0 4 -1 4 -1 4 -1 3 -1 3 -1 3 -2 2 -1 3 -2 2 -1 2 -2 2 -2 2 -2 2 -2 2 -3 1 -3 2 -3 2 -4 1 -4 2 -5 1 -5 1 -5 0 -6 0 -6 0 -6 0 -6 -1 -7 -1 -7 -2 -8 0 0zm-18 -47l30 -21 0 0 1 2 0 1 1 1 1 2 1 1 0 2 1 1 1 2 0 1 1 2 1 1 0 2 1 1 1 2 0 1 1 2 1 1 0 2 1 2 0 1 1 2 0 1 1 2 0 2 1 1 0 2 1 2 0 1 1 2 0 2 1 1 0 2 -31 18 0 -1 -1 -2 0 -2 0 -1 -1 -2 0 -1 -1 -2 0 -1 -1 -2 0 -1 -1 -2 0 -1 -1 -2 0 -1 -1 -2 -1 -1 0 -2 -1 -1 0 -2 -1 -1 -1 -2 0 -1 -1 -1 -1 -2 0 -1 -1 -2 -1 -1 0 -2 -1 -1 -1 -1 0 -2 -1 -1 0 0zm-40 -199l30 -11 -1 5 -1 5 0 5 -1 5 -1 5 0 5 -1 5 0 5 0 5 0 5 0 5 1 5 0 6 1 5 1 6 1 5 1 6 2 6 1 6 2 6 2 6 2 6 2 7 2 6 3 7 3 7 3 7 3 7 3 7 4 8 4 7 4 8 -30 21 -4 -8 -4 -8 -4 -8 -3 -7 -4 -7 -3 -7 -2 -7 -3 -7 -3 -7 -2 -7 -2 -6 -2 -6 -2 -7 -1 -6 -2 -6 -1 -6 -1 -6 -1 -6 -1 -5 0 -6 -1 -6 0 -5 0 -6 0 -5 0 -6 0 -5 1 -6 1 -5 0 -6 1 -5 1 -6 2 -5z"/>
  </g>
  <g>
   <path class="fil1" d="M705 1562l-36 -1 0 0 -3 -30 -2 -30 -3 -30 -4 -29 -4 -29 -5 -28 -5 -28 -6 -27 -7 -27 -7 -27 -8 -26 -8 -25 -10 -25 -10 -24 -10 -24 -12 -23 -12 -22 -14 -22 -14 -20 -15 -20 -15 -19 -17 -19 -18 -17 -18 -17 -20 -16 -20 -14 -22 -14 -23 -13 -23 -12 -25 -11 -26 -10 -27 -9 15 -17 30 10 28 11 27 12 26 13 24 14 23 15 22 15 21 17 19 18 19 18 17 19 17 20 15 21 15 21 13 22 13 23 12 23 11 24 10 25 9 25 9 26 8 26 7 27 7 27 6 28 5 28 5 29 4 29 4 29 3 30 3 30 2 30 0 0zm79 327l-35 4 -4 -8 -5 -8 -4 -9 -3 -8 -4 -8 -4 -9 -3 -9 -4 -9 -3 -9 -3 -10 -3 -9 -3 -10 -3 -10 -3 -10 -2 -10 -3 -10 -2 -10 -3 -11 -2 -11 -2 -11 -2 -11 -2 -11 -1 -11 -2 -12 -2 -12 -1 -12 -2 -12 -1 -12 -1 -12 -1 -13 -1 -12 -1 -13 36 1 1 13 1 13 1 12 2 12 1 13 1 12 2 11 1 12 2 11 2 12 2 11 2 11 2 11 2 10 2 11 2 10 3 10 2 10 3 10 3 10 3 9 3 9 3 9 3 9 3 9 4 9 3 8 4 9 4 8 4 8 4 8 4 7z"/>
  </g>
  <g>
   <path class="fil1" d="M233 1255l35 -4 0 0 10 19 10 20 8 20 7 20 6 20 5 20 3 21 3 20 1 21 1 20 -1 21 -2 20 -3 20 -4 20 -5 20 -6 19 -7 19 -9 18 -9 18 -10 18 -11 17 -13 16 -13 16 -14 15 -16 14 -16 14 -17 12 -19 12 -19 11 -21 10 -21 9 -23 8 -21 -18 20 -7 20 -8 19 -9 18 -10 17 -11 16 -12 16 -12 14 -14 14 -14 12 -15 12 -16 11 -16 10 -17 9 -18 8 -18 7 -18 6 -19 5 -19 4 -19 3 -20 1 -19 1 -20 0 -20 -2 -20 -2 -20 -4 -20 -4 -20 -6 -19 -7 -20 -8 -19 -9 -19 -10 -18 0 0zm-72 -82l28 -11 0 0 3 2 3 3 3 2 3 2 3 3 3 2 3 3 3 2 2 3 3 2 3 3 2 2 3 3 2 3 3 3 2 2 3 3 2 3 3 3 2 3 2 3 2 3 2 3 3 3 2 3 2 3 2 3 2 3 2 4 2 3 2 3 2 3 -35 4 -2 -3 -2 -3 -1 -3 -2 -3 -2 -3 -2 -3 -2 -3 -2 -3 -2 -3 -2 -3 -3 -3 -2 -2 -2 -3 -2 -3 -2 -3 -2 -2 -3 -3 -2 -2 -2 -3 -3 -2 -2 -3 -2 -2 -3 -2 -2 -3 -3 -2 -2 -2 -3 -2 -2 -2 -3 -2 -3 -2 -2 -2 -3 -2 0 0zm-120 -8l-36 -6 0 0 1 -3 1 -4 2 -3 3 -4 2 -3 3 -3 4 -3 3 -3 4 -2 5 -3 5 -2 5 -1 6 -2 6 -1 6 -1 7 -1 7 0 7 0 7 1 7 1 8 1 7 2 8 2 7 3 8 2 7 3 8 4 8 4 8 4 8 5 8 5 8 5 -28 11 -7 -5 -7 -4 -7 -4 -7 -4 -6 -3 -6 -3 -6 -2 -6 -2 -5 -2 -5 -1 -5 -1 -4 -1 -4 -1 -4 0 -3 0 -3 0 -3 0 -3 1 -3 0 -3 1 -3 1 -2 1 -3 1 -2 2 -2 1 -2 2 -2 2 -2 2 -2 3 -1 2 -1 3 -1 3 0 0zm50 69l-19 15 0 0 -5 -2 -6 -2 -5 -2 -4 -3 -5 -2 -4 -3 -4 -3 -4 -3 -3 -2 -3 -3 -4 -3 -2 -3 -3 -3 -2 -3 -3 -3 -2 -3 -2 -3 -1 -3 -2 -3 -1 -3 -1 -3 -1 -3 -1 -3 -1 -3 0 -3 0 -3 0 -3 0 -3 0 -2 0 -3 1 -3 1 -3 36 6 -1 2 0 2 -1 2 0 2 0 2 0 3 0 2 1 2 0 3 1 2 1 3 1 2 1 2 1 3 1 2 2 3 1 2 2 2 2 3 2 2 2 2 2 2 3 2 2 3 3 2 3 2 3 1 3 2 4 2 3 2 4 1 4 2 0 0zm129 252l-36 -4 0 0 1 -9 1 -9 1 -9 0 -9 1 -9 -1 -10 0 -9 -1 -9 -1 -8 -2 -9 -2 -9 -2 -9 -3 -8 -2 -8 -4 -9 -3 -8 -4 -7 -4 -8 -5 -7 -4 -8 -5 -7 -6 -6 -5 -7 -6 -6 -6 -5 -7 -6 -7 -5 -6 -4 -8 -5 -7 -4 -7 -3 -8 -4 19 -15 10 4 10 5 9 5 8 5 9 6 8 6 7 6 7 7 7 6 6 8 6 7 6 8 5 7 5 8 4 8 4 9 4 8 3 9 3 9 3 9 2 9 2 9 2 9 1 10 1 9 1 9 0 10 0 9 -1 10 0 9 -2 10 -1 9 0 0zm-36 85l-34 -9 0 0 1 -2 2 -2 1 -2 1 -2 2 -2 1 -2 1 -2 2 -2 1 -3 1 -2 1 -2 2 -3 1 -2 1 -2 1 -3 1 -2 1 -3 1 -2 1 -3 1 -3 1 -2 1 -3 1 -3 1 -3 1 -2 1 -3 0 -3 1 -3 1 -3 0 -3 1 -3 1 -3 36 4 -1 3 0 3 -1 4 -1 3 -1 3 0 3 -1 3 -1 3 -1 3 -1 3 -1 2 -1 3 -1 3 -1 3 -1 3 -1 2 -1 3 -2 2 -1 3 -1 3 -1 2 -2 3 -1 2 -1 2 -2 3 -1 2 -2 2 -1 3 -2 2 -1 2 -2 2 -1 2 0 0zm-143 25l32 -7 0 0 2 1 1 1 2 1 1 1 2 1 1 0 2 1 1 0 2 1 1 0 2 0 1 0 2 0 2 0 3 0 2 -1 3 0 3 -1 2 -1 4 -1 3 -2 3 -1 3 -2 3 -2 4 -2 3 -2 3 -3 3 -3 4 -3 3 -3 3 -3 3 -4 34 9 -4 4 -3 4 -4 4 -4 4 -4 3 -4 3 -4 3 -4 3 -4 3 -4 2 -5 2 -4 2 -5 2 -5 1 -5 2 -5 1 -5 1 -5 0 -5 1 -6 0 -5 -1 -5 0 -6 -1 -5 -1 -5 -1 -5 -2 -4 -2 -5 -2 -4 -2 -3 -3 -4 -2 -3 -3 0 0zm2 -81l34 9 0 0 -2 3 -2 3 -1 2 -2 3 -1 3 -1 2 -1 3 -1 2 -1 2 -1 3 0 2 0 3 -1 2 0 2 0 2 0 2 0 2 0 2 1 2 0 2 0 2 1 2 1 2 0 1 1 2 1 1 1 2 0 1 1 1 1 1 1 2 1 1 -32 7 -1 -2 -2 -1 -1 -2 -2 -2 -1 -2 -1 -2 -1 -2 -1 -3 -1 -2 -1 -2 -1 -2 0 -3 -1 -2 0 -3 0 -2 -1 -3 0 -2 1 -3 0 -3 0 -2 1 -3 0 -3 1 -3 1 -3 1 -3 1 -2 1 -3 2 -3 2 -3 1 -3 2 -4 3 -3 0 0zm20 -27l34 9 0 0 -1 1 0 1 -1 1 -1 1 -1 1 0 1 -1 1 -1 1 0 1 -1 1 -1 1 0 1 -1 1 -1 0 0 1 -1 1 -1 1 0 1 -1 1 -1 0 0 1 -1 1 0 1 -1 1 0 0 -1 1 -1 1 0 1 -1 0 0 1 -1 1 0 0 -34 -9 0 0 1 -1 0 -1 1 -1 0 0 1 -1 0 -1 1 -1 1 0 0 -1 1 -1 0 -1 1 -1 1 0 0 -1 1 -1 1 -1 0 -1 1 -1 0 -1 1 0 1 -1 1 -1 0 -1 1 -1 1 -1 0 -1 1 -1 1 -1 1 -1 0 -1 1 -1 0 0zm7 -137l33 -7 4 5 4 5 3 5 3 5 3 5 2 5 2 5 2 5 2 5 1 5 1 5 0 5 1 4 0 5 -1 5 0 5 -1 5 -1 5 -1 5 -1 5 -2 5 -1 4 -2 5 -2 5 -3 5 -2 4 -2 5 -3 4 -3 5 -3 4 -3 4 -3 4 -34 -9 3 -4 3 -4 2 -4 3 -4 3 -4 2 -4 2 -5 2 -4 2 -4 2 -5 1 -4 2 -4 1 -5 1 -4 1 -5 0 -4 1 -5 0 -4 0 -5 0 -4 -1 -4 -1 -5 -1 -4 -1 -5 -1 -4 -2 -4 -2 -4 -2 -5 -3 -4 -3 -4 -3 -4 -4 -4z"/>
  </g>
  <g>
   <path class="fil1" d="M1164 1222l-30 20 0 0 -22 -39 -21 -39 -22 -38 -23 -37 -23 -35 -24 -35 -24 -34 -24 -33 -26 -31 -26 -31 -26 -30 -27 -28 -28 -27 -29 -26 -29 -25 -31 -24 -31 -23 -31 -21 -33 -20 -33 -19 -35 -18 -35 -16 -36 -15 -38 -13 -38 -13 -39 -10 -40 -10 -42 -8 -42 -7 -44 -5 -45 -4 -45 -2 18 -26 47 2 45 4 45 5 43 7 42 8 41 9 40 11 38 13 38 14 37 15 36 16 34 18 34 19 33 20 32 22 32 23 30 24 30 25 29 26 28 28 27 29 27 29 26 31 26 32 25 33 24 34 24 35 23 36 22 37 23 38 21 39 22 40 0 0zm274 372l-27 24 0 0 -12 -9 -12 -9 -11 -10 -11 -9 -11 -10 -11 -11 -10 -10 -10 -11 -10 -11 -10 -11 -9 -12 -9 -11 -9 -12 -9 -12 -8 -12 -9 -12 -8 -12 -8 -13 -8 -12 -8 -13 -7 -13 -8 -13 -7 -12 -7 -13 -7 -13 -7 -13 -7 -13 -7 -13 -7 -12 -7 -13 -7 -13 -6 -13 30 -20 7 12 6 13 7 13 7 13 7 12 7 13 7 13 7 13 7 13 7 12 8 13 7 13 8 12 8 13 8 12 8 12 8 12 9 12 8 12 9 12 9 11 9 11 10 11 10 11 9 11 11 10 10 10 11 10 11 10 11 9 11 9 12 9 0 0zm493 47l-1 22 0 0 -16 7 -16 7 -16 5 -17 6 -16 4 -17 5 -17 3 -17 3 -17 3 -17 1 -17 2 -17 1 -17 0 -17 0 -17 -1 -17 -1 -17 -2 -17 -2 -17 -3 -17 -4 -16 -3 -17 -5 -16 -5 -16 -5 -16 -6 -15 -6 -15 -7 -15 -8 -15 -7 -14 -9 -14 -9 -14 -9 27 -24 13 9 14 9 14 8 14 7 15 8 15 6 15 7 15 5 16 5 16 5 15 4 16 4 17 3 16 3 16 2 17 2 16 1 16 1 17 0 16 0 16 -1 16 -1 16 -2 16 -2 16 -3 16 -3 15 -4 15 -4 15 -5 15 -5 14 -6 14 -6 0 0zm83 -63l24 3 0 0 -3 3 -2 3 -3 3 -3 3 -3 4 -2 3 -3 3 -3 3 -4 3 -3 2 -3 3 -3 3 -3 3 -4 2 -3 3 -4 3 -3 2 -4 3 -3 2 -4 3 -3 2 -4 2 -4 3 -3 2 -4 2 -4 2 -4 2 -4 2 -3 2 -4 2 -4 2 -4 2 1 -22 3 -2 3 -1 3 -2 4 -2 3 -1 3 -2 3 -2 3 -2 3 -1 3 -2 3 -2 3 -2 2 -2 3 -2 3 -2 2 -1 3 -2 3 -2 2 -2 3 -2 2 -3 2 -2 3 -2 2 -2 2 -2 2 -2 2 -2 2 -3 3 -2 2 -2 1 -3 2 -2 0 0zm0 -12l18 -27 0 0 2 0 2 0 2 1 1 0 2 0 2 1 1 1 1 0 1 1 2 1 0 1 1 1 1 2 0 1 1 1 0 2 0 1 0 2 -1 2 0 1 0 2 -1 2 -1 2 -1 2 0 2 -1 1 -1 2 -2 2 -1 2 -1 2 -2 2 -1 2 -24 -3 1 -1 1 -1 0 -1 1 -1 0 -1 1 0 0 -1 1 -1 0 0 0 -1 0 0 0 -1 0 0 0 0 0 -1 0 0 0 0 0 0 0 0 0 -1 0 0 0 0 0 0 0 0 -1 0 0 -1 0 0 -1 0 0 0 -1 0 -1 0 -1 0 0 0zm-12 -89l23 4 0 0 -2 3 -2 2 -1 3 -2 3 -1 2 -2 3 -1 3 0 2 -1 3 -1 2 0 3 0 2 0 3 0 2 0 2 1 3 0 2 1 2 1 1 1 2 1 2 1 1 1 2 2 1 1 1 1 1 2 1 1 0 2 1 1 0 2 0 1 0 -18 27 -3 0 -3 -1 -3 0 -3 -1 -2 -1 -3 -1 -2 -2 -2 -1 -2 -2 -2 -2 -2 -2 -1 -3 -1 -2 -2 -3 0 -2 -1 -3 -1 -3 0 -3 0 -4 0 -3 0 -4 0 -3 1 -4 1 -4 1 -4 2 -4 2 -4 2 -5 3 -4 3 -5 3 -4 3 -5 0 0zm275 -114l-18 27 -10 0 -11 1 -10 0 -10 1 -10 2 -10 1 -9 2 -10 2 -9 3 -9 2 -9 3 -9 2 -8 3 -9 3 -8 4 -7 3 -8 3 -7 4 -7 3 -7 4 -6 4 -6 4 -6 4 -6 3 -5 4 -5 4 -5 4 -4 4 -4 3 -3 4 -4 4 -3 3 -23 -4 5 -5 5 -6 5 -5 6 -5 6 -5 6 -6 7 -5 7 -5 7 -5 7 -5 8 -4 8 -5 8 -4 8 -5 9 -4 9 -4 9 -4 9 -3 9 -4 10 -3 10 -3 10 -3 10 -3 10 -3 10 -2 11 -2 11 -1 10 -2 11 -1 11 -1 12 -1 11 0z"/>
  </g>
  <g>
   <path class="fil1" d="M1281 767l-29 22 0 0 -25 -31 -26 -31 -27 -30 -27 -29 -28 -28 -28 -27 -29 -26 -30 -25 -30 -24 -31 -23 -31 -22 -32 -22 -33 -20 -33 -19 -34 -18 -35 -18 -35 -16 -36 -15 -37 -15 -37 -13 -38 -13 -38 -11 -40 -10 -40 -10 -40 -8 -41 -8 -42 -6 -42 -6 -44 -4 -43 -4 -45 -2 -45 -2 18 -26 46 1 45 3 44 3 44 5 43 5 42 7 42 7 41 9 40 10 40 10 39 12 38 12 38 14 36 14 37 16 35 16 35 18 35 18 33 19 33 21 33 21 31 23 32 23 30 24 30 25 29 27 29 27 28 28 27 29 26 30 27 31 25 32 0 0zm239 262l-27 24 0 0 -8 -6 -8 -7 -8 -7 -9 -6 -7 -7 -8 -8 -8 -7 -8 -8 -8 -7 -7 -8 -8 -8 -8 -8 -7 -8 -8 -8 -7 -8 -8 -9 -7 -8 -7 -9 -8 -8 -7 -9 -7 -9 -8 -9 -7 -9 -7 -9 -8 -9 -7 -9 -7 -9 -7 -9 -8 -10 -7 -9 -7 -9 -7 -10 29 -22 7 9 7 10 8 9 7 9 7 10 7 9 8 9 7 9 7 9 7 9 7 9 8 8 7 9 7 9 8 8 7 9 7 8 8 8 7 8 8 8 7 8 8 8 8 8 7 7 8 8 8 7 8 7 7 7 8 7 8 7 8 6 8 6 0 0zm629 -83l24 2 0 0 -16 19 -16 19 -17 17 -18 16 -19 16 -20 15 -20 13 -20 13 -22 12 -21 10 -22 10 -22 8 -23 8 -23 6 -23 5 -23 5 -23 3 -23 2 -23 1 -24 0 -23 -2 -23 -2 -23 -4 -22 -4 -23 -6 -22 -7 -22 -8 -22 -10 -21 -10 -21 -12 -20 -13 -20 -15 27 -24 20 14 20 13 20 12 20 10 21 9 22 8 21 7 22 6 22 4 22 3 22 3 22 1 22 0 22 -1 22 -2 22 -3 21 -4 21 -4 21 -6 20 -7 20 -8 20 -8 19 -10 18 -10 18 -11 18 -11 16 -13 17 -13 15 -15 15 -15 14 -15 14 -17 0 0zm-77 64l1 -22 0 0 6 -3 5 -3 6 -3 6 -3 5 -4 6 -4 6 -4 5 -4 6 -5 5 -4 5 -4 5 -4 5 -4 4 -4 5 -4 3 -3 4 -3 3 -3 3 -3 3 -2 3 -3 3 -2 9 -5 12 4 -1 7 -2 3 -2 3 -3 4 -3 4 -3 4 -4 6 -5 6 -24 -2 5 -7 4 -5 3 -4 3 -4 2 -3 1 -1 -1 1 -1 5 12 4 7 -4 1 0 -1 1 -2 1 -3 3 -3 3 -4 3 -4 4 -4 4 -5 4 -5 4 -6 5 -6 5 -6 5 -6 4 -7 5 -7 5 -7 5 -7 5 -7 4 -8 5 -7 4 -8 3 0 0zm-44 -85l12 14 0 0 -4 3 -3 3 -3 4 -3 2 -2 3 -2 3 -1 3 -1 2 -1 3 0 3 -1 2 1 3 0 2 1 3 1 2 1 2 2 3 2 1 2 2 3 2 3 1 3 1 3 1 3 0 4 0 3 0 4 0 3 0 4 -1 4 -1 3 -1 4 -2 -1 22 -7 3 -7 3 -6 1 -6 2 -6 1 -6 0 -5 0 -5 0 -5 -1 -5 -1 -4 -2 -4 -1 -3 -3 -4 -2 -2 -3 -3 -3 -2 -3 -2 -3 -1 -4 -1 -4 0 -5 0 -4 1 -5 2 -5 2 -6 3 -5 4 -6 4 -6 5 -6 6 -6 6 -6 7 -5 0 0zm92 -191l31 -14 0 0 0 6 0 7 -1 7 -1 7 -1 7 -2 7 -1 7 -2 7 -2 8 -2 7 -2 7 -2 7 -3 8 -3 7 -3 7 -3 7 -4 7 -3 8 -4 7 -4 7 -4 7 -5 7 -5 6 -5 7 -5 7 -6 6 -5 7 -6 6 -6 6 -7 6 -7 6 -7 6 -12 -14 5 -4 5 -5 5 -4 5 -5 4 -5 5 -5 4 -5 4 -5 4 -6 4 -6 4 -5 4 -6 3 -6 4 -7 3 -6 3 -6 3 -7 3 -6 2 -7 3 -6 2 -7 2 -7 2 -6 2 -7 1 -7 1 -6 2 -7 1 -6 1 -7 0 -6 1 -7 0 -6 0 0zm28 -72l23 4 0 0 -2 2 -1 1 -1 1 -1 2 -1 1 -1 1 -1 1 0 1 -1 1 -1 1 0 1 -1 1 -1 1 0 1 -1 2 0 1 -1 1 0 2 -1 1 0 2 -1 2 0 1 -1 2 0 2 -1 3 0 2 0 2 -1 3 0 3 0 2 0 3 -1 4 -31 14 0 -3 1 -3 0 -4 0 -3 0 -3 1 -2 0 -3 1 -3 0 -2 1 -3 0 -2 1 -3 1 -2 1 -2 1 -2 0 -3 1 -2 1 -2 2 -2 1 -2 1 -2 1 -2 1 -2 2 -2 1 -2 1 -1 2 -2 1 -2 1 -2 2 -1 1 -2 1 -1 0 0zm25 -448l30 -20 0 0 6 14 6 15 6 15 5 14 5 15 5 15 4 15 4 15 3 15 3 15 3 15 2 15 1 15 1 16 1 15 0 15 -1 15 -1 15 -2 15 -2 15 -3 15 -3 15 -5 14 -4 15 -6 15 -6 14 -7 15 -8 14 -9 14 -9 14 -10 14 -11 14 -23 -4 10 -12 9 -12 8 -13 7 -12 7 -13 7 -13 5 -13 6 -14 4 -13 4 -14 3 -14 3 -14 2 -14 2 -14 1 -15 1 -14 0 -15 -1 -14 -1 -15 -1 -15 -2 -14 -3 -15 -3 -15 -3 -15 -4 -14 -4 -15 -4 -15 -5 -14 -6 -15 -5 -14 -6 -15 -6 -14 0 0zm79 -178l31 -9 -4 12 -5 11 -5 10 -5 10 -5 9 -6 8 -6 7 -6 7 -6 6 -7 6 -6 5 -6 4 -5 4 -5 3 -5 3 -4 2 -3 2 -2 1 -1 1 0 1 0 0 -1 0 0 2 -1 2 0 3 0 4 1 5 1 6 2 7 2 8 4 8 4 10 -30 20 -5 -10 -3 -9 -3 -8 -2 -7 -2 -7 0 -6 0 -6 0 -6 2 -6 2 -5 4 -6 5 -6 5 -5 5 -4 5 -4 5 -3 4 -3 4 -2 4 -3 4 -2 4 -3 3 -3 4 -3 3 -3 4 -5 4 -4 4 -6 4 -6 4 -8 4 -8 4 -10 3 -11z"/>
  </g>
  <g>
   <path class="fil1" d="M827 1409l-37 -1 0 0 -4 -31 -6 -30 -6 -30 -6 -30 -8 -30 -9 -29 -9 -29 -11 -29 -11 -28 -12 -28 -14 -27 -14 -27 -16 -25 -17 -26 -18 -24 -19 -24 -20 -22 -22 -22 -23 -21 -24 -20 -26 -19 -27 -17 -29 -17 -30 -15 -32 -15 -33 -13 -35 -11 -36 -11 -38 -9 -40 -7 -42 -7 -44 -4 2 -20 46 5 45 7 43 8 41 10 39 11 37 13 36 13 33 16 32 16 31 18 29 18 27 20 25 21 24 22 23 23 21 23 20 24 18 25 18 26 16 27 14 27 14 27 13 29 11 28 11 29 9 30 9 30 8 30 7 30 6 30 5 31 5 31 0 0zm34 109l-33 7 0 0 -2 -3 -2 -2 -2 -3 -1 -3 -2 -3 -2 -3 -2 -4 -1 -3 -2 -3 -1 -4 -1 -4 -2 -3 -1 -4 -1 -4 -1 -4 -2 -4 -1 -4 -1 -4 -1 -4 -1 -4 -1 -4 -1 -4 -1 -4 0 -4 -1 -4 -1 -4 -1 -4 0 -4 -1 -4 0 -4 -1 -4 -1 -3 37 1 0 3 1 4 1 4 0 3 1 4 0 4 1 4 1 4 1 4 1 4 0 4 1 4 1 4 1 4 1 4 1 4 2 3 1 4 1 4 1 3 1 4 2 3 1 4 1 3 2 3 1 3 2 2 1 3 2 2 1 3 2 2 1 1 0 0zm36 -65l35 -2 0 0 3 8 3 8 2 7 1 7 1 7 0 6 0 6 -1 6 -1 5 -2 5 -2 5 -2 4 -3 4 -3 4 -4 3 -4 3 -4 3 -6 3 -5 1 -6 2 -7 1 -7 0 -7 0 -7 -1 -7 -1 -6 -2 -6 -3 -6 -2 -5 -4 -4 -3 -5 -4 -4 -4 33 -7 3 3 2 3 3 1 2 2 3 1 2 1 1 0 1 1 1 0 1 0 1 0 2 -1 1 0 2 -1 2 -1 2 -1 3 -2 2 -2 2 -2 2 -3 2 -3 1 -4 2 -4 1 -4 0 -5 0 -5 0 -6 -1 -6 -1 -6 -1 -6 -3 -7 -2 -8 0 0zm79 -26l-33 6 0 0 -3 -2 -2 -3 -3 -2 -2 -2 -2 -1 -2 -1 -1 -1 -1 -1 -1 0 0 0 1 0 1 0 2 0 1 0 1 0 0 0 0 0 -1 0 0 1 -1 1 -1 1 0 2 -1 1 0 2 0 3 0 2 0 3 0 2 1 3 1 4 1 3 1 3 -35 2 -2 -4 -1 -4 -1 -4 -1 -3 -1 -4 0 -3 0 -3 1 -3 0 -3 1 -3 1 -3 1 -2 2 -3 2 -2 3 -2 3 -2 4 -2 5 -1 5 -1 6 0 6 0 5 1 5 2 5 1 4 2 4 2 4 3 4 2 3 3 4 3 3 3 4 4 0 0zm240 461l-32 7 -12 -14 -12 -14 -12 -15 -10 -15 -11 -15 -10 -16 -9 -16 -9 -17 -9 -16 -8 -17 -8 -17 -7 -17 -8 -16 -7 -17 -7 -17 -6 -17 -7 -16 -6 -16 -6 -16 -6 -16 -6 -15 -6 -14 -6 -15 -5 -13 -6 -14 -6 -12 -6 -12 -6 -11 -6 -10 -6 -10 -6 -8 -6 -8 33 -6 7 8 6 10 7 10 6 11 6 11 6 12 6 13 6 13 6 14 6 15 6 15 6 15 6 15 6 16 6 16 6 17 7 16 7 17 7 17 7 16 8 17 7 16 8 17 9 16 9 16 9 16 10 15 10 15 10 15 11 14 11 14 12 13z"/>
  </g>
  <g>
   <path class="fil1" d="M524 1287l-36 1 0 0 -6 -17 -6 -17 -6 -16 -7 -16 -8 -16 -7 -15 -9 -15 -9 -15 -9 -14 -10 -14 -10 -14 -11 -13 -11 -13 -11 -12 -13 -12 -12 -12 -13 -11 -14 -11 -14 -10 -14 -9 -15 -9 -15 -9 -16 -8 -16 -7 -17 -7 -17 -6 -17 -6 -18 -5 -19 -5 -19 -4 -19 -3 -20 -3 4 -19 22 3 22 4 21 4 21 5 20 6 19 7 19 7 19 7 18 8 17 9 17 9 16 10 15 11 15 10 15 12 13 11 14 13 12 12 13 13 11 14 12 13 10 15 10 14 10 15 9 15 9 16 8 16 7 16 7 16 7 17 6 17 6 17 0 0zm-82 566l-33 -10 0 0 11 -13 10 -15 10 -15 10 -15 8 -16 8 -16 8 -17 6 -17 7 -17 5 -18 5 -18 5 -18 4 -18 3 -19 3 -19 2 -18 2 -19 1 -19 1 -19 0 -19 0 -18 -1 -19 -1 -19 -2 -18 -1 -18 -3 -18 -3 -18 -3 -17 -3 -17 -4 -16 -5 -16 -4 -16 36 -1 4 16 5 16 4 17 3 17 4 18 3 18 2 18 2 18 2 19 1 19 0 19 1 19 -1 19 -1 19 -1 19 -2 19 -2 19 -3 19 -3 19 -4 19 -5 18 -5 19 -5 18 -7 17 -7 18 -7 17 -9 17 -8 16 -10 16 -10 15 -11 15 -12 14 0 0zm-194 68l19 -16 0 0 2 1 2 1 3 0 2 1 3 0 3 0 3 1 3 0 4 0 4 -1 4 0 4 -1 4 0 5 -1 4 -1 5 -2 5 -1 5 -2 5 -2 5 -3 6 -2 5 -3 6 -4 5 -3 6 -4 5 -4 6 -4 5 -5 6 -5 6 -6 5 -6 6 -6 33 10 -6 7 -6 6 -6 6 -6 5 -6 6 -6 4 -6 5 -6 4 -7 4 -6 4 -6 4 -7 3 -6 3 -6 2 -7 2 -6 3 -6 1 -7 2 -6 1 -6 1 -7 1 -6 1 -6 0 -6 0 -6 0 -6 0 -6 -1 -6 -1 -5 -1 -6 -1 -5 -2 -5 -1 0 0zm24 -128l23 16 0 0 -6 3 -5 2 -5 2 -5 3 -4 3 -4 3 -4 3 -4 4 -3 3 -3 4 -2 3 -2 4 -2 4 -1 4 -1 3 -1 4 -1 4 0 4 0 3 1 4 1 3 1 4 1 3 2 3 1 3 2 2 3 3 2 2 3 2 2 1 3 2 3 1 -19 16 -6 -3 -6 -3 -5 -3 -5 -4 -4 -4 -3 -3 -3 -4 -3 -4 -2 -5 -2 -4 -2 -4 -1 -5 0 -4 0 -5 0 -4 0 -5 1 -5 2 -4 1 -5 3 -4 2 -5 3 -4 4 -5 3 -4 5 -4 4 -4 6 -4 5 -4 6 -3 7 -3 7 -4 7 -2 0 0zm13 -672l31 -8 20 20 18 22 17 22 15 23 13 25 12 24 11 26 9 26 7 26 6 27 5 27 4 27 2 27 1 27 0 26 -2 27 -2 25 -4 26 -4 25 -6 24 -7 23 -8 22 -8 21 -10 20 -10 19 -12 18 -12 16 -13 14 -14 13 -16 11 -16 10 -17 7 -23 -16 14 -6 13 -8 13 -10 13 -11 12 -14 12 -15 11 -17 10 -18 9 -19 9 -21 7 -22 7 -22 5 -24 5 -24 3 -25 3 -26 1 -25 0 -27 -1 -26 -2 -26 -3 -27 -5 -26 -6 -26 -7 -26 -9 -25 -10 -25 -12 -24 -13 -24 -14 -22 -16 -21 -17 -21 -19 -19z"/>
  </g>
  <g>
   <path class="fil1" d="M1637 1234l22 -26 0 0 4 1 5 1 4 1 4 0 4 1 4 1 4 1 4 0 4 1 4 0 4 1 4 0 4 1 3 0 4 0 4 1 3 0 4 0 4 0 3 0 4 0 3 0 4 0 3 0 4 0 3 0 4 0 3 0 4 -1 3 0 4 0 3 -1 -15 27 -4 0 -3 1 -4 0 -4 0 -4 0 -3 1 -4 0 -4 0 -4 0 -4 0 -3 0 -4 0 -4 0 -4 0 -4 -1 -4 0 -4 0 -4 0 -4 -1 -4 0 -4 -1 -4 0 -4 -1 -4 0 -4 -1 -4 -1 -4 0 -5 -1 -4 -1 -4 -1 -5 -1 -4 -1 0 0zm-4 40l-27 24 0 0 -4 -3 -4 -3 -3 -3 -3 -3 -3 -3 -3 -4 -2 -3 -1 -4 -2 -3 -1 -4 -1 -4 0 -3 -1 -4 1 -4 0 -4 2 -4 1 -4 3 -5 3 -4 5 -5 5 -5 6 -4 5 -3 6 -2 6 -2 5 -1 5 -1 5 0 6 0 5 0 6 1 6 1 -22 26 -5 -1 -5 0 -4 -1 -4 0 -3 1 -3 0 -2 0 -1 1 -1 0 0 0 1 0 1 -1 0 0 0 0 0 0 0 1 -1 1 0 2 0 2 0 2 0 3 1 2 1 3 1 3 1 3 2 3 2 2 2 3 3 3 3 3 3 3 4 2 0 0zm161 5l20 8 0 0 -6 5 -6 5 -7 4 -6 4 -7 4 -6 3 -7 2 -7 2 -7 2 -6 2 -7 1 -7 1 -7 1 -7 0 -7 1 -7 0 -8 0 -7 -1 -7 0 -7 -1 -7 -1 -6 -1 -7 -1 -7 -2 -6 -1 -6 -2 -6 -2 -6 -3 -6 -2 -5 -3 -5 -3 -5 -3 27 -24 4 3 5 2 4 3 6 2 5 2 5 2 6 2 6 1 6 2 6 1 6 1 7 1 6 0 7 1 6 0 6 0 7 0 6 0 6 -1 6 0 6 -1 5 -1 6 -2 5 -1 4 -1 4 -2 4 -2 3 -1 3 -2 2 -1 2 -2 1 -1 0 0zm-30 -36l15 -27 0 0 5 0 4 0 4 0 4 0 4 1 3 0 3 1 3 1 3 2 3 1 3 2 2 1 2 2 2 2 2 3 1 2 2 2 1 3 1 2 0 3 1 3 0 3 -1 3 0 4 -1 3 -1 4 -2 3 -2 4 -2 4 -3 4 -3 4 -3 4 -20 -8 1 -1 1 -1 1 -2 1 -1 1 -1 0 -2 1 -1 0 -2 0 -1 0 -2 0 -2 0 -1 0 -2 -1 -2 -1 -1 0 -2 -1 -2 -2 -1 -1 -1 -1 -2 -2 -1 -2 -1 -2 -1 -2 -1 -2 -1 -3 0 -2 -1 -3 0 -2 0 -3 -1 -3 1 -3 0 0 0z"/>
  </g>
  <g>
   <path class="fil1" d="M1346 149l-28 24 0 0 -3 -2 -2 -2 -3 -3 -3 -2 -2 -2 -3 -3 -3 -2 -2 -2 -3 -3 -3 -2 -2 -2 -3 -3 -2 -2 -3 -2 -3 -2 -2 -3 -3 -2 -3 -2 -2 -3 -3 -2 -2 -2 -3 -2 -3 -3 -2 -2 -3 -2 -2 -2 -3 -2 -3 -2 -2 -2 -3 -2 -2 -2 -3 -2 27 -24 3 2 3 2 2 2 3 2 3 2 2 2 3 2 2 3 3 2 3 2 2 2 3 3 3 2 2 2 3 2 3 3 2 2 3 2 3 3 2 2 3 2 2 3 3 2 3 2 2 3 3 2 2 2 3 3 3 2 2 2 3 2 3 2 0 0zm32 -52l29 -22 0 0 4 5 4 6 4 6 3 6 2 7 2 6 2 6 1 6 1 6 0 6 0 5 0 6 -1 6 -2 5 -2 6 -3 6 -4 6 -5 6 -7 6 -7 4 -8 4 -7 2 -7 1 -6 0 -6 0 -7 -2 -6 -2 -6 -2 -7 -4 -7 -4 -7 -5 -7 -6 28 -24 6 6 7 5 6 3 6 3 5 3 5 1 5 1 4 1 3 0 2 -1 1 0 0 0 -1 1 -1 0 0 0 1 -1 1 -2 1 -3 1 -3 1 -4 0 -4 0 -5 0 -5 -1 -5 -1 -5 -2 -5 -1 -6 -3 -5 -2 -6 -4 -5 -3 -6 -4 -5 0 0zm-117 -19l-27 24 0 0 -7 -5 -5 -6 -5 -5 -3 -6 -3 -5 -1 -6 0 -6 1 -7 3 -7 5 -7 6 -7 8 -6 8 -6 8 -3 8 -3 8 -3 8 -1 9 -1 8 0 9 0 9 1 9 2 9 3 9 3 9 4 10 4 9 6 9 6 9 7 9 8 8 9 9 10 -29 22 -8 -9 -8 -9 -9 -7 -8 -7 -9 -6 -8 -5 -9 -4 -8 -4 -9 -2 -8 -3 -7 -1 -8 -1 -7 0 -7 0 -6 0 -5 1 -5 1 -3 2 -2 1 -1 0 -1 1 0 0 0 0 0 1 -1 3 0 3 1 3 2 5 2 4 4 5 5 4 6 5 0 0z"/>
  </g>
  <g>
   <path class="fil1" d="M2110 1897l30 -8 0 0 0 1 -1 1 0 1 -1 2 0 1 -1 1 0 1 -1 2 0 1 -1 1 -1 1 0 1 -1 2 0 1 -1 1 -1 1 0 1 -1 2 -1 1 -1 1 -1 1 0 2 -1 1 -1 1 -1 1 -1 2 -1 1 -1 1 -2 1 -1 2 -1 1 -2 1 -15 -11 0 0 0 0 0 0 0 0 0 -1 0 0 1 0 0 0 0 -1 1 0 0 -1 0 0 1 -1 0 -1 0 0 1 -1 0 -1 1 0 0 -1 0 -1 1 -1 0 -1 1 -1 0 -1 1 0 0 -1 0 -1 1 -1 0 -1 1 -1 0 -1 0 -1 0 0zm58 -87l11 16 0 0 -1 1 -1 0 -2 2 -1 1 -1 1 -1 1 -1 1 -2 1 -1 2 -1 1 -1 2 -2 1 -1 2 -1 2 -1 2 -1 2 -2 2 -1 2 -1 2 -1 2 -2 3 -1 2 -1 3 -1 2 -1 3 -2 2 -1 3 -1 3 -1 3 -1 3 -2 3 -1 3 -30 8 2 -4 1 -3 1 -3 2 -3 1 -3 1 -3 2 -3 1 -3 1 -3 2 -3 1 -3 2 -3 1 -3 2 -2 1 -3 2 -3 2 -2 1 -3 2 -3 2 -2 2 -3 2 -2 2 -3 2 -2 2 -3 3 -2 2 -3 3 -2 2 -2 3 -2 2 -3 3 -2 0 0zm114 -18l-24 26 -3 -1 -4 -1 -3 -1 -3 -1 -4 0 -3 -1 -3 0 -3 0 -3 0 -3 0 -3 0 -3 0 -3 0 -3 0 -2 0 -3 1 -2 0 -3 1 -2 0 -2 1 -3 0 -2 1 -2 1 -1 0 -2 1 -2 1 -2 1 -1 1 -2 1 -1 1 -2 1 -1 1 -11 -16 3 -2 4 -2 3 -2 3 -2 3 -2 4 -2 3 -1 4 -2 3 -1 3 -1 4 -2 3 -1 4 0 3 -1 4 -1 3 -1 4 0 3 -1 4 0 4 0 3 0 4 0 4 0 3 0 4 1 4 0 3 0 4 1 4 1 4 1 4 1 4 1z"/>
  </g>
  <g>
   <path class="fil1" d="M393 89l14 -26 0 0 4 -1 3 0 4 -1 3 0 3 -1 4 0 3 -1 3 -1 4 0 3 -1 3 0 4 -1 3 -1 3 0 3 -1 4 -1 3 0 3 -1 3 -1 4 0 3 -1 3 -1 4 0 3 -1 3 -1 3 -1 4 0 3 -1 3 -1 4 0 3 -1 3 -1 -11 26 -3 1 -4 0 -3 1 -3 1 -4 1 -3 0 -3 1 -3 1 -4 0 -3 1 -3 1 -4 1 -3 0 -3 1 -4 1 -3 0 -3 1 -4 1 -3 0 -4 1 -3 1 -3 0 -4 1 -3 1 -4 0 -3 1 -4 0 -3 1 -4 1 -3 0 -4 1 -4 0 0 0zm-276 -52l29 -22 4 4 4 5 5 4 5 3 5 4 6 3 6 4 7 3 7 3 7 2 7 3 8 2 8 2 8 2 9 2 9 1 9 2 9 1 9 1 10 1 10 0 9 1 10 0 10 0 10 0 10 0 10 0 10 -1 10 -1 10 -1 10 -1 10 -1 -14 26 -10 2 -11 1 -10 1 -11 1 -10 0 -11 1 -10 0 -11 0 -10 0 -11 0 -10 -1 -10 -1 -10 0 -9 -2 -10 -1 -10 -1 -9 -2 -9 -2 -9 -2 -8 -2 -8 -2 -8 -3 -8 -3 -7 -3 -7 -3 -7 -4 -6 -4 -6 -4 -6 -4 -5 -4 -5 -5 -4 -5z"/>
  </g>
 </g>
</svg>
