<?xml version="1.0" encoding="UTF-8"?>
<!DOCTYPE svg PUBLIC "-//W3C//DTD SVG 1.0//EN" "http://www.w3.org/TR/2001/REC-SVG-20010904/DTD/svg10.dtd">
<!-- Creator: CorelDRAW X8 -->
<svg xmlns="http://www.w3.org/2000/svg" xml:space="preserve" width="780px" height="660px" version="1.0" style="shape-rendering:geometricPrecision; text-rendering:geometricPrecision; image-rendering:optimizeQuality; fill-rule:evenodd; clip-rule:evenodd"
viewBox="0 0 442 374"
 xmlns:xlink="http://www.w3.org/1999/xlink">
 <defs>
  <style type="text/css">
   <![CDATA[
    .str0 {stroke:aqua;stroke-width:2.35945}
    .fil9 {fill:none}
    .fil3 {fill:#00A859}
    .fil2 {fill:#00AFEF}
    .fil0 {fill:#1A1A1A}
    .fil8 {fill:#ED3237}
    .fil6 {fill:#FFCC00}
    .fil1 {fill:white;fill-opacity:0.101961}
    .fil4 {fill:white;fill-opacity:0.149020}
    .fil5 {fill:white;fill-opacity:0.200000}
    .fil7 {fill:white;fill-opacity:0.301961}
   ]]>
  </style>
 </defs>
 <g id="Camada_x0020_1">
  <metadata id="CorelCorpID_0Corel-Layer"/>
  <rect class="fil0" width="442" height="374"/>
  <path class="fil1" d="M207 369l33 0c27,0 43,-25 34,-55l-29 -109 -42 0 16 58c4,15 -8,20 -16,20l-19 0 23 86z"/>
  <path class="fil1" d="M55 185l-18 -66c-8,-30 7,-55 34,-55l34 0 23 86 -15 0c-9,0 -18,8 -15,21l4 14 -47 0z"/>
  <path class="fil1" d="M187 369l-33 0c-27,0 -56,-25 -64,-55l-30 -109 48 0 15 58c5,15 19,20 27,20l14 0 23 86z"/>
  <path class="fil1" d="M240 185l-18 -66c-11,-41 -42,-55 -69,-55l-28 0 23 86 21 0c8,0 22,8 25,21l4 14 42 0z"/>
  <path class="fil2" d="M227 341l33 0c27,0 43,-25 34,-55l-29 -109 -42 0 16 58c4,15 -8,20 -15,20l-20 0 23 86z"/>
  <path class="fil3" d="M75 157l-18 -66c-8,-30 8,-55 35,-55l33 0 23 86 -15 0c-9,0 -18,8 -14,21l3 14 -47 0z"/>
  <path class="fil4" d="M126 39l22 83 -15 0c-9,0 -18,8 -14,21l3 14 -33 0 -18 -65c-4,-16 -6,-32 1,-42 4,-6 13,-11 25,-11l29 0z"/>
  <path class="fil5" d="M137 82c-33,9 -17,42 -57,41l-9 -31c-4,-16 -6,-32 1,-42 4,-6 13,-11 25,-11l29 0 11 43z"/>
  <path class="fil6" d="M207 341l-33 0c-27,0 -56,-25 -64,-55l-30 -109 48 0 15 58c5,15 19,20 27,20l14 0 23 86z"/>
  <path class="fil7" d="M94 177l34 0 15 58c5,15 19,20 27,20l14 0 19 71 -21 0c-31,0 -53,-19 -61,-50l-27 -99z"/>
  <path class="fil8" d="M260 157l-18 -66c-11,-41 -42,-55 -69,-55l-28 0 23 86 21 0c5,0 8,1 12,3 5,3 11,9 13,18l4 14 42 0z"/>
  <path class="fil4" d="M146 39l22 83 21 0c2,0 3,0 4,0 4,1 7,2 11,5 5,4 8,9 10,16l4 14 38 0 -16 -62c-5,-17 -13,-32 -25,-42 -12,-9 -28,-14 -41,-14l-28 0z"/>
  <path class="fil5" d="M146 39l11 41c26,2 19,23 49,19 8,-1 10,2 12,9 3,11 12,21 30,19l-8 -32c-5,-17 -13,-32 -25,-42 -12,-9 -28,-14 -41,-14l-28 0z"/>
  <path class="fil7" d="M223 325l40 0c29,0 36,-18 28,-43l-29 -105 -39 0 16 58c1,2 1,4 1,6 0,4 -2,7 -4,10 -3,3 -9,4 -13,4l-19 0 19 70z"/>
  <path class="fil9 str0" d="M259 314l33 0c27,0 43,-25 34,-55l-29 -109 -42 0 16 58c4,15 -8,20 -15,20l-20 0 23 86z"/>
  <path class="fil9 str0" d="M107 130l-18 -66c-8,-30 8,-55 35,-55l33 0 23 86 -15 0c-9,0 -18,8 -14,21l3 14 -47 0z"/>
  <path class="fil9 str0" d="M239 314l-33 0c-27,0 -56,-25 -64,-55l-30 -109 48 0 15 58c5,15 19,20 27,20l14 0 23 86z"/>
  <path class="fil9 str0" d="M292 130l-18 -66c-11,-41 -42,-55 -69,-55l-28 0 23 86 21 0c9,0 22,8 25,21l4 14 42 0z"/>
 </g>
</svg>
