<?xml version="1.0" encoding="UTF-8"?>
<!DOCTYPE svg PUBLIC "-//W3C//DTD SVG 1.0//EN" "http://www.w3.org/TR/2001/REC-SVG-20010904/DTD/svg10.dtd">
<!-- Creator: CorelDRAW X8 -->
<svg xmlns="http://www.w3.org/2000/svg" xml:space="preserve" width="1550px" height="1450px" version="1.0" style="shape-rendering:geometricPrecision; text-rendering:geometricPrecision; image-rendering:optimizeQuality; fill-rule:evenodd; clip-rule:evenodd"
viewBox="0 0 2145 2007"
 xmlns:xlink="http://www.w3.org/1999/xlink">
 <defs>
  <style type="text/css">
   <![CDATA[
    .str0 {stroke:black;stroke-width:3.26912}
    .fil8 {fill:none}
    .fil2 {fill:#009933}
    .fil7 {fill:#6666FF}
    .fil1 {fill:#6699FF}
    .fil0 {fill:#CCCCFF}
    .fil6 {fill:red}
    .fil3 {fill:#FF45DA}
    .fil5 {fill:#FF6200}
    .fil4 {fill:#FFD500}
   ]]>
  </style>
 </defs>
 <g id="Camada_x0020_1">
  <metadata id="CorelCorpID_0Corel-Layer"/>
  <rect class="fil0" width="2145" height="2007"/>
  <path class="fil1 str0" d="M618 132c-4,3 -9,7 -11,13 -2,7 -3,15 -3,21 0,7 1,12 1,19 0,7 0,15 0,21 0,7 0,12 0,17 0,6 1,13 1,18 0,5 -1,9 -1,12 0,3 1,6 3,9 3,2 7,4 11,5 5,0 9,-1 14,-2 4,-1 9,-1 11,-2 3,-1 3,-3 3,-6 0,-3 0,-7 -1,-13 0,-5 -1,-12 -1,-17 0,-6 0,-11 2,-13 1,-3 5,-4 9,-5 5,0 10,0 14,0 5,1 9,3 11,6 3,3 4,8 4,12 1,5 1,9 1,15 -1,7 -1,15 0,19 1,5 4,5 10,5 6,0 15,-1 20,-4 5,-2 6,-7 5,-11 0,-5 -2,-8 -3,-16 -1,-8 -2,-20 -2,-31 -1,-12 -1,-23 -1,-33 0,-9 0,-18 -1,-27 -2,-8 -4,-16 -9,-20 -5,-4 -12,-5 -22,-5 -10,0 -22,2 -31,3 -9,1 -15,3 -20,4 -5,2 -10,3 -14,6z"/>
  <path class="fil2 str0" d="M789 259c1,-3 5,-8 13,-11 7,-3 17,-4 27,-4 9,0 18,1 27,1 8,1 17,0 22,1 5,1 5,3 5,7 1,5 0,11 0,18 1,8 1,18 2,27 0,8 0,16 1,21 0,6 0,9 2,11 3,1 7,1 12,1 4,-1 9,-2 14,-3 5,-1 11,-2 15,-2 4,1 7,3 7,8 1,4 -1,12 -2,19 -1,8 -1,15 -3,21 -1,6 -4,9 -8,11 -5,2 -12,2 -20,1 -7,0 -15,0 -24,0 -8,0 -17,0 -27,0 -9,0 -18,0 -26,0 -8,0 -15,0 -20,-4 -5,-5 -9,-13 -9,-22 -1,-10 1,-19 1,-28 1,-8 0,-15 -1,-25 0,-11 -2,-25 -4,-33 -2,-9 -5,-11 -4,-15z"/>
  <path class="fil3 str0" d="M1039 309c-1,-9 -2,-19 -1,-27 0,-8 3,-15 8,-19 6,-4 15,-5 26,-5 10,-1 22,-1 34,-1 12,0 23,0 34,0 12,0 22,-1 30,-1 8,0 13,1 19,5 5,3 10,9 13,15 3,7 2,14 2,22 1,9 1,19 1,26 0,8 0,12 -1,15 -1,4 -2,5 -7,8 -4,3 -11,6 -16,9 -5,2 -8,2 -9,3 -2,0 -2,0 0,0 3,1 9,2 14,3 6,1 10,2 15,4 4,3 7,5 10,10 2,4 3,10 4,18 1,8 1,18 0,25 -1,7 -3,11 -7,14 -4,3 -10,6 -17,8 -8,2 -17,4 -28,5 -11,1 -23,1 -38,0 -15,0 -32,-1 -44,-2 -13,-1 -20,-3 -26,-6 -5,-3 -9,-7 -11,-15 -2,-7 -1,-17 -1,-27 1,-10 1,-19 0,-30 0,-10 -1,-21 -1,-30 -1,-10 -2,-18 -3,-27z"/>
  <path class="fil4 str0" d="M1312 330c-2,-17 -3,-30 -4,-43 -2,-14 -5,-28 -7,-42 -2,-15 -4,-29 -1,-38 2,-9 8,-13 20,-15 11,-2 27,-1 45,0 18,2 37,5 52,5 14,0 23,-4 33,-4 10,0 21,4 27,10 7,5 9,13 10,21 1,9 0,19 0,31 0,12 0,26 -4,32 -5,7 -13,6 -24,5 -11,0 -25,-1 -35,-1 -11,0 -19,0 -22,3 -3,2 -2,7 -1,11 1,5 1,9 5,10 3,2 10,2 17,2 8,-1 15,-1 23,-1 7,0 14,0 18,2 5,3 7,8 8,13 2,5 3,11 -1,14 -4,4 -14,5 -25,3 -11,-1 -24,-5 -33,-7 -9,-1 -14,1 -17,6 -2,5 -1,13 0,19 2,5 4,9 8,11 5,1 13,0 20,-1 7,-1 14,-2 23,-3 9,-1 20,-1 28,-1 9,1 13,2 16,5 2,4 3,10 2,18 0,8 -2,19 -4,25 -3,7 -8,10 -14,11 -5,1 -13,0 -30,-1 -18,-1 -47,-3 -67,-3 -21,0 -33,2 -42,1 -9,-1 -15,-5 -18,-11 -3,-7 -3,-16 -3,-32 -1,-16 -2,-38 -3,-55z"/>
  <path class="fil5 str0" d="M1534 785c-3,9 -1,25 -1,35 0,10 -2,14 -6,15 -5,1 -12,0 -23,0 -10,-1 -25,-1 -33,-3 -9,-3 -11,-7 -12,-14 -2,-8 -2,-18 -2,-34 0,-17 0,-40 0,-55 0,-16 0,-23 0,-31 0,-9 -1,-17 -2,-25 -1,-9 -2,-17 -1,-25 1,-7 3,-13 12,-17 9,-4 24,-6 38,-7 14,-1 26,0 39,0 13,1 26,1 38,1 12,0 23,0 33,1 11,0 20,0 27,3 7,3 12,8 15,19 4,10 7,24 9,39 1,14 1,28 -2,38 -3,9 -8,13 -16,16 -8,3 -18,5 -25,8 -7,3 -9,8 -8,11 2,3 8,5 15,8 7,4 14,10 23,15 8,6 18,10 27,14 8,4 14,8 19,12 4,4 5,8 4,11 -2,4 -8,8 -17,10 -8,1 -21,1 -34,1 -14,-1 -29,-3 -41,-4 -13,-1 -23,-1 -30,-7 -7,-6 -12,-17 -16,-26 -4,-9 -8,-15 -14,-18 -6,-2 -13,0 -16,9z"/>
  <path class="fil6 str0" d="M1259 1111c-12,-1 -19,-5 -23,-11 -3,-6 -3,-14 -3,-26 1,-13 2,-29 1,-46 0,-16 -2,-31 -2,-45 0,-14 1,-26 2,-37 0,-11 1,-21 -2,-27 -3,-7 -10,-10 -19,-12 -8,-2 -19,-2 -30,-2 -11,0 -23,0 -30,-2 -6,-1 -8,-5 -8,-12 0,-6 0,-15 1,-27 1,-12 2,-26 2,-37 0,-11 0,-20 1,-26 2,-6 6,-9 13,-11 8,-1 18,0 38,2 19,2 48,4 72,6 24,2 44,2 61,3 17,0 31,1 43,2 11,1 19,2 23,5 5,2 5,7 6,21 2,14 4,37 4,54 0,17 -2,28 -8,32 -5,5 -14,3 -25,1 -11,-2 -24,-5 -35,-4 -10,0 -18,3 -21,12 -3,8 -1,23 1,42 2,18 3,41 5,62 2,20 4,39 5,52 0,14 0,23 -4,28 -4,4 -13,3 -25,3 -13,1 -31,2 -43,0z"/>
  <path class="fil7 str0" d="M663 1151c-4,-21 -4,-32 -4,-53 1,-21 3,-52 14,-78 11,-26 31,-48 52,-63 21,-16 43,-25 65,-30 23,-5 45,-6 65,-1 19,4 36,13 51,26 15,12 28,28 39,45 11,18 19,38 25,57 5,19 8,37 10,58 2,22 3,47 2,70 -1,22 -5,42 -11,58 -6,17 -14,32 -22,42 -9,10 -18,17 -32,23 -14,5 -33,10 -51,13 -17,3 -33,3 -50,1 -17,-1 -34,-4 -50,-8 -16,-4 -31,-10 -46,-23 -14,-13 -27,-34 -37,-59 -10,-26 -17,-56 -20,-78z"/>
  <path class="fil8 str0" d="M573 101c0,29 -28,-11 -2,-3 7,2 2,5 2,7"/>
  <path class="fil8 str0" d="M570 111c-1,9 1,15 10,17"/>
  <path class="fil8 str0" d="M569 122c-2,3 -8,18 -6,21"/>
  <path class="fil8 str0" d="M514 192c-2,-1 -8,-11 -8,-14 -1,-10 13,-16 20,-9 4,4 5,1 6,10 1,10 -7,12 -15,12 -1,0 -6,1 -7,0"/>
  <path class="fil8 str0" d="M521 191c0,0 -2,14 -2,16 -3,13 -1,18 13,22l0 0"/>
  <path class="fil8 str0" d="M525 194c5,-3 16,-6 21,-1 1,1 2,2 2,3"/>
  <path class="fil8 str0" d="M520 198c-6,0 -16,3 -19,-5"/>
  <path class="fil8 str0" d="M517 217c-3,2 -15,11 -16,14"/>
  <path class="fil8 str0" d="M664 232c-4,-9 4,-26 19,-29 18,-3 23,0 23,21 -1,17 -38,15 -42,8z"/>
  <path class="fil8 str0" d="M690 237c2,14 -16,28 -32,28"/>
  <path class="fil8 str0" d="M770 196c-16,-29 40,-33 28,7 -10,3 -22,4 -27,-6l-1 -1z"/>
  <path class="fil8 str0" d="M793 210c1,3 17,31 17,31"/>
  <path class="fil8 str0" d="M783 211c-9,-3 -22,-8 -26,5l0 1"/>
  <path class="fil8 str0" d="M805 208c0,-2 11,-9 16,2"/>
  <path class="fil8 str0" d="M794 231c-5,12 -21,6 -30,0"/>
  <path class="fil8 str0" d="M943 288c-14,2 -20,3 -20,-17 -1,-18 45,-17 33,11 -2,4 -11,5 -13,6z"/>
  <path class="fil8 str0" d="M925 296c3,-1 21,16 19,18 -8,6 -22,9 -23,10"/>
  <path class="fil8 str0" d="M927 287c-6,-2 -17,-13 -18,-13 0,0 -9,6 -10,8"/>
  <path class="fil8 str0" d="M1044 219c-13,-7 -23,-8 -21,-30 2,-18 49,-27 45,23 -1,10 -23,11 -29,7 0,4 -15,23 -16,37 0,5 -22,9 -29,9l-1 0"/>
  <path class="fil8 str0" d="M1038 239c0,0 22,-20 22,1 0,0 1,8 2,9"/>
  <path class="fil8 str0" d="M1018 209c-13,0 -22,0 -31,10"/>
  <path class="fil8 str0" d="M1193 249c-48,-18 -2,-65 24,-28 7,9 2,29 -19,29 -2,0 -3,0 -5,-1z"/>
  <path class="fil8 str0" d="M1190 255c8,0 19,-1 24,4 12,11 -21,19 -22,26"/>
  <path class="fil8 str0" d="M1392 87c11,4 12,14 8,23 -9,21 -46,30 -67,20 -17,-8 -19,-28 -8,-43 14,-20 53,-24 67,0z"/>
  <path class="fil8 str0" d="M1323 123c-15,-5 -23,-2 -24,14"/>
  <path class="fil8 str0" d="M1362 130c5,-8 15,-5 18,2 6,12 10,42 13,69"/>
  <path class="fil8 str0" d="M1338 132c-16,24 -11,19 -18,29"/>
  <path class="fil8 str0" d="M1429 509c-36,0 -71,2 -58,-49 17,-69 125,-31 108,22 -5,16 -29,20 -43,20"/>
  <path class="fil8 str0" d="M1362 484c-9,-4 -27,-34 -30,-46"/>
  <path class="fil8 str0" d="M1486 464c-9,-17 -4,-51 -8,-57"/>
  <path class="fil8 str0" d="M1426 514c-13,23 10,53 -11,107l0 2"/>
  <path class="fil8 str0" d="M1428 547c-23,11 -6,27 -67,10 -2,0 -6,-2 -9,-3"/>
  <path class="fil8 str0" d="M1532 803c11,-3 12,-17 13,-27 1,-28 -90,-82 -91,-6 -1,65 82,38 90,28 -13,11 -73,39 -5,38 12,-1 23,2 36,2"/>
  <path class="fil8 str0" d="M1554 792c10,7 46,38 59,27"/>
  <path class="fil8 str0" d="M1250 679c-23,26 -34,39 -73,32 -37,-7 -24,-118 44,-94 49,18 42,48 29,62z"/>
  <path class="fil8 str0" d="M1278 668c0,0 17,-48 29,-41 7,4 27,23 28,32"/>
  <path class="fil8 str0" d="M1255 687c23,27 16,46 47,57 15,5 21,14 45,21 1,1 11,7 12,8"/>
  <path class="fil8 str0" d="M1271 738c-23,5 -45,-18 -35,16 1,3 18,34 21,39"/>
  <path class="fil8 str0" d="M1144 688c-44,-17 -36,0 -30,-63"/>
  <path class="fil8 str0" d="M997 802c-56,0 -67,-4 -64,-67 1,-28 128,-93 121,49 -1,19 -60,23 -74,23"/>
  <path class="fil8 str0" d="M875 832c0,-98 81,-6 80,10"/>
  <path class="fil8 str0" d="M1031 861c-1,1 -53,-59 -72,-27 -3,5 -3,53 -3,61"/>
  <path class="fil8 str0" d="M1060 787c13,-15 31,-61 31,-62"/>
  <path class="fil8 str0" d="M1006 741c-9,-21 -23,-55 -28,-76"/>
  <path class="fil8 str0" d="M792 1142c-34,-1 -54,12 -85,-33 -40,-58 24,-169 119,-108 37,24 59,26 50,79 -8,43 -56,58 -93,58"/>
  <path class="fil8 str0" d="M823 1132c6,32 28,64 59,76 3,1 9,6 13,5"/>
  <path class="fil8 str0" d="M832 1180c-70,0 -61,20 -73,22 -25,-21 -39,-74 -87,-71 -16,0 -8,48 14,69 10,10 78,58 93,53 11,-31 50,-38 80,-38"/>
  <path class="fil8 str0" d="M702 1100c-23,4 -101,-47 -117,-48 -6,0 1,-74 74,9 5,5 23,17 29,19"/>
  <path class="fil8 str0" d="M1549 1455c-4,-8 -195,36 -185,-166 4,-72 144,-207 254,-128 106,76 144,159 38,258 -27,25 -99,29 -136,29"/>
  <path class="fil8 str0" d="M1658 1311c-126,56 -114,-182 -51,-134 34,26 49,68 49,112"/>
  <path class="fil8 str0" d="M1474 1302c5,53 -91,73 -91,-80 0,-74 127,-80 114,80l-2 4"/>
  <path class="fil8 str0" d="M1358 1361c-10,-10 -23,-18 -38,-22 -33,-10 -77,2 -94,34 -15,28 3,56 32,24 6,-6 14,-13 20,-18 38,-30 95,12 106,47 7,23 -6,42 -30,36 -54,-12 -75,37 -53,75 27,45 94,58 141,45 2,-1 8,-5 14,-10 20,-16 34,-29 43,-42 11,-15 18,-30 22,-48 5,-23 6,-42 24,-53"/>
  <path class="fil8 str0" d="M1561 1459c70,76 233,69 233,-60 0,-64 -83,-62 -86,-23 -1,11 -1,25 -2,37 -4,59 -70,61 -102,33"/>
  <path class="fil8 str0" d="M1305 1543c-8,10 -22,15 -34,11 -10,-2 -16,-10 -22,-19 -3,-5 -6,-10 -10,-14 -16,-18 -49,-12 -50,12 -1,10 5,20 17,23 7,1 10,3 13,7 10,10 18,18 30,23 21,11 47,9 67,-6 1,-1 3,0 5,1 20,11 39,16 60,18 9,0 19,-1 25,9 47,79 42,196 16,276 10,11 50,18 72,13 11,-3 24,-11 27,-18 10,-73 -13,-210 -92,-293"/>
  <path class="fil8 str0" d="M1216 1558c-9,2 -13,13 -17,22 -19,42 -71,18 -47,-28 10,-22 37,-37 62,-36 10,0 28,36 2,42z"/>
  <path class="fil8 str0" d="M1175 1546c5,6 0,6 10,12 6,4 6,4 14,4"/>
  <path class="fil8 str0" d="M1492 1897c19,-13 15,-58 15,-74 -2,-90 124,-86 109,17 -7,46 -41,100 -87,124 -15,7 8,7 -12,10 -18,3 -56,3 -76,1 -6,-1 4,-2 -4,-9 -11,-11 -10,-24 -5,-35 6,-12 17,-24 17,-34"/>
  <path class="fil8 str0" d="M1490 1972c-9,-5 -11,-18 -5,-26 2,-3 5,-5 8,-7 3,-3 7,-5 9,-7 28,-22 39,-60 42,-94 1,-17 15,-26 31,-28 17,-2 37,7 34,28 -1,5 -2,12 -4,17"/>
  <path class="fil8 str0" d="M1366 1459c-6,6 -27,2 -37,19"/>
  <path class="fil8 str0" d="M1383 1241c6,10 -1,66 28,60 8,-1 6,-57 2,-57 -17,-1 3,-10 3,-22 0,-14 3,-32 -16,-34 -10,-1 -10,43 -10,48"/>
  <path class="fil8 str0" d="M1609 1245c5,23 11,67 -26,46 -26,-15 -13,-133 13,-108 1,1 13,44 1,43 -4,-1 -27,11 7,16 5,1 6,9 5,3z"/>
  <path class="fil8 str0" d="M1196 692c-11,-23 4,-25 18,-29l-6 0"/>
  <path class="fil8 str0" d="M1147 699c0,-13 24,-10 26,-6"/>
  <path class="fil8 str0" d="M1019 778c-25,12 -24,-25 -16,-37 8,-12 21,-27 35,-11 12,15 -3,38 -16,46 -1,1 -1,1 -3,2z"/>
  <path class="fil8 str0" d="M974 760c-16,3 -40,-5 -40,-24 1,-46 70,-27 35,13 -6,6 -13,6 -17,8"/>
  <path class="fil8 str0" d="M963 786c-12,-6 6,-25 6,-9 0,3 1,7 -2,7"/>
  <path class="fil8 str0" d="M788 1074c-1,-17 35,-35 44,-2"/>
  <path class="fil8 str0" d="M711 1083c0,-23 20,-18 32,-9"/>
  <path class="fil8 str0" d="M775 1132c-66,0 -53,-71 -12,-34 10,9 28,-3 35,-16 8,-16 44,19 22,31l1 9"/>
  <path class="fil8 str0" d="M1481 1362c1,13 36,22 49,18"/>
  <path class="fil8 str0" d="M1396 490c-28,0 -14,-39 2,-38 18,0 23,6 27,25 5,25 -18,21 -35,21"/>
  <path class="fil8 str0" d="M1461 492c-22,3 -22,3 -21,-21 1,-18 13,-31 29,-17 9,9 7,26 1,27"/>
  <path class="fil8 str0" d="M1409 491c-17,10 -29,-19 -2,-22 10,0 8,19 2,22z"/>
  <path class="fil8 str0" d="M1469 486c-10,10 -28,-2 -14,-14 5,-3 25,2 19,12"/>
  <path class="fil8 str0" d="M1422 504c-18,0 6,-15 6,-1"/>
  <path class="fil8 str0" d="M1038 748c-4,9 -12,17 -14,0 -1,-18 15,-28 13,-3 0,1 0,2 0,2"/>
  <path class="fil8 str0" d="M976 731c1,5 -7,14 -13,14 -5,1 -5,-2 -5,-10 0,-7 2,-15 9,-20 4,-3 8,11 9,16z"/>
  <path class="fil8 str0" d="M1328 93c5,-5 18,-4 19,1"/>
  <path class="fil8 str0" d="M1368 93c0,-10 5,-11 14,-13 2,-1 3,-1 5,-1"/>
  <path class="fil8 str0" d="M1193 236c-3,11 -16,-1 -12,-14 3,-10 10,-8 13,3 1,4 1,10 -3,12"/>
  <path class="fil8 str0" d="M1192 223c2,8 -6,12 -9,0 -1,-4 4,-8 5,-4"/>
  <path class="fil8 str0" d="M1043 198c5,0 9,4 9,9"/>
  <path class="fil8 str0" d="M941 282c-9,2 -14,-19 4,-18 3,1 6,16 -1,16"/>
  <path class="fil8 str0" d="M992 196c1,-2 16,-9 31,3"/>
  <path class="fil8 str0" d="M1215 240c4,-3 15,-29 22,-16 0,1 4,6 4,6"/>
  <path class="fil8 str0" d="M1172 232c-14,-1 -16,-22 -28,7 -1,1 -1,1 -1,1"/>
  <path class="fil8 str0" d="M1179 243c0,3 -7,12 -1,17 2,2 14,2 18,1 8,-1 8,-1 5,-10 0,-1 0,-1 0,-2"/>
  <path class="fil8 str0" d="M1184 262c-1,-10 12,-7 8,3 -1,3 -11,13 -13,14"/>
  <path class="fil8 str0" d="M1214 234c-4,11 -16,-1 -12,-14 3,-10 10,-8 13,3 1,4 1,9 -3,12"/>
  <path class="fil8 str0" d="M1212 221c2,7 -5,12 -9,0 -1,-4 5,-8 6,-4"/>
  <path class="fil8 str0" d="M1395 96c17,-9 30,-25 35,-36"/>
  <path class="fil8 str0" d="M1494 1448c-35,13 -54,8 -76,-20"/>
  <path class="fil8 str0" d="M1626 1459c-6,7 -10,25 -25,25"/>
  <path class="fil8 str0" d="M1358 1390c-3,-23 1,-19 11,-27"/>
  <path class="fil8 str0" d="M1460 1473c-4,22 -51,47 -72,49 -12,2 -35,6 -47,2 -6,-3 -24,-5 -30,-9 -1,0 -23,-9 -18,-10"/>
  <path class="fil8 str0" d="M1487 1458c0,33 -10,48 -19,76 -5,15 -16,27 -27,36 -1,1 -3,2 -3,3"/>
  <path class="fil8 str0" d="M1498 1712c-3,6 -21,6 -26,4 -1,-1 -4,-3 -4,-3"/>
  <path class="fil8 str0" d="M1276 1590c-6,0 -15,-1 -15,-9 -1,-1 -2,-3 -2,-5"/>
  <path class="fil8 str0" d="M1382 1300c13,6 8,-10 8,-25 0,-56 -19,-18 42,-71 21,-19 60,-7 65,-44 1,-9 78,10 106,-8 27,-17 20,8 47,45 3,4 43,47 45,46 16,-7 13,-79 6,-94 -10,-26 -1,-31 -10,-64 -5,-22 -110,-37 -135,-37 -79,0 -43,26 -57,47 -8,11 -44,17 -90,24 -17,3 -54,39 -59,54 -23,68 11,63 -17,129 -4,9 0,43 19,45 10,1 28,12 35,1l-2 0c-54,0 -24,-61 -3,-48z"/>
  <path class="fil8 str0" d="M1576 1347c-12,0 -33,0 -33,-14 0,-54 15,-28 27,-20 0,0 32,34 6,34z"/>
  <path class="fil8 str0" d="M1504 1210c0,104 10,132 -82,132 -52,0 -40,-16 -50,-104 -9,-78 13,-47 58,-84 4,-4 60,-20 63,5 2,8 8,25 8,40"/>
  <path class="fil8 str0" d="M1552 1239c0,-80 -20,-75 57,-90 8,-2 82,-8 85,10 6,36 17,138 -15,156 -24,12 -94,34 -103,-15 -3,-13 -10,-25 -11,-52 0,-6 0,-4 -1,-9"/>
  <path class="fil8 str0" d="M1739 1349c-23,8 -53,12 -34,43 9,14 24,-22 24,6 0,22 44,-12 25,5 -1,1 -5,28 23,8 0,0 28,-3 21,-19 -5,-10 -44,7 -18,-10 16,-12 -17,-19 -17,-19 0,-16 6,-7 -17,-14"/>
  <path class="fil8 str0" d="M1707 1394c-49,26 43,56 49,49 10,-10 -6,-23 -7,-24"/>
  <path class="fil8 str0" d="M1242 1354c-10,1 -49,37 -25,45 13,4 -2,7 20,8 8,0 7,10 29,-7 15,-12 7,-19 5,-16"/>
  <path class="fil8 str0" d="M1277 1382c4,2 10,12 8,18 -2,8 -4,9 -12,9 -4,0 -3,-10 -2,-14"/>
 </g>
</svg>
