<?xml version="1.0" encoding="UTF-8"?>
<!DOCTYPE svg PUBLIC "-//W3C//DTD SVG 1.0//EN" "http://www.w3.org/TR/2001/REC-SVG-20010904/DTD/svg10.dtd">
<!-- Creator: CorelDRAW X8 -->
<svg xmlns="http://www.w3.org/2000/svg" xml:space="preserve" width="1550px" height="1500px" version="1.0" style="shape-rendering:geometricPrecision; text-rendering:geometricPrecision; image-rendering:optimizeQuality; fill-rule:evenodd; clip-rule:evenodd"
viewBox="0 0 2145 2076"
 xmlns:xlink="http://www.w3.org/1999/xlink">
 <defs>
  <style type="text/css">
   <![CDATA[
    .str0 {stroke:black;stroke-width:3.26912}
    .fil0 {fill:none}
    .fil3 {fill:#009933}
    .fil1 {fill:#32C904}
    .fil8 {fill:#6666FF}
    .fil2 {fill:#6699FF}
    .fil7 {fill:red}
    .fil4 {fill:#FF45DA}
    .fil6 {fill:#FF6200}
    .fil5 {fill:#FFD500}
   ]]>
  </style>
 </defs>
 <g id="Camada_x0020_1">
  <metadata id="CorelCorpID_0Corel-Layer"/>
  <rect class="fil0" width="2145" height="2076"/>
  <path class="fil1" d="M813 258c-30,11 -103,4 -37,33 26,12 -48,5 10,15 49,7 112,-15 155,9 16,9 86,0 26,29 -16,8 63,15 -64,29 -9,0 -84,7 -46,17 -17,3 -159,21 -76,31 36,4 305,11 257,0 -48,-11 133,2 133,-7 0,-38 -110,5 -29,-16 12,-4 54,-14 61,-17 -32,-20 -13,13 -67,-37 -50,-47 -175,-5 -81,-46 30,-12 -207,-20 -184,-20 10,0 130,-9 115,-24 -2,-2 -157,-14 -137,2 0,4 -33,2 -36,2z"/>
  <path class="fil1" d="M983 612c-63,-21 -116,-6 32,-26 52,-7 57,13 50,-17 17,-2 145,4 58,23 -28,6 57,8 -26,19 -49,7 -82,-2 -81,-1 30,20 -80,22 -33,2z"/>
  <path class="fil1" d="M1248 434c-43,3 -86,11 -32,24 4,1 4,2 0,2 -88,-5 -103,18 -83,30 22,13 86,15 166,8 5,-1 2,0 -1,1 -22,9 -11,20 13,24 27,5 74,3 105,0 8,-1 15,0 24,0 36,1 64,-2 77,-13 16,-14 5,-37 -55,-43 -4,-1 -5,-1 -1,-2 26,-8 25,-16 14,-22 -8,-4 -22,-7 -30,-8 -58,-7 -152,-4 -197,-1z"/>
  <path class="fil1" d="M1966 1062c-9,-2 -208,16 -118,-9 31,-10 -95,-26 54,-37 20,-1 192,-2 69,20 -22,3 192,2 98,30 -24,7 -118,-7 -103,-4z"/>
  <path class="fil1" d="M1747 805c-3,2 -22,8 10,8 49,0 139,1 185,13 45,12 14,37 -32,43 -12,2 -6,2 9,3 167,9 187,69 18,67 -88,0 -238,-3 -222,0 5,37 -101,21 -130,21 -9,0 -150,-8 -109,-21 55,-18 -198,-30 40,-56 16,-1 24,-3 9,-3 -15,0 -110,-1 -154,-1 -124,0 -34,-84 77,-81 35,1 -68,-18 32,-18 39,0 108,0 157,0 24,0 109,2 129,7 30,6 -11,15 -19,18z"/>
  <path class="fil1" d="M1523 1049c26,6 134,15 25,50 -55,17 65,-14 4,24 -60,38 -236,24 -223,48 11,19 165,24 96,53 -50,21 -80,35 4,42 25,2 161,-13 134,40 -16,34 -199,45 -113,48 1,0 14,14 -10,20 -9,2 -235,31 -117,61 29,7 190,18 191,18 -22,48 -452,79 -505,79 -11,0 -67,-15 -40,-29 21,-11 128,-21 105,-32 -26,-13 -185,-2 -249,-5 -62,-3 -55,-36 -67,-38 -11,-36 47,-24 69,-41 -2,-14 -101,-37 -121,-38 -16,0 -100,-20 -26,-36 63,-14 14,-31 102,-43 154,-21 357,34 529,-12 -41,-40 87,-27 7,-63 -71,-32 -177,-60 -7,-94 101,-20 0,-10 -50,-26 -28,-9 108,4 101,-8 -12,-21 -4,-9 39,-20 4,-1 121,1 122,2z"/>
  <path class="fil2 str0" d="M826 136c-5,3 -9,8 -12,14 -2,7 -2,15 -2,22 0,7 0,13 0,19 1,7 1,16 1,22 0,7 0,12 0,18 0,6 1,14 1,19 0,5 -1,8 -1,11 0,4 0,7 3,10 2,2 6,5 11,5 4,0 9,-1 13,-2 5,-1 10,-1 12,-2 3,-1 3,-3 3,-6 0,-3 -1,-8 -1,-13 -1,-6 -1,-13 -2,-19 0,-5 0,-10 2,-13 2,-3 5,-4 10,-5 4,0 9,0 14,1 5,0 9,2 11,5 2,4 3,8 4,13 0,5 0,9 0,16 0,6 -1,15 1,19 1,5 4,5 10,5 6,0 15,-1 20,-4 5,-2 5,-7 5,-12 -1,-4 -2,-8 -3,-16 -1,-8 -2,-21 -3,-32 0,-12 0,-23 0,-34 0,-10 0,-19 -2,-28 -1,-8 -4,-16 -8,-21 -5,-4 -13,-5 -22,-5 -10,0 -22,2 -31,3 -9,2 -16,3 -21,5 -5,1 -9,2 -13,5z"/>
  <path class="fil3 str0" d="M996 268c1,-3 6,-9 13,-12 8,-3 18,-3 28,-3 9,0 17,1 26,1 9,0 18,-1 22,0 5,1 6,4 6,8 0,4 0,11 0,19 0,8 1,18 1,27 1,9 1,17 1,22 0,6 1,9 3,11 2,2 7,2 11,1 5,-1 9,-2 15,-3 5,-1 11,-2 15,-1 4,0 6,2 7,7 0,5 -1,12 -2,20 -1,8 -2,16 -3,22 -2,6 -4,10 -9,11 -5,2 -12,2 -19,2 -8,0 -16,0 -24,0 -9,0 -18,0 -27,0 -9,0 -18,0 -27,0 -8,0 -15,-1 -20,-5 -5,-5 -8,-13 -9,-23 0,-9 1,-20 2,-28 1,-9 0,-16 -1,-27 -1,-11 -2,-26 -4,-34 -2,-9 -5,-11 -5,-15z"/>
  <path class="fil4 str0" d="M1246 320c-1,-9 -2,-20 -1,-28 1,-9 3,-16 9,-20 6,-4 15,-5 25,-6 11,0 23,0 35,0 11,0 23,0 34,0 11,0 22,-1 30,-1 8,0 13,1 18,4 6,4 11,10 14,17 2,7 2,14 2,23 0,9 1,19 1,27 0,7 0,12 -1,15 -1,3 -3,5 -7,8 -5,3 -12,7 -17,9 -5,2 -7,3 -9,3 -1,0 -2,0 1,1 3,0 9,1 14,2 5,1 10,3 14,5 4,2 8,5 10,10 3,4 4,10 5,19 0,8 0,19 0,26 -1,7 -3,10 -7,14 -4,3 -10,6 -18,8 -7,3 -17,4 -28,5 -10,1 -23,1 -38,1 -14,0 -32,-1 -44,-3 -12,-1 -19,-3 -25,-6 -6,-3 -10,-8 -12,-15 -1,-7 0,-18 0,-28 0,-10 0,-20 0,-31 0,-11 -1,-22 -2,-32 0,-9 -2,-18 -3,-27z"/>
  <path class="fil5 str0" d="M1519 341c-1,-18 -2,-30 -4,-44 -2,-14 -4,-29 -7,-44 -2,-15 -3,-29 -1,-39 3,-9 9,-13 20,-15 11,-2 28,-2 46,0 17,2 37,5 51,5 14,-1 24,-5 34,-4 10,0 21,4 27,10 7,6 9,13 9,22 1,9 1,20 1,32 0,12 0,26 -5,33 -4,7 -12,6 -23,5 -12,0 -25,0 -36,-1 -11,0 -18,0 -22,3 -3,2 -2,7 -1,12 1,4 2,8 5,10 4,2 10,2 18,2 7,-1 15,-1 22,-1 8,0 14,0 19,2 4,3 6,8 8,14 1,5 2,11 -2,14 -4,4 -13,5 -24,3 -11,-1 -24,-6 -33,-7 -9,-1 -15,1 -17,6 -2,5 -1,13 0,19 1,6 3,10 8,12 5,1 12,0 20,-1 7,-1 13,-2 22,-3 9,-1 21,-1 29,-1 8,1 13,2 15,5 3,4 3,10 3,19 -1,8 -2,19 -5,26 -3,7 -7,10 -13,11 -6,1 -13,0 -31,-1 -18,-2 -46,-3 -67,-3 -20,0 -32,1 -41,0 -10,-1 -16,-4 -19,-11 -3,-7 -2,-16 -3,-33 0,-16 -2,-39 -3,-57z"/>
  <path class="fil6 str0" d="M1741 812c-3,10 -1,26 -1,37 0,10 -2,14 -6,15 -4,1 -11,0 -22,-1 -11,0 -25,0 -34,-3 -8,-2 -11,-7 -12,-14 -1,-8 -1,-18 -1,-35 0,-17 0,-41 0,-57 0,-16 0,-24 0,-32 -1,-9 -2,-17 -2,-26 -1,-9 -2,-18 -1,-25 1,-8 3,-14 12,-18 9,-4 24,-7 38,-8 14,-1 26,0 39,1 13,0 26,0 38,0 12,1 22,1 33,1 10,0 20,0 27,3 7,3 11,9 15,20 4,10 7,25 8,40 2,15 1,30 -1,40 -3,9 -9,14 -17,17 -7,3 -18,4 -24,8 -7,3 -10,8 -8,11 1,4 8,5 14,9 7,4 15,10 23,15 9,6 19,10 27,14 8,5 15,9 19,13 4,4 6,8 4,12 -2,3 -7,7 -16,9 -9,2 -21,2 -35,1 -13,-1 -28,-2 -41,-3 -12,-1 -22,-2 -29,-8 -7,-6 -12,-17 -16,-27 -5,-9 -9,-16 -15,-18 -5,-2 -13,0 -16,9z"/>
  <path class="fil7 str0" d="M1456 1122c-13,-1 -20,-5 -23,-11 -4,-7 -4,-15 -3,-28 0,-13 1,-30 1,-47 -1,-16 -2,-33 -3,-47 0,-14 1,-26 2,-38 1,-11 1,-21 -2,-28 -3,-7 -9,-10 -18,-12 -9,-2 -19,-2 -31,-2 -11,0 -23,0 -29,-2 -7,-2 -8,-6 -9,-12 0,-7 1,-17 2,-29 0,-12 1,-27 2,-38 0,-12 -1,-20 1,-26 1,-7 6,-11 13,-12 7,-1 18,0 37,2 20,2 48,4 73,6 24,2 43,2 60,3 17,0 32,1 43,2 11,1 19,2 24,5 4,3 4,7 6,22 1,14 3,38 3,56 0,17 -2,29 -7,33 -6,5 -14,3 -25,1 -11,-3 -24,-5 -35,-4 -11,0 -19,3 -22,12 -3,9 0,24 1,43 2,20 4,43 5,65 2,21 4,40 5,54 1,14 0,24 -4,28 -4,5 -12,4 -25,4 -13,0 -30,1 -42,0z"/>
  <path class="fil8 str0" d="M903 1234c-4,-25 -4,-39 -4,-64 1,-26 3,-62 16,-94 12,-31 36,-58 60,-76 25,-18 50,-29 76,-35 26,-6 52,-7 75,-2 23,5 43,17 60,32 17,14 32,33 45,54 12,21 22,45 29,68 6,23 9,44 11,70 2,26 4,57 3,84 -1,26 -6,50 -13,70 -7,20 -16,37 -26,50 -10,12 -21,20 -37,27 -16,7 -38,13 -59,16 -20,3 -39,3 -58,2 -19,-2 -39,-5 -58,-10 -19,-6 -36,-12 -53,-28 -16,-16 -32,-40 -43,-71 -12,-31 -20,-67 -24,-93z"/>
  <path class="fil0 str0" d="M780 105c0,30 -27,-12 -1,-4 7,2 2,6 1,8"/>
  <path class="fil0 str0" d="M778 115c-1,9 0,15 9,18"/>
  <path class="fil0 str0" d="M776 126c-2,3 -8,18 -6,21"/>
  <path class="fil0 str0" d="M721 198c-2,-1 -8,-10 -8,-14 0,-10 14,-17 21,-9 4,4 5,1 6,10 1,11 -7,13 -15,13 -2,0 -6,0 -7,0"/>
  <path class="fil0 str0" d="M729 198c0,0 -2,14 -3,16 -3,14 -1,19 14,23l0 0"/>
  <path class="fil0 str0" d="M732 201c5,-3 16,-6 22,-1 1,0 2,2 2,3"/>
  <path class="fil0 str0" d="M728 204c-6,1 -16,4 -19,-4"/>
  <path class="fil0 str0" d="M724 225c-3,1 -14,11 -16,14"/>
  <path class="fil0 str0" d="M872 240c-5,-10 4,-27 18,-30 18,-3 24,0 23,22 -1,18 -38,16 -41,8z"/>
  <path class="fil0 str0" d="M898 245c1,14 -16,29 -32,29"/>
  <path class="fil0 str0" d="M978 203c-17,-30 39,-34 27,7 -10,4 -22,4 -27,-6l0 -1z"/>
  <path class="fil0 str0" d="M1000 217c2,3 18,32 18,33"/>
  <path class="fil0 str0" d="M991 218c-9,-3 -22,-8 -27,5l0 1"/>
  <path class="fil0 str0" d="M1013 215c0,-2 11,-9 16,2"/>
  <path class="fil0 str0" d="M1002 238c-6,14 -22,7 -30,1"/>
  <path class="fil0 str0" d="M1150 298c-14,2 -19,3 -20,-18 0,-18 46,-18 34,12 -2,4 -11,5 -14,6z"/>
  <path class="fil0 str0" d="M1133 306c2,0 20,17 18,18 -7,7 -22,11 -23,11"/>
  <path class="fil0 str0" d="M1134 297c-5,-3 -16,-14 -18,-13 0,0 -8,5 -10,8"/>
  <path class="fil0 str0" d="M1252 227c-13,-7 -24,-9 -22,-31 2,-19 49,-29 45,23 0,11 -22,12 -29,7 0,5 -14,24 -15,39 0,5 -23,9 -29,9l-1 0"/>
  <path class="fil0 str0" d="M1246 248c0,0 22,-22 21,0 0,0 2,9 2,9"/>
  <path class="fil0 str0" d="M1226 216c-13,0 -22,0 -32,11"/>
  <path class="fil0 str0" d="M1401 258c-49,-19 -2,-67 24,-30 7,10 2,30 -19,30 -2,0 -3,1 -5,0z"/>
  <path class="fil0 str0" d="M1398 264c8,0 18,-1 24,4 12,11 -21,20 -23,27"/>
  <path class="fil0 str0" d="M1600 90c10,4 12,14 8,23 -9,23 -46,32 -68,21 -16,-8 -19,-29 -8,-44 15,-21 54,-25 68,0z"/>
  <path class="fil0 str0" d="M1531 127c-15,-5 -23,-2 -25,15"/>
  <path class="fil0 str0" d="M1569 135c6,-9 15,-6 19,1 6,13 10,44 13,72"/>
  <path class="fil0 str0" d="M1545 136c-15,26 -10,20 -17,31"/>
  <path class="fil0 str0" d="M1636 527c-36,0 -71,1 -58,-51 17,-71 126,-33 109,23 -6,16 -30,21 -44,21"/>
  <path class="fil0 str0" d="M1569 500c-9,-3 -26,-34 -29,-47"/>
  <path class="fil0 str0" d="M1694 480c-10,-17 -4,-53 -8,-59"/>
  <path class="fil0 str0" d="M1634 532c-13,24 9,54 -11,110l-1 3"/>
  <path class="fil0 str0" d="M1636 566c-23,11 -6,28 -68,11 -1,-1 -5,-3 -8,-4"/>
  <path class="fil0 str0" d="M1740 830c10,-3 12,-17 12,-27 1,-29 -90,-85 -91,-7 -1,68 82,40 90,29 -12,12 -72,40 -4,39 12,0 23,3 35,3"/>
  <path class="fil0 str0" d="M1762 820c9,7 46,38 59,27"/>
  <path class="fil0 str0" d="M1458 702c-24,27 -35,41 -73,34 -38,-8 -24,-123 44,-98 49,19 42,50 29,64z"/>
  <path class="fil0 str0" d="M1486 691c0,0 16,-50 29,-43 7,4 27,25 28,34"/>
  <path class="fil0 str0" d="M1462 710c24,29 17,49 48,59 15,6 21,15 44,23 2,0 12,6 12,8"/>
  <path class="fil0 str0" d="M1479 763c-23,5 -46,-18 -35,17 1,3 18,35 20,40"/>
  <path class="fil0 str0" d="M1352 711c-44,-17 -36,1 -31,-64"/>
  <path class="fil0 str0" d="M1204 829c-55,0 -66,-4 -64,-69 1,-28 129,-96 121,51 -1,20 -60,24 -73,24"/>
  <path class="fil0 str0" d="M1082 860c0,-101 82,-5 81,11"/>
  <path class="fil0 str0" d="M1238 891c-1,1 -53,-61 -72,-28 -3,4 -2,54 -2,63"/>
  <path class="fil0 str0" d="M1268 814c13,-15 30,-63 31,-64"/>
  <path class="fil0 str0" d="M1214 766c-9,-21 -23,-57 -29,-78"/>
  <path class="fil0 str0" d="M1054 1223c-41,-2 -64,14 -100,-40 -46,-70 28,-203 139,-129 43,28 69,31 58,95 -9,50 -65,69 -108,69"/>
  <path class="fil0 str0" d="M1089 1211c7,39 33,77 69,90 4,2 11,8 15,8"/>
  <path class="fil0 str0" d="M1100 1268c-81,0 -71,24 -85,27 -29,-25 -45,-89 -101,-86 -19,1 -9,58 16,84 12,12 91,69 108,63 13,-38 58,-46 93,-46"/>
  <path class="fil0 str0" d="M949 1172c-27,5 -117,-56 -136,-57 -7,0 1,-89 86,11 5,6 27,20 34,22"/>
  <path class="fil0 str0" d="M1825 1505c-4,-9 -194,37 -184,-172 4,-74 144,-214 254,-132 106,79 144,165 37,267 -26,26 -98,30 -135,30"/>
  <path class="fil0 str0" d="M1978 1365c-126,58 -114,-188 -51,-139 34,26 49,71 49,116"/>
  <path class="fil0 str0" d="M1794 1355c5,55 -91,75 -91,-82 0,-77 127,-83 114,82l-2 4"/>
  <path class="fil0 str0" d="M1634 1408c-9,-11 -23,-19 -37,-23 -33,-10 -77,2 -94,35 -15,30 3,59 32,26 6,-7 14,-14 20,-19 38,-31 95,12 105,48 8,23 -5,44 -30,38 -80,-21 -92,84 -34,126 28,21 68,22 100,9 47,-17 90,-64 102,-114 5,-24 6,-44 24,-56"/>
  <path class="fil0 str0" d="M1837 1510c71,78 234,71 234,-63 0,-66 -83,-64 -86,-23 -1,11 -1,25 -2,38 -4,61 -70,63 -102,34"/>
  <path class="fil0 str0" d="M1563 1550c-8,11 -22,16 -34,12 -10,-3 -16,-11 -22,-19 -3,-6 -6,-11 -10,-16 -17,-18 -49,-11 -50,13 -1,10 5,21 17,24 6,1 10,3 13,7 3,4 6,7 10,10 20,22 45,28 72,16 3,-1 6,-2 8,-4 1,0 4,-1 5,2 15,43 45,61 95,57 2,-1 6,3 8,7 46,82 50,208 24,290 10,12 50,19 72,13 11,-3 24,-11 26,-18 10,-75 -12,-218 -91,-303"/>
  <path class="fil0 str0" d="M1465 1562c-9,0 -16,10 -22,18 -28,38 -73,1 -39,-40 15,-18 44,-28 69,-21 9,3 19,43 -8,43z"/>
  <path class="fil0 str0" d="M1427 1545c3,8 -1,6 7,14 5,6 5,7 13,8"/>
  <path class="fil0 str0" d="M1747 1976c5,-9 4,-32 3,-53 -2,-28 -1,-59 13,-82 36,-55 143,-35 129,62 -6,48 -41,104 -86,128 -15,8 7,8 -12,11 -18,3 -56,4 -76,1 -6,-1 4,-2 -4,-9 -11,-11 -11,-26 -5,-37 6,-12 17,-24 17,-35"/>
  <path class="fil0 str0" d="M1752 2041c-13,-7 -10,-18 -4,-26 28,-36 32,-60 34,-102 1,-27 16,-44 36,-49 33,-8 74,14 59,63"/>
  <path class="fil0 str0" d="M1642 1509c-6,6 -26,2 -36,20"/>
  <path class="fil0 str0" d="M1703 1293c6,9 -1,67 28,61 8,-1 7,-59 2,-59 -17,-1 3,-10 3,-22 0,-15 3,-34 -16,-36 -10,-1 -10,45 -10,50"/>
  <path class="fil0 str0" d="M1929 1296c5,24 11,69 -26,48 -26,-15 -13,-138 13,-112 1,1 13,46 1,44 -4,0 -27,12 7,17 5,1 6,9 5,3z"/>
  <path class="fil0 str0" d="M1403 715c-10,-22 4,-25 19,-29l-6 0"/>
  <path class="fil0 str0" d="M1355 723c0,-14 23,-10 25,-6"/>
  <path class="fil0 str0" d="M1227 804c-25,13 -24,-25 -17,-37 8,-13 21,-28 35,-12 13,16 -2,39 -15,48 -1,1 -2,1 -3,1z"/>
  <path class="fil0 str0" d="M1182 787c-16,2 -41,-6 -40,-25 0,-48 70,-28 34,13 -6,6 -12,6 -17,8"/>
  <path class="fil0 str0" d="M1171 813c-13,-6 5,-25 5,-9 0,3 1,7 -2,7"/>
  <path class="fil0 str0" d="M1048 1141c0,-21 42,-42 52,-2"/>
  <path class="fil0 str0" d="M959 1152c0,-28 23,-21 37,-11"/>
  <path class="fil0 str0" d="M1034 1211c-77,0 -62,-85 -15,-41 12,11 33,-3 41,-19 9,-19 51,23 25,37l2 10"/>
  <path class="fil0 str0" d="M1801 1417c1,14 36,23 49,19"/>
  <path class="fil0 str0" d="M1604 507c-29,0 -14,-40 1,-40 18,1 24,7 28,26 5,26 -19,22 -36,22"/>
  <path class="fil0 str0" d="M1669 509c-23,3 -22,3 -21,-22 1,-18 13,-32 28,-17 10,9 8,26 2,27"/>
  <path class="fil0 str0" d="M1616 508c-17,10 -29,-20 -2,-22 11,-1 9,19 2,22z"/>
  <path class="fil0 str0" d="M1677 503c-10,10 -28,-3 -14,-15 4,-3 25,3 18,12"/>
  <path class="fil0 str0" d="M1630 522c-18,0 6,-16 6,-2"/>
  <path class="fil0 str0" d="M1245 774c-4,9 -12,17 -13,0 -2,-18 15,-29 13,-3 0,1 0,2 -1,2"/>
  <path class="fil0 str0" d="M1183 756c1,5 -7,14 -12,15 -6,0 -5,-2 -5,-10 0,-8 2,-16 8,-21 5,-4 8,11 9,16z"/>
  <path class="fil0 str0" d="M1536 96c4,-5 18,-4 19,1"/>
  <path class="fil0 str0" d="M1575 96c0,-10 6,-12 15,-14 1,0 3,0 5,0"/>
  <path class="fil0 str0" d="M1401 244c-4,12 -16,-1 -12,-14 3,-11 10,-9 13,3 1,4 1,10 -3,12"/>
  <path class="fil0 str0" d="M1399 230c2,9 -5,14 -9,1 -1,-5 4,-9 6,-4"/>
  <path class="fil0 str0" d="M1250 204c5,0 10,5 10,10"/>
  <path class="fil0 str0" d="M1149 291c-9,3 -14,-19 3,-18 4,1 6,17 -1,16"/>
  <path class="fil0 str0" d="M1199 203c2,-2 16,-9 31,2"/>
  <path class="fil0 str0" d="M1423 248c4,-3 14,-30 22,-16 0,1 3,6 3,6"/>
  <path class="fil0 str0" d="M1379 240c-13,-1 -16,-23 -28,7 0,1 0,1 -1,2"/>
  <path class="fil0 str0" d="M1387 251c-1,4 -7,13 -2,18 3,2 15,2 19,1 8,-2 8,-1 5,-11 -1,0 -1,0 -1,-1"/>
  <path class="fil0 str0" d="M1391 271c0,-10 13,-7 9,3 -2,3 -11,13 -14,15"/>
  <path class="fil0 str0" d="M1422 242c-4,12 -16,-1 -13,-15 3,-10 11,-8 14,4 1,3 1,9 -3,12"/>
  <path class="fil0 str0" d="M1420 228c2,8 -6,13 -9,0 -1,-4 4,-8 5,-3"/>
  <path class="fil0 str0" d="M1602 100c18,-10 31,-26 36,-38"/>
  <path class="fil0 str0" d="M1771 1498c-36,13 -54,8 -77,-20"/>
  <path class="fil0 str0" d="M1903 1509c-6,8 -11,26 -25,26"/>
  <path class="fil0 str0" d="M1635 1438c-3,-24 1,-20 11,-28"/>
  <path class="fil0 str0" d="M1736 1524c-3,22 -50,48 -71,51 -13,1 -35,6 -47,1 -6,-2 -24,-5 -30,-9 -1,0 -23,-9 -19,-10"/>
  <path class="fil0 str0" d="M1764 1508c0,34 -10,50 -20,79 -5,15 -15,28 -26,37 -1,1 -3,2 -4,3"/>
  <path class="fil0 str0" d="M1775 1771c-3,6 -21,6 -26,4 -1,-1 -4,-2 -4,-2"/>
  <path class="fil0 str0" d="M1659 1345c12,6 8,-11 8,-26 0,-58 -19,-19 41,-74 21,-19 61,-6 65,-45 1,-10 79,10 107,-9 26,-17 20,9 47,47 3,5 43,49 45,48 16,-7 12,-81 6,-97 -10,-27 -2,-33 -10,-66 -5,-23 -111,-39 -135,-39 -79,0 -43,27 -57,48 -8,12 -44,18 -90,26 -17,2 -54,40 -59,55 -23,70 11,66 -17,133 -5,11 -1,46 19,48 10,1 27,12 34,1l-1 0c-54,0 -24,-64 -3,-50z"/>
  <path class="fil0 str0" d="M1896 1402c-11,0 -33,-1 -33,-15 0,-56 15,-29 27,-20 0,0 32,35 6,35z"/>
  <path class="fil0 str0" d="M1824 1260c0,108 10,137 -82,137 -52,0 -40,-17 -50,-108 -9,-81 13,-49 58,-87 4,-4 60,-21 63,5 2,9 8,27 8,41"/>
  <path class="fil0 str0" d="M1872 1290c0,-82 -20,-78 57,-94 8,-1 82,-8 85,11 6,37 17,144 -15,161 -24,13 -94,35 -103,-14 -3,-15 -10,-27 -11,-54 0,-7 1,-5 -1,-10"/>
  <path class="fil0 str0" d="M2016 1396c-23,7 -53,12 -34,44 9,15 23,-23 23,7 0,22 44,-13 26,5 -1,1 -6,29 23,7 0,0 28,-2 21,-19 -5,-10 -44,7 -18,-11 16,-11 -17,-19 -17,-19 0,-16 6,-8 -17,-15"/>
  <path class="fil0 str0" d="M1984 1442c-50,27 42,58 49,50 9,-10 -7,-23 -7,-24"/>
  <path class="fil0 str0" d="M1518 1401c-10,1 -49,38 -24,46 12,5 -2,7 19,8 8,0 8,11 30,-7 15,-12 7,-19 5,-16"/>
  <path class="fil0 str0" d="M1553 1430c5,2 11,12 9,19 -3,7 -5,8 -12,9 -4,0 -3,-11 -2,-14"/>
 </g>
</svg>
