<?xml version="1.0" encoding="UTF-8"?>
<!DOCTYPE svg PUBLIC "-//W3C//DTD SVG 1.0//EN" "http://www.w3.org/TR/2001/REC-SVG-20010904/DTD/svg10.dtd">
<!-- Creator: CorelDRAW X8 -->
<svg xmlns="http://www.w3.org/2000/svg" xml:space="preserve" width="1551px" height="1501px" version="1.0" style="shape-rendering:geometricPrecision; text-rendering:geometricPrecision; image-rendering:optimizeQuality; fill-rule:evenodd; clip-rule:evenodd"
viewBox="0 0 2146 2077"
 xmlns:xlink="http://www.w3.org/1999/xlink">
 <defs>
  <style type="text/css">
   <![CDATA[
    .str1 {stroke:black;stroke-width:3.26861}
    .str0 {stroke:black;stroke-width:1.24534}
    .fil0 {fill:none}
    .fil3 {fill:#009933}
    .fil1 {fill:#32C904}
    .fil5 {fill:#32C904}
    .fil9 {fill:#6666FF}
    .fil2 {fill:#6699FF}
    .fil8 {fill:red}
    .fil4 {fill:#FF45DA}
    .fil7 {fill:#FF6200}
    .fil6 {fill:#FFD500}
   ]]>
  </style>
 </defs>
 <g id="Camada_x0020_1">
  <metadata id="CorelCorpID_0Corel-Layer"/>
  <rect class="fil0 str0" x="1" y="1" width="2145" height="2076"/>
  <path class="fil1" d="M744 259c-30,11 -103,3 -37,33 26,11 -48,5 10,14 49,8 112,-15 155,10 16,9 86,0 26,29 -16,7 63,15 -64,28 -9,1 -83,8 -45,18 -18,3 -160,21 -77,31 37,4 305,11 257,0 -47,-11 133,2 133,-8 0,-38 -109,6 -29,-16 12,-3 55,-14 62,-16 -32,-21 -14,12 -68,-38 -50,-46 -175,-5 -81,-45 30,-13 -207,-21 -184,-21 10,0 130,-8 115,-23 -2,-3 -156,-15 -137,2 0,3 -33,1 -36,2z"/>
  <path class="fil1" d="M1076 529c-63,-22 -116,-7 32,-27 52,-6 57,13 50,-17 17,-2 145,5 58,23 -29,6 57,8 -26,20 -49,6 -82,-2 -81,-2 29,20 -80,22 -33,3z"/>
  <path class="fil1" d="M1183 313c-35,2 -69,9 -26,19 4,1 3,2 0,2 -70,-5 -83,14 -66,24 17,10 68,12 133,6 4,0 1,0 -1,1 -17,7 -9,16 10,20 23,4 60,2 85,-1 7,0 12,0 19,0 29,1 52,-1 62,-10 13,-11 5,-30 -44,-35 -3,0 -4,-1 0,-2 20,-6 20,-12 10,-17 -6,-3 -17,-6 -24,-7 -46,-5 -122,-3 -158,0z"/>
  <path class="fil1" d="M1897 993c-9,-2 -208,17 -118,-9 31,-9 -95,-26 54,-37 20,-1 192,-1 69,20 -21,4 192,2 98,30 -24,7 -118,-7 -103,-4z"/>
  <path class="fil1" d="M1678 737c-3,1 -22,7 10,7 49,0 139,1 185,13 45,12 14,37 -31,44 -13,1 -7,2 8,3 167,8 187,68 18,67 -88,-1 -238,-3 -222,0 6,36 -101,20 -130,20 -9,0 -150,-7 -109,-21 55,-17 -197,-29 40,-55 16,-2 24,-3 9,-3 -15,-1 -110,-1 -154,-1 -123,0 -33,-85 77,-82 36,1 -68,-18 33,-18 39,0 108,0 156,0 24,0 109,3 130,7 29,6 -12,16 -20,19z"/>
  <path class="fil1" d="M1460 1000c25,6 134,15 24,50 -54,17 65,-14 4,24 -59,38 -236,24 -223,48 11,20 165,24 96,53 -50,21 -79,35 4,42 25,3 161,-13 135,40 -17,34 -199,45 -114,48 2,0 14,14 -10,20 -9,2 -234,31 -116,61 29,7 190,18 190,18 -21,49 -451,79 -505,79 -11,0 -66,-15 -40,-29 21,-11 128,-21 106,-32 -26,-13 -186,-2 -249,-5 -63,-3 -56,-36 -67,-38 -11,-36 47,-24 68,-40 -1,-15 -100,-38 -120,-39 -16,0 -101,-20 -27,-36 63,-14 14,-30 102,-43 154,-21 357,34 529,-12 -41,-40 88,-27 8,-63 -71,-32 -178,-60 -7,-94 101,-20 -1,-9 -50,-26 -29,-9 107,4 100,-8 -12,-21 -3,-8 39,-20 5,-1 121,1 123,2z"/>
  <path class="fil2 str1" d="M757 137c-5,3 -9,7 -11,14 -3,6 -3,15 -3,22 0,7 0,12 1,19 0,7 0,15 0,22 0,7 0,12 0,18 0,6 1,13 1,18 0,6 -1,9 -1,12 0,3 1,7 3,9 2,3 7,5 11,6 5,0 9,-1 14,-2 4,-1 9,-2 11,-3 3,-1 3,-2 3,-5 0,-3 -1,-8 -1,-14 -1,-5 -1,-12 -1,-18 0,-6 0,-11 2,-14 1,-2 5,-3 9,-4 4,-1 10,-1 14,0 5,1 9,3 11,6 3,3 3,8 4,13 0,4 1,9 0,15 0,7 0,15 1,20 1,4 4,5 10,5 6,0 15,-1 20,-4 5,-3 6,-8 5,-12 0,-5 -2,-9 -3,-17 -1,-8 -2,-20 -2,-32 -1,-12 -1,-23 -1,-33 0,-10 0,-19 -1,-28 -2,-9 -4,-17 -9,-21 -5,-5 -12,-6 -22,-5 -10,0 -22,1 -31,3 -9,1 -15,3 -20,4 -6,2 -10,3 -14,6z"/>
  <path class="fil3 str1" d="M928 253c0,-4 5,-10 12,-13 8,-4 18,-4 28,-4 9,0 18,1 26,1 9,0 18,0 23,1 4,1 5,4 5,8 0,5 0,12 0,21 0,9 1,20 2,30 0,10 0,19 0,26 1,6 1,10 3,12 3,1 7,1 11,1 5,-1 10,-2 15,-4 5,-1 11,-2 15,-1 4,0 7,3 7,8 0,6 -1,14 -2,23 -1,8 -1,17 -3,24 -1,7 -4,11 -9,13 -4,2 -11,1 -19,1 -7,0 -15,0 -24,0 -8,0 -18,0 -27,0 -9,0 -18,0 -26,0 -8,0 -15,0 -20,-5 -6,-5 -9,-15 -9,-26 -1,-10 1,-22 1,-31 1,-10 0,-18 -1,-30 -1,-12 -2,-29 -4,-38 -2,-10 -5,-13 -4,-17z"/>
  <path class="fil4 str1" d="M1198 199c-1,-9 -2,-18 -1,-26 0,-9 3,-15 8,-19 6,-4 14,-5 24,-5 10,-1 22,-1 33,-1 11,1 22,1 32,0 11,0 21,-1 28,-1 8,0 13,1 18,5 5,3 10,9 13,15 2,6 2,13 2,22 0,8 0,18 0,25 0,7 0,12 0,15 -1,3 -3,5 -7,7 -4,3 -11,7 -16,9 -4,2 -7,2 -8,3 -2,0 -2,0 0,0 3,1 9,2 14,3 5,1 9,2 13,4 4,2 8,5 10,9 2,5 3,10 4,18 0,8 1,18 0,25 -1,7 -3,10 -6,13 -4,3 -10,6 -17,9 -7,2 -16,3 -26,4 -11,1 -23,1 -37,1 -14,-1 -30,-1 -42,-2 -11,-2 -18,-4 -23,-7 -6,-3 -10,-7 -11,-14 -2,-7 -1,-17 -1,-26 1,-10 1,-20 0,-30 0,-10 -1,-20 -1,-30 -1,-9 -2,-17 -3,-26z"/>
  <path class="fil5" d="M1454 415c-17,7 -76,-4 -47,14 1,0 18,2 24,10 21,-2 -22,14 36,16 67,3 -5,6 34,15 17,4 251,8 259,-3 9,-13 -61,-25 -70,-25 14,1 52,-8 78,-7 1,0 49,-4 59,-4 13,0 38,-1 12,-13 -32,-14 -164,-3 -211,-9 -29,-4 -59,-11 -89,-9 -14,1 -49,-12 -36,6 8,11 28,0 -29,10 -4,1 -18,-1 -20,-1z"/>
  <path class="fil6 str1" d="M1458 346c-1,-17 -2,-29 -4,-42 -1,-13 -4,-28 -6,-42 -2,-14 -3,-28 -1,-37 2,-9 8,-13 19,-15 11,-2 26,-1 43,0 17,2 36,5 50,5 13,-1 22,-4 32,-4 9,0 20,4 26,10 6,5 8,12 9,21 1,8 0,19 0,30 0,12 0,26 -4,32 -4,6 -12,6 -23,5 -10,0 -23,-1 -34,-1 -10,0 -17,0 -20,2 -4,3 -2,7 -1,12 0,4 1,8 4,10 4,2 10,2 17,1 7,0 14,0 21,-1 7,0 14,0 18,3 4,2 6,7 8,13 1,5 2,10 -2,14 -3,3 -12,4 -23,3 -10,-2 -23,-6 -32,-7 -8,-1 -14,1 -16,5 -2,5 -1,13 0,19 2,5 3,9 8,11 5,1 12,0 19,-1 7,-1 13,-2 21,-3 9,0 20,-1 28,0 8,0 12,1 15,4 2,4 3,10 2,18 0,8 -2,18 -5,25 -2,6 -7,9 -12,10 -6,1 -12,0 -29,-1 -18,-1 -45,-2 -64,-2 -20,0 -32,1 -40,0 -9,-1 -15,-4 -18,-11 -3,-6 -2,-16 -3,-31 0,-16 -2,-38 -3,-55z"/>
  <path class="fil7 str1" d="M1647 749c-4,13 -1,35 -1,49 0,14 -3,19 -8,21 -6,1 -15,0 -29,-1 -14,-1 -33,-1 -44,-4 -11,-3 -15,-10 -16,-20 -2,-10 -2,-24 -2,-47 0,-23 0,-55 0,-77 0,-22 0,-32 0,-44 -1,-11 -2,-23 -3,-34 -1,-12 -2,-24 -1,-34 1,-10 4,-19 16,-24 11,-6 31,-10 50,-11 18,-1 34,0 51,1 16,0 34,0 49,1 16,0 30,1 43,1 14,0 27,0 36,4 9,4 15,12 20,26 4,15 9,35 11,55 2,20 1,40 -3,53 -4,13 -11,19 -21,23 -10,4 -24,6 -32,11 -9,5 -13,12 -11,16 3,4 11,6 20,11 9,5 18,14 30,21 11,7 24,13 35,19 11,6 19,12 25,17 5,5 7,11 5,16 -3,5 -10,10 -21,13 -12,2 -28,2 -46,1 -18,-1 -37,-3 -53,-5 -17,-1 -30,-2 -39,-10 -10,-8 -15,-23 -21,-36 -6,-12 -11,-21 -19,-25 -7,-3 -17,0 -21,13z"/>
  <path class="fil8 str1" d="M1366 1076c-13,-1 -21,-5 -25,-12 -4,-6 -4,-15 -3,-29 1,-14 2,-32 1,-50 0,-18 -2,-35 -2,-50 -1,-15 0,-28 1,-40 1,-12 2,-23 -1,-30 -4,-7 -11,-11 -20,-13 -9,-2 -20,-2 -32,-2 -12,0 -25,0 -32,-2 -7,-2 -8,-6 -9,-13 0,-7 1,-17 1,-30 1,-13 2,-29 3,-41 0,-13 -1,-22 1,-28 2,-7 6,-11 14,-12 8,-2 19,-1 40,1 20,3 51,6 76,7 26,2 47,2 65,3 18,1 33,2 45,3 12,1 21,2 25,5 5,3 5,8 7,23 1,15 4,41 4,59 0,19 -3,31 -9,36 -6,5 -15,3 -26,0 -12,-2 -26,-4 -37,-4 -12,1 -20,4 -23,13 -3,10 -1,26 1,46 2,21 4,46 5,68 2,23 4,43 5,58 1,16 1,26 -4,30 -4,5 -13,4 -26,4 -14,1 -32,2 -45,0z"/>
  <path class="fil9 str1" d="M835 1188c-4,-27 -5,-41 -4,-68 1,-27 3,-65 16,-98 14,-33 38,-61 64,-80 25,-19 52,-30 79,-36 28,-7 55,-8 79,-3 24,6 45,18 63,33 18,16 34,35 47,58 13,22 23,47 30,71 6,24 9,46 12,73 2,27 4,59 3,88 -1,28 -6,52 -14,74 -7,21 -16,39 -27,52 -10,13 -21,21 -39,28 -17,8 -40,14 -61,17 -22,4 -41,4 -61,2 -21,-2 -42,-5 -61,-11 -20,-5 -38,-12 -55,-29 -18,-16 -34,-42 -46,-74 -12,-32 -21,-71 -25,-97z"/>
  <path class="fil0 str1" d="M711 105c0,30 -27,-12 -1,-3 7,2 2,5 2,7"/>
  <path class="fil0 str1" d="M709 115c-1,9 1,16 9,18"/>
  <path class="fil0 str1" d="M707 127c-1,3 -7,18 -5,21"/>
  <path class="fil0 str1" d="M652 199c-1,-1 -7,-11 -8,-14 0,-11 14,-17 21,-10 4,4 5,2 6,11 1,10 -7,12 -15,12 -1,0 -6,1 -7,0"/>
  <path class="fil0 str1" d="M660 198c0,1 -2,15 -2,17 -4,13 -1,18 13,23l0 0"/>
  <path class="fil0 str1" d="M664 201c5,-3 16,-6 21,-1 1,1 2,2 2,3"/>
  <path class="fil0 str1" d="M659 205c-6,1 -16,4 -19,-4"/>
  <path class="fil0 str1" d="M656 225c-3,2 -15,12 -16,15"/>
  <path class="fil0 str1" d="M803 241c-5,-10 4,-27 19,-30 18,-4 23,-1 22,21 0,18 -37,16 -41,9z"/>
  <path class="fil0 str1" d="M829 245c2,15 -16,30 -32,30"/>
  <path class="fil0 str1" d="M909 203c-17,-29 39,-33 27,7 -9,4 -21,5 -26,-6l-1 -1z"/>
  <path class="fil0 str1" d="M932 218c1,3 17,32 17,32"/>
  <path class="fil0 str1" d="M922 218c-9,-2 -22,-7 -26,6l-1 1"/>
  <path class="fil0 str1" d="M944 215c0,-2 11,-8 16,3"/>
  <path class="fil0 str1" d="M933 239c-5,13 -21,7 -30,1"/>
  <path class="fil0 str1" d="M1082 298c-15,2 -20,3 -20,-17 -1,-18 45,-18 33,12 -2,3 -11,5 -13,5z"/>
  <path class="fil0 str1" d="M1064 306c3,0 20,17 19,19 -8,7 -22,10 -23,11"/>
  <path class="fil0 str1" d="M1066 297c-6,-2 -17,-13 -18,-13 0,0 -9,6 -10,8"/>
  <path class="fil0 str1" d="M1160 132c-13,-7 -23,-8 -21,-30 2,-19 49,-29 45,23 -1,10 -23,12 -29,7 0,5 -14,24 -15,38 -1,5 -23,9 -30,10l-1 0"/>
  <path class="fil0 str1" d="M1154 153c0,0 22,-21 22,1 0,0 1,8 2,9"/>
  <path class="fil0 str1" d="M1134 122c-13,0 -22,0 -31,10"/>
  <path class="fil0 str1" d="M1351 125c-56,-22 -3,-77 27,-34 8,11 2,34 -22,34 -2,0 -3,0 -5,0z"/>
  <path class="fil0 str1" d="M1347 132c9,0 21,-1 27,5 14,12 -24,22 -25,29"/>
  <path class="fil0 str1" d="M1531 90c11,4 12,15 8,24 -9,22 -46,31 -67,21 -17,-9 -19,-29 -9,-44 15,-21 54,-26 68,-1z"/>
  <path class="fil0 str1" d="M1462 128c-15,-5 -23,-2 -24,14"/>
  <path class="fil0 str1" d="M1500 135c6,-8 16,-5 19,2 6,13 10,43 13,72"/>
  <path class="fil0 str1" d="M1477 137c-16,25 -11,19 -18,30"/>
  <path class="fil0 str1" d="M1672 383c-36,0 -71,1 -58,-51 17,-71 126,-33 108,23 -5,16 -29,21 -43,21"/>
  <path class="fil0 str1" d="M1605 356c-9,-3 -27,-34 -30,-47"/>
  <path class="fil0 str1" d="M1729 336c-9,-17 -4,-53 -8,-59"/>
  <path class="fil0 str1" d="M1669 387c-12,25 10,55 -10,111l-1 2"/>
  <path class="fil0 str1" d="M1671 422c-22,11 -5,28 -67,11 -1,-1 -6,-3 -8,-4"/>
  <path class="fil0 str1" d="M1671 762c10,-3 12,-18 12,-28 1,-29 -89,-85 -91,-7 -1,68 83,40 90,29 -12,12 -72,41 -4,40 12,0 23,2 35,2"/>
  <path class="fil0 str1" d="M1693 751c9,7 46,39 59,27"/>
  <path class="fil0 str1" d="M1389 634c-24,27 -34,40 -73,33 -37,-7 -24,-122 44,-97 49,18 42,49 29,64z"/>
  <path class="fil0 str1" d="M1417 623c0,-1 17,-51 29,-43 7,4 27,24 28,33"/>
  <path class="fil0 str1" d="M1393 642c24,28 17,48 48,59 15,5 21,14 44,22 2,0 12,7 13,8"/>
  <path class="fil0 str1" d="M1410 694c-23,6 -46,-18 -35,17 1,4 18,36 20,41"/>
  <path class="fil0 str1" d="M1283 643c-44,-18 -36,0 -30,-65"/>
  <path class="fil0 str1" d="M1136 760c-56,0 -67,-4 -65,-68 1,-29 129,-96 121,50 -1,20 -60,25 -73,25"/>
  <path class="fil0 str1" d="M1014 792c0,-102 81,-6 80,11"/>
  <path class="fil0 str1" d="M1170 822c-1,1 -53,-61 -72,-28 -3,5 -3,54 -3,64"/>
  <path class="fil0 str1" d="M1199 745c13,-15 31,-63 31,-63"/>
  <path class="fil0 str1" d="M1145 698c-9,-22 -23,-57 -29,-79"/>
  <path class="fil0 str1" d="M974 1167c-42,-2 -67,15 -104,-42 -48,-73 29,-212 146,-136 45,30 71,33 60,100 -9,53 -68,73 -113,73"/>
  <path class="fil0 str1" d="M1011 1154c8,41 35,81 72,95 4,2 12,8 16,8"/>
  <path class="fil0 str1" d="M1022 1214c-84,0 -74,26 -88,29 -31,-27 -48,-93 -106,-90 -20,1 -10,61 17,87 12,13 94,73 113,67 13,-40 61,-49 97,-49"/>
  <path class="fil0 str1" d="M864 1114c-28,5 -122,-60 -142,-60 -7,0 1,-94 90,11 5,6 28,21 35,23"/>
  <path class="fil0 str1" d="M1826 1436c-4,-8 -195,37 -184,-172 3,-73 143,-214 253,-132 106,79 144,165 38,268 -27,25 -99,29 -136,29"/>
  <path class="fil0 str1" d="M1978 1296c-126,58 -114,-188 -51,-139 34,27 49,71 49,116"/>
  <path class="fil0 str1" d="M1795 1286c4,55 -92,76 -92,-82 0,-77 128,-83 114,82l-2 4"/>
  <path class="fil0 str1" d="M1635 1339c-10,-11 -23,-18 -38,-23 -32,-10 -77,3 -94,35 -15,30 3,59 32,26 6,-6 14,-14 20,-19 38,-31 95,13 106,48 7,24 -6,44 -30,38 -80,-20 -92,84 -35,126 29,21 68,22 101,10 46,-18 89,-65 101,-115 5,-24 6,-44 24,-56"/>
  <path class="fil0 str1" d="M1838 1441c70,78 233,71 233,-63 1,-65 -83,-63 -86,-23 -1,11 -1,25 -2,38 -3,61 -70,63 -101,34"/>
  <path class="fil0 str1" d="M1563 1482c-7,10 -22,15 -34,11 -10,-2 -16,-11 -21,-19 -4,-6 -7,-11 -11,-15 -16,-19 -48,-12 -50,12 -1,10 5,21 17,24 7,1 10,4 14,7 3,4 6,7 9,10 21,22 45,28 73,16 2,-1 5,-2 8,-4 0,0 3,0 4,2 16,43 45,62 95,57 3,0 6,3 8,7 47,82 50,208 24,290 10,12 50,19 72,13 11,-3 24,-11 27,-18 10,-75 -13,-218 -92,-303"/>
  <path class="fil0 str1" d="M1466 1493c-10,0 -16,10 -22,18 -29,38 -73,1 -40,-39 15,-19 45,-29 69,-22 10,3 19,43 -7,43z"/>
  <path class="fil0 str1" d="M1427 1476c4,8 0,6 8,15 5,5 5,6 12,7"/>
  <path class="fil0 str1" d="M1747 1907c5,-8 4,-32 3,-53 -2,-28 -1,-59 14,-81 35,-56 143,-36 129,61 -7,48 -41,104 -87,128 -15,8 8,8 -12,11 -18,3 -56,4 -76,1 -6,0 4,-2 -3,-9 -12,-11 -11,-25 -6,-37 6,-12 17,-24 17,-35"/>
  <path class="fil0 str1" d="M1753 1972c-14,-7 -11,-18 -5,-26 28,-36 32,-60 34,-102 1,-27 16,-44 36,-49 33,-8 75,14 59,63"/>
  <path class="fil0 str1" d="M1643 1441c-6,5 -27,1 -37,19"/>
  <path class="fil0 str1" d="M1703 1224c6,10 -1,68 28,61 8,-1 7,-58 2,-59 -17,0 4,-10 4,-22 0,-15 2,-33 -17,-36 -9,-1 -9,45 -9,50"/>
  <path class="fil0 str1" d="M1930 1228c4,23 10,69 -27,47 -26,-15 -12,-138 14,-112 1,1 13,46 0,45 -4,-1 -27,11 7,17 6,0 7,8 6,3z"/>
  <path class="fil0 str1" d="M1334 647c-10,-23 5,-26 19,-30l-6 1"/>
  <path class="fil0 str1" d="M1286 654c0,-13 24,-10 26,-5"/>
  <path class="fil0 str1" d="M1158 736c-25,13 -24,-26 -16,-38 7,-13 20,-28 34,-11 13,15 -2,39 -15,47 -1,1 -2,1 -3,2z"/>
  <path class="fil0 str1" d="M1113 718c-16,3 -40,-5 -40,-25 1,-48 70,-28 34,13 -5,7 -12,6 -16,8"/>
  <path class="fil0 str1" d="M1102 744c-12,-5 6,-25 6,-8 0,2 0,6 -3,6"/>
  <path class="fil0 str1" d="M968 1081c0,-22 44,-44 55,-3"/>
  <path class="fil0 str1" d="M875 1093c0,-29 24,-23 39,-12"/>
  <path class="fil0 str1" d="M954 1155c-81,0 -65,-90 -16,-44 13,12 34,-3 42,-19 11,-21 55,24 27,38l2 11"/>
  <path class="fil0 str1" d="M1802 1348c0,14 35,23 49,19"/>
  <path class="fil0 str1" d="M1639 363c-28,0 -14,-40 2,-40 18,1 23,7 27,26 5,26 -18,22 -35,22"/>
  <path class="fil0 str1" d="M1704 365c-22,3 -21,3 -20,-22 0,-18 12,-32 28,-17 9,9 8,26 1,27"/>
  <path class="fil0 str1" d="M1652 364c-17,10 -29,-20 -2,-22 10,-1 8,18 2,22z"/>
  <path class="fil0 str1" d="M1713 359c-11,10 -28,-3 -15,-15 5,-3 25,3 19,12"/>
  <path class="fil0 str1" d="M1665 378c-17,0 6,-16 6,-2"/>
  <path class="fil0 str1" d="M1177 705c-4,10 -13,17 -14,1 -1,-19 15,-30 13,-4 0,1 0,2 -1,3"/>
  <path class="fil0 str1" d="M1114 687c1,6 -7,15 -12,15 -5,1 -5,-2 -5,-10 0,-7 2,-16 8,-21 5,-4 9,12 9,16z"/>
  <path class="fil0 str1" d="M1467 96c4,-4 18,-3 19,2"/>
  <path class="fil0 str1" d="M1507 96c0,-9 5,-11 14,-13 2,0 3,0 5,0"/>
  <path class="fil0 str1" d="M1351 109c-5,13 -19,-2 -14,-17 3,-11 11,-9 15,4 1,4 1,11 -4,14"/>
  <path class="fil0 str1" d="M1348 93c3,10 -6,15 -10,0 -1,-4 5,-9 7,-4"/>
  <path class="fil0 str1" d="M1159 110c5,0 10,4 10,10"/>
  <path class="fil0 str1" d="M1080 292c-9,3 -14,-19 4,-18 3,0 5,17 -1,16"/>
  <path class="fil0 str1" d="M1108 109c1,-2 16,-10 31,2"/>
  <path class="fil0 str1" d="M1375 113c5,-3 17,-33 25,-18 1,1 5,6 5,6"/>
  <path class="fil0 str1" d="M1326 105c-16,-2 -19,-27 -32,7 -1,1 -1,1 -1,2"/>
  <path class="fil0 str1" d="M1334 117c0,4 -8,15 -1,20 3,3 16,2 21,1 9,-1 9,0 5,-12 0,-1 0,0 0,-1"/>
  <path class="fil0 str1" d="M1339 139c0,-11 15,-8 10,4 -2,4 -12,15 -15,17"/>
  <path class="fil0 str1" d="M1374 106c-4,14 -18,-1 -14,-16 4,-12 12,-10 15,3 1,5 1,12 -3,14"/>
  <path class="fil0 str1" d="M1372 91c3,9 -6,15 -10,0 -1,-5 5,-10 6,-4"/>
  <path class="fil0 str1" d="M1534 100c17,-10 30,-26 35,-38"/>
  <path class="fil0 str1" d="M1771 1429c-35,14 -54,8 -76,-20"/>
  <path class="fil0 str1" d="M1903 1440c-6,8 -10,26 -25,26"/>
  <path class="fil0 str1" d="M1635 1369c-3,-23 1,-20 11,-28"/>
  <path class="fil0 str1" d="M1737 1455c-4,22 -51,48 -72,51 -12,1 -35,6 -47,1 -6,-2 -23,-4 -30,-9 0,0 -23,-9 -18,-10"/>
  <path class="fil0 str1" d="M1765 1439c0,35 -11,50 -20,79 -5,15 -16,28 -27,37 -1,1 -3,3 -3,3"/>
  <path class="fil0 str1" d="M1775 1702c-3,6 -21,6 -26,4 -1,-1 -4,-2 -4,-2"/>
  <path class="fil0 str1" d="M1659 1276c13,6 8,-10 8,-26 0,-58 -19,-19 42,-74 21,-19 60,-6 65,-45 1,-9 78,10 106,-8 27,-18 20,8 47,46 3,5 43,49 45,49 17,-8 13,-82 7,-98 -11,-27 -2,-32 -11,-66 -5,-23 -110,-38 -135,-38 -79,0 -43,26 -57,48 -8,11 -44,18 -90,25 -16,2 -54,41 -59,55 -23,71 11,66 -17,134 -4,10 0,45 19,47 10,1 28,12 35,1l-2 0c-54,0 -24,-64 -3,-50z"/>
  <path class="fil0 str1" d="M1896 1333c-11,0 -33,0 -33,-15 0,-56 16,-29 28,-20 0,0 31,35 5,35z"/>
  <path class="fil0 str1" d="M1824 1192c0,107 10,136 -81,136 -53,0 -41,-17 -51,-108 -9,-80 13,-49 58,-87 5,-3 60,-21 64,5 1,9 8,27 8,42"/>
  <path class="fil0 str1" d="M1873 1221c0,-82 -21,-78 56,-93 9,-2 82,-8 85,11 7,37 18,143 -15,161 -23,13 -94,35 -103,-15 -2,-15 -10,-27 -10,-54 -1,-6 0,-5 -1,-9"/>
  <path class="fil0 str1" d="M2016 1327c-23,8 -53,13 -33,44 8,15 23,-23 23,7 0,22 44,-13 25,5 -1,1 -5,29 23,8 1,0 28,-3 21,-19 -5,-11 -43,6 -18,-11 17,-12 -17,-19 -17,-20 0,-16 6,-7 -17,-15"/>
  <path class="fil0 str1" d="M1984 1373c-49,27 43,58 49,50 10,-10 -6,-23 -6,-24"/>
  <path class="fil0 str1" d="M1519 1332c-10,1 -49,38 -25,47 13,4 -2,6 20,7 8,1 7,12 29,-6 15,-13 7,-20 6,-17"/>
  <path class="fil0 str1" d="M1554 1361c5,2 10,13 8,19 -2,7 -4,8 -12,9 -4,0 -3,-11 -2,-14"/>
  <path class="fil0 str1" d="M688 1258c-29,-3 -24,-31 -34,-56 -4,-10 3,-4 12,-4 3,0 29,9 33,16 3,7 4,22 1,29 -3,6 -11,16 -11,18"/>
  <path class="fil0 str1" d="M713 1236c-11,-6 -19,-28 -4,-39 27,-20 32,-40 37,3 4,35 -44,46 -35,38 1,-1 2,-2 2,-2z"/>
  <path class="fil0 str1" d="M762 1315c-46,-9 -12,-68 -5,-64 24,15 42,22 31,55 -3,9 -19,11 -26,9z"/>
  <path class="fil0 str1" d="M771 1315c-10,-20 22,-32 37,-36 1,0 10,29 -13,37 -3,2 -23,5 -18,-2"/>
  <path class="fil0 str1" d="M1431 1235c-8,-39 -7,-34 -42,-40 -22,-4 -13,1 -9,24 3,26 49,22 51,19 4,-4 1,0 0,-3z"/>
  <path class="fil0 str1" d="M1437 1246c-7,-2 -14,-29 6,-36 2,-1 36,-12 36,-8 -1,33 -20,51 -42,44z"/>
 </g>
</svg>
