<?xml version="1.0" encoding="UTF-8"?>
<!DOCTYPE svg PUBLIC "-//W3C//DTD SVG 1.0//EN" "http://www.w3.org/TR/2001/REC-SVG-20010904/DTD/svg10.dtd">
<!-- Creator: CorelDRAW X8 -->
<svg xmlns="http://www.w3.org/2000/svg" xml:space="preserve" width="2450px" height="1550px" version="1.0" style="shape-rendering:geometricPrecision; text-rendering:geometricPrecision; image-rendering:optimizeQuality; fill-rule:evenodd; clip-rule:evenodd"
viewBox="0 0 2972 1880"
 xmlns:xlink="http://www.w3.org/1999/xlink">
 <defs>
  <style type="text/css">
   <![CDATA[
    .str1 {stroke:black;stroke-width:2.42526}
    .str0 {stroke:black;stroke-width:2.86505}
    .fil0 {fill:none}
    .fil11 {fill:black}
    .fil9 {fill:#1C7BFF}
    .fil10 {fill:#1DDE2A}
    .fil1 {fill:#32C904}
    .fil4 {fill:#32C904}
    .fil5 {fill:#3B00FC}
    .fil6 {fill:#B300FF}
    .fil3 {fill:#FF00BF}
    .fil2 {fill:#FF1C1C}
    .fil7 {fill:#FFD000}
    .fil8 {fill:#FF5900;fill-rule:nonzero}
   ]]>
  </style>
 </defs>
 <g id="Camada_x0020_1">
  <metadata id="CorelCorpID_0Corel-Layer"/>
  <rect class="fil0" width="2972" height="1880"/>
  <path class="fil1" d="M1155 208c-26,9 -90,3 -32,27 22,9 -42,4 9,11 42,6 98,-12 135,8 15,7 76,0 23,23 -14,6 55,12 -56,23 -8,1 -73,6 -40,14 -15,3 -140,17 -67,25 32,4 267,9 225,0 -41,-8 117,2 117,-6 0,-31 -96,5 -26,-13 11,-2 48,-11 54,-13 -28,-17 -11,10 -59,-30 -44,-38 -153,-4 -71,-37 26,-10 -181,-17 -161,-17 9,0 114,-6 101,-18 -2,-2 -137,-12 -121,1 0,3 -29,1 -31,2z"/>
  <path class="fil2 str0" d="M1160 158c-18,-2 -19,-24 2,-28l32 -5c67,-11 73,100 23,106 -15,2 -37,2 -50,1 -20,-2 -21,-21 -4,-26 2,0 3,-1 3,-1l-3 -39c0,-4 0,-7 -3,-8z"/>
  <path class="fil1" d="M1312 463c-55,-19 -101,-6 29,-23 45,-6 49,11 44,-15 14,-2 127,4 50,20 -25,5 50,7 -23,17 -42,6 -71,-2 -71,-1 26,17 -69,19 -29,2z"/>
  <path class="fil1" d="M1548 365c-29,1 -42,3 -24,8 4,1 1,0 -2,0 -5,0 -10,0 -14,0 -14,1 -26,3 -27,6 -1,2 5,4 24,5 33,2 80,2 91,1 4,0 2,0 0,1 -14,4 -9,9 8,10 24,2 54,0 75,-1 9,0 20,0 29,0 68,1 61,-15 -5,-16 -3,0 -3,0 0,0 19,-4 12,-9 0,-11 -12,-3 -27,-3 -38,-3 -49,-2 -116,0 -117,0z"/>
  <path class="fil3 str0" d="M1412 221l-3 76c0,10 4,21 -7,23 -8,1 -31,2 -39,0 -5,-1 -7,-6 -8,-13l-6 -87c-1,-14 4,-18 13,-19 8,-1 25,-2 36,-1 11,2 15,6 14,21z"/>
  <path class="fil4" d="M1839 363c-15,6 -67,-4 -40,11 0,1 15,3 20,10 18,-2 -19,12 32,14 58,2 -4,4 29,13 15,3 221,7 227,-3 8,-11 -53,-21 -61,-21 12,0 46,-8 69,-6 0,0 43,-4 51,-4 12,0 34,-1 10,-12 -27,-12 -143,-3 -184,-8 -26,-3 -52,-9 -78,-8 -12,1 -43,-10 -32,5 8,11 25,0 -25,10 -3,0 -16,-2 -18,-1z"/>
  <path class="fil5 str0" d="M1814 239c-8,-36 2,-53 20,-61 14,-5 31,-5 52,-3 6,1 10,1 19,1 6,-1 12,-1 18,-2 19,-3 38,-4 41,23 1,8 1,19 1,29 0,5 -1,12 -1,17 -1,15 -10,16 -23,15l-45 -1c-7,0 -10,1 -10,12 1,11 5,11 13,11l30 -2c6,-1 10,1 11,8 0,3 1,6 1,9 1,8 -1,13 -12,12l-32 -2c-5,-1 -10,1 -9,8 0,3 1,9 1,11 1,8 6,7 13,6l46 -4c10,-1 18,1 19,15 1,8 2,18 1,24 -2,8 -9,10 -16,11 -34,4 -102,3 -116,0 -9,-2 -14,-7 -15,-23l-1 -71c0,-13 -4,-30 -6,-43z"/>
  <path class="fil0 str0" d="M1149 122c0,26 -24,-11 -1,-4 6,2 2,5 1,7"/>
  <path class="fil0 str0" d="M1147 130c-1,8 0,14 8,16"/>
  <path class="fil0 str0" d="M1145 140c-1,3 -6,16 -5,19"/>
  <path class="fil0 str0" d="M1085 162c-2,-1 -7,-9 -7,-13 0,-9 12,-14 18,-8 3,4 4,2 5,9 1,9 -6,11 -13,11 -1,0 -5,1 -6,0"/>
  <path class="fil0 str0" d="M1092 161c0,1 -2,13 -3,15 -2,12 -1,16 12,20l0 0"/>
  <path class="fil0 str0" d="M1095 164c4,-3 14,-5 19,-1 0,1 1,2 1,3"/>
  <path class="fil0 str0" d="M1091 167c-5,1 -14,3 -17,-4"/>
  <path class="fil0 str0" d="M1088 185c-3,1 -13,10 -14,13"/>
  <path class="fil0 str0" d="M1217 199c-4,-9 3,-24 16,-27 16,-3 21,0 20,19 0,7 -6,10 -13,12 -9,2 -21,0 -23,-4z"/>
  <path class="fil0 str0" d="M1240 203c1,12 -14,26 -29,26"/>
  <path class="fil0 str0" d="M1402 286c-12,2 -17,3 -18,-15 0,-16 40,-16 30,10 -2,3 -10,5 -12,5z"/>
  <path class="fil0 str0" d="M1387 293c2,0 17,15 16,16 -7,6 -20,9 -20,10"/>
  <path class="fil0 str0" d="M1388 285c-5,-2 -15,-12 -16,-11 0,0 -7,5 -9,7"/>
  <path class="fil0 str0" d="M1533 179c-11,-5 -20,-7 -18,-25 2,-16 41,-24 38,19 -1,9 -19,10 -25,6 1,4 -11,20 -12,32 0,4 -19,8 -24,8l-1 0"/>
  <path class="fil0 str0" d="M1528 197c0,0 18,-18 18,0 0,0 1,7 2,8"/>
  <path class="fil0 str0" d="M1512 171c-11,0 -19,0 -27,8"/>
  <path class="fil0 str0" d="M1687 188c-49,-19 -3,-68 23,-30 7,10 3,30 -19,30 -2,0 -3,0 -4,0z"/>
  <path class="fil0 str0" d="M1684 194c7,0 18,-1 23,4 12,11 -21,20 -22,26"/>
  <path class="fil0 str0" d="M1912 91c9,3 10,12 6,21 -7,19 -40,27 -59,18 -14,-8 -16,-26 -7,-39 13,-18 47,-22 60,0z"/>
  <path class="fil0 str0" d="M1851 124c-13,-5 -20,-2 -21,12"/>
  <path class="fil0 str0" d="M1885 130c4,-7 13,-5 16,2 5,11 9,38 11,62"/>
  <path class="fil0 str0" d="M1864 131c-14,23 -9,18 -16,27"/>
  <path class="fil0 str0" d="M2047 304c-31,0 -62,2 -51,-44 15,-62 111,-28 95,20 -4,14 -25,18 -38,18"/>
  <path class="fil0 str0" d="M1989 300c-8,-3 -24,-30 -27,-42"/>
  <path class="fil0 str0" d="M2098 264c-9,-15 -4,-47 -8,-52"/>
  <path class="fil0 str0" d="M2045 309c-11,21 8,48 -9,97l-1 2"/>
  <path class="fil0 str0" d="M2047 339c-20,10 -5,24 -59,9 -2,0 -5,-2 -8,-3"/>
  <path class="fil0 str0" d="M2019 287c-25,0 -13,-35 1,-34 16,0 20,5 24,22 4,23 -16,19 -31,19"/>
  <path class="fil0 str0" d="M2076 289c-20,3 -19,3 -19,-19 1,-16 12,-28 25,-15 8,8 7,23 2,24"/>
  <path class="fil0 str0" d="M2030 288c-15,9 -26,-17 -2,-19 9,-1 7,16 2,19z"/>
  <path class="fil0 str0" d="M2083 284c-9,8 -25,-2 -13,-13 4,-3 22,2 17,11"/>
  <path class="fil0 str0" d="M2041 300c-15,0 6,-14 6,-1"/>
  <path class="fil0 str0" d="M1856 96c3,-4 15,-3 16,1"/>
  <path class="fil0 str0" d="M1890 96c0,-8 5,-10 13,-12 1,0 2,0 4,0"/>
  <path class="fil0 str0" d="M1687 173c-4,12 -17,0 -13,-14 3,-10 10,-8 13,3 1,4 1,10 -2,12"/>
  <path class="fil0 str0" d="M1685 160c2,8 -6,13 -9,0 -1,-4 4,-8 5,-3"/>
  <path class="fil0 str0" d="M1532 161c4,0 8,4 8,8"/>
  <path class="fil0 str0" d="M1401 280c-8,3 -13,-16 3,-15 2,0 5,14 -1,14"/>
  <path class="fil0 str0" d="M1489 160c2,-2 14,-8 26,2"/>
  <path class="fil0 str0" d="M1708 178c4,-3 15,-30 22,-17 1,1 4,6 4,6"/>
  <path class="fil0 str0" d="M1665 170c-14,-2 -16,-23 -28,7 -1,1 -1,0 -1,1"/>
  <path class="fil0 str0" d="M1672 181c0,4 -7,13 -1,18 3,2 15,1 18,1 8,-2 9,-1 5,-11 0,-1 0,0 0,-1"/>
  <path class="fil0 str0" d="M1677 200c-1,-10 12,-7 8,4 -1,3 -10,13 -13,15"/>
  <path class="fil0 str0" d="M1707 171c-3,12 -16,-1 -12,-14 3,-10 10,-8 13,3 1,4 1,10 -3,12"/>
  <path class="fil0 str0" d="M1705 158c3,8 -5,13 -9,0 -1,-4 5,-9 6,-4"/>
  <path class="fil0 str0" d="M1914 99c15,-8 27,-22 31,-33"/>
  <path class="fil6 str0" d="M1665 365c6,-26 20,-92 28,-129 1,-7 1,-14 -7,-17 -9,-3 -28,-6 -34,-6 -11,-1 -18,1 -19,12l-6 73c0,1 -1,1 -1,2 -1,0 -4,1 -5,1 -1,1 -2,0 -2,-2l-20 -71c-3,-12 -8,-16 -20,-14 -6,1 -23,4 -29,6 -8,3 -10,9 -8,17 2,6 34,92 48,124 3,6 0,12 7,14 10,2 53,1 65,-2 5,-1 2,-4 3,-8z"/>
  <path class="fil4" d="M1670 780c-84,7 -60,19 -35,24 23,5 64,4 97,3 -35,9 -24,18 7,23 51,7 158,6 215,0 37,-4 52,-16 17,-25 17,0 36,0 53,-1 77,-4 74,-19 13,-23 -44,-4 -166,4 -145,-1 70,-19 -92,-25 -178,-19 -39,3 -64,12 -40,17 1,1 0,1 -4,2z"/>
  <path class="fil1" d="M1775 1008c17,-74 -118,-50 102,-64 25,-1 104,-31 -2,-31 -177,0 -357,-8 -533,-8 0,24 25,14 -17,18l-4 2c-39,26 -93,-1 -131,18 -22,10 45,4 -43,7 -44,2 -172,37 -14,37 124,0 59,12 80,19 22,8 93,-10 135,21 0,1 -60,20 -2,19 14,0 278,7 278,-8 0,-21 -50,-20 68,-19 22,0 68,2 83,-11z"/>
  <path class="fil1" d="M2390 809c-8,-1 -182,15 -104,-8 28,-8 -82,-22 48,-32 17,-1 168,-1 60,18 -18,3 169,1 87,26 -22,6 -104,-7 -91,-4z"/>
  <path class="fil1" d="M2242 566c-3,1 -19,7 9,7 42,0 121,0 162,11 40,11 12,32 -28,38 -11,1 -5,2 8,2 146,8 164,60 15,59 -77,-1 -208,-3 -194,-1 5,32 -89,18 -114,18 -7,0 -132,-6 -95,-18 48,-15 -174,-25 34,-48 15,-2 22,-3 8,-3 -12,0 -96,-1 -135,-1 -108,0 -29,-73 68,-70 31,0 -60,-16 29,-16 34,0 94,0 137,0 21,0 96,2 113,6 26,5 -10,14 -17,16z"/>
  <path class="fil1" d="M2345 1007c-52,33 -207,21 -195,42 9,17 144,21 84,46 -44,19 -70,31 3,38 22,2 141,-12 118,35 -14,29 -174,39 -99,42 1,0 12,12 -9,17 -8,2 -206,27 -102,53 25,7 166,16 167,16 -19,43 -396,69 -443,69 -10,0 -58,-12 -35,-25 19,-10 112,-19 92,-28 -22,-11 -162,-2 -218,-4 -54,-3 -48,-32 -59,-34 -9,-31 42,-21 61,-35 -2,-13 -89,-33 -106,-34 -14,0 -88,-18 -23,-32 55,-12 12,-26 89,-37 135,-19 313,30 464,-11 -36,-35 77,-24 7,-55 -304,-136 319,-135 204,-63z"/>
  <path class="fil7 str0" d="M1632 982c-10,-22 -12,-47 -10,-74 3,-53 15,-180 -34,-261 -5,-9 -13,-15 -21,-19 -23,-11 -67,-9 -92,0 -14,5 -24,13 -23,24 9,106 -83,196 -74,317 1,10 6,12 6,12 12,7 56,8 80,5 16,-3 18,-7 18,-22 0,-18 -1,-45 -1,-60 -1,-11 2,-14 7,-15 9,-2 30,-2 39,1 4,1 6,2 5,9 -8,40 -1,76 1,86 6,6 37,7 59,6 26,-1 43,-4 40,-9z"/>
  <path class="fil8 str1" d="M1769 1033c-26,103 -3,234 95,278 75,34 179,11 228,-91 47,-100 52,-229 -40,-304 -96,-78 -245,-27 -283,117zm230 3c1,44 -14,119 -39,164 -16,28 -40,35 -56,29 -17,-7 -25,-27 -25,-61 0,-42 9,-96 25,-137 13,-32 31,-52 50,-55 21,-3 43,14 45,60z"/>
  <path class="fil9 str0" d="M2174 581c0,15 0,33 0,45 0,13 -5,16 -14,17 -15,2 -40,2 -54,0 -11,-1 -15,-3 -14,-16 0,-48 0,-111 -1,-138 -1,-46 -20,-81 33,-91 12,-2 16,-2 28,-6 4,-1 7,-2 11,-4 195,-66 230,153 112,164 -5,1 -4,3 -1,5 39,15 48,49 48,79 0,8 -2,10 -11,11 -10,1 -28,3 -56,1 -11,0 -13,-2 -13,-12 3,-45 -19,-66 -58,-64 -6,0 -10,2 -10,9z"/>
  <path class="fil0 str0" d="M2073 571c-16,19 -24,28 -50,23 -26,-5 -17,-84 30,-66 33,12 28,34 20,43z"/>
  <path class="fil0 str0" d="M2087 564c0,0 11,-35 20,-30 5,3 19,17 19,23"/>
  <path class="fil0 str0" d="M2080 577c17,19 12,33 33,40 10,4 14,10 30,15 1,1 8,5 9,6"/>
  <path class="fil0 str0" d="M2101 613c-16,3 -31,-13 -24,11 1,3 13,25 14,28"/>
  <path class="fil0 str0" d="M2005 577c-30,-11 -24,1 -21,-44"/>
  <path class="fil0 str0" d="M2040 580c-7,-15 3,-17 13,-20l-4 0"/>
  <path class="fil0 str0" d="M2002 585c0,-9 16,-6 18,-4"/>
  <path class="fil0 str0" d="M2381 782c-6,-34 -5,-30 -36,-35 -20,-4 -11,1 -9,21 4,22 43,19 46,16 3,-3 0,1 -1,-2z"/>
  <path class="fil0 str0" d="M2387 792c-7,-2 -13,-26 5,-32 2,-1 32,-11 32,-7 -1,29 -18,44 -37,39z"/>
  <path class="fil0 str0" d="M770 1334c0,-2 209,-29 241,-26 19,1 64,32 135,29 6,0 4,-1 8,4"/>
  <path class="fil0 str0" d="M758 1435c47,16 375,12 467,8l-10 7"/>
  <path class="fil0 str0" d="M849 1516c-86,-23 -106,0 59,0 56,0 131,4 184,0"/>
  <path class="fil10 str0" d="M1926 547c-64,-37 -125,-18 -162,9 -81,60 -66,226 58,248 26,5 48,5 74,3 39,-3 81,-17 103,-53 6,-11 4,-21 -2,-30 -10,-16 -54,-49 -70,-30 -6,6 -11,11 -15,15 -20,17 -53,22 -75,7 -36,-24 -28,-90 34,-87 7,1 14,2 20,4 46,12 66,-25 70,-52 1,-12 -2,-26 -7,-25 -13,1 -19,-3 -28,-9z"/>
  <path class="fil0 str0" d="M1940 949c-47,4 -88,35 -77,98 -10,23 1,43 19,54 37,23 112,17 146,-15 26,-24 25,-61 10,-89 -17,-31 -52,-52 -98,-48z"/>
  <path class="fil0 str0" d="M1962 1190c74,0 65,22 77,25 27,-24 42,-82 94,-79 17,1 8,53 -16,76 -11,11 -83,65 -99,59 -11,-35 -53,-43 -85,-43"/>
  <path class="fil0 str0" d="M1941 1035c1,-19 -38,-38 -48,-2"/>
  <path class="fil0 str0" d="M2032 1040c0,-25 -22,-20 -35,-11"/>
  <path class="fil0 str0" d="M1961 1103c-71,0 -57,-79 -14,-38 11,10 30,-3 37,-18 9,-18 48,22 24,34l1 10"/>
  <path class="fil0 str0" d="M1628 1191c-25,-3 -21,-27 -29,-49 -4,-9 2,-4 10,-4 3,1 26,8 29,14 3,6 3,19 0,26 -2,5 -9,14 -9,15"/>
  <path class="fil0 str0" d="M1650 1172c-9,-6 -16,-25 -3,-35 23,-17 28,-34 32,3 3,31 -39,41 -30,33 0,-1 1,-1 1,-1z"/>
  <path class="fil0 str0" d="M1693 1241c-40,-8 -10,-59 -4,-56 21,12 36,19 27,48 -3,8 -17,9 -23,8z"/>
  <path class="fil0 str0" d="M1701 1241c-9,-18 20,-28 33,-32 0,0 8,25 -12,33 -3,1 -20,4 -16,-2"/>
  <path class="fil0 str0" d="M847 1198c60,0 119,2 179,2"/>
  <path class="fil0 str0" d="M2634 1189c26,35 34,91 25,137 11,33 -9,72 -52,91 -73,32 -200,13 -227,-84 -54,-194 172,-253 254,-144z"/>
  <path class="fil0 str0" d="M2636 1344c-28,23 -57,-5 -67,-34 -7,-23 -8,-51 0,-74 8,-26 31,-33 49,-26 15,6 28,23 30,51 1,22 -2,47 -2,62"/>
  <path class="fil0 str0" d="M2491 1351c-9,15 -60,36 -76,-28 -3,-10 -6,-26 -7,-42 -3,-26 5,-45 18,-55 12,-10 30,-12 44,-5 22,9 38,38 36,95"/>
  <path class="fil0 str0" d="M2377 1368c-9,16 -12,36 -9,53 11,60 78,77 128,59 36,-13 59,-48 66,-88"/>
  <path class="fil0 str0" d="M2600 1422c62,69 205,63 205,-55 0,-57 -73,-55 -76,-20 -1,10 0,22 -1,34 -3,53 -62,55 -89,30"/>
  <path class="fil0 str0" d="M2292 1447c-9,0 -14,9 -20,16 -25,34 -64,1 -35,-35 14,-16 39,-24 61,-18 9,2 17,37 -6,37z"/>
  <path class="fil0 str0" d="M2258 1433c3,6 -1,5 6,12 5,5 5,6 11,6"/>
  <path class="fil11" d="M2572 1307c-7,-22 -8,-47 -3,-63 5,-17 18,-21 27,-1 2,2 5,12 5,18 1,1 0,2 -1,2 -18,9 -24,13 1,18 2,0 5,0 6,1 2,6 3,20 2,32 -5,31 -29,17 -37,-7z"/>
  <path class="fil0 str0" d="M2493 1389c1,12 32,20 44,16"/>
  <path class="fil0 str0" d="M2651 1413c4,16 -4,34 -17,36"/>
  <path class="fil0 str0" d="M2551 1357c0,0 0,-1 0,-2 -8,-22 6,-25 14,-15 4,7 9,11 14,15 11,7 10,14 4,18 -7,4 -22,4 -31,0 -7,-4 -11,-11 -1,-16z"/>
  <path class="fil0 str0" d="M2396 1254c-4,-20 3,-28 12,-34 20,-12 57,-15 74,-14 14,1 21,6 25,21 7,24 12,76 10,97 -5,44 -34,47 -64,47 -24,0 -35,1 -40,-28l-17 -89z"/>
  <path class="fil0 str0" d="M2583 1201c12,-4 43,-11 75,-7 13,1 18,6 22,19 8,34 7,76 3,107 -4,24 -13,30 -30,33 -14,2 -30,5 -40,6 -16,2 -25,-3 -33,-17 -17,-29 -25,-85 -16,-121 3,-10 8,-18 19,-20z"/>
  <path class="fil0 str0" d="M2757 1323c-20,6 -47,11 -30,39 8,13 21,-21 21,5 0,20 38,-11 22,5 -1,1 -5,25 20,7 0,-1 25,-3 18,-17 -4,-10 -38,6 -16,-10 15,-10 -14,-16 -14,-17 0,-14 5,-6 -15,-13"/>
  <path class="fil0 str0" d="M2729 1363c-44,24 37,51 43,44 8,-8 -6,-20 -6,-21"/>
  <path class="fil0 str0" d="M2369 1196c-37,-38 -135,-38 -172,1 -23,23 -2,55 37,31 8,-5 18,-10 26,-14 31,-13 73,-8 92,12 9,8 13,18 13,30"/>
  <path class="fil0 str0" d="M2442 1412c-62,26 -115,-44 -119,-97 -1,-13 -18,-23 3,-16 1,1 16,16 24,15"/>
  <path class="fil0 str0" d="M2609 1410c6,51 -95,47 -111,57"/>
  <path class="fil0 str0" d="M2438 1512c24,-10 27,9 28,32 2,36 4,71 8,106 6,56 14,112 22,115 15,5 114,16 109,-20 -8,-70 -39,-96 -46,-178 -2,-22 -4,-43 -16,-60 -14,-20 -41,-27 -65,-24"/>
  <path class="fil0 str0" d="M2374 1507c-36,-8 -75,-27 -91,-54 -5,-9 -7,-18 -7,-25 2,-28 37,-34 51,-6 5,9 16,25 31,35"/>
  <path class="fil0 str0" d="M2529 1772c4,-7 4,-28 3,-46 0,-16 0,-34 4,-49 20,-73 139,-66 122,35 -7,41 -38,89 -79,110 -13,6 7,7 -10,9 -16,2 -50,2 -67,-1 -5,0 4,-1 -3,-8 -10,-10 -9,-22 -4,-32 5,-11 15,-21 16,-31"/>
  <path class="fil0 str0" d="M2550 1829c-10,-6 -8,-16 -2,-23 23,-31 26,-52 28,-88 2,-39 39,-52 62,-42 16,8 23,27 14,56"/>
  <path class="fil0 str0" d="M2513 1544c-7,1 -44,-5 -41,-18 12,-48 87,-38 68,4 -4,9 -16,13 -25,12l-2 2z"/>
  <path class="fil0 str0" d="M2444 1515c-17,4 -32,5 -45,5 -68,-3 -58,-71 -27,-94"/>
  <path class="fil0 str0" d="M2354 1442c-11,13 -6,49 27,49 6,0 12,0 18,-3"/>
  <path class="fil0 str0" d="M2387 1329c1,20 -15,22 -28,15 -10,-5 -18,-16 -21,-28 -3,-16 4,-28 14,-32 10,-5 23,-2 30,10 3,6 5,13 8,14 0,-9 7,-27 1,-44 -16,-55 37,-49 78,-52 24,-2 42,-10 47,-27 45,19 83,17 101,2 26,-22 24,-71 -3,-101 -17,-20 -44,-30 -65,-30 -22,1 -38,14 -24,40 5,9 2,8 -7,7 -32,-3 -70,4 -89,46 -4,7 -8,9 -14,10 -56,9 -79,57 -55,109 2,5 5,9 5,14"/>
  <path class="fil11" d="M2417 1319c-7,-23 -9,-48 -4,-64 5,-17 19,-21 28,-1 1,3 5,13 5,18 0,1 0,2 -2,3 -18,9 -23,13 2,17 2,0 5,0 5,2 3,6 4,20 2,31 -4,31 -28,18 -36,-6z"/>
  <path class="fil0 str0" d="M1723 618c-49,0 -59,-4 -57,-61 1,-25 113,-84 106,45 -1,17 -52,21 -64,21"/>
  <path class="fil0 str0" d="M1616 645c0,-89 71,-5 70,9"/>
  <path class="fil0 str0" d="M1752 672c0,0 -46,-54 -63,-25 -2,4 -2,48 -2,56"/>
  <path class="fil0 str0" d="M1778 604c12,-13 27,-55 27,-56"/>
  <path class="fil0 str0" d="M1731 562c-8,-18 -20,-49 -25,-68"/>
  <path class="fil0 str0" d="M1742 596c-22,11 -21,-22 -14,-33 7,-12 18,-25 30,-10 11,13 -2,34 -13,42 -1,0 -2,0 -3,1z"/>
  <path class="fil0 str0" d="M1703 580c-14,3 -36,-5 -35,-22 0,-42 61,-24 30,12 -5,6 -11,5 -15,7"/>
  <path class="fil0 str0" d="M1693 603c-11,-5 5,-22 5,-7 0,2 1,6 -2,5"/>
  <path class="fil0 str0" d="M1759 569c-4,8 -11,15 -12,0 -2,-16 13,-25 11,-3 0,1 0,2 -1,2"/>
  <path class="fil0 str0" d="M1704 553c1,5 -6,13 -11,13 -5,1 -4,-1 -4,-8 0,-7 2,-15 7,-19 4,-3 7,10 8,14z"/>
  <path class="fil0 str0" d="M2242 377l-15 0 4 7 3 -2 8 19 0 -24z"/>
  <path class="fil0 str0" d="M2253 377l3 47 0 -46"/>
  <path class="fil0 str0" d="M1531 838c-4,0 -17,0 -25,-1 -20,-1 -20,-18 -14,-31 3,-8 8,-21 12,-32 4,-10 6,-20 8,-27 4,-12 11,-14 16,-12 5,2 8,9 10,20 4,19 6,54 2,73 -2,8 -4,9 -9,10z"/>
  <path class="fil0 str0" d="M2200 523c-6,0 -15,0 -20,0 -7,0 -10,-2 -10,-10l-3 -37c0,-6 2,-8 8,-11 70,-28 80,59 25,58z"/>
 </g>
</svg>
