<?xml version="1.0" encoding="UTF-8"?>
<!DOCTYPE svg PUBLIC "-//W3C//DTD SVG 1.0//EN" "http://www.w3.org/TR/2001/REC-SVG-20010904/DTD/svg10.dtd">
<!-- Creator: CorelDRAW X8 -->
<svg xmlns="http://www.w3.org/2000/svg" xml:space="preserve" width="1552px" height="1802px" version="1.0" style="shape-rendering:geometricPrecision; text-rendering:geometricPrecision; image-rendering:optimizeQuality; fill-rule:evenodd; clip-rule:evenodd"
viewBox="0 0 2147 2492"
 xmlns:xlink="http://www.w3.org/1999/xlink">
 <defs>
  <style type="text/css">
   <![CDATA[
    .str2 {stroke:black;stroke-width:13.8269}
    .str1 {stroke:black;stroke-width:2.76505}
    .str0 {stroke:black;stroke-width:3.26645}
    .fil7 {fill:none}
    .fil12 {fill:black}
    .fil8 {fill:#0080FF}
    .fil2 {fill:#1C64FF}
    .fil11 {fill:#2EBD1B}
    .fil1 {fill:#32C904}
    .fil0 {fill:#32C904}
    .fil4 {fill:#8115E6}
    .fil10 {fill:red}
    .fil9 {fill:#FF45DA}
    .fil6 {fill:#FF6200}
    .fil5 {fill:#FFD500}
    .fil3 {fill:#0080FF;fill-rule:nonzero}
   ]]>
  </style>
 </defs>
 <g id="Camada_x0020_1">
  <metadata id="CorelCorpID_0Corel-Layer"/>
  <path class="fil0" d="M1259 1053c-7,-1 -165,-11 -146,11 5,5 31,4 -16,4 -4,0 -73,-7 -49,12 24,18 91,6 115,12 -82,21 128,17 136,18 30,4 76,1 107,8 14,3 117,2 45,-16 16,2 126,4 134,-3 20,-17 -7,-21 -25,-24 -49,-10 -208,4 -244,-9 -26,-10 56,-1 1,-9 -8,-1 -56,0 -59,-2l1 -2z"/>
  <path class="fil1 str0" d="M1279 1341c19,-85 -135,-58 117,-73 28,-2 118,-36 -2,-36 -203,0 -408,-9 -609,-9 0,27 30,16 -19,21l-4 2c-44,30 -106,-1 -149,20 -26,12 51,4 -49,9 -51,2 -196,41 -17,41 142,0 68,14 91,22 25,10 106,-11 154,24 0,1 -68,23 -1,22 15,0 316,7 316,-9 0,-24 -57,-23 78,-22 24,0 77,2 94,-12z"/>
  <path class="fil1" d="M745 301c-31,11 -103,4 -37,33 26,12 -48,5 10,15 48,7 112,-15 155,9 16,9 85,0 25,29 -15,8 63,15 -63,28 -9,1 -84,8 -46,18 -17,3 -159,21 -76,31 36,4 304,11 256,0 -47,-11 133,2 133,-8 0,-38 -109,6 -29,-16 12,-3 55,-13 62,-16 -32,-20 -13,12 -67,-37 -51,-47 -175,-5 -81,-46 29,-13 -207,-21 -185,-21 11,0 131,-8 115,-23 -2,-2 -156,-14 -137,2 0,4 -33,2 -35,2z"/>
  <path class="fil2 str0" d="M744 204c-9,4 -38,-19 1,-36 5,-1 84,-13 96,-3 13,12 14,45 16,63 3,31 19,86 -24,92 -12,1 -133,8 -106,-29 0,0 30,1 19,-43 -1,-6 1,-41 -2,-44z"/>
  <path class="fil1" d="M1076 571c-63,-22 -115,-7 32,-26 52,-7 57,12 51,-18 16,-2 144,5 57,24 -28,6 57,8 -26,19 -48,7 -81,-2 -81,-2 30,21 -79,22 -33,3z"/>
  <path class="fil1" d="M1183 359c-34,2 -69,7 -26,16 4,1 3,2 0,2 -12,0 -24,0 -34,1 -51,6 -35,16 2,19 34,4 85,4 99,3 5,0 2,1 0,1 -26,9 -8,17 18,19 26,3 54,2 78,0 6,0 11,0 17,0 27,1 49,0 60,-6 16,-8 9,-22 -42,-27 -4,0 -3,0 0,-1 36,-8 22,-21 -5,-25 -52,-8 -165,-2 -167,-2z"/>
  <path class="fil1" d="M1897 1042c-9,-2 -208,16 -118,-9 31,-9 -95,-26 54,-37 20,-1 192,-1 68,20 -21,4 193,2 99,30 -24,7 -119,-7 -103,-4z"/>
  <path class="fil1" d="M1678 787c-3,2 -22,8 10,8 49,-1 138,0 185,13 45,11 14,36 -32,42 -12,2 -6,3 9,3 166,9 187,68 18,67 -88,-1 -238,-3 -222,0 6,36 -101,20 -130,20 -8,0 -150,-7 -108,-21 54,-17 -198,-29 39,-55 16,-1 24,-3 9,-3 -14,0 -110,-1 -154,-1 -123,0 -33,-83 77,-80 36,0 -68,-18 33,-18 39,0 108,0 156,0 24,0 109,2 129,7 30,6 -11,15 -19,18z"/>
  <path class="fil1" d="M1657 1355c25,6 134,15 24,50 -54,17 65,-14 5,24 -60,38 -236,24 -223,48 11,19 165,24 96,53 -50,21 -80,35 4,42 25,2 161,-13 134,40 -16,33 -199,45 -113,48 1,0 14,14 -10,20 -9,2 -234,31 -117,61 30,7 190,17 191,18 -22,48 -452,78 -505,78 -11,0 -66,-14 -40,-28 21,-11 128,-22 105,-33 -25,-12 -185,-1 -248,-4 -63,-3 -56,-36 -67,-39 -11,-35 47,-24 68,-40 -1,-14 -100,-37 -120,-38 -16,-1 -101,-21 -27,-37 63,-13 14,-30 102,-42 154,-21 357,34 529,-13 -41,-39 87,-27 8,-62 -71,-32 -178,-60 -8,-94 101,-20 0,-10 -50,-26 -28,-9 108,4 101,-8 -12,-21 -4,-9 39,-20 4,-1 121,1 122,2z"/>
  <path class="fil3 str1" d="M1029 1458c-30,118 -3,267 108,318 85,39 205,13 260,-104 54,-114 59,-262 -46,-347 -109,-89 -279,-31 -322,133zm262 4c1,50 -16,136 -45,187 -37,65 -92,40 -92,-36 0,-52 13,-120 34,-169 29,-64 100,-79 103,18z"/>
  <path class="fil4 str0" d="M928 296c1,-5 5,-11 13,-14 7,-3 18,-4 27,-4 10,0 18,1 27,1 8,1 17,0 22,1 5,1 5,4 6,9 0,5 -1,11 0,20 0,10 0,21 1,31 0,10 1,19 1,25 0,6 2,26 4,28 2,1 24,50 -11,50 -8,0 -17,0 -26,0 -10,0 -19,0 -27,-1 -8,0 -15,0 -20,-5 -5,-5 -8,-15 -9,-25 -1,-11 1,-22 2,-32 0,-10 0,-18 -1,-30 -1,-12 -2,-29 -5,-38 -2,-10 -5,-12 -4,-16z"/>
  <path class="fil0" d="M1454 458c-17,7 -76,-4 -46,13 0,0 18,3 23,10 21,-2 -22,14 36,17 67,2 -5,5 34,14 17,4 251,8 258,-2 10,-13 -60,-25 -69,-25 13,0 52,-9 78,-7 0,0 49,-5 58,-5 14,0 39,-1 12,-13 -31,-14 -163,-3 -210,-9 -29,-4 -59,-10 -89,-9 -14,1 -49,-12 -36,6 8,12 28,0 -29,11 -4,0 -18,-2 -20,-1z"/>
  <path class="fil5 str0" d="M1458 389c0,-17 -2,-30 -4,-43 -1,-13 -4,-28 -6,-42 -8,-60 43,-51 84,-48 8,1 16,1 27,1 6,0 13,-1 20,-2 21,-3 44,-5 47,27 0,9 0,21 0,33 0,5 0,14 -1,19 -1,17 -11,18 -26,18l-51 -2c-9,0 -12,2 -11,14 0,12 5,12 14,12l34 -1c8,0 12,1 13,8 4,21 3,26 -11,24l-30 -4c-15,-2 -19,0 -18,10 0,2 0,9 1,12 1,11 9,11 18,10l52 -4c12,-1 21,0 22,17 1,10 -1,22 -3,27 -2,7 -7,10 -18,12 -38,5 -116,2 -131,-2 -10,-2 -17,-9 -18,-27l-4 -69z"/>
  <path class="fil6 str0" d="M1653 794c0,18 0,40 0,54 0,13 0,17 -5,19 -5,1 -60,-1 -74,-2 -13,-2 -15,-3 -15,-18 1,-55 1,-126 0,-157 -2,-54 -27,-93 42,-102 4,-1 7,-1 11,-2 50,-15 119,-30 171,-9 91,36 96,185 -17,188 -6,0 -3,0 1,2 36,17 53,52 53,86 0,9 -2,16 -9,17 -12,1 -31,4 -68,2 -9,-1 -12,-2 -12,-12 -1,-37 -13,-56 -28,-65 -22,-13 -50,-7 -50,-1z"/>
  <path class="fil7 str0" d="M726 195c0,30 -27,-12 -1,-4 7,3 2,6 1,8"/>
  <path class="fil7 str0" d="M724 205c-1,9 0,16 9,18"/>
  <path class="fil7 str0" d="M722 217c-2,3 -8,18 -6,21"/>
  <path class="fil7 str0" d="M653 241c-2,-1 -8,-10 -8,-14 0,-10 14,-17 21,-9 4,4 5,1 5,10 1,11 -6,13 -14,13 -2,0 -6,0 -8,0"/>
  <path class="fil7 str0" d="M661 241c0,0 -2,14 -3,16 -3,14 -1,19 14,23l0 0"/>
  <path class="fil7 str0" d="M664 244c5,-4 16,-6 22,-1 1,0 1,2 2,3"/>
  <path class="fil7 str0" d="M660 247c-6,1 -16,4 -19,-4"/>
  <path class="fil7 str0" d="M656 267c-3,2 -15,12 -16,15"/>
  <path class="fil7 str0" d="M804 283c-5,-10 3,-27 18,-30 18,-3 24,0 23,22 -1,17 -38,16 -41,8z"/>
  <path class="fil7 str0" d="M830 288c1,14 -17,29 -33,29"/>
  <path class="fil7 str0" d="M940 289c-16,-29 40,-33 28,8 -10,3 -22,4 -27,-7l-1 -1z"/>
  <path class="fil7 str0" d="M942 278c-9,-3 -22,-8 -27,5l0 1"/>
  <path class="fil7 str0" d="M964 274c0,-1 11,-8 16,3"/>
  <path class="fil7 str0" d="M1064 392c-14,2 -20,3 -20,-17 0,-18 46,-18 33,12 -1,3 -11,5 -13,5z"/>
  <path class="fil7 str0" d="M1047 400c2,0 20,17 18,19 -7,7 -22,10 -23,11"/>
  <path class="fil7 str0" d="M1048 391c-6,-2 -17,-13 -18,-13 0,0 -8,6 -10,8"/>
  <path class="fil7 str0" d="M1153 216c-13,-7 -24,-8 -21,-31 2,-19 49,-28 45,24 -1,10 -23,12 -29,7 0,4 -15,24 -16,38 0,5 -22,9 -29,10l-1 0"/>
  <path class="fil7 str0" d="M1147 237c0,0 22,-21 22,0 0,1 1,9 2,10"/>
  <path class="fil7 str0" d="M1127 206c-13,0 -22,0 -31,10"/>
  <path class="fil7 str0" d="M1351 167c-56,-21 -3,-77 27,-34 8,11 2,34 -22,34 -2,0 -3,1 -5,0z"/>
  <path class="fil7 str0" d="M1347 174c9,0 21,-1 27,5 14,13 -24,22 -25,30"/>
  <path class="fil7 str0" d="M1531 133c11,4 12,14 8,23 -9,23 -46,32 -67,21 -17,-8 -19,-29 -9,-44 15,-21 54,-25 68,0z"/>
  <path class="fil7 str0" d="M1462 171c-15,-6 -23,-3 -24,14"/>
  <path class="fil7 str0" d="M1500 178c6,-9 16,-6 19,1 6,13 10,44 13,72"/>
  <path class="fil7 str0" d="M1477 179c-16,26 -11,20 -18,31"/>
  <path class="fil7 str0" d="M1672 425c-36,0 -71,1 -58,-51 17,-71 126,-32 108,23 -5,16 -29,21 -43,21"/>
  <path class="fil7 str0" d="M1605 399c-9,-4 -27,-35 -30,-47"/>
  <path class="fil7 str0" d="M1729 379c-9,-18 -4,-54 -8,-60"/>
  <path class="fil7 str0" d="M1669 430c-12,24 10,54 -10,110l-1 3"/>
  <path class="fil7 str0" d="M1671 465c-22,11 -5,27 -67,10 -1,-1 -6,-2 -8,-4"/>
  <path class="fil7 str0" d="M1671 811c10,-4 12,-18 12,-28 1,-29 -89,-85 -91,-7 -1,68 82,40 90,29 -12,12 -72,41 -4,40 12,-1 23,2 35,2"/>
  <path class="fil7 str0" d="M1693 800c9,7 46,39 59,27"/>
  <path class="fil7 str0" d="M1389 683c-24,27 -34,40 -73,33 -37,-7 -24,-122 44,-97 49,18 42,49 29,64z"/>
  <path class="fil7 str0" d="M1417 672c0,-1 17,-51 29,-43 7,4 27,24 28,33"/>
  <path class="fil7 str0" d="M1394 691c23,28 16,48 47,59 15,5 21,14 44,22 2,0 12,7 13,8"/>
  <path class="fil7 str0" d="M1410 743c-23,6 -46,-18 -35,17 1,4 18,36 20,41"/>
  <path class="fil7 str0" d="M1283 692c-44,-17 -36,0 -30,-65"/>
  <path class="fil7 str0" d="M1136 809c-56,0 -67,-4 -64,-68 1,-29 128,-96 121,50 -1,20 -60,25 -73,25"/>
  <path class="fil7 str0" d="M1014 840c0,-101 82,-5 80,11"/>
  <path class="fil7 str0" d="M1170 871c-1,1 -53,-61 -72,-28 -3,5 -3,54 -3,63"/>
  <path class="fil7 str0" d="M1199 794c14,-15 31,-63 31,-63"/>
  <path class="fil7 str0" d="M1145 747c-8,-22 -23,-57 -28,-79"/>
  <path class="fil7 str0" d="M1334 696c-10,-23 5,-26 19,-30l-6 1"/>
  <path class="fil7 str0" d="M1286 703c0,-13 24,-10 26,-5"/>
  <path class="fil7 str0" d="M1158 785c-25,13 -24,-26 -16,-38 8,-13 21,-28 35,-11 12,15 -3,39 -16,47 -1,1 -1,1 -3,2z"/>
  <path class="fil7 str0" d="M1113 767c-15,3 -40,-6 -40,-25 1,-48 70,-28 35,13 -6,7 -12,6 -17,8"/>
  <path class="fil7 str0" d="M1102 793c-12,-5 6,-25 6,-9 0,3 1,7 -2,7"/>
  <path class="fil7 str0" d="M1639 405c-28,0 -14,-40 2,-39 18,0 23,6 27,25 5,26 -18,22 -35,22"/>
  <path class="fil7 str0" d="M1704 408c-22,3 -21,2 -21,-22 1,-19 13,-33 29,-18 9,9 8,27 1,28"/>
  <path class="fil7 str0" d="M1652 407c-17,9 -29,-21 -2,-23 10,-1 8,19 2,23z"/>
  <path class="fil7 str0" d="M1713 401c-11,10 -29,-2 -15,-14 5,-4 25,2 19,12"/>
  <path class="fil7 str0" d="M1665 420c-18,0 6,-16 6,-2"/>
  <path class="fil7 str0" d="M1177 754c-4,10 -12,17 -14,0 -1,-18 15,-29 14,-3 0,1 -1,2 -1,2"/>
  <path class="fil7 str0" d="M1115 736c1,6 -7,15 -13,15 -5,1 -5,-2 -5,-10 0,-7 3,-16 9,-21 4,-4 8,12 9,16z"/>
  <path class="fil7 str0" d="M1467 139c4,-5 18,-4 19,1"/>
  <path class="fil7 str0" d="M1507 139c0,-10 5,-11 14,-13 2,-1 3,-1 5,-1"/>
  <path class="fil7 str0" d="M1351 151c-5,14 -19,-1 -14,-16 3,-12 11,-10 15,3 1,5 1,12 -4,14"/>
  <path class="fil7 str0" d="M1349 136c2,9 -7,15 -11,0 -1,-5 5,-10 7,-4"/>
  <path class="fil7 str0" d="M1152 194c5,0 9,4 9,10"/>
  <path class="fil7 str0" d="M1063 386c-9,3 -15,-19 3,-18 3,0 6,16 -1,16"/>
  <path class="fil7 str0" d="M1101 192c1,-1 16,-9 31,3"/>
  <path class="fil7 str0" d="M1375 156c5,-4 17,-34 25,-19 1,1 5,7 5,7"/>
  <path class="fil7 str0" d="M1326 147c-15,-2 -18,-26 -32,8 -1,1 -1,1 -1,2"/>
  <path class="fil7 str0" d="M1334 159c0,5 -7,15 -1,21 3,2 16,2 21,1 9,-2 9,-1 5,-12 0,-1 0,-1 0,-2"/>
  <path class="fil7 str0" d="M1339 181c0,-11 15,-7 10,5 -2,3 -12,14 -15,17"/>
  <path class="fil7 str0" d="M1374 148c-4,14 -18,-1 -14,-16 4,-11 12,-9 15,4 1,4 1,11 -3,14"/>
  <path class="fil7 str0" d="M1372 133c3,9 -6,15 -10,0 -1,-4 5,-9 6,-4"/>
  <path class="fil7 str0" d="M1534 143c17,-10 30,-26 35,-38"/>
  <path class="fil7 str0" d="M1887 1011c-8,-39 -7,-35 -42,-41 -22,-3 -12,2 -9,24 3,26 49,22 51,19 4,-4 1,1 0,-2z"/>
  <path class="fil7 str0" d="M1893 1022c-7,-2 -14,-29 6,-37 2,-1 36,-11 36,-7 -1,33 -20,50 -42,44z"/>
  <path class="fil7 str0" d="M257 1868c1,-2 238,-33 276,-30 21,2 72,38 153,34 6,0 5,-1 9,4"/>
  <path class="fil7 str0" d="M244 1983c53,18 427,14 532,10l-12 8"/>
  <path class="fil7 str0" d="M347 2076c-98,-27 -121,0 68,0 64,0 149,4 209,0"/>
  <path class="fil8 str2" d="M393 2145l439 0c91,0 91,137 0,137l-439 0c-91,0 -91,-137 0,-137z"/>
  <path class="fil9 str0" d="M1216 198c-6,-3 -39,-7 -34,13 8,29 31,74 45,102 6,11 20,55 32,56 6,0 50,9 50,0 0,-22 52,-162 52,-170 -18,-11 -56,-11 -72,2 -1,0 -6,24 -8,31 -3,6 -11,39 -11,39 -17,0 -22,-48 -36,-64 3,-1 -17,-8 -18,-9z"/>
  <path class="fil10 str0" d="M1449 810c-11,0 -20,-6 -31,-14 -77,-49 -150,-27 -194,5 -91,69 -75,258 67,283 29,6 55,6 84,4 45,-4 92,-19 117,-60 8,-13 5,-25 -1,-35 -13,-18 -63,-55 -80,-35 -7,8 -13,14 -18,18 -18,15 -45,21 -68,16 -48,-11 -56,-73 -18,-98 14,-9 35,-13 63,-5 33,9 64,12 79,-79z"/>
  <path class="fil11 str0" d="M1082 1303c-38,-78 16,-191 0,-296 -33,-215 -288,-147 -274,-81 33,158 -69,233 -43,361 2,11 7,14 7,14 15,10 70,10 100,6 19,-2 22,-8 22,-27 0,-22 -1,-56 -2,-75 0,-13 3,-17 10,-18 12,-3 33,-2 46,-2 6,1 12,3 10,11 -16,62 0,96 0,111 8,7 46,8 73,7 32,-1 54,-5 51,-11z"/>
  <path class="fil7 str0" d="M1279 1551c42,-1 67,15 104,-42 49,-73 -29,-212 -145,-135 -45,29 -72,33 -60,100 9,53 68,72 113,72"/>
  <path class="fil7 str0" d="M1231 1599c85,0 74,25 88,28 31,-27 48,-93 107,-90 19,1 9,61 -17,87 -13,13 -95,73 -113,67 -14,-40 -61,-49 -97,-49"/>
  <path class="fil7 str0" d="M1285 1465c1,-21 -43,-43 -55,-2"/>
  <path class="fil7 str0" d="M1379 1477c0,-29 -25,-22 -39,-12"/>
  <path class="fil7 str0" d="M1300 1539c80,0 64,-90 15,-43 -12,11 -34,-4 -42,-20 -10,-20 -54,24 -27,38l-1 11"/>
  <path class="fil7 str0" d="M868 1638c-29,-3 -24,-30 -33,-55 -4,-10 2,-5 11,-4 3,0 30,9 33,15 4,8 4,22 1,30 -3,5 -10,16 -11,17"/>
  <path class="fil7 str0" d="M893 1617c-11,-7 -18,-29 -3,-40 26,-20 32,-39 36,3 4,35 -44,47 -34,38 0,-1 2,-1 1,-1z"/>
  <path class="fil7 str0" d="M942 1696c-46,-9 -11,-68 -5,-64 25,14 42,21 31,54 -3,10 -19,11 -26,10z"/>
  <path class="fil7 str0" d="M951 1696c-10,-21 23,-32 38,-36 0,-1 9,28 -14,37 -3,1 -22,4 -18,-2"/>
  <path class="fil7 str0" d="M345 1713c69,0 136,2 204,2"/>
  <path class="fil7 str0" d="M1898 1703c30,40 39,103 29,156 12,37 -10,82 -59,104 -83,37 -228,15 -259,-96 -62,-221 196,-288 289,-164z"/>
  <path class="fil7 str0" d="M1915 1879c-126,58 -114,-188 -52,-139 35,26 49,71 49,116"/>
  <path class="fil7 str0" d="M1731 1869c5,55 -91,75 -91,-82 0,-77 127,-83 114,82l-2 4"/>
  <path class="fil7 str0" d="M1605 1907c-10,19 -13,41 -9,60 12,68 88,89 145,68 42,-15 68,-55 75,-100"/>
  <path class="fil7 str0" d="M1860 1969c70,78 233,71 233,-63 1,-65 -83,-63 -86,-23 -1,11 -1,25 -1,39 -4,60 -71,62 -102,34"/>
  <path class="fil7 str0" d="M1508 1997c-9,1 -16,10 -22,18 -28,39 -73,2 -40,-39 16,-19 45,-28 69,-21 10,2 20,42 -7,42z"/>
  <path class="fil7 str0" d="M1470 1981c3,7 -1,6 7,14 5,5 5,6 12,7"/>
  <path class="fil12" d="M1828 1838c-8,-26 -10,-54 -4,-72 6,-19 21,-25 32,-2 1,3 5,14 5,21 0,1 0,2 -2,3 -20,10 -27,14 2,19 2,1 6,1 6,2 3,7 4,23 3,36 -6,36 -33,20 -42,-7z"/>
  <path class="fil7 str0" d="M1738 1931c1,14 36,23 49,19"/>
  <path class="fil7 str0" d="M1918 1958c5,18 -5,39 -20,41"/>
  <path class="fil7 str0" d="M1803 1895c1,-1 1,-2 1,-3 -9,-25 7,-28 15,-16 6,7 11,12 17,16 13,8 11,16 4,20 -8,6 -24,6 -35,0 -8,-4 -13,-12 -2,-17z"/>
  <path class="fil7 str0" d="M1761 1774c0,108 10,137 -82,137 -52,0 -40,-17 -50,-108 -9,-81 13,-49 58,-87 4,-4 60,-21 63,5 1,9 8,27 8,41"/>
  <path class="fil7 str0" d="M1809 1804c0,-82 -20,-78 57,-93 8,-2 81,-8 85,10 6,37 17,143 -16,161 -23,13 -93,35 -102,-15 -3,-14 -10,-26 -11,-53 0,-7 0,-5 -1,-9"/>
  <path class="fil7 str0" d="M2038 1855c-22,8 -52,13 -33,45 9,14 23,-23 23,6 0,22 44,-12 26,5 -2,1 -6,29 23,8 0,0 27,-2 20,-19 -5,-11 -43,7 -18,-11 17,-12 -17,-19 -17,-19 1,-17 6,-8 -17,-15"/>
  <path class="fil7 str0" d="M2006 1902c-49,26 43,57 50,50 9,-10 -7,-24 -7,-24"/>
  <path class="fil7 str0" d="M1596 1711c-42,-44 -153,-43 -196,1 -26,26 -2,63 43,35 8,-5 20,-12 29,-16 35,-15 83,-9 105,14 10,9 15,21 14,35"/>
  <path class="fil7 str0" d="M1680 1957c-71,30 -131,-50 -136,-110 -2,-15 -21,-26 4,-18 0,1 18,18 26,16"/>
  <path class="fil7 str0" d="M1870 1955c6,58 -108,53 -126,65"/>
  <path class="fil7 str0" d="M1675 2071c28,-11 31,11 32,37 3,41 5,80 9,121 6,64 16,127 26,131 17,5 129,18 124,-23 -10,-80 -45,-110 -53,-203 -2,-25 -4,-49 -18,-68 -17,-23 -47,-31 -74,-28"/>
  <path class="fil7 str0" d="M1602 2065c-41,-8 -85,-30 -103,-61 -6,-11 -9,-20 -8,-29 2,-32 42,-38 58,-6 5,10 18,28 35,40"/>
  <path class="fil7 str0" d="M1779 2368c5,-9 5,-32 4,-53 -1,-18 0,-38 4,-56 22,-83 158,-75 139,40 -8,47 -44,102 -90,125 -15,8 7,8 -12,11 -18,2 -57,2 -76,-1 -6,-1 4,-2 -4,-9 -11,-12 -10,-26 -4,-37 6,-12 18,-24 18,-35"/>
  <path class="fil7 str0" d="M1803 2433c-12,-7 -9,-19 -3,-27 26,-35 30,-59 33,-100 2,-44 44,-60 70,-47 18,8 26,30 16,63"/>
  <path class="fil7 str0" d="M1761 2108c-9,1 -51,-6 -47,-21 13,-55 99,-44 77,4 -5,11 -18,15 -29,15l-1 2z"/>
  <path class="fil7 str0" d="M1682 2075c-20,4 -37,5 -51,5 -78,-3 -67,-80 -31,-107"/>
  <path class="fil7 str0" d="M1580 1992c-13,14 -8,55 30,55 7,0 14,0 20,-3"/>
  <path class="fil7 str0" d="M1617 1863c1,22 -17,25 -32,17 -12,-6 -21,-19 -24,-33 -3,-18 4,-31 16,-36 11,-5 26,-2 34,12 3,7 5,14 9,16 1,-11 8,-31 2,-51 -19,-63 41,-55 88,-59 28,-2 48,-11 54,-30 51,21 94,19 115,1 30,-25 27,-80 -3,-114 -20,-23 -50,-35 -75,-34 -25,1 -43,15 -27,45 5,10 3,9 -8,8 -36,-3 -80,4 -102,52 -3,8 -9,10 -15,11 -64,11 -91,66 -63,125 3,5 5,10 6,16"/>
  <path class="fil12" d="M1651 1851c-8,-26 -10,-54 -5,-73 6,-19 22,-24 32,-1 2,3 6,14 6,21 0,1 0,2 -2,3 -20,10 -27,14 2,19 2,1 5,1 6,2 3,7 4,23 2,36 -5,36 -32,20 -41,-7z"/>
  <rect class="fil7 str0" x="2" y="2" width="2143" height="2489"/>
 </g>
</svg>
