<?xml version="1.0" encoding="UTF-8"?>
<!DOCTYPE svg PUBLIC "-//W3C//DTD SVG 1.0//EN" "http://www.w3.org/TR/2001/REC-SVG-20010904/DTD/svg10.dtd">
<!-- Creator: CorelDRAW X8 -->
<svg xmlns="http://www.w3.org/2000/svg" xml:space="preserve" width="131.433mm" height="152.6mm" version="1.0" style="shape-rendering:geometricPrecision; text-rendering:geometricPrecision; image-rendering:optimizeQuality; fill-rule:evenodd; clip-rule:evenodd"
viewBox="0 0 18179 21106"
 xmlns:xlink="http://www.w3.org/1999/xlink">
 <defs>
  <style type="text/css">
   <![CDATA[
    .str2 {stroke:black;stroke-width:117.095}
    .str1 {stroke:black;stroke-width:23.4162}
    .str0 {stroke:black;stroke-width:27.6624}
    .fil7 {fill:none}
    .fil12 {fill:black}
    .fil8 {fill:#0080FF}
    .fil2 {fill:#1C64FF}
    .fil11 {fill:#2EBD1B}
    .fil1 {fill:#32C904}
    .fil0 {fill:#32C904}
    .fil4 {fill:#8115E6}
    .fil10 {fill:red}
    .fil9 {fill:#FF45DA}
    .fil6 {fill:#FF6200}
    .fil5 {fill:#FFD500}
    .fil3 {fill:#0080FF;fill-rule:nonzero}
   ]]>
  </style>
 </defs>
 <g id="Camada_x0020_1">
  <metadata id="CorelCorpID_0Corel-Layer"/>
  <path class="fil0" d="M10666 8920c-65,-14 -1405,-98 -1238,93 39,44 259,28 -136,28 -36,0 -621,-54 -417,105 200,156 772,52 977,101 -699,180 1079,144 1151,154 255,37 638,7 907,70 112,26 988,18 376,-138 141,12 1071,31 1135,-23 174,-149 -54,-179 -211,-210 -411,-79 -1764,40 -2062,-72 -222,-84 470,-5 9,-73 -76,-11 -477,-1 -501,-24l10 -11z"/>
  <path class="fil1 str0" d="M10829 11355c166,-718 -1137,-490 992,-618 236,-14 1002,-306 -18,-306 -1713,0 -3451,-73 -5151,-73 0,232 247,138 -161,174l-36 21c-378,253 -898,-9 -1267,166 -219,104 432,39 -414,76 -430,19 -1660,354 -139,354 1202,0 573,114 771,186 211,77 897,-97 1304,198 -2,9 -581,195 -14,186 131,-1 2679,63 2678,-77 0,-200 -484,-190 659,-186 210,1 653,18 796,-101z"/>
  <path class="fil1" d="M6309 2553c-258,92 -875,26 -313,278 217,97 -410,42 84,121 411,66 945,-125 1310,80 137,77 726,-1 218,246 -132,64 534,126 -539,239 -74,8 -707,65 -385,151 -148,25 -1352,176 -646,260 306,36 2577,96 2169,2 -398,-92 1126,17 1126,-64 0,-323 -923,48 -245,-137 102,-27 463,-116 523,-137 -270,-175 -112,104 -569,-318 -428,-395 -1482,-43 -687,-384 253,-108 -1750,-176 -1560,-176 87,0 1102,-71 974,-199 -19,-19 -1322,-120 -1160,17 0,32 -280,13 -300,21z"/>
  <path class="fil2 str0" d="M6302 1729c-77,32 -322,-160 10,-303 37,-15 704,-112 807,-26 117,99 121,375 138,531 27,263 159,726 -206,775 -98,13 -1126,69 -893,-241 1,-1 250,8 163,-366 -11,-49 9,-350 -19,-370z"/>
  <path class="fil1" d="M9112 4835c-530,-182 -977,-56 275,-223 435,-58 480,107 424,-145 139,-17 1225,40 488,196 -242,51 481,67 -221,164 -411,56 -690,-16 -688,-14 254,171 -671,186 -278,22z"/>
  <path class="fil1" d="M10017 3037c-290,18 -584,64 -217,143 31,6 27,11 1,11 -101,-2 -204,3 -294,13 -428,47 -296,132 18,161 293,28 723,35 842,26 38,-2 14,1 -6,8 -219,77 -63,140 161,162 216,21 452,12 660,0 49,-3 93,-2 143,0 227,7 412,-5 507,-53 134,-69 78,-190 -360,-228 -29,-3 -26,-1 5,-9 304,-74 182,-183 -45,-218 -437,-67 -1398,-17 -1415,-16z"/>
  <path class="fil1" d="M16061 8824c-74,-16 -1755,139 -998,-79 266,-77 -799,-217 461,-308 165,-12 1623,-15 578,166 -178,31 1629,18 836,255 -205,62 -1005,-62 -877,-34z"/>
  <path class="fil1" d="M14212 6666c-30,12 -186,65 81,64 413,-2 1175,6 1567,109 384,101 119,310 -266,362 -105,14 -52,19 71,25 1412,71 1584,577 152,563 -744,-7 -2010,-26 -1877,0 46,304 -858,173 -1103,173 -70,0 -1268,-64 -917,-176 461,-148 -1675,-248 334,-466 137,-15 206,-25 76,-27 -122,-1 -929,-8 -1304,-8 -1043,0 -280,-705 656,-683 299,7 -577,-150 273,-150 330,0 914,0 1327,0 204,0 923,21 1093,57 250,53 -94,131 -163,157z"/>
  <path class="fil1" d="M14035 11473c213,55 1134,125 204,423 -458,147 550,-114 38,208 -504,316 -1999,202 -1887,407 89,162 1394,199 813,443 -427,179 -674,297 30,359 213,19 1363,-113 1139,340 -139,281 -1684,376 -961,405 14,0 122,117 -85,168 -76,18 -1982,262 -983,514 246,63 1607,150 1612,154 -184,410 -3823,664 -4276,664 -92,0 -561,-119 -337,-239 180,-96 1084,-184 892,-277 -219,-105 -1567,-13 -2107,-38 -528,-24 -469,-302 -568,-325 -90,-300 399,-202 583,-340 -13,-121 -854,-317 -1020,-323 -136,-5 -852,-174 -226,-311 535,-116 118,-254 865,-358 1300,-180 3021,285 4477,-107 -350,-335 739,-228 63,-531 -601,-270 -1504,-508 -62,-794 857,-170 -4,-81 -423,-218 -238,-78 909,30 850,-71 -102,-176 -28,-71 330,-169 40,-11 1025,12 1039,16z"/>
  <path class="fil3 str1" d="M8718 12349c-260,996 -33,2263 910,2691 723,328 1733,107 2203,-883 456,-962 503,-2215 -389,-2938 -924,-750 -2361,-259 -2724,1130zm2213 32c14,426 -132,1151 -375,1580 -314,551 -782,340 -782,-301 0,-444 109,-1020 289,-1427 240,-546 841,-671 868,148z"/>
  <path class="fil4 str0" d="M7859 2503c7,-36 46,-86 109,-114 63,-28 151,-35 231,-34 80,1 152,9 225,11 74,1 149,-4 189,6 40,9 46,32 47,73 2,41 -1,99 0,176 2,76 8,171 11,256 4,85 5,160 7,214 3,53 20,220 40,236 15,12 196,421 -93,421 -73,0 -150,0 -228,0 -78,0 -155,0 -224,-1 -68,-1 -127,-3 -170,-45 -44,-43 -71,-126 -77,-216 -5,-90 10,-187 15,-268 5,-82 0,-149 -8,-252 -8,-104 -18,-244 -36,-324 -18,-81 -44,-103 -38,-139z"/>
  <path class="fil0" d="M12313 3875c-143,59 -645,-32 -393,112 4,2 152,25 200,88 173,-16 -187,121 306,138 565,21 -41,44 285,123 141,35 2126,68 2189,-21 78,-108 -510,-211 -589,-211 115,5 442,-72 663,-58 2,0 415,-37 494,-37 117,0 325,-10 100,-110 -264,-119 -1381,-30 -1783,-81 -245,-31 -500,-87 -752,-72 -117,6 -411,-101 -305,48 71,99 241,-1 -243,89 -33,7 -157,-14 -172,-8z"/>
  <path class="fil5 str0" d="M12350 3291c-7,-144 -18,-247 -33,-359 -15,-113 -37,-235 -54,-355 -71,-514 362,-437 712,-407 66,6 137,10 225,8 52,-1 111,-11 170,-19 183,-25 371,-39 396,230 7,72 7,176 5,276 0,45 -3,117 -6,161 -12,145 -100,154 -222,151l-435 -12c-72,-1 -100,13 -95,119 5,103 47,104 124,101l284 -11c67,-2 103,13 115,74 34,176 19,214 -95,199l-254 -32c-125,-16 -163,-6 -157,84 1,17 6,76 8,97 9,95 81,96 155,91l440 -35c101,-8 179,2 189,139 6,88 -10,192 -27,235 -20,52 -62,85 -149,97 -321,44 -982,17 -1113,-12 -87,-19 -147,-78 -155,-233l-28 -587z"/>
  <path class="fil6 str0" d="M13995 6724c0,151 5,335 5,456 0,113 0,147 -46,161 -38,12 -509,-6 -627,-18 -109,-11 -127,-21 -125,-149 8,-463 6,-1069 -2,-1327 -15,-460 -224,-792 361,-869 29,-4 55,-9 89,-19 426,-121 1011,-251 1451,-75 772,308 811,1569 -143,1594 -49,1 -27,4 4,19 310,142 452,439 454,725 0,77 -19,135 -77,143 -103,15 -264,36 -575,18 -79,-4 -106,-17 -108,-97 -9,-320 -103,-479 -238,-557 -184,-105 -423,-56 -423,-5z"/>
  <path class="fil7 str0" d="M6149 1654c0,253 -230,-103 -13,-33 60,20 20,50 16,67"/>
  <path class="fil7 str0" d="M6130 1739c-11,76 3,129 79,151"/>
  <path class="fil7 str0" d="M6115 1834c-16,28 -66,155 -49,181"/>
  <path class="fil7 str0" d="M5531 2043c-16,-9 -68,-90 -68,-121 -2,-88 117,-142 177,-78 32,35 40,12 47,88 8,88 -58,107 -126,107 -11,0 -50,3 -61,-1"/>
  <path class="fil7 str0" d="M5595 2037c0,4 -18,125 -22,140 -26,114 -8,157 114,194l2 1"/>
  <path class="fil7 str0" d="M5625 2065c43,-28 136,-53 183,-9 6,5 13,17 15,26"/>
  <path class="fil7 str0" d="M5587 2095c-50,7 -137,31 -162,-38"/>
  <path class="fil7 str0" d="M5557 2265c-26,13 -124,98 -135,126"/>
  <path class="fil7 str0" d="M6807 2400c-42,-86 30,-231 155,-255 151,-30 200,-6 193,183 -5,149 -319,133 -348,72z"/>
  <path class="fil7 str0" d="M7027 2438c10,122 -138,248 -274,248"/>
  <path class="fil7 str0" d="M7962 2451c-141,-248 333,-284 232,60 -83,33 -184,41 -227,-52l-5 -8z"/>
  <path class="fil7 str0" d="M7975 2351c-78,-20 -184,-64 -223,45l-1 9"/>
  <path class="fil7 str0" d="M8161 2324c2,-16 94,-72 138,23"/>
  <path class="fil7 str0" d="M9010 3321c-119,17 -165,26 -168,-145 -4,-155 385,-152 281,99 -14,32 -92,43 -113,46z"/>
  <path class="fil7 str0" d="M8864 3390c20,-1 170,142 155,157 -62,58 -186,87 -194,94"/>
  <path class="fil7 str0" d="M8875 3313c-49,-19 -141,-113 -151,-110 0,-1 -73,46 -85,69"/>
  <path class="fil7 str0" d="M9766 1830c-111,-60 -201,-72 -181,-259 17,-161 415,-244 381,195 -7,88 -192,102 -247,59 1,41 -120,206 -129,326 -4,42 -194,78 -246,81l-10 0"/>
  <path class="fil7 str0" d="M9714 2008c1,-1 186,-179 182,3 0,2 12,73 17,78"/>
  <path class="fil7 str0" d="M9546 1740c-110,0 -188,1 -268,90"/>
  <path class="fil7 str0" d="M11438 1415c-469,-182 -21,-649 230,-288 67,95 21,290 -186,290 -18,0 -25,5 -44,-2z"/>
  <path class="fil7 str0" d="M11409 1473c76,0 175,-8 231,43 116,107 -207,190 -219,253"/>
  <path class="fil7 str0" d="M12966 1126c89,33 98,121 67,199 -76,189 -388,266 -570,176 -142,-70 -160,-245 -70,-373 124,-176 453,-214 573,-2z"/>
  <path class="fil7 str0" d="M12384 1444c-128,-46 -196,-21 -210,121"/>
  <path class="fil7 str0" d="M12706 1504c46,-71 130,-45 157,14 52,111 86,369 108,608"/>
  <path class="fil7 str0" d="M12504 1518c-133,216 -88,166 -149,259"/>
  <path class="fil7 str0" d="M14159 3598c-304,0 -601,13 -493,-430 147,-603 1065,-274 918,195 -43,137 -246,176 -367,176"/>
  <path class="fil7 str0" d="M13592 3377c-76,-29 -225,-292 -251,-399"/>
  <path class="fil7 str0" d="M14645 3207c-79,-148 -35,-452 -69,-506"/>
  <path class="fil7 str0" d="M14135 3639c-106,206 84,462 -89,936l-6 20"/>
  <path class="fil7 str0" d="M14152 3934c-190,93 -47,232 -568,87 -12,-3 -49,-19 -71,-33"/>
  <path class="fil7 str0" d="M14149 6865c89,-27 102,-146 105,-231 9,-246 -759,-722 -768,-60 -9,575 694,338 760,246 -103,99 -613,342 -35,333 98,-2 192,22 298,22"/>
  <path class="fil7 str0" d="M14336 6773c81,63 389,328 501,233"/>
  <path class="fil7 str0" d="M11766 5780c-202,229 -294,347 -619,284 -318,-61 -204,-1036 371,-823 413,153 353,420 248,539z"/>
  <path class="fil7 str0" d="M12000 5688c0,-2 141,-426 246,-364 58,35 231,207 237,283"/>
  <path class="fil7 str0" d="M11801 5848c200,241 139,410 400,500 130,45 180,124 378,189 13,4 97,56 103,71"/>
  <path class="fil7 str0" d="M11939 6295c-193,45 -384,-156 -293,144 8,29 151,298 171,341"/>
  <path class="fil7 str0" d="M10868 5857c-373,-145 -304,7 -259,-545"/>
  <path class="fil7 str0" d="M9620 6855c-470,0 -563,-35 -544,-583 9,-241 1086,-812 1024,430 -9,167 -507,205 -619,205"/>
  <path class="fil7 str0" d="M8587 7118c0,-857 690,-46 680,93"/>
  <path class="fil7 str0" d="M9907 7376c-8,9 -448,-516 -610,-239 -24,42 -20,462 -20,539"/>
  <path class="fil7 str0" d="M10157 6726c111,-127 258,-536 260,-538"/>
  <path class="fil7 str0" d="M9697 6322c-72,-179 -191,-481 -240,-662"/>
  <path class="fil7 str0" d="M11301 5892c-89,-194 36,-218 159,-253l-52 7"/>
  <path class="fil7 str0" d="M10894 5954c0,-112 197,-81 214,-47"/>
  <path class="fil7 str0" d="M9810 6644c-211,112 -205,-214 -140,-319 66,-108 177,-234 294,-94 107,128 -20,328 -128,403 -11,7 -15,5 -26,10z"/>
  <path class="fil7 str0" d="M9429 6495c-134,23 -342,-46 -340,-212 5,-407 595,-236 291,112 -48,56 -102,52 -141,70"/>
  <path class="fil7 str0" d="M9334 6718c-104,-49 48,-215 48,-75 0,21 7,57 -18,56"/>
  <path class="fil7 str0" d="M13883 3433c-241,0 -120,-339 13,-337 152,3 198,55 231,219 44,217 -154,183 -299,183"/>
  <path class="fil7 str0" d="M14433 3452c-189,25 -183,24 -176,-187 5,-156 109,-271 241,-145 78,74 64,223 12,230"/>
  <path class="fil7 str0" d="M13989 3443c-143,81 -244,-173 -17,-192 88,-7 72,160 17,192z"/>
  <path class="fil7 str0" d="M14503 3399c-89,82 -238,-23 -120,-124 36,-32 209,18 156,101"/>
  <path class="fil7 str0" d="M14101 3557c-150,0 52,-137 52,-15"/>
  <path class="fil7 str0" d="M9967 6385c-35,81 -104,147 -116,4 -12,-158 125,-249 113,-28 -1,8 -3,14 -8,20"/>
  <path class="fil7 str0" d="M9440 6235c9,47 -59,121 -104,126 -47,4 -44,-17 -44,-85 1,-64 20,-137 71,-178 39,-31 70,97 77,137z"/>
  <path class="fil7 str0" d="M12425 1176c35,-40 150,-31 161,14"/>
  <path class="fil7 str0" d="M12759 1177c0,-82 44,-97 121,-114 14,-3 27,-2 42,-2"/>
  <path class="fil7 str0" d="M11438 1278c-36,116 -156,-8 -118,-137 29,-98 98,-79 127,32 9,36 9,95 -28,115"/>
  <path class="fil7 str0" d="M11420 1149c22,79 -54,127 -86,2 -10,-40 41,-82 54,-35"/>
  <path class="fil7 str0" d="M9753 1641c42,0 82,38 82,84"/>
  <path class="fil7 str0" d="M9000 3268c-78,23 -123,-162 28,-152 26,2 49,140 -8,135"/>
  <path class="fil7 str0" d="M9320 1630c14,-16 137,-78 264,21"/>
  <path class="fil7 str0" d="M11649 1320c38,-30 140,-287 210,-158 4,8 36,56 36,56"/>
  <path class="fil7 str0" d="M11230 1245c-132,-15 -156,-224 -274,65 -4,9 -6,7 -8,16"/>
  <path class="fil7 str0" d="M11300 1349c-3,37 -66,126 -13,173 26,23 141,17 179,10 76,-15 79,-8 45,-103 -3,-8 -4,-5 -5,-13"/>
  <path class="fil7 str0" d="M11343 1537c-7,-96 123,-68 81,36 -13,30 -102,124 -129,143"/>
  <path class="fil7 str0" d="M11638 1257c-36,115 -156,-9 -118,-138 29,-98 98,-79 126,32 10,36 10,95 -27,116"/>
  <path class="fil7 str0" d="M11620 1127c22,79 -54,128 -86,2 -10,-39 41,-82 53,-35"/>
  <path class="fil7 str0" d="M12988 1208c145,-83 259,-218 301,-320"/>
  <path class="fil7 str0" d="M15980 8558c-66,-331 -56,-290 -355,-339 -190,-31 -106,9 -79,203 30,217 414,183 436,160 34,-35 3,2 -2,-24z"/>
  <path class="fil7 str0" d="M16035 8653c-66,-19 -124,-245 43,-307 25,-10 310,-100 310,-64 -6,276 -169,425 -353,371z"/>
  <path class="fil7 str0" d="M2180 15823c3,-19 2014,-280 2330,-256 181,14 615,316 1300,288 53,-2 41,-13 77,29"/>
  <path class="fil7 str0" d="M2062 16792c452,155 3622,116 4505,82l-95 72"/>
  <path class="fil7 str0" d="M2941 17579c-829,-225 -1025,3 571,3 540,0 1266,33 1771,-3"/>
  <path class="fil8 str2" d="M3329 18165l3720 0c769,0 769,1161 0,1161l-3720 0c-768,0 -768,-1161 0,-1161z"/>
  <path class="fil9 str0" d="M10301 1681c-50,-29 -330,-61 -287,108 61,244 259,625 379,865 47,94 168,461 272,470 49,5 420,74 419,-3 -2,-179 444,-1366 439,-1434 -149,-97 -475,-93 -609,13 -4,3 -46,203 -70,267 -19,52 -86,329 -89,329 -148,0 -183,-411 -302,-541 20,-12 -150,-73 -152,-74z"/>
  <path class="fil10 str0" d="M12271 6864c-92,-5 -170,-57 -267,-119 -648,-419 -1266,-232 -1635,43 -777,578 -635,2178 562,2396 250,45 464,49 711,28 382,-33 783,-162 994,-510 65,-106 44,-205 -12,-291 -103,-158 -529,-470 -679,-295 -56,66 -105,115 -150,152 -149,124 -378,177 -571,133 -407,-94 -479,-621 -156,-830 120,-78 296,-107 531,-42 279,77 549,103 672,-665z"/>
  <path class="fil11 str0" d="M9160 11033c-317,-663 138,-1614 2,-2507 -277,-1817 -2438,-1243 -2320,-681 281,1333 -583,1970 -364,3055 19,95 57,119 61,121 128,78 594,85 846,50 164,-23 187,-74 186,-231 -2,-188 -11,-478 -14,-632 -1,-116 24,-146 81,-158 105,-21 284,-18 392,-13 51,3 101,21 83,88 -139,525 1,813 1,945 66,54 389,67 617,60 275,-8 454,-47 429,-97z"/>
  <path class="fil7 str0" d="M10834 13136c355,-12 563,124 881,-355 409,-619 -248,-1797 -1233,-1147 -381,251 -607,280 -510,846 77,448 576,613 957,613"/>
  <path class="fil7 str0" d="M10424 13539c717,0 629,214 748,241 262,-229 407,-789 902,-764 165,8 81,516 -146,739 -107,106 -802,620 -955,565 -113,-335 -516,-412 -822,-412"/>
  <path class="fil7 str0" d="M10883 12406c4,-180 -369,-366 -463,-18"/>
  <path class="fil7 str0" d="M11676 12508c0,-245 -207,-190 -330,-102"/>
  <path class="fil7 str0" d="M11008 13033c681,0 546,-759 129,-368 -106,100 -287,-27 -357,-166 -87,-173 -459,204 -227,325l-13 94"/>
  <path class="fil7 str0" d="M7351 13875c-245,-27 -203,-261 -284,-472 -31,-83 23,-39 101,-33 26,1 248,75 277,132 31,61 37,185 8,248 -22,49 -89,136 -91,147"/>
  <path class="fil7 str0" d="M7563 13691c-90,-53 -155,-241 -29,-335 224,-167 271,-331 309,26 31,297 -373,396 -293,321 7,-6 17,-10 13,-12z"/>
  <path class="fil7 str0" d="M7977 14359c-386,-75 -96,-573 -38,-539 205,119 351,179 261,461 -25,78 -163,90 -223,78z"/>
  <path class="fil7 str0" d="M8057 14361c-87,-176 189,-272 316,-307 3,-1 77,241 -114,314 -30,11 -191,40 -157,-14"/>
  <path class="fil7 str0" d="M2926 14508c577,0 1149,15 1727,15"/>
  <path class="fil7 str0" d="M16074 14423c250,335 333,872 244,1317 107,318 -88,700 -498,882 -705,312 -1930,127 -2194,-813 -525,-1867 1662,-2436 2448,-1386z"/>
  <path class="fil7 str0" d="M16213 15911c-1067,490 -964,-1592 -433,-1179 291,227 416,602 416,983"/>
  <path class="fil7 str0" d="M14662 15827c39,464 -777,639 -777,-696 0,-652 1081,-704 968,696l-18 35"/>
  <path class="fil7 str0" d="M13592 16147c-88,161 -110,348 -79,515 105,574 744,747 1234,572 349,-125 572,-467 633,-851"/>
  <path class="fil7 str0" d="M15752 16676c594,662 1973,601 1977,-531 1,-553 -703,-536 -732,-197 -8,94 -6,214 -13,325 -32,516 -593,530 -861,290"/>
  <path class="fil7 str0" d="M12771 16916c-80,1 -136,84 -186,151 -240,325 -620,11 -337,-334 131,-159 377,-239 584,-180 83,24 165,360 -61,363z"/>
  <path class="fil7 str0" d="M12447 16773c28,65 -8,51 59,121 46,47 45,55 106,62"/>
  <path class="fil12" d="M15483 15565c-70,-218 -84,-456 -37,-613 48,-162 181,-207 269,-14 13,28 45,123 48,176 1,13 -5,18 -18,25 -172,86 -228,124 13,166 23,4 50,4 55,18 24,59 35,192 19,301 -43,303 -276,170 -349,-59z"/>
  <path class="fil7 str0" d="M14719 16351c6,118 302,193 417,159"/>
  <path class="fil7 str0" d="M16243 16583c42,153 -42,325 -165,348"/>
  <path class="fil7 str0" d="M15273 16045c6,-3 4,-12 2,-18 -75,-216 62,-240 134,-143 43,59 92,105 138,136 109,74 96,135 36,174 -68,46 -207,45 -294,-1 -69,-35 -113,-104 -16,-148z"/>
  <path class="fil7 str0" d="M14911 15027c0,911 85,1154 -689,1154 -445,0 -344,-143 -428,-915 -75,-679 110,-410 490,-732 38,-32 511,-178 539,40 10,74 66,226 66,352"/>
  <path class="fil7 str0" d="M15321 15274c0,-694 -171,-654 481,-788 68,-14 691,-68 718,92 53,313 145,1212 -129,1364 -199,110 -794,296 -870,-127 -21,-121 -86,-223 -91,-455 -1,-53 3,-42 -8,-78"/>
  <path class="fil7 str0" d="M17261 15713c-192,64 -446,106 -283,376 75,124 196,-197 196,54 0,186 372,-105 217,43 -10,10 -49,245 195,66 1,-1 234,-21 172,-161 -39,-91 -366,57 -152,-94 142,-100 -140,-160 -140,-161 1,-141 51,-67 -145,-127"/>
  <path class="fil7 str0" d="M16990 16105c-418,224 361,486 418,425 79,-85 -57,-200 -58,-205"/>
  <path class="fil7 str0" d="M13515 14490c-358,-373 -1295,-366 -1658,7 -219,225 -21,535 362,299 71,-44 173,-99 250,-133 294,-127 698,-77 890,112 79,79 121,182 118,297"/>
  <path class="fil7 str0" d="M14223 16574c-595,254 -1106,-425 -1150,-934 -11,-127 -177,-222 34,-152 2,7 155,150 226,139"/>
  <path class="fil7 str0" d="M15840 16556c49,488 -918,450 -1071,551"/>
  <path class="fil7 str0" d="M14186 17541c233,-99 259,88 272,309 20,345 37,682 73,1026 56,540 136,1079 218,1107 145,49 1092,152 1050,-195 -81,-676 -376,-928 -444,-1717 -18,-209 -37,-418 -152,-577 -143,-195 -399,-263 -631,-235"/>
  <path class="fil7 str0" d="M13570 17489c-351,-72 -723,-259 -878,-520 -52,-88 -71,-171 -67,-242 16,-270 354,-324 490,-56 46,90 155,238 301,340"/>
  <path class="fil7 str0" d="M15062 20054c43,-74 42,-273 35,-448 -6,-158 -1,-325 38,-475 186,-705 1337,-633 1173,336 -68,402 -368,868 -760,1064 -126,64 63,65 -101,89 -154,22 -479,18 -646,-6 -50,-7 37,-17 -28,-81 -96,-96 -86,-216 -39,-310 53,-105 150,-204 154,-294"/>
  <path class="fil7 str0" d="M15270 20604c-104,-63 -79,-159 -28,-226 223,-298 259,-499 278,-849 21,-373 375,-505 594,-402 152,70 225,259 138,538"/>
  <path class="fil7 str0" d="M14913 17851c-76,7 -428,-48 -399,-173 112,-467 840,-372 655,32 -43,94 -153,125 -245,122l-11 19z"/>
  <path class="fil7 str0" d="M14243 17569c-167,35 -312,49 -433,44 -657,-26 -566,-678 -260,-907"/>
  <path class="fil7 str0" d="M13377 16868c-109,118 -65,464 258,464 58,0 119,7 170,-25"/>
  <path class="fil7 str0" d="M13696 15775c6,189 -149,211 -275,146 -96,-50 -175,-162 -198,-278 -31,-152 33,-265 132,-307 96,-41 224,-17 285,98 31,61 49,125 81,136 5,-91 65,-256 14,-428 -157,-530 349,-470 748,-497 237,-17 405,-100 457,-258 433,178 796,161 973,12 251,-210 228,-680 -24,-971 -168,-194 -428,-293 -634,-286 -215,7 -370,130 -232,380 46,85 25,78 -64,71 -312,-26 -681,35 -864,441 -32,69 -78,86 -132,95 -542,91 -767,558 -530,1052 22,47 43,89 47,139"/>
  <path class="fil12" d="M13982 15675c-69,-219 -86,-460 -39,-617 47,-161 184,-203 271,-10 13,28 46,122 49,176 0,13 -5,18 -18,25 -172,86 -229,124 13,166 22,4 49,4 55,18 23,59 34,191 19,300 -43,304 -277,171 -350,-58z"/>
  <rect class="fil7 str0" x="14" y="14" width="18151" height="21079"/>
 </g>
</svg>
