<?xml version="1.0" encoding="UTF-8"?>
<!DOCTYPE svg PUBLIC "-//W3C//DTD SVG 1.0//EN" "http://www.w3.org/TR/2001/REC-SVG-20010904/DTD/svg10.dtd">
<!-- Creator: CorelDRAW X8 -->
<svg xmlns="http://www.w3.org/2000/svg" xml:space="preserve" width="131.309mm" height="127.076mm" version="1.0" style="shape-rendering:geometricPrecision; text-rendering:geometricPrecision; image-rendering:optimizeQuality; fill-rule:evenodd; clip-rule:evenodd"
viewBox="0 0 4605 4456"
 xmlns:xlink="http://www.w3.org/1999/xlink">
 <defs>
  <style type="text/css">
   <![CDATA[
    .str1 {stroke:black;stroke-width:29.6895}
    .str2 {stroke:black;stroke-width:7.01381}
    .str0 {stroke:black;stroke-width:2.67226}
    .fil0 {fill:none}
    .fil2 {fill:black}
    .fil1 {fill:#0080FF}
   ]]>
  </style>
 </defs>
 <g id="Camada_x0020_1">
  <metadata id="CorelCorpID_0Corel-Layer"/>
  <rect class="fil0 str0" x="1" y="1" width="4602" height="4454"/>
  <path class="fil1 str1" d="M850 3798l944 0c195,0 195,295 0,295l-944 0c-194,0 -194,-295 0,-295z"/>
  <path class="fil0 str2" d="M467 3042c1,-6 650,-91 752,-83 59,5 199,102 420,93 17,0 13,-4 25,10"/>
  <path class="fil0 str2" d="M372 3355c146,50 1170,37 1455,26l-31 23"/>
  <path class="fil0 str2" d="M656 3609c-268,-73 -331,1 184,1 175,0 409,10 572,-1"/>
  <path class="fil0 str2" d="M481 2561c186,0 371,5 558,5"/>
  <path class="fil0 str2" d="M3114 2615c-8,25 4,65 0,105 28,105 346,27 436,20 567,-45 608,-406 390,-500 -498,-213 -159,-23 -256,-353 -108,-367 -225,219 -209,-822 3,-150 -70,-505 -285,-470 -720,120 -750,107 -750,827 0,419 -215,298 -134,495 128,312 -649,106 -297,626 106,157 877,11 1105,72z"/>
  <path class="fil0 str2" d="M2626 1264c-47,-265 134,-396 322,-404 192,-8 391,112 350,391 45,168 -144,256 -326,262 -192,8 -378,-75 -346,-249z"/>
  <path class="fil0 str2" d="M2129 1736c-32,92 -331,8 -331,-176 0,-113 95,-252 77,-320 -15,-61 -67,-58 -67,61 0,200 -426,-1 -69,-209 30,-17 103,-166 -97,-40 -92,57 -127,180 -103,282 7,32 276,161 -72,142 -110,-5 -140,-150 -29,69 56,110 370,27 123,136 -77,34 159,28 180,45 98,76 159,193 343,135 27,-9 91,-54 99,-84"/>
  <path class="fil0 str2" d="M3936 1715c59,-15 386,-219 160,-354 -105,-63 17,-292 94,-106 0,0 7,113 58,64 20,-20 -138,-321 50,-185 18,14 -4,267 62,227 109,-67 -76,-390 138,-250 89,58 -84,278 -72,292 12,15 266,79 -28,123 -217,32 -15,288 -434,273l-36 4 8 18"/>
  <path class="fil0 str2" d="M3114 2615c-77,18 -617,-104 -508,141 48,109 245,-31 71,128 -80,73 209,34 201,105 -2,15 42,155 138,-40 21,-41 384,-326 169,-352 -13,-2 -59,15 -71,18z"/>
  <path class="fil0 str2" d="M3437 2756c107,102 23,42 173,67 18,3 95,-92 95,-143"/>
  <path class="fil0 str2" d="M3220 2192c15,-69 434,178 26,314 -67,22 -59,32 -132,3"/>
  <path class="fil0 str2" d="M2474 2167c165,27 316,68 497,53 33,-2 155,58 173,57l-30 21"/>
  <path class="fil0 str2" d="M3504 1854c71,250 -970,100 -972,83 0,-2 1,-25 3,-20"/>
  <path class="fil2" d="M2742 3325c246,41 684,42 849,-32 105,-47 73,-110 -137,-143 -200,-31 -517,-37 -741,7 -162,32 -270,117 29,168z"/>
  <path class="fil0 str2" d="M2689 1216c9,-1 18,6 29,15 28,24 66,39 105,39 26,1 53,-5 75,-18"/>
  <path class="fil0 str2" d="M2940 1371c4,-1 9,-1 8,-7 -6,-24 -5,-39 0,-49 13,-22 46,-11 41,22 -2,7 -4,21 -1,30 1,5 5,5 11,5 38,-1 40,25 9,39 -38,17 -73,4 -86,-10 -10,-11 -9,-28 18,-30z"/>
  <path class="fil0 str2" d="M2771 1581c-156,-37 -271,-93 -271,-252 0,-65 52,-152 79,-237 117,-371 185,-208 283,-313 19,-20 281,-71 355,42 81,125 269,421 212,575 -18,50 -8,112 -127,122 -75,6 -308,28 -308,126 -76,0 -51,-63 -223,-63z"/>
  <path class="fil0 str2" d="M3312 1297c-58,-35 26,-200 25,-53 0,18 5,71 -25,53z"/>
  <path class="fil0 str2" d="M2610 1298c58,-35 -26,-200 -25,-53 1,19 -4,71 25,53z"/>
  <path class="fil0 str2" d="M2627 1225c81,-30 46,-134 41,-198 0,-8 10,-10 17,-8 67,14 83,-22 95,-73 3,-17 11,-27 35,-18 23,8 57,45 108,61 34,11 81,11 115,-4 0,0 2,1 5,4 80,76 190,23 206,31 14,6 -56,182 52,207"/>
  <path class="fil0 str2" d="M3244 1217c-8,-1 -18,6 -29,15 -27,24 -65,39 -104,39 -26,1 -54,-5 -75,-18"/>
 </g>
</svg>
