<?xml version="1.0" encoding="UTF-8"?>
<!DOCTYPE svg PUBLIC "-//W3C//DTD SVG 1.0//EN" "http://www.w3.org/TR/2001/REC-SVG-20010904/DTD/svg10.dtd">
<!-- Creator: CorelDRAW X8 -->
<svg xmlns="http://www.w3.org/2000/svg" xml:space="preserve" width="1551px" height="1501px" version="1.0" style="shape-rendering:geometricPrecision; text-rendering:geometricPrecision; image-rendering:optimizeQuality; fill-rule:evenodd; clip-rule:evenodd"
viewBox="0 0 544 526"
 xmlns:xlink="http://www.w3.org/1999/xlink">
 <defs>
  <style type="text/css">
   <![CDATA[
    .str1 {stroke:black;stroke-width:0.828457}
    .str0 {stroke:black;stroke-width:0.315642}
    .fil0 {fill:none}
    .fil1 {fill:#333333}
   ]]>
  </style>
 </defs>
 <g id="Camada_x0020_1">
  <metadata id="CorelCorpID_0Corel-Layer"/>
  <rect class="fil0 str0" width="544" height="526"/>
  <rect class="fil1 str1" x="64" y="449" width="183.621" height="34.7823" rx="12" ry="14"/>
  <path class="fil0 str1" d="M55 359c0,0 77,-10 89,-9 7,0 23,12 50,11 2,-1 1,-1 3,1"/>
  <path class="fil0 str1" d="M44 396c17,6 138,5 172,3l-4 3"/>
  <path class="fil0 str1" d="M77 426c-31,-8 -39,0 22,0 21,0 49,2 68,0"/>
  <path class="fil0 str1" d="M57 302c22,0 44,1 66,1"/>
  <path class="fil0 str1" d="M368 309c-1,3 0,8 0,12 3,13 41,3 51,3 67,-6 72,-48 46,-59 -58,-26 -18,-3 -30,-42 -13,-43 -26,26 -24,-97 0,-18 -9,-60 -34,-56 -85,15 -89,13 -89,98 0,49 -25,35 -16,58 16,37 -76,13 -35,74 13,19 104,2 131,9z"/>
  <path class="fil0 str1" d="M368 172c-9,2 -49,8 -54,-5 -29,-95 59,-103 72,-55 4,16 19,58 -13,62l-5 -2z"/>
  <path class="fil0 str1" d="M251 205c-3,11 -39,1 -39,-21 0,-13 12,-30 10,-38 -2,-7 -8,-6 -8,8 0,23 -51,0 -9,-25 4,-2 13,-20 -11,-5 -11,7 -15,22 -12,34 1,3 32,19 -9,16 -13,0 -16,-17 -3,9 7,13 44,3 14,16 -9,4 19,3 22,5 11,9 18,23 40,16 3,-1 11,-7 12,-10"/>
  <path class="fil0 str1" d="M465 203c7,-2 46,-26 19,-42 -13,-8 2,-35 11,-13 0,0 1,14 7,8 2,-3 -17,-38 6,-22 2,2 -1,31 7,27 13,-8 -9,-46 16,-30 11,7 -10,33 -8,35 1,2 31,9 -4,14 -25,4 -1,34 -51,32l-4 1 1 2"/>
  <path class="fil0 str1" d="M318 134c12,8 6,16 25,9l0 4"/>
  <path class="fil0 str1" d="M368 147c1,-14 12,-5 13,-16l-1 3"/>
  <path class="fil0 str1" d="M368 309c-9,2 -73,-12 -60,17 5,12 29,-4 8,15 -9,8 25,4 24,12 0,2 5,18 16,-5 3,-5 46,-38 20,-41 -1,0 -7,2 -8,2z"/>
  <path class="fil0 str1" d="M406 326c13,12 3,4 20,7 3,1 12,-10 12,-16"/>
  <path class="fil0 str1" d="M380 259c2,-8 52,21 3,37 -8,3 -7,4 -15,0"/>
  <path class="fil0 str1" d="M292 256c20,3 38,8 59,6 4,0 18,7 20,7l-3 2"/>
  <path class="fil0 str1" d="M414 219c8,30 -115,12 -115,10 0,0 0,-3 0,-3"/>
  <path class="fil0 str1" d="M431 390c-11,0 -44,7 -69,7 -24,0 -57,-2 -79,-15 7,-15 120,-26 140,-15 63,33 -2,33 -34,33"/>
 </g>
</svg>
