<?xml version="1.0" encoding="UTF-8"?>
<!DOCTYPE svg PUBLIC "-//W3C//DTD SVG 1.0//EN" "http://www.w3.org/TR/2001/REC-SVG-20010904/DTD/svg10.dtd">
<!-- Creator: CorelDRAW X8 -->
<svg xmlns="http://www.w3.org/2000/svg" xml:space="preserve" width="1550px" height="1500px" version="1.0" style="shape-rendering:geometricPrecision; text-rendering:geometricPrecision; image-rendering:optimizeQuality; fill-rule:evenodd; clip-rule:evenodd"
viewBox="0 0 204 198"
 xmlns:xlink="http://www.w3.org/1999/xlink">
 <defs>
  <style type="text/css">
   <![CDATA[
    .str0 {stroke:black;stroke-width:0.311086}
    .str1 {stroke:black;stroke-width:0.311086}
    .fil0 {fill:none}
    .fil2 {fill:black}
    .fil1 {fill:#99FFFF}
    .fil3 {fill:#99FFFF}
    .fil6 {fill:#CCCCCC}
    .fil4 {fill:white}
    .fil5 {fill:#FC12C1;fill-opacity:0.501961}
   ]]>
  </style>
 </defs>
 <g id="Camada_x0020_1">
  <metadata id="CorelCorpID_0Corel-Layer"/>
  <rect class="fil0" width="204" height="198"/>
  <path class="fil1" d="M177 63c0,-5 17,-7 21,6 1,3 9,8 0,16 -4,3 -6,-1 -14,9 -3,4 -10,-1 -5,7 4,9 -17,19 -19,23 -6,9 -18,-7 -24,2 -3,5 -9,11 -15,8 -4,-2 -17,-15 -11,-20l0 -1c0,1 -28,6 -28,-7 0,-10 -8,-8 -10,-19 -2,-8 -18,-1 -18,-10 0,-14 6,-12 20,-17 3,-1 15,0 16,0 3,5 -10,16 -6,17 1,1 12,4 13,5 3,-5 -6,-20 1,-24 7,-4 6,-3 4,-8 -5,-13 7,-25 18,-28 12,-3 22,3 29,11 0,1 2,4 3,4 3,2 5,1 6,2 4,5 2,11 -1,19 -1,1 2,12 1,19 0,4 8,3 11,3 0,-11 -4,-13 8,-17l0 0z"/>
  <path class="fil0 str0" d="M110 49c-3,-17 11,-24 22,-21 8,2 15,9 13,20 5,9 -10,13 -16,13 -11,1 -23,-4 -19,-12z"/>
  <path class="fil0 str0" d="M21 135c0,0 28,-4 33,-4 3,0 9,5 19,4 0,0 0,0 1,1"/>
  <path class="fil0 str0" d="M16 149c7,2 52,1 65,1l-1 1"/>
  <path class="fil0 str0" d="M29 160c-12,-3 -15,0 8,0 8,0 18,1 26,0"/>
  <path class="fil0 str0" d="M21 114c9,0 17,0 25,0"/>
  <path class="fil0 str0" d="M115 116c-1,0 -3,0 -4,0 -2,0 -2,2 -5,2 -2,0 -3,-1 -5,0 -9,3 -19,-5 -18,-15 0,-12 33,-15 41,-16 13,0 31,0 39,4 2,0 3,1 5,2 4,2 8,4 9,9 1,5 -1,9 -3,11 -2,2 -5,3 -8,4 -4,1 -8,1 -12,2 -3,0 -3,0 -4,1 -4,2 -4,2 -9,1 0,0 -1,0 -1,1 0,0 -1,1 -3,1 -2,0 -2,0 -2,1 1,7 -4,10 -10,9 -3,0 -11,-10 -11,-13 0,-2 1,-5 2,-7 2,-3 3,-4 7,-5 2,-1 4,-2 6,-3 3,-1 3,-1 6,-1 1,0 2,0 3,0 2,-2 2,-2 5,-2 1,0 2,0 2,0 2,-1 3,-1 5,-1 1,0 3,0 4,0 1,0 0,-2 3,-3"/>
  <path class="fil0 str0" d="M145 121c1,1 1,1 1,2 0,0 0,1 1,1 0,1 2,2 4,2 5,-1 9,-4 10,-8"/>
  <path class="fil0 str0" d="M148 86c0,7 -36,9 -39,0"/>
  <path class="fil2" d="M119 146c10,2 30,2 37,-1 5,-3 3,-5 -6,-7 -9,-1 -23,-2 -33,0 -7,2 -12,6 2,8z"/>
  <path class="fil0 str0" d="M113 47c0,0 1,0 1,1 2,1 4,2 6,2 1,0 2,0 3,-1"/>
  <path class="fil0 str0" d="M126 55c0,0 1,0 1,0 -1,-2 -1,-2 0,-3 0,-1 2,0 2,1 0,1 -1,1 0,2 0,0 0,0 0,0 2,0 2,1 1,2 -2,1 -4,0 -5,0 0,-1 0,-2 1,-2z"/>
  <path class="fil0 str0" d="M142 47c0,0 -1,0 -1,1 -2,1 -4,2 -6,2 -1,0 -2,0 -3,-1"/>
  <path class="fil0 str0" d="M99 83c0,-6 -1,-11 -2,-16 -1,-5 -1,-11 2,-15 1,-1 3,-2 5,-3"/>
  <path class="fil0 str0" d="M77 84c5,1 12,-2 14,-5 0,-1 0,-1 0,0 1,0 2,2 3,3 1,3 -12,10 -15,6 0,0 -1,-1 -2,-3 0,0 0,-1 0,-1z"/>
  <path class="fil0 str0" d="M114 61c-7,2 -11,6 -11,13 0,2 0,3 -2,4 -1,1 -3,2 -2,4 1,1 0,1 0,1 -4,1 -8,-2 -8,-6 0,0 0,0 0,-1 2,-1 2,-2 3,-4 0,-2 0,-3 -1,-5 -1,-3 -5,-3 -5,0 0,1 0,2 1,2 0,2 0,4 0,5 -1,3 -6,3 -8,1 -1,-2 -1,-4 1,-6 0,-1 2,-1 3,-2 4,-1 3,-4 0,-4 -3,-1 -5,1 -7,3 -1,2 -2,6 0,9 2,3 0,2 -1,1 -4,-2 -5,-6 -3,-9 1,-2 1,-3 0,-3 -1,-1 -2,-1 -3,0 -2,1 -3,5 -2,8 0,2 2,4 5,6 1,1 0,1 -1,1 -3,0 -6,-2 -7,-4 -1,-3 -3,-3 -4,0 0,2 2,4 4,5 2,1 6,1 8,1 2,0 2,1 3,2 2,9 10,14 19,14 5,0 11,-2 15,-9"/>
  <path class="fil0 str0" d="M96 97c1,2 8,1 9,-2 1,-1 0,-1 0,-1 -1,0 -9,3 -9,3z"/>
  <path class="fil0 str0" d="M97 83c3,2 4,8 1,12"/>
  <path class="fil0 str0" d="M99 83c5,2 6,10 2,13"/>
  <path class="fil0 str0" d="M100 82c2,0 4,0 4,1"/>
  <path class="fil0 str0" d="M141 78c0,-3 -2,-5 -5,-5 -1,0 -2,0 -3,1 -3,0 -7,0 -10,0 -1,0 -2,-1 -2,-1 -4,0 -6,1 -7,5 0,2 0,7 0,10 0,3 1,4 5,5 4,1 14,1 18,0 3,-1 4,-2 5,-5 0,-3 0,-7 -1,-10z"/>
  <path class="fil0 str0" d="M133 77c4,0 6,1 6,5 0,2 0,5 0,6 0,3 -1,4 -3,4 -4,1 -12,1 -16,0 -2,0 -3,-1 -3,-4 0,-1 0,-4 0,-6 0,-4 2,-5 6,-4 4,0 6,0 10,-1z"/>
  <path class="fil0 str0" d="M117 78c2,-1 3,-1 3,-1 0,-1 0,-2 -1,-2 -1,-1 -3,0 -3,2 0,0 1,1 1,1z"/>
  <path class="fil0 str0" d="M116 79c0,0 0,-1 -1,-1 0,0 0,1 0,1 0,1 1,1 1,1 0,-1 0,-1 0,-1z"/>
  <path class="fil0 str0" d="M141 78c7,-1 8,-6 8,-9 1,-1 1,-2 2,-2 0,0 0,0 1,0 0,0 0,1 0,1 2,0 3,0 3,-1 1,-3 -3,-6 -2,-10 0,-1 -3,-1 -3,-1 -1,3 0,5 1,7 1,1 1,2 1,3 0,1 -1,1 -1,0 -2,0 -3,0 -4,0 0,1 -1,2 -1,3 0,2 -1,5 -6,6 0,0 1,3 1,3z"/>
  <path class="fil0 str0" d="M114 78c-6,-1 -7,-6 -8,-9 0,-1 0,-2 -1,-2 -1,0 -1,0 -1,1 0,0 -1,0 -1,0 -1,0 -2,0 -2,-1 -1,-2 0,-4 1,-5 0,-2 1,-4 1,-5 -1,-1 3,-1 3,0 0,0 0,0 0,1 0,2 -1,3 -1,5 -1,1 -1,3 -1,3 0,1 0,1 1,1 1,-1 2,-1 3,-1 1,1 1,2 1,3 1,2 2,5 6,6 1,1 0,1 0,2 0,1 0,1 -1,1z"/>
  <path class="fil0 str0" d="M70 74c-1,0 -1,-1 -1,-2 0,-1 1,-2 2,0 0,1 0,1 0,2 0,1 0,1 -1,0z"/>
  <path class="fil0 str0" d="M78 67c1,0 2,0 1,1 0,1 0,2 0,2 -1,1 -1,1 -2,1 -1,-1 0,-4 1,-4z"/>
  <path class="fil0 str0" d="M67 81c-3,0 -3,-2 -1,-2 1,0 1,0 2,1 0,0 0,1 -1,1z"/>
  <path class="fil0 str0" d="M93 72c0,0 0,-2 0,-3 0,0 0,0 0,0 1,-1 1,2 0,3 0,1 0,1 0,0z"/>
  <path class="fil0 str0" d="M74 79c1,0 1,2 0,2"/>
  <path class="fil0 str0" d="M74 78c1,0 2,0 2,-2"/>
  <path class="fil0 str0" d="M73 79c1,1 0,2 0,2"/>
  <path class="fil0 str0" d="M78 76c1,0 3,0 3,-1"/>
  <path class="fil0 str0" d="M88 75c0,2 1,2 2,2"/>
  <path class="fil0 str0" d="M90 85c-1,-1 -1,-1 -2,-2 0,0 0,-1 1,-1 0,0 1,-1 1,-1 0,0 1,0 1,0 0,0 1,1 1,1 1,1 1,1 0,2 0,0 -1,1 -1,1 -1,0 -1,0 -1,0z"/>
  <path class="fil0 str0" d="M169 116c-5,2 -8,-3 -4,-8 0,0 1,-1 2,-1 2,-3 -2,-5 4,-7 3,-1 4,-1 6,0"/>
  <path class="fil3 str0" d="M89 87c2,2 3,3 5,4 1,0 2,1 2,2 0,2 -1,3 -3,4 -1,0 -2,0 -3,0 -4,-1 -8,-4 -10,-7 -1,-3 7,-5 9,-3z"/>
  <path class="fil3 str0" d="M83 93c-1,-2 2,-3 3,-2 2,2 2,2 5,3 1,1 1,1 1,1 0,0 1,0 1,1 0,0 0,0 0,0 0,1 -1,1 -2,1 -3,0 -6,-2 -8,-4z"/>
  <path class="fil2" d="M109 48c0,0 0,1 0,2 1,0 1,1 1,1 0,2 -1,2 -2,2 -1,0 -1,0 -1,-1 -1,-1 0,-2 0,-2 0,-1 1,-2 1,-3 0,-1 -1,-2 -1,-3 -6,-14 7,-23 20,-22 1,0 4,1 5,-1 0,0 0,1 0,2 0,0 0,0 0,0 2,0 3,-1 3,-3 6,0 10,5 10,10 4,3 4,8 3,12 -1,1 -1,2 0,4 0,1 1,2 1,3 1,5 -4,4 -3,1l0 -2c-1,1 -2,1 -3,1 -2,-2 1,-9 0,-11 -1,0 -4,0 -5,0 -1,0 1,0 0,1 -5,1 -13,2 -19,-5 0,0 0,0 -1,0 -3,0 -5,2 -5,5 0,1 0,2 0,3 0,2 0,3 -1,4 0,2 0,2 -1,3 0,0 -1,0 -2,-1z"/>
  <path class="fil3 str0" d="M110 48c0,0 0,-2 0,-2 0,-1 0,-1 -1,-1 -1,-2 -2,-1 -3,0 -1,0 -1,2 0,3 1,0 1,1 1,1 0,1 2,1 2,1 1,-1 1,-1 1,-2z"/>
  <path class="fil3 str0" d="M145 48c0,0 0,-2 0,-2 0,-1 0,-1 0,-1 1,-2 3,-1 4,0 0,0 0,2 -1,3 0,0 -1,1 -1,1 0,1 -1,2 -2,1 0,-1 0,-1 0,-2z"/>
  <path class="fil0 str0" d="M156 46l0 -12c0,-2 -1,-4 2,-4 2,0 4,0 5,1 2,0 2,1 2,3l-2 12c0,1 0,2 -2,2l-3 0c-2,-1 -2,-1 -2,-2z"/>
  <path class="fil0 str0" d="M158 34c0,-2 0,-2 1,-2 1,0 1,0 2,0 1,0 1,1 1,1 0,1 0,3 0,3 0,1 0,1 -1,1 0,0 -1,0 -2,0 -1,0 -1,-1 -1,-2 0,0 0,-1 0,-1z"/>
  <path class="fil0 str0" d="M159 34c0,0 0,0 1,0 0,0 0,0 1,0 0,0 0,0 0,0 0,0 0,1 0,2 0,0 0,0 0,0 -1,0 -1,0 -1,0 -1,0 -1,0 -1,-1 0,0 0,-1 0,-1z"/>
  <path class="fil0 str0" d="M160 48l1 -3 3 0"/>
  <path class="fil4" d="M87 90c0,0 0,0 0,-1 -1,0 -1,0 -1,0l1 -2c0,0 1,0 1,0 0,0 1,0 1,1 0,0 0,0 0,0 0,1 -1,1 -1,2 -1,0 -1,0 -1,0z"/>
  <path class="fil0 str0" d="M82 92c0,-1 0,-2 1,-2 1,-1 3,-1 4,0 1,2 2,3 4,3 1,1 2,1 2,2 0,0 1,0 1,0 0,0 0,1 0,1 0,0 0,1 -1,1"/>
  <path class="fil0 str0" d="M116 67c6,4 18,3 22,0"/>
  <path class="fil0 str0" d="M107 64c2,0 3,1 4,3 0,1 1,2 1,2"/>
  <path class="fil0 str0" d="M142 72c1,-1 2,-2 2,-3 0,-1 0,-3 1,-3 1,-2 3,-3 5,-2"/>
  <path class="fil0 str0" d="M109 88c-2,-1 -2,-2 -2,-4 0,-1 0,-2 0,-3 1,-1 1,-2 1,-4"/>
  <path class="fil0 str0" d="M108 79c-1,-1 -2,-2 -1,-4"/>
  <path class="fil0 str0" d="M148 77c0,1 0,3 1,5 1,2 1,4 -1,6"/>
  <path class="fil0 str0" d="M149 75c1,1 1,3 -1,4"/>
  <path class="fil0 str0" d="M107 80c-1,0 -2,0 -2,-1"/>
  <path class="fil0 str0" d="M143 85c1,2 1,3 0,4"/>
  <path class="fil0 str0" d="M106 87c2,2 1,6 0,7"/>
  <path class="fil0 str0" d="M120 60c3,6 14,5 16,0"/>
  <g id="_1046167264">
   <path class="fil5" d="M107 30c13,4 29,4 41,0 7,7 7,22 0,28 -10,8 -29,9 -41,0 -7,-7 -7,-22 0,-28z"/>
   <path class="fil6 str0" d="M143 65c9,-5 14,-14 14,-24 0,-16 -13,-29 -30,-29 -16,0 -30,13 -30,29 0,10 6,19 15,24 6,4 25,4 31,0zm-36 -35c13,4 29,4 41,0 7,7 7,22 0,28 -10,8 -29,9 -41,0 -7,-7 -7,-22 0,-28z"/>
   <path class="fil4" d="M146 34c-2,0 -10,-3 -7,7 3,1 3,3 7,1 4,-2 4,8 4,2 1,-7 0,-8 -4,-11 0,0 0,1 0,1z"/>
   <path class="fil0 str0" d="M146 26c-5,2 -13,0 -13,-5 0,-6 -2,0 -6,-3 -1,-1 -3,-5 2,-5 5,0 9,3 14,6"/>
   <path class="fil0 str0" d="M100 53c-3,-8 -2,-21 5,-27 1,-1 2,-1 3,-1 5,2 14,4 21,3"/>
   <path class="fil0 str0" d="M111 47c5,0 8,-17 3,-18 -4,-1 -9,0 -10,3 -2,2 -3,7 -2,10 1,3 5,5 9,5z"/>
   <path class="fil0 str0" d="M106 31c3,0 5,-1 5,2 0,1 -1,8 -2,8 -3,0 -3,1 -6,0 -1,0 0,-4 0,-5 1,-2 1,-2 3,-5 0,0 0,0 0,0z"/>
   <path class="fil0 str0" d="M109 32l3 0c5,-15 17,-19 22,-19l-5 -1c-12,-1 -20,8 -20,20z"/>
   <path class="fil0 str0" d="M108 29c0,-7 4,-13 10,-16 3,-2 8,-3 12,-2 1,0 1,1 1,1"/>
  </g>
  <path class="fil0 str0" d="M107 62c8,4 27,7 40,0"/>
  <path class="fil0 str0" d="M112 90c-3,3 6,5 16,5 9,0 20,-2 16,-6"/>
  <circle class="fil0 str0" cx="133" cy="75" r="1"/>
  <circle class="fil0 str0" cx="120" cy="89" r="1"/>
  <rect class="fil0 str0" x="128" y="80" width="8.67122" height="7.50729" rx="0" ry="1"/>
  <path class="fil0 str0" d="M95 65c0,-2 0,-6 0,-8 0,-1 1,-3 2,-4 1,-1 2,-1 3,-1 1,1 1,2 1,4 -1,1 -2,1 -1,3 0,5 -3,11 -5,6z"/>
  <path class="fil0 str0" d="M97 69c2,0 2,-1 3,-2"/>
  <path class="fil0 str0" d="M95 58c0,2 1,2 2,1 1,-1 2,-2 3,-2"/>
  <path class="fil0 str1" d="M96 58c1,1 1,0 1,0 0,-1 0,-1 -1,-1 0,0 0,0 0,1 0,0 0,0 0,0z"/>
  <path class="fil0 str0" d="M180 84c-3,1 -11,0 -14,-6 0,0 0,0 -1,0 0,1 -1,2 -2,3 0,0 0,1 0,1 0,1 1,2 2,3 1,2 4,4 7,4 2,0 4,0 6,-1 0,0 1,-2 2,-3 0,0 0,-1 0,-1z"/>
  <path class="fil0 str0" d="M143 61c6,1 11,6 11,13 0,2 0,2 1,3 2,2 3,3 2,5 0,0 0,1 1,1 4,0 7,-3 8,-6 0,0 0,-1 0,-1 -2,-1 -3,-3 -3,-5 0,-1 0,-3 1,-4 1,-4 5,-3 5,0 0,1 -1,1 -1,2 -1,2 0,3 0,4 1,4 6,4 8,1 1,-1 1,-3 -1,-5 -1,-1 -2,-1 -3,-2 -5,-1 -4,-4 0,-5 2,0 5,1 7,4 1,2 2,6 0,9 -2,2 0,2 1,1 3,-2 5,-7 3,-10 -1,-1 -1,-2 0,-3 0,0 2,0 3,0 2,2 3,6 2,8 -1,3 -2,5 -5,7 -1,1 0,1 1,1 3,0 6,-2 7,-5 1,-3 3,-2 3,1 1,2 -1,4 -3,5 -2,1 -6,1 -8,1 -2,0 -2,1 -3,2 -2,8 -11,14 -19,14 -5,0 -11,-3 -15,-9"/>
  <path class="fil0 str0" d="M161 97c-1,2 -8,1 -10,-3 0,0 0,0 1,0 1,0 9,3 9,3z"/>
  <path class="fil0 str0" d="M159 83c-2,2 -3,8 0,11"/>
  <path class="fil0 str0" d="M158 83c-6,2 -6,10 -2,13"/>
  <path class="fil0 str0" d="M157 82c-2,-1 -3,0 -4,1"/>
  <path class="fil0 str0" d="M187 74c1,0 1,-1 1,-2 0,-2 -1,-2 -2,0 0,0 0,1 0,1 -1,2 0,2 1,1z"/>
  <path class="fil0 str0" d="M179 67c-1,0 -2,0 -1,1 0,1 0,1 0,2 1,1 1,1 2,1 1,-1 0,-4 -1,-4z"/>
  <path class="fil0 str0" d="M190 81c2,-1 3,-3 1,-3 -1,1 -2,1 -2,2 0,0 0,1 1,1z"/>
  <path class="fil0 str0" d="M164 72c0,-1 0,-2 0,-3 0,0 0,0 0,0 -1,-1 -1,2 -1,3 0,0 0,1 1,0z"/>
  <path class="fil0 str0" d="M183 79c-1,0 -1,2 0,2"/>
  <path class="fil0 str0" d="M183 78c-1,0 -2,0 -3,-2"/>
  <path class="fil0 str0" d="M184 79c-1,0 0,2 0,2"/>
  <path class="fil0 str0" d="M178 75c0,1 -2,0 -2,-1"/>
  <path class="fil0 str0" d="M169 75c0,1 -1,2 -2,2"/>
  <path class="fil0 str0" d="M167 84c0,0 1,-1 1,-1 1,-1 1,-1 0,-1 0,-1 -1,-1 -1,-1 0,-1 -1,-1 -1,0 -1,0 -1,1 -1,1 -1,1 -1,1 0,2 0,0 1,0 1,1 0,0 1,0 1,-1z"/>
  <path class="fil0 str0" d="M179 83c-1,0 -3,-1 -4,-1 0,0 -1,-1 0,-1 0,-1 0,-1 1,-1 1,0 2,0 4,0 0,0 0,2 -1,3z"/>
  <path class="fil0 str0" d="M151 78c1,-2 4,-1 4,-1"/>
  <path class="fil0 str0" d="M163 90c1,4 6,5 9,4"/>
  <path class="fil0 str0" d="M157 83c-1,-6 1,-11 2,-16 1,-5 1,-11 -2,-15 -1,-1 -3,-2 -6,-3"/>
  <path class="fil0 str0" d="M157 76c-1,0 -1,-1 -1,-2 -1,-4 1,-11 2,-12 1,-1 1,-1 1,0 0,1 1,3 1,4 0,0 1,1 1,2 1,2 2,6 0,8 -1,0 -2,0 -3,0 -1,0 -1,0 -1,0z"/>
  <path class="fil0 str0" d="M160 58c-1,0 -2,1 -3,1 -2,2 -4,-2 -2,-4 1,0 2,-1 3,-1 0,0 1,0 1,1 1,0 1,2 1,3 0,0 0,0 0,0z"/>
  <path class="fil0 str0" d="M157 66c-1,2 2,3 3,4 1,1 2,-1 1,-2"/>
  <path class="fil0 str0" d="M160 68c0,0 1,0 1,0 0,-1 -1,-1 -1,-1 0,0 0,0 0,1 0,0 0,0 0,0z"/>
  <path class="fil0 str0" d="M89 115c5,3 8,-2 5,-7 0,0 0,-1 -1,-2 -2,-3 2,-4 -3,-7 -3,-2 -4,-1 -6,0"/>
  <path class="fil0 str0" d="M110 97c1,0 2,0 4,0 3,-1 4,-1 7,0 2,0 4,-1 7,0 2,0 2,0 3,0 8,-1 17,-3 24,2"/>
  <path class="fil0 str0" d="M96 119c4,-1 4,-4 3,-7"/>
  <path class="fil0 str0" d="M103 113c1,1 1,4 -1,5"/>
  <path class="fil0 str0" d="M163 118c-2,0 -4,-2 -3,-5"/>
  <path class="fil0 str0" d="M153 118c-3,-1 -2,-4 -2,-5 -2,0 -7,0 -7,0 -2,1 -2,0 -2,1 -1,3 0,7 3,7 1,0 6,-3 8,-3z"/>
  <path class="fil0 str0" d="M154 103c-3,7 0,14 5,15"/>
  <path class="fil0 str0" d="M125 115c-5,-1 -7,4 -3,7 2,1 3,2 5,4 1,2 2,4 4,4 2,-1 3,-4 3,-6 0,-2 -2,-4 -3,-6 -2,-2 -4,-3 -6,-3z"/>
  <path class="fil0 str0" d="M117 98c4,2 5,7 5,10"/>
  <path class="fil0 str0" d="M109 92c3,1 3,4 3,5"/>
  <path class="fil0 str0" d="M130 97c1,1 2,2 2,4 0,0 0,1 -1,1 -2,0 -5,1 -5,-1 0,-1 -1,-4 -2,-4"/>
  <path class="fil0 str0" d="M153 101c0,0 0,1 0,2 0,0 0,0 -1,0 -1,0 -3,0 -4,0 0,0 -1,0 -1,0 0,-1 0,-2 1,-2"/>
 </g>
</svg>
