<?xml version="1.0" encoding="UTF-8"?>
<!DOCTYPE svg PUBLIC "-//W3C//DTD SVG 1.0//EN" "http://www.w3.org/TR/2001/REC-SVG-20010904/DTD/svg10.dtd">
<!-- Creator: CorelDRAW X8 -->
<svg xmlns="http://www.w3.org/2000/svg" xml:space="preserve" width="3010px" height="1000px" version="1.0" style="shape-rendering:geometricPrecision; text-rendering:geometricPrecision; image-rendering:optimizeQuality; fill-rule:evenodd; clip-rule:evenodd"
viewBox="0 0 2190 728"
 xmlns:xlink="http://www.w3.org/1999/xlink">
 <defs>
  <style type="text/css">
   <![CDATA[
    .str7 {stroke:aqua;stroke-width:0.859287;stroke-opacity:0.400000}
    .str5 {stroke:black;stroke-width:0.859287}
    .str1 {stroke:lime;stroke-width:0.859287}
    .str2 {stroke:aqua;stroke-width:0.859287}
    .str4 {stroke:#CCCCFF;stroke-width:0.859287}
    .str0 {stroke:fuchsia;stroke-width:0.859287}
    .str3 {stroke:white;stroke-width:0.859287}
    .str6 {stroke:lime;stroke-width:0.654776}
    .fil2 {fill:none}
    .fil9 {fill:none}
    .fil8 {fill:none}
    .fil3 {fill:aqua}
    .fil4 {fill:#5C9AE0}
    .fil1 {fill:#723BA3}
    .fil6 {fill:#E6E6E6}
    .fil7 {fill:white}
    .fil5 {fill:#4383CC;fill-opacity:0.501961}
    .fil0 {fill:url(#id0)}
   ]]>
  </style>
  <radialGradient id="id0" gradientUnits="userSpaceOnUse" gradientTransform="matrix(1.31579 -0 -0 0.437191 -449 237)" cx="1423.25" cy="421.966" r="832.051" fx="1423.25" fy="421.966">
   <stop offset="0" style="stop-opacity:1; stop-color:#66084F"/>
   <stop offset="1" style="stop-opacity:1; stop-color:#213640"/>
  </radialGradient>
 </defs>
 <g id="Camada_x0020_1">
  <metadata id="CorelCorpID_0Corel-Layer"/>
  <path class="fil0" d="M0 0l2190 0 0 728 -2190 0 0 -728z"/>
  <path class="fil1 str0" d="M964 207l-217 124 0 -173 217 -125 0 174z"/>
  <path class="fil2 str1" d="M931 210c-51,9 -67,40 -71,-18 -3,-48 6,-25 59,-58 91,-55 51,-7 77,32 18,27 -42,35 -57,37 -4,0 -4,6 -8,7z"/>
  <path class="fil2 str2" d="M809 358c-17,1 -33,-23 3,-27 9,-1 14,2 19,11 4,9 -21,16 -22,16z"/>
  <path class="fil2 str2" d="M850 332c-30,-1 -21,-22 8,-21 7,0 18,21 -8,21z"/>
  <path class="fil2 str2" d="M1724 437l102 41 -160 92m-32 18l-9 5m-32 18l-24 14 46 18"/>
  <path class="fil2 str3" d="M761 307c0,-27 -7,-38 20,-48 16,-6 2,32 5,37l-4 1"/>
  <path class="fil2 str3" d="M800 255c0,3 -1,31 2,31 2,-1 9,-5 13,-7 2,-1 10,-4 12,-6"/>
  <path class="fil2 str3" d="M828 252c0,2 0,19 4,15 1,-1 20,-10 7,-9 -8,1 5,-1 5,-9 -7,0 -9,2 -15,4"/>
  <path class="fil2 str3" d="M849 243c0,2 -1,13 0,13 4,4 7,-3 11,-4"/>
  <path class="fil2 str3" d="M863 250c0,0 0,-12 0,-12 1,-1 8,-10 10,-4 3,6 -16,6 1,9 0,0 0,0 0,1"/>
  <path class="fil2 str3" d="M883 226c1,2 2,20 2,17 0,-5 0,-9 -2,-13 0,-2 -12,4 -5,0 0,0 10,-7 10,-7"/>
  <path class="fil2 str3" d="M898 221c-8,1 -8,16 -3,16 5,0 6,-3 7,-8 1,-3 1,-7 -2,-8l-1 0"/>
  <path class="fil2 str2" d="M952 349c3,9 -34,22 -43,18 -33,-14 -9,-21 15,-40 6,-5 27,17 28,22z"/>
  <path class="fil2 str3" d="M748 229c-70,-70 -165,94 -29,78 11,-1 34,-28 27,-40"/>
  <path class="fil2 str3" d="M748 315c-2,-6 -4,5 -21,5 -33,0 -37,-20 -36,-49 1,-27 90,-56 81,19 0,0 -4,14 -7,7"/>
  <path class="fil2 str3" d="M986 213c-34,16 -10,-31 1,-7 1,2 0,7 -1,7z"/>
  <path class="fil2 str3" d="M762 497l-35 20 0 115 -106 60"/>
  <path class="fil2 str3" d="M471 547l47 -27m68 5l61 25 0 33 -181 104"/>
  <path class="fil2 str2" d="M312 415l210 -120 -99 -40 45 -27m54 -31l53 -30"/>
  <path class="fil2 str3" d="M626 707c-15,15 -13,13 -30,3 -13,-7 4,-40 31,-17 5,5 2,11 -1,14z"/>
  <path class="fil2 str3" d="M247 514c-28,2 -11,-41 19,-17 6,5 -1,18 -13,18"/>
  <path class="fil2 str3" d="M1712 554c2,-2 2,-5 2,-7 0,-12 -13,-15 -21,-9 -6,5 -8,12 -3,19 2,4 10,6 19,-1l153 63"/>
  <path class="fil2 str2" d="M1236 413l-121 70 231 94 122 -70 -232 -94z"/>
  <path class="fil2 str3" d="M1329 626c3,2 -24,-30 14,-23 10,2 14,23 -4,23l7 0"/>
  <ellipse class="fil3" cx="1615" cy="643" rx="7" ry="8"/>
  <ellipse class="fil3" cx="1335" cy="614" rx="7" ry="8"/>
  <ellipse class="fil3" cx="884" cy="626" rx="7" ry="8"/>
  <ellipse class="fil3" cx="312" cy="415" rx="7" ry="8"/>
  <ellipse class="fil3" cx="371" cy="528" rx="7" ry="8"/>
  <ellipse class="fil3" cx="466" cy="687" rx="7" ry="8"/>
  <ellipse class="fil3" cx="1699" cy="179" rx="7" ry="8"/>
  <ellipse class="fil3" cx="1862" cy="619" rx="7" ry="8"/>
  <path class="fil2 str2" d="M1699 179l-390 224 -62 -25m-57 -23l-128 -52"/>
  <path class="fil2 str3" d="M884 626l198 -114 20 8m132 54l165 66 34 -19m78 -45l61 -35"/>
  <ellipse class="fil3" cx="1572" cy="541" rx="7" ry="8"/>
  <path class="fil2 str3" d="M931 513l-40 23 -62 -25m-32 -13l-8 -3m-33 -13l-7 -3m-33 -14l-74 -30 131 -75m243 104l78 -44 77 31"/>
  <path class="fil2 str3" d="M1520 93l-165 94 13 5"/>
  <path class="fil2 str2" d="M1270 502l-30 17c-1,1 -1,2 -1,2 0,1 1,2 1,2l66 27c2,1 4,1 6,0l29 -17c1,-1 1,-2 1,-2 0,-1 0,-2 -1,-2l-66 -27c-2,-1 -3,-1 -5,0z"/>
  <path class="fil2 str2" d="M965 226l-216 124 136 55 217 -124 -137 -55z"/>
  <path class="fil2 str2" d="M1627 285l-86 49 125 50 85 -49 -124 -50z"/>
  <path class="fil2 str2" d="M1541 334l0 52 125 50 85 -49 0 -52"/>
  <path class="fil2 str3" d="M1497 549l-53 30 32 13 54 -30 -33 -13z"/>
  <path class="fil2 str3" d="M1530 583l-33 -13 -53 31"/>
  <path class="fil2 str3" d="M1444 579l0 22 32 13 54 -31 0 -21"/>
  <path class="fil2 str2" d="M495 168l-54 31 59 24 53 -31 -58 -24z"/>
  <path class="fil2 str2" d="M553 210l-58 -24 -54 31"/>
  <path class="fil2 str2" d="M441 199l0 18 59 24 53 -31 0 -18"/>
  <path class="fil2 str2" d="M1608 427l-18 11 16 6 17 -10 -15 -7z"/>
  <path class="fil2 str2" d="M1636 439l-18 10 16 6 18 -10 -16 -6z"/>
  <path class="fil2 str2" d="M1201 330l-31 18 56 23 32 -18 -57 -23z"/>
  <path class="fil2 str2" d="M1201 348l-31 19 56 23 32 -19 -57 -23z"/>
  <path class="fil2 str2" d="M1170 348l0 19 56 23 32 -19 0 -18"/>
  <path class="fil4 str2" d="M1238 398l231 94 0 -185 -231 -94 0 185z"/>
  <path class="fil2 str0" d="M1334 311c-12,0 -2,-77 -7,-91 -14,-40 91,10 110,15 14,4 13,101 -9,101 -31,0 -64,-21 -77,-8"/>
  <path class="fil2 str3" d="M1155 310c14,-46 -11,-151 19,-150 17,0 115,14 114,37 0,25 -1,147 -22,145 -2,0 -111,-31 -111,-32z"/>
  <path class="fil2 str2" d="M1453 226c-14,-14 -34,-6 -24,-24 1,0 23,-3 18,11l0 1"/>
  <path class="fil2 str2" d="M1420 201c-1,5 1,13 -9,6 -2,-1 0,-8 1,-8 3,0 5,1 7,1"/>
  <path class="fil2 str2" d="M1403 198c0,3 1,10 -4,7 -4,-2 -4,-2 -8,-4 -2,-1 -1,-2 0,-4 1,-4 9,1 11,1"/>
  <path class="fil2 str3" d="M1402 294c14,4 68,-9 88,46 10,27 -2,78 -47,78 -33,0 -63,-7 -66,-46 0,-3 2,-10 4,-12"/>
  <path class="fil2 str2" d="M1419 406c-26,-16 -70,-19 -103,-22 -17,-1 -6,43 -10,54 -1,4 2,31 5,33 9,4 91,30 93,23 5,-17 5,-63 11,-75 3,-5 -4,-7 4,-13z"/>
  <circle class="fil2 str2" transform="matrix(0.9265 -0.11511 0.0898907 0.723516 1606.75 557.741)" r="20"/>
  <path class="fil2 str2" d="M1588 564l0 28 0 10c0,9 13,14 21,13 10,-2 17,-9 16,-17l0 -35"/>
  <circle class="fil2 str2" transform="matrix(0.9265 -0.11511 0.0898907 0.723516 1647.23 534.845)" r="20"/>
  <path class="fil2 str2" d="M1629 541l0 38c0,10 12,14 20,13 10,-2 18,-9 17,-17l0 -35"/>
  <path class="fil2 str1" d="M977 432l-37 21 32 13 37 -21 -32 -13z"/>
  <path class="fil2 str1" d="M1009 485l-32 -13 -37 21"/>
  <path class="fil2 str1" d="M940 453l0 40 32 13 37 -21 0 -40"/>
  <path class="fil2 str2" d="M558 215l-12 7 19 7 12 -7 -19 -7z"/>
  <path class="fil2 str2" d="M540 226l-12 7 18 7 12 -7 -18 -7z"/>
  <path class="fil2 str2" d="M519 238l-12 6 18 8 12 -7 -18 -7z"/>
  <path class="fil2 str2" d="M940 500l-17 10 8 3 7 3 18 -10 -16 -6z"/>
  <path class="fil2 str2" d="M1008 461l-17 10 7 3 8 4 18 -11 -16 -6z"/>
  <path class="fil2 str2" d="M1669 335l-18 10 16 7 18 -10 -16 -7z"/>
  <path class="fil2 str2" d="M1695 346l-18 10 16 6 17 -10 -15 -6z"/>
  <path class="fil2 str2" d="M1722 357l-17 10 15 6 18 -10 -16 -6z"/>
  <path class="fil2 str2" d="M1750 368l-17 10 15 7 18 -10 -16 -7z"/>
  <path class="fil2 str1" d="M900 136c-21,13 -18,-6 -17,-20 1,-11 6,-12 18,-18 33,-18 59,-33 94,-49 35,-17 28,26 13,33 -38,17 -71,31 -108,54z"/>
  <path class="fil2 str2" d="M1666 384l0 52"/>
  <path class="fil2 str2" d="M500 223l0 18"/>
  <path class="fil2 str3" d="M1476 592l0 22"/>
  <path class="fil2 str1" d="M972 466l0 40"/>
  <path class="fil2 str2" d="M1226 371l0 19"/>
  <path class="fil2 str2" d="M1756 380l35 15 63 0 137 -79"/>
  <path class="fil2 str2" d="M1433 484l-14 8 29 12 14 -9 -29 -11z"/>
  <path class="fil2 str2" d="M945 231l-34 20 22 8 33 -19 -21 -9z"/>
  <path class="fil2 str2" d="M371 528l71 -40"/>
  <path class="fil2 str2" d="M453 474l-18 11 16 6 18 -10 -16 -7z"/>
  <path class="fil2 str4" d="M902 449c-32,-23 -46,-6 20,-52 28,-19 102,-52 124,-71 20,-17 80,19 -5,49 -3,1 -76,40 -86,46 -7,3 -53,29 -53,28z"/>
  <path class="fil2 str2" d="M1643 450l94 39 -72 41m-36 20l-4 3m-37 21l-122 70 177 72"/>
  <path class="fil2 str3" d="M1401 545l45 18 131 -75 -89 -36 56 -33"/>
  <path class="fil2 str2" d="M1443 608l-17 10 8 3 7 3 18 -10 -16 -6z"/>
  <path class="fil2 str2" d="M1713 425l-14 8 19 8 14 -8 -19 -8z"/>
  <path class="fil2 str2" d="M1588 584c0,9 13,13 21,12 10,-1 17,-8 16,-16"/>
  <path class="fil2 str2" d="M1629 561c0,9 12,14 20,13 10,-2 18,-9 17,-17"/>
  <ellipse class="fil3" cx="638" cy="634" rx="7" ry="8"/>
  <path class="fil2 str1" d="M553 447l-36 21 32 13 37 -21 -33 -13z"/>
  <path class="fil2 str1" d="M586 500l-33 -13 -36 21"/>
  <path class="fil2 str1" d="M517 468l0 40 32 13 37 -21 0 -40"/>
  <path class="fil2 str1" d="M549 481l0 40"/>
  <path class="fil2 str2" d="M574 514l-14 8 19 7 14 -8 -19 -7z"/>
  <path class="fil5" d="M843 216l-66 37c-3,2 -6,1 -6,-2l0 -135c0,-3 1,-5 4,-7l65 -37c3,-1 6,1 6,3l0 136c0,3 0,4 -3,5z"/>
  <path class="fil6 str5" d="M1032 268c0,8 3,33 3,47 0,32 -6,16 -8,-4 -4,-33 -13,25 -15,27 -7,6 -3,-26 -3,-30 0,-9 3,-23 -2,-30 -4,-5 -29,-64 -12,-51 18,13 9,31 27,29 2,0 20,-77 21,-30 0,5 -11,37 -11,42z"/>
  <path class="fil7 str5" d="M1011 257c4,4 16,3 18,-8 2,-12 -2,-19 -12,-17 -5,1 -9,7 -10,13 -1,4 0,11 4,12z"/>
  <path class="fil2 str2" d="M423 428l-25 -10 -141 81"/>
  <path class="fil2 str2" d="M679 219l-52 30 -56 -23"/>
  <path class="fil2 str2" d="M786 219l-66 38 0 67 -120 68"/>
  <path class="fil8 str2" d="M843 216l-66 37c-3,2 -6,1 -6,-2l0 -135c0,-3 1,-5 4,-7l65 -37c3,-1 6,1 6,3l0 136c0,3 0,4 -3,5z"/>
  <path class="fil2 str1" d="M1121 510l-90 51 113 46 90 -52 -113 -45z"/>
  <path class="fil2 str1" d="M1031 561l0 37 113 45 90 -51 0 -37"/>
  <path class="fil2 str2" d="M1550 389l0 8 116 47 79 -46 0 -7"/>
  <path class="fil2 str2" d="M1745 390l-116 -47 -79 46"/>
  <path class="fil2 str3" d="M1633 482l-90 -37 27 -15"/>
  <path class="fil2 str1" d="M1144 607l0 36"/>
  <path class="fil2 str1" d="M1074 592l0 17 -31 -12 0 -18 31 13z"/>
  <path class="fil2 str1" d="M1652 435l-37 21 32 13 37 -21 -32 -13z"/>
  <path class="fil2 str1" d="M1684 488l-32 -13 -37 21"/>
  <path class="fil2 str1" d="M1615 456l0 40 32 13 37 -21 0 -40"/>
  <path class="fil2 str1" d="M1647 469l0 40"/>
  <path class="fil2 str3" d="M1653 470l-49 29 43 17 50 -28 -44 -18z"/>
  <path class="fil2 str2" d="M1554 406l-17 10 15 6 18 -10 -16 -6z"/>
  <path class="fil2 str2" d="M1580 416l-18 10 16 7 18 -10 -16 -7z"/>
  <path class="fil2 str2" d="M1236 600l-12 7 18 7 12 -6 -18 -8z"/>
  <path class="fil2 str2" d="M1217 611l-12 7 18 7 12 -7 -18 -7z"/>
  <path class="fil2 str2" d="M1197 622l-12 7 18 8 12 -7 -18 -8z"/>
  <path class="fil2 str2" d="M1176 634l-12 7 19 7 11 -6 -18 -8z"/>
  <path class="fil2 str3" d="M1229 622l92 37 -49 28"/>
  <path class="fil2 str3" d="M1189 645l33 13 -38 22"/>
  <ellipse class="fil3" cx="1411" cy="675" rx="7" ry="8"/>
  <path class="fil2 str3" d="M1248 611l162 66"/>
  <ellipse class="fil3" cx="1182" cy="681" rx="7" ry="8"/>
  <path class="fil2 str1" d="M1234 592l-113 -46 -90 52"/>
  <g id="_1029421008">
   <path class="fil2 str6" d="M1231 429l-10 6c0,0 0,1 1,1l11 5c0,0 1,0 2,-1l9 -5c1,0 1,-1 0,-1l-11 -5c0,0 -1,0 -2,0z"/>
   <path class="fil2 str6" d="M1250 436l-10 6c-1,1 -1,1 0,2l11 4c1,0 1,0 2,0l10 -6c0,0 0,-1 0,-1l-12 -5c0,0 -1,0 -1,0z"/>
   <path class="fil2 str6" d="M1268 444l-10 6c0,0 0,1 0,1l11 4c1,1 2,1 2,0l10 -5c1,-1 1,-1 0,-2l-11 -4c-1,0 -1,0 -2,0z"/>
   <path class="fil2 str6" d="M1286 451l-10 6c0,0 0,1 0,1l12 5c0,0 1,0 2,0l9 -6c1,0 1,-1 0,-1l-11 -5c-1,0 -1,0 -2,0z"/>
   <path class="fil2 str6" d="M1305 459l-10 5c-1,1 -1,2 0,2l11 4c1,1 1,0 2,0l10 -5c0,-1 0,-2 0,-2l-12 -4c0,-1 -1,-1 -1,0z"/>
   <path class="fil2 str6" d="M1323 466l-10 6c-1,0 -1,1 0,1l11 5c1,0 2,0 2,0l10 -6c0,0 0,-1 0,-1l-11 -5c-1,0 -2,0 -2,0z"/>
   <path class="fil2 str6" d="M1341 474l-10 5c0,1 0,1 0,2l11 4c1,0 2,0 2,0l10 -6c1,0 1,-1 0,-1l-11 -5c-1,0 -1,0 -2,1z"/>
   <path class="fil2 str6" d="M1360 481l-10 6c-1,0 -1,1 0,1l11 5c0,0 1,0 2,-1l10 -5c0,-1 0,-1 -1,-2l-11 -4c0,0 -1,0 -1,0z"/>
   <path class="fil2 str6" d="M1378 488l-10 6c-1,0 -1,1 0,1l11 5c1,0 1,0 2,0l10 -6c0,0 0,-1 0,-1l-11 -5c-1,0 -2,0 -2,0z"/>
   <path class="fil2 str6" d="M1396 496l-10 6c0,0 0,1 0,1l11 4c1,1 2,1 2,0l10 -5c1,-1 1,-2 0,-2l-11 -4c-1,-1 -1,-1 -2,0z"/>
   <path class="fil2 str6" d="M1414 503l-10 6c0,0 0,1 1,1l11 5c0,0 1,0 2,0l9 -6c1,0 1,-1 0,-1l-11 -5c0,0 -1,0 -2,0z"/>
  </g>
  <g id="_1029421776">
   <path class="fil2 str6" d="M1214 439l-10 6c-1,0 -1,1 0,1l11 5c1,0 1,0 2,0l10 -6c0,0 0,-1 0,-1l-12 -5c0,0 -1,0 -1,0z"/>
   <path class="fil2 str6" d="M1232 447l-10 5c0,1 0,1 0,2l11 4c1,0 2,0 2,0l10 -6c1,0 1,-1 0,-1l-11 -4c-1,-1 -1,-1 -2,0z"/>
   <path class="fil2 str6" d="M1250 454l-10 6c0,0 0,1 0,1l12 5c0,0 1,0 2,-1l9 -5c1,0 1,-1 0,-1l-11 -5c-1,0 -1,0 -2,0z"/>
   <path class="fil2 str6" d="M1269 461l-10 6c-1,0 -1,1 0,2l11 4c1,0 1,0 2,0l10 -6c0,0 0,-1 0,-1l-12 -5c0,0 -1,0 -1,0z"/>
   <path class="fil2 str6" d="M1287 469l-10 6c-1,0 -1,1 0,1l11 4c1,1 2,1 2,0l10 -5c1,-1 0,-1 0,-2l-11 -4c-1,0 -2,0 -2,0z"/>
   <path class="fil2 str6" d="M1305 476l-10 6c0,0 0,1 0,1l11 5c1,0 2,0 2,0l10 -6c1,0 1,-1 0,-1l-11 -5c-1,0 -1,0 -2,0z"/>
   <path class="fil2 str6" d="M1324 484l-10 5c-1,1 -1,2 0,2l11 4c0,1 1,0 2,0l10 -6c0,0 0,-1 0,-1l-12 -4c0,-1 -1,-1 -1,0z"/>
   <path class="fil2 str6" d="M1342 491l-10 6c-1,0 -1,1 0,1l11 5c1,0 1,0 2,0l10 -6c0,0 0,-1 0,-1l-11 -5c-1,0 -2,0 -2,0z"/>
   <path class="fil2 str6" d="M1360 499l-10 5c0,1 0,1 0,2l11 4c1,0 2,0 2,0l10 -6c1,0 1,-1 0,-1l-11 -5c-1,0 -1,0 -2,1z"/>
   <path class="fil2 str6" d="M1378 506l-10 6c0,0 0,1 1,1l11 4c0,1 1,1 2,0l10 -5c0,-1 0,-1 -1,-2l-11 -4c0,0 -1,0 -2,0z"/>
   <path class="fil2 str6" d="M1397 513l-10 6c-1,0 -1,1 0,1l11 5c1,0 1,0 2,0l10 -6c0,0 0,-1 0,-1l-12 -5c0,0 -1,0 -1,0z"/>
  </g>
  <g id="_1029425584">
   <path class="fil2 str6" d="M1196 449l-10 6c0,0 0,1 0,1l11 5c1,0 2,0 2,0l10 -6c1,0 1,-1 0,-1l-11 -5c-1,0 -1,0 -2,0z"/>
   <path class="fil2 str6" d="M1214 457l-10 5c0,1 0,2 0,2l12 4c0,1 1,1 2,0l9 -5c1,-1 1,-2 0,-2l-11 -4c0,-1 -1,-1 -2,0z"/>
   <path class="fil2 str6" d="M1233 464l-10 6c-1,0 -1,1 0,1l11 5c1,0 1,0 2,0l10 -6c0,0 0,-1 0,-1l-12 -5c0,0 -1,0 -1,0z"/>
   <path class="fil2 str6" d="M1251 472l-10 5c-1,1 0,1 0,2l11 4c1,0 2,0 2,0l10 -6c1,0 1,-1 0,-1l-11 -5c-1,0 -1,0 -2,1z"/>
   <path class="fil2 str6" d="M1269 479l-10 6c0,0 0,1 0,1l12 5c0,0 1,0 2,-1l9 -5c1,-1 1,-1 0,-2l-11 -4c-1,0 -1,0 -2,0z"/>
   <path class="fil2 str6" d="M1288 486l-10 6c-1,0 -1,1 0,1l11 5c1,0 1,0 2,0l10 -6c0,0 0,-1 0,-1l-12 -5c0,0 -1,0 -1,0z"/>
   <path class="fil2 str6" d="M1306 494l-10 6c-1,0 -1,1 0,1l11 4c1,1 1,1 2,0l10 -5c0,-1 0,-1 0,-2l-11 -4c-1,0 -2,0 -2,0z"/>
   <path class="fil2 str6" d="M1324 501l-10 6c0,0 0,1 0,1l11 5c1,0 2,0 2,0l10 -6c1,0 1,-1 0,-1l-11 -5c-1,0 -1,0 -2,0z"/>
   <path class="fil2 str6" d="M1343 509l-10 5c-1,1 -1,1 0,2l11 4c0,0 1,0 2,0l10 -6c0,0 0,-1 -1,-1l-11 -4c0,-1 -1,-1 -1,0z"/>
   <path class="fil2 str6" d="M1361 516l-10 6c-1,0 -1,1 0,1l11 5c1,0 1,0 2,-1l10 -5c0,0 0,-1 0,-1l-11 -5c-1,0 -2,0 -2,0z"/>
   <path class="fil2 str6" d="M1379 523l-10 6c0,1 0,1 0,2l11 4c1,0 2,0 2,0l10 -6c1,0 1,-1 0,-1l-11 -5c-1,0 -1,0 -2,0z"/>
  </g>
  <path class="fil2 str3" d="M593 488l93 38 0 80 -48 27"/>
  <circle class="fil2 str2" transform="matrix(0.9265 -0.11511 0.0898907 0.723516 734.68 445.447)" r="20"/>
  <path class="fil2 str2" d="M716 455l0 7 0 10c0,9 13,13 20,12 11,-1 18,-9 17,-17l0 -13"/>
  <circle class="fil2 str2" transform="matrix(0.9265 -0.11511 0.0898907 0.723516 774.899 461.735)" r="20"/>
  <path class="fil2 str2" d="M756 471l0 7 0 10c0,9 13,13 21,12 10,-1 17,-8 16,-16l0 -14"/>
  <circle class="fil2 str2" transform="matrix(0.9265 -0.11511 0.0898907 0.723516 815.285 478.09)" r="20"/>
  <path class="fil2 str2" d="M797 488l0 7 0 9c0,10 12,14 20,13 10,-1 18,-9 17,-17l0 -13"/>
  <path class="fil2 str2" d="M1760 417l29 12 88 0 71 -41"/>
  <path class="fil2 str2" d="M1729 359l25 -14 55 22 26 0"/>
  <ellipse class="fil3" cx="1948" cy="388" rx="7" ry="8"/>
  <path class="fil2 str2" d="M2017 314c-15,15 -13,13 -30,3 -12,-7 4,-40 31,-17 5,4 2,11 -1,14z"/>
  <path class="fil2 str2" d="M1748 405l-14 8 19 8 14 -8 -19 -8z"/>
  <ellipse class="fil3" cx="890" cy="537" rx="7" ry="8"/>
  <path class="fil2 str3" d="M989 521l111 -63 34 14"/>
  <path class="fil2 str2" d="M1179 555l-48 27c-12,7 2,20 17,12l53 -30c5,-3 2,-8 -3,-10 -5,-3 -12,-3 -19,1z"/>
  <path class="fil2 str2" d="M624 402l-100 -40 -125 71 99 41 126 -72z"/>
  <path class="fil2 str2" d="M519 305l-13 7 111 45 13 -7 -111 -45z"/>
  <path class="fil2 str2" d="M506 312l0 9 111 45 0 -9"/>
  <path class="fil2 str2" d="M490 322l-13 7 110 45 14 -7 -111 -45z"/>
  <path class="fil2 str2" d="M477 329l0 9 110 45 0 -9"/>
  <path class="fil2 str2" d="M460 339l-13 7 111 45 13 -7 -111 -45z"/>
  <path class="fil2 str2" d="M447 346l0 9 111 45 0 -9"/>
  <path class="fil2 str2" d="M430 356l-13 7 111 45 13 -7 -111 -45z"/>
  <path class="fil2 str2" d="M417 363l0 9 111 45 0 -9"/>
  <path class="fil2 str2" d="M401 373l-13 7 110 45 14 -7 -111 -45z"/>
  <path class="fil2 str2" d="M388 380l0 45 110 45 0 -45"/>
  <path class="fil2 str2" d="M498 470l132 -76 0 -44"/>
  <path class="fil2 str2" d="M528 417l-16 10 0 -9"/>
  <path class="fil2 str2" d="M558 400l-17 10 0 -9"/>
  <path class="fil2 str2" d="M587 383l-16 10 0 -9"/>
  <path class="fil2 str2" d="M617 366l-16 9 0 -8"/>
  <path class="fil2 str2" d="M399 433l0 14 99 40 20 -11m50 -28l56 -32 0 -14"/>
  <path class="fil2 str2" d="M506 321l-7 4m-22 13l-8 4m-22 13l-8 4m-22 13l-7 4"/>
  <g id="_1029436144">
   <path class="fil2 str2" d="M755 370l0 11"/>
   <path class="fil2 str2" d="M739 364l-17 10c-1,0 -1,1 -1,1 0,1 1,1 1,2l12 4c0,1 2,1 3,0l17 -10c0,0 1,-1 1,-1 0,-1 -1,-1 -1,-1l-12 -5c-1,-1 -2,0 -3,0z"/>
   <path class="fil2 str2" d="M745 376l-15 -6"/>
   <path class="fil2 str2" d="M745 376l0 11"/>
   <path class="fil2 str2" d="M735 382l0 11"/>
   <path class="fil2 str2" d="M721 375l0 11"/>
   <path class="fil2 str2" d="M739 371l-17 10c-1,1 -1,1 -1,2 0,0 1,1 1,1l12 5c0,0 2,0 3,-1l17 -10c0,0 1,0 1,-1 0,-1 -1,-1 -1,-1l-12 -5c-1,0 -2,0 -3,0z"/>
  </g>
  <g id="_1029437904">
   <path class="fil2 str3" d="M378 376l0 11"/>
   <path class="fil2 str3" d="M362 371l-17 9c0,1 -1,1 -1,2 0,0 1,1 1,1l12 5c1,0 2,0 3,-1l17 -9c1,-1 1,-1 1,-2 0,0 -1,-1 -1,-1l-11 -5c-2,0 -3,0 -4,1z"/>
   <path class="fil2 str3" d="M369 382l-16 -6"/>
   <path class="fil2 str3" d="M369 382l0 11"/>
   <path class="fil2 str3" d="M358 388l0 11"/>
   <path class="fil2 str3" d="M344 382l0 11"/>
   <path class="fil2 str3" d="M362 378l-17 10c0,0 -1,1 -1,1 0,1 1,1 1,1l12 5c1,0 2,0 3,0l17 -10c1,0 1,-1 1,-2 0,0 -1,-1 -1,-1l-11 -4c-2,-1 -3,-1 -4,0z"/>
  </g>
  <g id="_1029441584">
   <path class="fil2 str2" d="M960 581l0 11"/>
   <path class="fil2 str2" d="M945 576l-17 10c-1,0 -1,0 -1,1 0,0 0,1 1,1l11 5c1,0 2,0 3,0l18 -10c0,-1 0,-1 0,-2 0,0 0,-1 -1,-1l-11 -5c-1,0 -2,0 -3,1z"/>
   <path class="fil2 str2" d="M951 587l-16 -6"/>
   <path class="fil2 str2" d="M951 587l0 11"/>
   <path class="fil2 str2" d="M941 593l0 11"/>
   <path class="fil2 str2" d="M927 587l0 11"/>
   <path class="fil2 str2" d="M945 583l-17 10c-1,0 -1,1 -1,1 0,1 0,1 1,1l11 5c1,0 2,0 3,0l18 -10c0,0 0,-1 0,-1 0,-1 0,-1 -1,-2l-11 -4c-1,-1 -2,-1 -3,0z"/>
  </g>
  <g id="_1029443536">
   <path class="fil2 str3" d="M1810 486l0 11"/>
   <path class="fil2 str3" d="M1795 480l-17 10c-1,0 -1,1 -1,1 0,1 0,1 1,2l11 4c1,1 3,0 3,0l18 -10c0,0 0,-1 0,-1 0,-1 0,-1 0,-2l-12 -4c-1,-1 -2,-1 -3,0z"/>
   <path class="fil2 str3" d="M1801 492l-16 -7"/>
   <path class="fil2 str3" d="M1801 492l0 11"/>
   <path class="fil2 str3" d="M1791 498l0 11"/>
   <path class="fil2 str3" d="M1777 491l0 11"/>
   <path class="fil2 str3" d="M1795 487l-17 10c-1,0 -1,1 -1,2 0,0 0,1 1,1l11 4c1,1 3,1 3,0l18 -10c0,0 0,0 0,-1 0,-1 0,-1 0,-1l-12 -5c-1,0 -2,0 -3,0z"/>
  </g>
  <path class="fil9 str7" d="M1270 510l-30 17c-1,0 -1,1 -1,2 0,0 1,1 1,2l66 26c2,1 4,1 6,0l29 -17c1,0 1,-1 1,-2 0,-1 0,-2 -1,-2l-66 -27c-2,0 -3,0 -5,1z"/>
 </g>
</svg>
