<?xml version="1.0" encoding="UTF-8"?>
<!DOCTYPE svg PUBLIC "-//W3C//DTD SVG 1.1//EN" "http://www.w3.org/Graphics/SVG/1.1/DTD/svg11.dtd">
<!-- Creator: CorelDRAW X8 -->
<svg xmlns="http://www.w3.org/2000/svg" xml:space="preserve" width="254.847mm" height="84.6666mm" version="1.1" style="shape-rendering:geometricPrecision; text-rendering:geometricPrecision; image-rendering:optimizeQuality; fill-rule:evenodd; clip-rule:evenodd"
viewBox="0 0 3414 1134"
 xmlns:xlink="http://www.w3.org/1999/xlink">
 <defs>
  <style type="text/css">
   <![CDATA[
    .str5 {stroke:#7F7F7F;stroke-width:2.41153}
    .str0 {stroke:#373435;stroke-width:1.02088}
    .str2 {stroke:black;stroke-width:1.02088}
    .str1 {stroke:#423B2E;stroke-width:1.02088}
    .str3 {stroke:#CCCCCC;stroke-width:1.02088}
    .str4 {stroke:#E5E5E5;stroke-width:1.02088}
    .fil18 {fill:none}
    .fil33 {fill:#D2B367}
    .fil9 {fill:black}
    .fil11 {fill:#191919}
    .fil17 {fill:#1A1A1A}
    .fil0 {fill:#1F1F1F}
    .fil1 {fill:#2B2B2B}
    .fil14 {fill:#423B2E}
    .fil19 {fill:#474747}
    .fil6 {fill:#4C4C4C}
    .fil26 {fill:#5E533C}
    .fil25 {fill:#665A41}
    .fil28 {fill:#6B5D42}
    .fil15 {fill:#75674A}
    .fil13 {fill:#807154}
    .fil21 {fill:#877756}
    .fil24 {fill:#888F91}
    .fil27 {fill:#948669}
    .fil16 {fill:#9C8E72}
    .fil31 {fill:#B0A286}
    .fil4 {fill:#B2B2B2}
    .fil10 {fill:#CCCCCC}
    .fil12 {fill:#CCCCCC}
    .fil22 {fill:#E4EEF0}
    .fil8 {fill:#E5E5E5}
    .fil30 {fill:#E6E6E6}
    .fil5 {fill:white}
    .fil7 {fill:#393939}
    .fil32 {fill:#D2B367;fill-rule:nonzero}
    .fil20 {fill:black;fill-rule:nonzero}
    .fil3 {fill:#2B2B2B;fill-rule:nonzero}
    .fil29 {fill:#423B2E;fill-rule:nonzero}
    .fil23 {fill:#B2B2B2;fill-rule:nonzero}
    .fil2 {fill:#2B2B2B;fill-rule:nonzero}
   ]]>
  </style>
 </defs>
 <g id="Camada_x0020_1">
  <metadata id="CorelCorpID_0Corel-Layer"/>
  <rect class="fil0" width="3414" height="1134"/>
  <path class="fil1" d="M2973 155c174,9 272,52 228,212 -2,10 -3,19 -4,26 -1,12 -9,23 -25,21 -9,-1 -19,-6 -31,-21l-176 -227c-6,-7 0,-12 8,-11z"/>
  <path class="fil1" d="M2890 157l213 277c24,31 37,39 61,43 -1,25 -10,51 -25,69 -11,15 -23,22 -38,28 -24,10 -54,10 -74,-16l-288 -381c53,-16 129,-20 151,-20z"/>
  <path class="fil2" d="M3329 1134c-40,-64 -9,-119 28,-173 16,-25 35,-50 49,-75 -17,52 -33,73 -51,109 -12,26 -18,52 -18,75 1,25 9,47 25,64l-33 0z"/>
  <path class="fil2" d="M3321 629c-41,138 -158,167 -247,184 32,-17 67,-31 100,-46 93,-41 73,-36 147,-138z"/>
  <path class="fil2" d="M2671 619c101,78 416,77 518,-1 31,-23 46,-56 57,-91 9,-31 16,-66 22,-103 6,-44 10,-90 12,-132 2,-50 -4,-88 -23,-116 -19,-27 -52,-47 -105,-63 -33,-9 -71,-17 -111,-21 -79,-10 -161,-10 -240,0 -35,4 -68,10 -97,18 -54,15 -89,31 -110,54 -20,22 -29,50 -30,89 -2,56 7,150 32,233 17,57 42,108 75,133zm652 -207c20,-6 57,-14 86,-10l0 65c-37,-1 -70,4 -100,27 -3,17 -7,33 -12,48 -14,47 -36,88 -75,118 -121,93 -464,94 -584,2 -43,-33 -73,-94 -94,-161 -26,-88 -36,-189 -34,-250 2,-52 15,-91 44,-123 29,-31 72,-52 136,-70 32,-8 68,-15 104,-19 83,-11 171,-11 253,-1 42,5 83,13 120,24 65,19 108,46 134,84 26,38 35,86 32,148 -1,38 -5,78 -10,118z"/>
  <path class="fil2" d="M2328 193c118,-17 196,34 196,124l-3 45c-8,-113 -60,-165 -193,-169z"/>
  <path class="fil3" d="M3402 158c-4,-66 -38,-124 -92,-158l44 0c27,20 54,71 51,119l-3 39z"/>
  <path class="fil3" d="M3302 1015c-11,29 -4,47 9,65 10,16 18,32 18,50 -46,-43 -47,-94 -20,-159l-7 44z"/>
  <path class="fil3" d="M2933 1021c26,46 61,54 74,113l-15 0c-16,-61 -43,-62 -59,-113z"/>
  <path class="fil3" d="M2528 206c-18,-82 -38,-117 -119,-149 -38,-14 -77,-31 -106,-57l21 0c28,20 63,33 95,45 58,23 100,49 116,122 2,12 -4,27 -7,39z"/>
  <path class="fil3" d="M3320 701c-12,76 -70,114 -125,128 48,-28 99,-67 124,-151l1 23z"/>
  <path class="fil2" d="M3121 757c-59,40 -169,55 -242,17 65,16 135,8 179,-7 18,-6 35,-9 63,-10z"/>
  <path class="fil3" d="M2473 677c73,-29 138,-7 173,30 -42,-24 -112,-42 -197,-16l24 -14z"/>
  <path class="fil1" d="M2464 126c-43,-55 -126,-50 -204,-101 62,61 153,60 204,101z"/>
  <path class="fil3" d="M3346 52c59,46 66,110 54,159 -3,-51 -14,-110 -74,-170l20 11z"/>
  <path class="fil3" d="M3230 770c25,-23 54,-47 76,-113 -5,60 -41,97 -76,113z"/>
  <path class="fil2" d="M2397 176c58,5 99,33 111,91 1,5 -14,-19 -18,-27 -14,-30 -43,-52 -93,-64z"/>
  <path class="fil1" d="M2974 1134c-49,-147 -222,-43 -289,-155 28,68 97,69 158,77 38,5 68,14 80,51 -11,-3 -33,-3 -40,17 16,-17 56,-16 66,10l25 0z"/>
  <path class="fil3" d="M2639 702c-32,-18 -45,-42 -95,-46 42,-3 75,14 95,46z"/>
  <path class="fil2" d="M2470 30c57,29 68,74 56,132 -1,6 -9,-21 -8,-30 1,-33 -13,-72 -48,-102z"/>
  <path class="fil3" d="M2936 1090c-30,-21 -41,-46 -91,-54 43,0 74,20 91,54z"/>
  <polygon class="fil4" points="1037,1006 1033,960 981,887 1011,857 1084,847 1088,895 1051,975 1045,1005 1043,1007 1039,1007 "/>
  <path class="fil5" d="M1114 819c2,0 4,0 7,1 6,0 8,1 10,10 0,1 -15,6 -18,6 0,2 0,3 2,4 10,4 18,14 24,18 5,2 5,3 5,9 -5,31 -26,51 -45,68 -20,18 -37,37 -49,62 -3,6 -6,14 -6,0 0,-15 0,-39 0,-59 0,-6 1,-11 3,-18 2,-4 2,-7 2,-11 0,-6 2,-12 5,-18 0,-1 1,-2 1,-4 4,-10 5,-21 2,-31 -1,-4 -2,-7 -3,-11 -2,-9 -1,-19 -6,-26 -4,-6 62,8 66,0z"/>
  <path class="fil5" d="M968 819c-2,0 -4,0 -6,1 -7,0 -15,2 -17,11 0,1 21,5 24,5 1,2 0,3 -2,4 -10,4 -20,14 -24,18 -2,1 -6,3 -7,6 -1,2 3,14 10,26 14,25 35,44 55,65 14,14 26,29 34,48 3,7 5,2 5,-8 0,-14 0,-37 0,-53 0,-11 1,-21 1,-32 0,-4 0,-8 -1,-13 -1,-3 -1,-5 0,-8 2,-5 1,-8 0,-12 -1,-2 -1,-4 -1,-6 1,-15 -5,-25 -9,-36 -3,-6 -19,-19 -15,-24 5,-6 -43,16 -47,8z"/>
  <path class="fil6" d="M1053 887c15,9 28,20 47,20 18,0 33,-11 34,-32 0,-3 1,-10 1,-13 0,-10 -5,-15 -14,-17 -30,-8 -69,-12 -98,-2 -5,1 -27,11 -41,22 -5,4 -9,10 -10,16 0,7 5,16 15,16 13,1 24,-6 35,-11 10,-5 19,-7 31,1z"/>
  <path class="fil7" d="M1038 811c-10,3 -7,1 -16,-3 -11,-5 -58,-16 -65,-13 -6,3 -7,7 -8,11 0,6 -2,15 -2,21 -1,4 2,8 5,10 4,2 8,2 13,1 1,0 2,0 3,1 0,1 0,2 -2,2 -7,1 -13,6 -12,14 0,1 3,19 3,21 4,21 31,17 46,10 14,-7 27,-18 42,-19 2,-1 5,-1 8,0 7,1 14,4 20,8 12,6 29,21 45,13 3,-1 5,-4 6,-7l4 -19c2,-7 0,-9 -2,-12 -2,-2 -3,-4 -3,-6 8,-2 11,-8 11,-14 3,-28 -25,-31 -55,-28 -15,2 -33,9 -41,9z"/>
  <polygon class="fil8 str0" points="863,278 943,227 1124,227 1215,293 1215,657 863,657 "/>
  <path class="fil9" d="M1110 579c-5,-10 -5,-22 1,-29 -2,9 -3,17 2,28 -1,0 -2,1 -3,1z"/>
  <path class="fil10" d="M1118 562c6,-3 11,-9 12,-17 1,-5 -1,-12 -6,-12 -34,3 -54,-4 -60,-41 -3,-12 -3,-23 -14,-30 -2,-1 -2,-1 -3,-2 -3,-4 -10,-7 -18,-1 -2,2 -4,1 -5,0 -6,-7 -3,-20 -1,-28 2,-12 6,-31 3,-46 -4,-21 -22,-30 -42,-27 -8,1 -8,-3 -6,-6 8,-10 31,-10 41,-2 2,3 4,3 6,2 3,-3 3,-7 2,-12 -2,-13 -6,-26 -4,-39 1,-13 8,-25 26,-31 12,-3 24,0 36,0 19,0 61,-13 71,4 5,9 15,16 19,29 4,9 1,23 5,31 16,29 30,53 28,89 0,9 -1,31 -4,44 -2,7 -1,11 1,14 2,4 4,8 5,13 3,11 3,18 -1,26 -4,10 -14,18 -28,24 -15,8 -17,26 -25,40 -8,14 -24,-9 -37,-12l-1 -10z"/>
  <path class="fil11" d="M1032 814c-12,-1 -21,5 -20,14l4 23c1,10 12,15 24,13 1,0 1,0 2,0 8,4 15,4 23,-2 1,-1 2,-1 3,-1 9,-1 11,-5 12,-12l3 -15c2,-12 -6,-18 -18,-18 -3,0 -5,0 -7,-1 -7,-4 -14,-3 -20,-2 -2,1 -4,1 -6,1z"/>
  <path class="fil12" d="M921 295l0 41c0,6 1,12 1,17 2,17 -5,21 -17,25 -5,1 -10,4 -14,9 -2,4 -5,4 -9,6 -3,1 -6,2 -8,5l2 -76 18 -25 27 -2z"/>
  <path class="fil13" d="M838 748c-24,4 -41,-16 -36,-36 1,-3 2,-4 5,-3 4,1 11,2 16,1 1,0 1,-1 1,-1 2,0 3,0 4,0 3,-2 5,-5 6,-9 0,0 0,-1 -1,-1 -10,1 -19,-1 -25,-8 -1,-2 -2,-3 -3,-5 -3,-7 -3,-15 0,-23 1,-3 2,-3 6,-1 15,6 39,4 38,-18 0,-2 0,-2 -2,-2 -14,6 -25,-2 -24,-13 0,-1 0,-4 3,-3 6,2 19,0 19,-8 0,-1 -1,-1 -1,0 -10,3 -19,-1 -23,-7 -2,-4 -3,-11 -1,-16 1,-1 2,-2 3,-2 21,8 41,-2 36,-27 0,-2 -1,-2 -2,-1 -7,5 -20,1 -19,-10 0,-3 2,-2 5,-2 19,-1 21,-20 12,-33 -10,-14 -8,-25 -3,-46 5,-19 6,-32 2,-48 -3,-8 -6,-15 -9,-22 -9,-19 -12,-35 -9,-56 0,-6 -1,-11 -4,-16 -20,-39 6,-88 47,-99 9,-3 15,-5 21,-10 21,-18 32,-21 58,-22 10,-1 12,-10 7,-18 -2,-3 -3,-7 -3,-10 0,-2 1,-3 3,-2 9,6 32,5 31,24 3,-7 2,-14 0,-18 -4,-7 -12,-10 -21,-13 -3,-1 -7,-2 -9,-5 -3,-2 -4,-6 1,-6 1,0 4,2 5,2 11,2 21,-1 30,-5 15,-6 28,-8 43,-5 10,-2 30,2 35,18 2,-1 1,-2 1,-4 -1,-6 3,-12 11,-12 1,0 1,1 1,1 1,14 15,25 36,15 23,5 33,19 35,37 1,4 1,9 1,13 0,9 -1,18 4,26 7,11 21,16 38,14 3,-1 5,0 8,1 11,7 18,18 22,29 6,21 2,42 -3,62 -2,8 -4,11 -5,19 0,2 0,3 0,5 -1,14 -4,28 -7,42 -4,16 -6,32 -1,52 2,8 3,12 5,21 2,9 3,18 -1,23 -12,15 -13,45 7,53 3,1 5,2 8,2 2,0 2,4 2,6 0,5 -4,8 -10,8 -1,0 -1,1 -1,2 3,5 12,4 15,2 2,-1 3,0 3,1 2,4 1,9 0,12 -3,6 -12,7 -18,4 -1,0 -1,0 -1,0 2,10 15,10 22,6 2,-1 3,-1 4,1 2,4 2,9 1,13 -1,8 -7,13 -16,15 -5,0 -11,-1 -15,-4 -1,0 -2,0 -2,1 -1,3 -1,6 0,8 2,3 4,4 7,5 0,0 1,1 1,1 6,10 23,9 31,1 1,-1 2,-1 3,-1 10,9 12,26 5,37 -4,7 -13,13 -24,13 -3,0 9,3 19,-2 3,-2 3,-2 5,1 4,8 4,16 2,23 -4,13 -18,20 -36,17 -1,0 -1,1 0,2 6,9 19,8 23,6 1,-1 3,2 4,3 2,6 2,13 0,18 -4,9 -14,14 -25,14 -2,-1 1,1 5,2 3,0 3,2 3,4 1,19 -13,25 -29,27 -1,0 -2,1 -3,1 -6,4 -20,8 -33,6 -5,0 -9,-2 -13,1 -19,11 -78,24 -105,3 -7,-5 -10,-2 -17,0 -19,8 -37,7 -57,7 1,-1 1,-5 -3,-8 -5,-4 -14,-5 -22,-4 -7,1 -14,2 -20,2 -18,2 -37,2 -52,-8 -5,-4 -10,-10 -12,-17 -1,-3 -5,-1 -5,-1 -29,2 -48,-12 -51,-34 0,-4 0,-5 5,-6 2,0 6,-1 8,-2zm27 -216l0 -52 12 -8 0 -89 21 -25 3 -48 36 -23 88 0 19 -14 95 -1 32 29 6 60 20 19 0 89 14 11 0 41 -10 5 -7 15 -23 0 -11 16 -5 18 -24 35c4,-4 6,-11 5,-16 0,-8 -4,-15 -8,-20 1,6 -2,11 -5,14 -6,6 -17,5 -26,4 -9,-2 -20,-4 -28,-4 -11,-1 -23,2 -31,15 -9,-14 -25,-17 -40,-15 -7,1 -17,4 -27,4 -10,1 -20,-3 -20,-17 -10,10 -9,26 -2,35l-26 -30 -1 -14 -13 -18 -23 0 -6 -9 -8 -1 -7 -6z"/>
  <path class="fil14" d="M1230 361c-6,3 -9,8 -14,12 -5,6 -13,7 -19,7 7,3 13,1 17,-1 7,-5 10,-13 16,-18z"/>
  <path class="fil14" d="M1226 388c-5,1 -9,7 -16,11 -6,3 -12,2 -13,2 18,5 22,-7 29,-13z"/>
  <path class="fil14" d="M1220 404c-4,7 -12,10 -18,9 -1,0 0,2 -1,2 6,3 17,-1 19,-11z"/>
  <path class="fil15" d="M872 538c-1,16 -6,24 -12,30 10,8 19,7 28,6 1,8 -6,17 -14,20 3,1 7,2 10,2 -1,2 0,1 -3,3 -6,3 -8,14 -1,18 5,3 11,3 16,2 0,3 0,7 -1,10 1,6 0,14 -2,19 5,0 10,1 15,0 0,6 -1,6 -1,5 -1,-3 -2,-3 -4,-1 -6,4 -7,12 -4,18 6,9 23,7 33,4 0,1 -1,4 -1,5 2,2 2,9 2,13 5,1 18,2 26,-3 1,14 -5,26 -11,30 -7,-2 -6,-9 -8,-12 -1,-1 -3,-2 -5,1 -7,6 -3,17 5,19 10,4 26,-1 30,-6 4,4 9,4 12,4 1,11 -1,22 -14,28 27,6 43,-12 40,-31 0,-1 0,-1 1,-1 5,1 13,1 15,0 4,6 7,20 2,30 24,-2 25,-19 25,-22 3,6 8,10 16,12 4,1 9,2 13,0 6,-2 10,-8 5,-18 10,10 33,10 38,-2 2,1 5,2 8,3 -5,-12 -2,-23 -2,-25 5,12 18,24 40,21 5,0 9,-1 11,-3 2,-1 4,-3 4,-5 2,-3 2,-10 -1,-14 -1,-1 -5,-4 -6,0 0,4 -2,10 -4,11 -8,-7 -13,-23 -10,-35 5,3 11,5 15,5 7,2 15,0 18,-7 3,-5 3,-11 0,-17 -2,-3 -5,-4 -6,0 -2,4 -3,9 -6,10l-5 -9 -2 -6 0 -3c4,1 16,3 25,-3l-3 -6 -1 -4c-3,-3 -6,-7 -8,-14 0,0 6,1 12,-1 4,-1 9,-2 12,-5 4,-6 3,-13 -2,-17 -2,-1 -3,-1 -4,-1 -2,1 -3,5 -3,8 -10,-4 -13,-18 -14,-25 7,2 12,2 18,0 -8,-5 -10,-13 -11,-20 5,4 23,3 26,-5 -18,-10 -7,-27 -16,-32l-7 4 -7 15 -23 0 -11 16 -5 18 -24 35 -182 0 -26 -30 -1 -14 -13 -18 -23 0 -6 -9 -8 -1z"/>
  <path class="fil16" d="M968 192c0,-3 -1,-6 -3,-9 -2,-3 -3,-7 -3,-10 0,-2 1,-3 3,-2 3,7 7,10 11,13 3,3 5,6 6,9 2,6 0,12 -8,13 -4,1 -9,0 -8,-2 3,-3 5,-5 2,-12z"/>
  <path class="fil11" d="M1085 595c0,7 7,8 7,16 0,3 -1,15 -4,15 -1,0 -7,-5 -7,-4 2,6 2,13 0,19 -3,15 -8,-9 -8,6 0,15 -12,15 -20,26 -2,3 -12,15 -13,14 -4,-3 -7,-13 -10,-17 -2,-4 -6,-7 -9,-10 -6,-7 -3,-6 -9,0 -1,2 -3,-5 -4,-8 -5,-12 -12,-20 -12,-33 0,-2 -5,10 -5,11 0,-11 -8,-38 10,-30 4,-1 1,-2 4,-2l69 0c0,-1 6,-2 7,-2 0,-1 1,-1 4,-1z"/>
  <path class="fil10" d="M1044 664c-2,-6 -2,-7 -3,-17 -1,-6 5,-6 10,-6 4,1 4,2 4,5l0 23 -3 4c-5,2 -8,-1 -8,-6 0,-1 0,-2 0,-3z"/>
  <polygon class="fil17" points="1011,558 1004,545 1003,531 1009,516 1020,504 1024,489 1030,480 1034,466 1040,467 1048,489 1053,494 1058,509 1064,515 1070,536 1069,548 1064,558 1048,559 1041,550 1035,549 1026,560 "/>
  <path class="fil10" d="M997 604l1 22c0,1 0,2 0,3 1,1 1,1 2,1 0,0 0,0 0,0l1 -4 1 8c2,0 3,1 4,1 3,1 7,-1 8,-4 0,-4 1,-4 1,-8l-1 -18 -17 -1z"/>
  <path class="fil10" d="M1020 606c-2,7 -1,13 2,23 1,2 1,3 1,4 2,3 5,4 8,4 1,-1 3,-1 4,-1 3,0 3,-2 3,-5l1 -26c-2,0 -2,-1 -4,-1l-9 0c-2,0 -5,0 -6,2z"/>
  <path class="fil10" d="M1026 660c0,-1 0,-8 0,-10 0,-2 0,-3 2,-3 1,-1 4,-2 6,-1l0 6c0,0 1,-3 1,-3 0,-1 1,-1 1,-1 2,1 3,2 3,4 1,4 0,9 0,13 0,4 -3,6 -7,5 0,0 -2,-2 -3,-3 -3,-2 -3,-4 -3,-7z"/>
  <path class="fil18 str1" d="M1195 578c0,-15 0,-25 0,-26 1,-5 5,-2 6,-6 8,0 16,-8 16,-16 0,-9 -5,-13 -6,-20 0,-3 0,-5 3,-6 3,-2 8,-7 5,-9"/>
  <path class="fil9" d="M894 538c15,0 17,9 18,14 -3,-11 -12,-11 -21,-11 -5,0 -10,0 -14,-4 -4,-2 -7,-7 -7,-12l0 -17 2 15c2,14 12,15 22,15z"/>
  <path class="fil18 str2" d="M1064 518c-2,8 7,13 4,22 -3,8 -13,10 -20,8 -5,-1 -8,-4 -13,-2 -1,0 -2,1 -2,1"/>
  <path class="fil18 str2" d="M1026 548c-6,3 -14,3 -18,-2 -6,-5 -6,-13 -4,-19 1,-2 2,-4 3,-6"/>
  <path class="fil9" d="M1055 395c-10,-10 -12,-24 -10,-38 2,-9 5,-18 3,-28 -1,16 -12,32 -8,49 0,-1 -1,-2 -2,-3 0,15 8,14 17,20z"/>
  <path class="fil9" d="M1034 303c14,28 -8,49 0,71 -4,-7 -5,-15 -4,-22 1,-9 4,-19 -1,-24 2,0 4,1 4,3 2,-6 3,-21 1,-28z"/>
  <path class="fil9" d="M1097 332c-3,2 -8,2 -13,2 -5,1 -11,1 -16,3 -5,2 -9,6 -11,12 -1,-10 5,-18 15,-19 6,-1 12,0 19,0 -2,0 -3,2 -5,2 3,0 9,0 11,0z"/>
  <path class="fil9" d="M928 586c-3,-8 -2,-17 -1,-25 1,-6 3,-13 0,-20 -2,-5 -7,-9 -16,-8 -1,-3 -4,-3 -6,-3 -3,0 -6,1 -9,2 -6,1 -13,-2 -15,-10 1,5 3,8 5,10 6,5 12,2 18,1 2,0 4,1 6,3 14,0 15,10 14,17 -1,9 -3,25 4,33z"/>
  <path class="fil9" d="M1211 518c-3,1 -8,0 -9,-1 0,4 0,7 -2,9 -3,3 -7,5 -12,2 -2,-2 -4,-3 -6,-3 -1,-1 -3,-1 -4,-1 -1,0 -3,1 -3,3 -2,3 -2,7 -8,10 -3,1 -5,2 -8,3 -6,3 -10,8 -10,15 1,9 7,19 3,25 5,-8 -2,-18 0,-27 0,-5 4,-8 8,-10 2,-1 4,-1 6,-1 1,-1 2,-1 3,-1 7,1 14,-1 15,-8 -2,6 -9,7 -12,7 3,-2 6,-5 6,-8 1,-2 3,-3 4,-3 2,0 4,1 5,2 4,1 8,1 11,-1 4,-2 6,-7 6,-10 4,1 6,0 7,-2z"/>
  <path class="fil9" d="M1016 383c0,-5 -2,-8 -7,-11 -2,-1 -3,-2 -3,-3 -5,-10 -22,-9 -30,-6 11,-10 30,-6 34,2l-1 -2c7,3 10,13 7,20z"/>
  <path class="fil11" d="M1057 452c-3,-15 -33,-19 -40,0l2 -18c2,1 4,0 7,0 7,-3 14,-3 20,-1 3,1 6,2 9,1l2 18z"/>
  <path class="fil8" d="M1019 444c-2,2 -1,-4 -1,-4 0,-3 0,-6 1,-7 1,1 4,1 6,0 2,0 6,-1 7,1 1,1 0,2 -2,3 -4,1 -9,3 -11,7z"/>
  <path class="fil9" d="M955 377c0,-3 -3,-6 -2,-12 0,7 3,8 4,12l-2 0z"/>
  <path class="fil9" d="M939 377c0,-1 0,-2 -1,-3 0,-1 0,-2 -1,-3 0,-3 3,1 2,-1 -3,-8 0,-15 3,-19 -4,16 4,19 3,26l-6 0z"/>
  <path class="fil14" d="M835 366c8,4 4,20 20,22 9,1 18,-1 23,10l1 0c-2,-18 -17,-12 -27,-14 -3,-1 -7,-4 -9,-9 -2,-5 -5,-9 -8,-9z"/>
  <path class="fil18 str1" d="M875 434c0,-18 -14,-10 -23,-12"/>
  <path class="fil14" d="M842 397c0,0 1,4 5,7 5,5 16,2 24,6 0,0 4,5 4,5 0,0 1,0 1,0 -1,-12 -13,-10 -24,-11 -4,-1 -7,-2 -10,-7z"/>
  <path class="fil19" d="M886 503c21,18 89,19 113,0 8,-6 11,-14 14,-23 4,-15 6,-35 7,-53 1,-24 -6,-37 -30,-44 -15,-5 -33,-7 -51,-7 -16,0 -32,2 -45,6 -24,7 -32,17 -33,36 0,22 6,70 25,85z"/>
  <path class="fil9" d="M1147 378c0,-2 1,-2 2,-3 3,-1 4,-3 4,-6 0,-3 -1,-6 -3,-9 -1,-2 -2,-4 -3,-6 -1,-3 -1,-6 0,-9 0,-4 0,-7 0,-10 0,0 0,8 1,12 0,8 6,7 8,13 0,2 0,3 1,4 2,2 5,5 4,9 -1,2 -2,4 -4,6l-10 -1z"/>
  <path class="fil19" d="M1077 503c22,18 90,19 115,0 7,-6 11,-14 13,-23 5,-15 7,-35 8,-53 1,-24 -7,-37 -31,-45 -15,-4 -33,-6 -52,-6 -16,0 -31,2 -44,6 -25,7 -32,17 -33,36 -1,22 5,70 24,85z"/>
  <path class="fil14" d="M1203 709l3 -1c-2,-5 -4,-11 -5,-17 -1,7 0,13 2,18zm8 7l-4 1c9,13 25,18 39,16 -17,0 -28,-7 -35,-17z"/>
  <path class="fil18 str1" d="M1188 679c7,8 15,14 24,17m11 3c6,1 11,1 16,1"/>
  <path class="fil14" d="M1202 751l4 0c-1,-4 -2,-8 -3,-13l-3 -3c0,6 1,12 2,16zm10 10l-5 -1c8,13 25,17 35,17 -14,-2 -23,-8 -30,-16z"/>
  <path class="fil14" d="M1214 745l0 -3c-10,-3 -17,-11 -21,-24 -1,-1 -2,0 -2,0 2,16 13,25 23,27zm12 -1l1 2c2,0 9,-1 17,-4 -6,1 -12,2 -18,2z"/>
  <path class="fil14" d="M1171 710l3 -3c-10,-9 -11,-20 -11,-31 -3,10 -1,25 8,34zm13 4l-2 3c9,3 21,4 33,-2 -12,4 -23,3 -31,-1z"/>
  <path class="fil14" d="M1183 665l2 -1c-4,-5 -7,-10 -8,-17 0,7 2,14 6,18zm14 8l-3 3c12,5 29,4 39,-3 -10,4 -25,5 -36,0z"/>
  <path class="fil18 str1" d="M1272 679c-5,1 -10,2 -16,2m-7 -1c-5,-1 -10,-3 -15,-6m-7 -8c-2,-3 -4,-6 -5,-10"/>
  <path class="fil14" d="M1230 660l1 -3c-16,-1 -28,-8 -33,-24 3,20 18,27 32,27zm8 -4l2 3c7,-2 14,-6 17,-11 -5,4 -12,7 -19,8z"/>
  <path class="fil14" d="M1190 620c1,20 21,26 36,19 -18,5 -32,-6 -36,-19z"/>
  <path class="fil14" d="M1205 605l1 -3c-5,-2 -13,-11 -15,-23 -1,14 8,23 14,26zm11 1l0 3c7,0 13,-1 19,-5 -5,2 -12,3 -19,2z"/>
  <path class="fil14" d="M1199 562c1,29 38,26 44,19 -17,8 -41,-1 -44,-19z"/>
  <path class="fil18 str1" d="M1213 806c-10,-1 -18,-5 -23,-11m-11 -21c-1,-6 -1,-12 0,-17"/>
  <path class="fil14" d="M1212 761c-13,5 -31,1 -38,-12 -7,-4 -13,-15 -12,-27 -3,10 -1,22 10,29 2,4 7,9 13,11 7,3 18,4 27,-1z"/>
  <path class="fil14" d="M1105 722l3 -1c-1,-4 -1,-9 -1,-14 -2,6 -2,10 -2,15zm5 8l-4 0c4,15 18,23 30,23 -13,-4 -22,-12 -26,-23z"/>
  <path class="fil18 str1" d="M1104 692c1,7 3,16 9,23m9 6c2,1 6,3 9,3"/>
  <path class="fil18 str1" d="M1116 820c-18,2 -27,-5 -32,-13m-4 -16c0,-4 0,-8 1,-10"/>
  <path class="fil14" d="M844 724l4 -3c-11,-1 -24,-5 -30,-9 6,6 16,11 26,12zm12 -4l2 3c10,-2 20,-9 21,-21 -5,11 -13,16 -23,18z"/>
  <path class="fil14" d="M875 753l-1 -4c-9,3 -20,2 -29,-3 8,7 19,9 30,7zm11 -10l1 4c7,-5 12,-13 12,-25 -2,9 -6,16 -13,21z"/>
  <path class="fil14" d="M845 699l-2 -2c-3,1 -6,1 -10,2 3,2 8,0 12,0zm25 -38c1,16 -5,25 -16,32l1 2c13,-5 19,-19 15,-34z"/>
  <path class="fil14" d="M957 756l-3 1c-2,-3 -5,-8 -8,-11 4,2 8,5 11,10zm3 28l4 0c-2,12 -10,23 -28,26 13,-4 23,-14 24,-26z"/>
  <path class="fil18 str1" d="M881 791c4,-1 8,-3 11,-6m10 -11c3,-5 5,-11 5,-18"/>
  <path class="fil18 str1" d="M979 696c1,4 0,9 -1,13m-8 13c-4,3 -10,6 -17,6"/>
  <path class="fil14" d="M937 726l-2 -2c-5,2 -8,3 -14,3 4,1 11,1 16,-1zm9 -8l3 1c10,-7 12,-19 10,-31 0,14 -4,23 -13,30z"/>
  <path class="fil14" d="M999 763c19,31 0,48 -13,51 29,-1 30,-36 13,-51z"/>
  <path class="fil14" d="M860 643c17,8 40,-4 36,-24 0,11 -13,27 -36,24z"/>
  <path class="fil14" d="M881 617l-2 -2c-8,10 -23,12 -34,9 13,5 30,2 36,-7z"/>
  <path class="fil14" d="M887 619c22,6 37,-11 29,-33 3,19 -9,35 -29,33z"/>
  <path class="fil14" d="M845 595c17,10 45,2 43,-21 -1,13 -16,27 -43,21z"/>
  <path class="fil14" d="M865 571c13,11 41,8 42,-12 -5,18 -32,18 -42,12z"/>
  <path class="fil14" d="M1168 640c7,15 29,10 34,4 -13,6 -27,3 -34,-4z"/>
  <path class="fil18 str1" d="M910 711c-1,0 -3,0 -4,0 -10,3 -15,-3 -14,-13 0,-3 -1,-4 -4,-2 -12,4 -10,27 10,24"/>
  <path class="fil18 str1" d="M883 760c-12,-2 -11,-17 -3,-22 3,-2 5,-1 6,4 1,10 6,10 15,11"/>
  <path class="fil18 str1" d="M855 748c-19,1 -17,-27 -2,-29 2,0 3,0 4,2 0,1 0,4 0,6 0,9 3,14 13,14 2,0 4,-1 4,0"/>
  <path class="fil18 str1" d="M852 702c-18,-3 -14,-26 -1,-28 2,0 4,1 4,3 -2,8 -3,14 0,18 2,3 5,4 8,4 2,-1 4,-1 6,0"/>
  <path class="fil18 str1" d="M976 781c-4,3 -10,4 -16,3 -12,-3 -14,-15 -7,-25 2,-2 3,-3 5,-3 1,0 2,1 2,3 0,9 3,14 13,15 2,0 4,0 5,1"/>
  <path class="fil18 str1" d="M1031 793c-7,3 -14,3 -18,-1 -7,-6 -5,-18 3,-23 2,-1 4,-1 4,2 0,3 0,5 0,7 1,6 4,8 9,9 2,0 4,1 4,2"/>
  <path class="fil18 str1" d="M993 812c-14,4 -20,-1 -22,-7 -1,-6 2,-11 5,-14 5,-3 5,1 6,5 3,8 11,10 9,12"/>
  <path class="fil18 str1" d="M1194 754c2,-3 6,-2 9,-3 9,0 12,-6 11,-14 0,-2 0,-3 1,-4 1,0 2,-1 5,1 6,4 7,11 6,16 -3,8 -12,13 -23,9"/>
  <path class="fil18 str1" d="M1203 709c9,-1 10,-10 9,-17 0,-2 0,-4 1,-5 1,0 3,0 4,2 7,6 9,18 1,24 -6,4 -14,4 -18,2"/>
  <path class="fil18 str1" d="M1221 666c9,2 10,-6 10,-10 -1,-4 0,-5 4,-3 10,6 6,23 -7,21"/>
  <path class="fil18 str1" d="M1205 792c9,3 14,-6 15,-13 1,-6 4,-6 6,-2 8,8 6,18 2,23 -6,6 -17,7 -27,2"/>
  <path class="fil18 str1" d="M1114 766c3,-2 5,-1 8,-1 3,1 5,1 7,0 5,-3 7,-9 8,-15 0,-5 4,-4 7,-2 6,6 6,17 0,22 -5,4 -13,5 -20,4"/>
  <path class="fil18 str1" d="M1157 712c3,-2 4,-2 7,-1 9,1 12,-6 13,-12 0,-5 4,-3 6,-1 4,6 3,13 0,17 -4,5 -12,7 -20,3"/>
  <path class="fil18 str1" d="M1076 773c1,0 2,0 3,0 2,1 5,1 7,0 3,-2 4,-5 6,-8 0,-1 1,-1 2,0 4,4 3,9 1,12 -5,6 -17,7 -24,0"/>
  <path class="fil18 str1" d="M1173 793c5,0 8,-8 6,-15 -1,-4 1,-7 5,-3 7,5 8,13 6,18 -2,6 -9,9 -18,7 -2,0 -3,-1 -4,-2"/>
  <path class="fil18 str1" d="M1099 720c3,3 7,3 10,1 3,-1 4,-5 5,-8 0,-4 3,-4 5,-3 4,3 5,9 2,14 -3,6 -12,7 -18,5"/>
  <path class="fil18 str1" d="M955 721c-3,-2 -4,-1 -7,-2 -5,-1 -6,-7 -7,-11 -1,-2 -3,-3 -5,-1 -5,3 -5,11 -3,15 5,8 17,8 25,4"/>
  <path class="fil18 str1" d="M864 644c-14,-1 -13,-13 -9,-17 2,-2 6,-4 6,1 1,12 9,8 9,12"/>
  <path class="fil18 str1" d="M928 668c-13,1 -19,-4 -21,-14 -1,-5 -4,-3 -6,0 -3,3 -4,7 -4,11 1,4 3,7 7,9 2,2 6,2 10,2"/>
  <path class="fil18 str1" d="M1069 731c6,2 10,0 12,-6 1,-3 3,-3 4,-1 2,4 3,7 2,10 -1,6 -7,9 -13,8 -4,0 -7,-2 -9,-4"/>
  <path class="fil18 str1" d="M1148 814c4,-2 7,-5 9,-10 1,-4 0,-7 4,-4 6,3 7,10 5,14 -2,5 -10,7 -19,4"/>
  <path class="fil18 str1" d="M1173 666c9,1 15,-1 17,-11 0,-3 2,-3 4,-1 5,4 7,15 1,21 -6,7 -20,6 -27,-3"/>
  <path class="fil18 str1" d="M1196 610c9,0 10,-5 10,-11 0,-4 4,-4 7,-1 4,4 4,10 2,13 -2,7 -12,9 -21,4"/>
  <path class="fil18 str1" d="M908 788c-5,1 -12,0 -16,-3 -7,-6 -6,-17 2,-22 4,-2 6,-1 6,4 1,9 2,13 12,13"/>
  <path class="fil18 str1" d="M991 716c-1,0 -1,0 -2,0 -8,5 -11,-3 -12,-12 -1,-3 -2,-3 -4,-2 -6,2 -8,9 -7,13 2,8 11,12 21,9"/>
  <path class="fil18 str1" d="M1057 807c0,-4 7,-4 9,-4 7,-1 8,-5 8,-10 0,-5 3,-5 6,-1 8,10 4,19 -3,22 -5,2 -12,2 -17,-1"/>
  <path class="fil18 str1" d="M901 612c-9,1 -16,-2 -17,-11 0,-3 -2,-3 -4,-1 -7,5 -6,17 3,18 4,1 9,0 11,-1"/>
  <path class="fil18 str1" d="M1239 694c6,-1 10,-5 11,-13 0,-3 1,-4 4,-2 6,4 6,10 4,14 -3,9 -18,9 -25,5"/>
  <path class="fil14" d="M1154 286c2,-3 8,-3 12,-5 9,-3 20,-8 16,-26 0,13 -7,18 -13,21 -5,3 -12,4 -15,10z"/>
  <path class="fil14" d="M1167 235c-4,3 -4,9 -4,14 0,13 -6,14 -14,22 -1,2 -2,4 -3,7 1,-4 7,-7 12,-11 14,-9 5,-23 9,-32z"/>
  <path class="fil9" d="M1145 566l-2 6c2,-4 0,-10 -1,-14 -1,-4 -1,-9 0,-13 3,-10 15,-8 13,-20 1,4 2,8 -1,12 -5,6 -13,4 -9,25 0,1 0,3 0,4z"/>
  <path class="fil20" d="M917 563c0,-3 0,-5 1,-8l0 -2c1,-3 1,-5 0,-7 -2,-4 -5,-6 -9,-7 8,0 13,6 11,14l0 3c-1,2 -1,4 -1,6l-2 1z"/>
  <path class="fil9" d="M968 550c-2,-4 -5,-8 -11,-10 15,3 20,15 17,29 -1,-1 -1,1 -1,-1 1,-5 0,-11 -4,-15 0,-1 -1,-1 -1,-3z"/>
  <path class="fil10" d="M1056 628c0,-1 0,-1 -1,-2 -1,-1 -2,-1 -2,-3l-1 -19c4,0 9,0 14,0 3,0 3,1 3,4 0,2 0,4 0,5 -1,2 -1,4 -1,8 0,2 0,4 -1,5 0,1 -1,1 -2,2 0,0 -1,0 -1,-1l0 -9c0,3 0,6 -2,8 -1,2 -4,2 -6,2z"/>
  <path class="fil9" d="M1108 567c-2,-12 7,-21 16,-23 -7,6 -12,12 -14,23 0,0 -2,1 -2,0z"/>
  <path class="fil21" d="M1039 614c11,-10 28,-7 46,-2 13,3 43,9 51,-5 1,-2 -3,0 -5,-1 11,-2 19,-15 18,-26 -1,-8 -2,-4 -5,-2 6,-10 5,-28 -7,-36 -1,0 -1,-1 -1,0 1,13 -3,28 -31,23 -19,-4 -43,-11 -60,3 -2,2 -4,5 -6,8 -10,-11 -21,-16 -36,-16 -10,0 -20,3 -31,5 -27,5 -31,-10 -30,-23 0,-1 0,0 -2,0 -11,8 -12,26 -6,36 -3,-2 -4,-6 -5,2 -1,11 7,24 17,26 -2,1 -5,-1 -4,1 8,14 38,8 51,5 17,-5 34,-8 46,2z"/>
  <path class="fil18 str2" d="M1158 568c1,-2 1,-6 0,-9 0,-5 0,-10 6,-12"/>
  <path class="fil18 str2" d="M1016 540c-9,-2 -14,-12 -8,-22 2,-4 6,-7 10,-10 8,-5 13,-14 14,-27"/>
  <path class="fil18 str2" d="M1046 489c2,14 14,19 18,29 2,3 2,9 1,13 -4,6 -12,8 -18,5 -4,-1 -7,-2 -11,-1"/>
  <path class="fil9" d="M1061 368c-2,7 -1,18 7,23 -7,0 -14,-2 -16,-10 2,2 4,3 5,3 -2,-7 0,-13 4,-16z"/>
  <path class="fil10" d="M964 526c7,-1 14,-2 20,-5 5,-2 7,2 6,6 -1,6 -7,11 -12,12 -7,3 -16,3 -20,-4 -2,-3 -1,-9 6,-9z"/>
  <path class="fil14" d="M896 648c26,6 47,-10 37,-39 3,25 -10,41 -37,39z"/>
  <path class="fil8" d="M1087 361c-7,-1 -11,3 -12,7 0,4 3,8 9,5 8,-2 23,-5 34,-5 4,0 7,0 9,-2 1,-2 1,-5 -1,-8 -3,-6 -9,-9 -16,-10 -7,0 -15,3 -18,10 -1,4 -3,3 -5,3z"/>
  <path class="fil22" d="M896 493c18,14 73,15 92,-1 6,-4 9,-11 11,-18 4,-13 6,-29 6,-43 1,-20 -5,-30 -24,-37 -12,-3 -27,-5 -42,-5 -13,0 -25,2 -36,5 -20,5 -26,14 -27,30 0,18 5,56 20,69z"/>
  <path class="fil5" d="M953 397c33,2 51,11 43,45 0,2 0,4 0,5 -1,3 -2,5 -5,5 -2,0 -4,-1 -6,-4l-33 -49c-1,-1 0,-2 1,-2z"/>
  <path class="fil5" d="M938 397l40 59c5,7 7,9 12,9 -1,6 -2,11 -5,15 -2,4 -4,5 -7,6 -4,2 -10,2 -14,-3l-54 -81c10,-4 24,-5 28,-5z"/>
  <path class="fil23" d="M939 387c-9,0 -20,1 -31,3 -8,2 -16,4 -21,8 -5,3 -8,6 -10,10 -2,4 -3,10 -3,17 0,11 1,29 6,44 3,11 8,20 14,25 9,8 29,12 49,12 17,0 34,-3 45,-10l4 4c-11,8 -30,12 -49,12 -21,0 -42,-5 -52,-13 -8,-6 -13,-17 -16,-29 -5,-15 -7,-33 -7,-45 0,-8 1,-14 4,-19 3,-6 6,-10 12,-13 6,-4 14,-6 23,-8 10,-2 20,-3 28,-4l4 6z"/>
  <path class="fil14" d="M1143 598c5,14 25,12 29,9 -11,2 -24,-2 -29,-9z"/>
  <path class="fil14" d="M1178 556c8,28 30,21 31,23 -17,5 -31,-4 -31,-23z"/>
  <path class="fil24" d="M1088 493c18,14 73,15 92,-1 6,-4 9,-11 11,-18 4,-13 6,-29 6,-43 1,-20 -5,-30 -24,-37 -12,-3 -28,-5 -42,-5 -13,0 -26,2 -36,5 -20,5 -26,14 -27,30 -1,18 5,56 20,69z"/>
  <polygon class="fil9" points="1083,487 1079,482 1077,476 1087,467 1084,458 1078,457 1076,453 1071,449 1072,435 1100,437 1105,420 1101,414 1094,412 1095,408 1088,403 1092,396 1099,394 1121,409 1121,399 1124,397 1125,389 1133,389 1151,390 1166,393 1176,395 1180,398 1178,406 1181,412 1191,411 1197,423 1191,429 1190,433 1183,439 1183,449 1195,455 1191,474 1173,472 1182,480 1180,483 1184,489 1176,495 1162,501 1148,503 1139,504 1135,484 1125,480 1125,476 1119,475 1119,472 1113,470 1104,478 1099,478 "/>
  <line class="fil18 str3" x1="1101" y1="432" x2="1075" y2= "424" />
  <line class="fil18 str4" x1="1103" y1="424" x2="1089" y2= "418" />
  <line class="fil18 str3" x1="1094" y1="412" x2="1080" y2= "405" />
  <line class="fil18 str4" x1="1119" y1="472" x2="1112" y2= "491" />
  <line class="fil18 str3" x1="1131" y1="483" x2="1125" y2= "500" />
  <path class="fil14" d="M980 662l-2 -1 -2 -2c7,-6 9,-17 7,-29 5,14 3,25 -3,32zm-14 4l3 3c-11,3 -18,1 -23,-1 7,2 15,1 20,-2z"/>
  <path class="fil14" d="M901 672l-2 -3c-7,6 -16,9 -29,7 8,4 24,3 31,-4zm9 -24l-2 0c0,2 0,5 -1,7l1 4c2,-4 2,-8 2,-11z"/>
  <path class="fil14" d="M935 598c-1,16 -15,25 -34,20 6,5 16,5 24,2 7,-3 12,-11 10,-22z"/>
  <path class="fil25" d="M982 166c4,1 8,0 12,3 2,0 3,1 5,1 14,2 14,16 13,24 -2,-3 -4,-4 -6,-5 -6,-3 -7,-3 -9,-9 -4,-9 -9,-11 -15,-14z"/>
  <path class="fil25" d="M1000 287c-4,-20 1,-31 8,-38 9,-11 26,-16 31,-32 -4,28 -42,24 -34,70l-5 0z"/>
  <path class="fil9" d="M1117 525c-8,0 -14,0 -21,-2 -5,-1 -13,-4 -17,-6 -3,-3 -6,-8 -9,-10 4,3 5,9 9,12 2,3 3,4 7,5 2,1 4,4 7,6 4,3 12,3 16,2 -2,0 -7,0 -9,-3 5,0 11,-1 15,-2 2,-1 6,-2 7,-2 1,0 -2,-1 -5,0z"/>
  <path class="fil9" d="M1052 406c-3,-3 -8,-4 -14,-3 -2,0 -2,0 -4,0 -4,-1 -10,0 -13,2 2,-4 6,-5 10,-5 8,-3 17,-1 21,6z"/>
  <path class="fil14" d="M1165 630l2 -3c-12,-2 -20,-12 -21,-25 0,18 10,25 19,28zm13 -2l0 3c7,-1 12,-3 14,-5 -4,1 -11,2 -14,2z"/>
  <path class="fil14" d="M1129 658l2 1c-1,-3 -1,-7 0,-11 -2,2 -3,7 -2,10zm9 14l0 3c5,5 17,7 24,6 1,0 0,0 -1,-1l1 0c-10,1 -18,-2 -24,-8z"/>
  <path class="fil18 str1" d="M1152 631c3,2 8,2 11,1 3,-2 5,-6 5,-10 1,-4 3,-4 6,-3 4,4 6,11 3,16 -4,6 -14,7 -21,5"/>
  <path class="fil18 str1" d="M1106 679c2,-3 5,-2 9,-3 9,0 11,-6 11,-14 0,-2 0,-3 1,-4 0,0 2,-1 4,1 5,3 8,9 7,15 -1,8 -11,14 -24,10"/>
  <path class="fil25" d="M1134 272c11,-5 14,-16 11,-27 9,10 4,24 -6,27l-5 0z"/>
  <path class="fil25" d="M1054 266c9,0 15,7 16,15 1,5 0,11 -2,16 -2,5 -4,11 -1,16 -7,-1 -12,-6 -11,-15 2,-10 -2,-32 -2,-32z"/>
  <path class="fil26" d="M1018 287c-1,-2 -1,-4 -1,-6 -1,-8 3,-14 10,-16 7,-2 14,1 15,9l-17 13 -7 0z"/>
  <path class="fil13" d="M1017 283c-1,-5 -1,-11 1,-16 7,-19 35,-19 44,-2 3,7 4,16 0,25 -5,12 -15,28 -7,35 -14,-5 -18,-15 -15,-31 2,-9 5,-22 -7,-24 -5,-2 -9,0 -13,3 -4,3 -3,9 -2,14 0,-1 -1,-1 -1,-4z"/>
  <path class="fil8" d="M985 291c-2,-4 -5,-11 -2,-21 -7,5 -8,17 0,21 1,1 3,1 2,0z"/>
  <path class="fil8" d="M978 289c-5,-2 -6,-9 -5,-14 -5,4 -4,13 2,15 3,0 4,-1 3,-1z"/>
  <path class="fil10" d="M1089 274c11,-1 17,-6 22,-14 0,9 -6,15 -11,16 -7,1 -13,-2 -11,-2z"/>
  <path class="fil10" d="M1102 274c10,-2 16,-7 18,-17 2,10 -3,20 -17,18 -1,0 -1,-1 -1,-1z"/>
  <path class="fil8" d="M953 289c-5,-3 -7,-12 -7,-18 -4,5 -3,16 3,19 2,0 4,-1 4,-1z"/>
  <path class="fil10" d="M1115 280c9,-2 16,-7 17,-18 3,12 -3,21 -16,19 -2,0 -2,-1 -1,-1z"/>
  <path class="fil18 str1" d="M992 663c-3,-2 -5,-1 -7,-1 -10,1 -13,-6 -13,-12 -1,-5 -4,-3 -6,-1 -4,6 -3,13 0,17 4,5 12,7 19,3"/>
  <path class="fil9" d="M1152 287c-8,-4 -22,-4 -30,1 7,-9 22,-9 30,-1z"/>
  <path class="fil9" d="M1134 301c-7,-3 -21,-2 -29,3 6,-9 22,-10 29,-3z"/>
  <path class="fil9" d="M1147 305c-8,-4 -21,-3 -29,2 6,-9 22,-9 29,-2z"/>
  <path class="fil9" d="M1163 323c-7,-4 -19,-5 -27,-1 7,-8 21,-7 27,1z"/>
  <path class="fil9" d="M1151 325c-8,-4 -22,-3 -29,1 6,-7 23,-8 29,-1z"/>
  <path class="fil9" d="M1187 371c-8,-4 -21,-4 -28,1 6,-8 22,-9 28,-1z"/>
  <path class="fil9" d="M1156 350c-8,-4 -22,-5 -30,0 7,-8 23,-8 30,0z"/>
  <path class="fil9" d="M1177 366c-8,-4 -22,-5 -30,0 7,-9 23,-8 30,0z"/>
  <path class="fil9" d="M957 303c-8,-5 -22,-5 -30,-1 7,-8 24,-8 30,1z"/>
  <path class="fil9" d="M961 312c-8,-4 -20,-4 -28,1 7,-9 23,-7 28,-1z"/>
  <path class="fil9" d="M943 316c-8,-4 -21,-5 -29,0 7,-9 23,-8 29,0z"/>
  <path class="fil9" d="M963 338c-8,-5 -22,-6 -30,-1 7,-9 25,-7 30,1z"/>
  <path class="fil9" d="M931 331c-8,-5 -22,-6 -30,-1 6,-7 24,-8 30,1z"/>
  <path class="fil9" d="M946 347c-8,-4 -21,-5 -30,0 8,-10 25,-8 30,0z"/>
  <path class="fil9" d="M932 360c-8,-5 -20,-5 -30,0 6,-8 23,-10 30,0z"/>
  <path class="fil9" d="M996 343c-8,-4 -22,-4 -30,2 6,-9 23,-10 30,-2z"/>
  <path class="fil9" d="M1024 353c5,-4 5,-13 2,-18 -7,-11 -23,-11 -32,-3 9,-4 23,-3 28,9 0,1 0,2 1,2 1,2 3,6 1,10z"/>
  <path class="fil9" d="M1132 347c-6,-4 -14,-2 -19,-1 4,-4 14,-5 20,0 0,0 -1,1 -1,1z"/>
  <path class="fil9" d="M1133 283c-6,-4 -14,-3 -18,-1 4,-5 14,-6 19,0 0,0 -1,1 -1,1z"/>
  <path class="fil9" d="M924 311c-5,-4 -12,-3 -16,-1 3,-4 13,-6 18,0 1,0 -2,1 -2,1z"/>
  <path class="fil9" d="M957 334c5,-4 12,-3 16,-1 -4,-5 -13,-5 -17,0 0,1 1,1 1,1z"/>
  <path class="fil9" d="M1015 330c-8,-5 -21,-6 -30,-1 8,-9 25,-7 30,1z"/>
  <path class="fil16" d="M953 569c1,9 7,14 13,16 12,4 26,-3 41,-4 8,0 19,1 25,8 -8,-28 -35,-17 -56,-14 -8,1 -18,0 -23,-6z"/>
  <path class="fil27" d="M1068 568c0,0 -6,4 -5,3 12,-2 24,0 38,4 3,1 6,1 10,1 1,1 1,1 -1,1 -15,4 -26,4 -40,4 -10,0 -17,-2 -25,1 -1,0 0,-1 0,-1 3,-10 13,-15 23,-13z"/>
  <path class="fil16" d="M1013 567c12,1 23,9 22,21 -5,-2 -10,-7 -13,-12 -2,-4 -5,-7 -9,-9z"/>
  <path class="fil16" d="M941 580c3,16 20,13 30,9 -4,-3 -7,-4 -11,-4 -6,0 -16,0 -19,-5z"/>
  <path class="fil14" d="M874 594c26,11 52,-5 44,-31 1,22 -16,37 -44,31z"/>
  <path class="fil8" d="M916 302c-8,4 -14,-5 -14,-11 -2,6 0,11 4,14 3,1 8,1 10,-2 0,-1 0,-1 0,-1z"/>
  <path class="fil8" d="M911 295c0,0 0,0 0,0 1,2 3,5 6,5 0,0 1,0 1,0 0,4 -8,2 -7,-5z"/>
  <path class="fil10" d="M1060 661c0,-3 0,-13 1,-14 0,-2 0,-2 1,-2 2,-1 3,0 4,0 2,-1 4,-1 5,1 1,1 1,3 1,5 0,3 -2,6 -4,8 -1,1 -3,3 -4,4 -2,2 -5,3 -4,-2z"/>
  <path class="fil18 str5" d="M1131 385c-14,0 -27,2 -38,5 -20,6 -29,15 -29,35 0,20 5,59 21,71 19,16 78,17 99,0"/>
  <path class="fil28" d="M1104 164c3,2 7,3 10,3 17,2 24,22 19,29 -1,1 -3,1 -3,-1 -5,-23 -21,-23 -26,-31z"/>
  <path class="fil16" d="M955 575c-10,0 -11,-13 -15,-17 -1,17 6,27 26,25 0,-6 -8,-3 -11,-8z"/>
  <path class="fil14" d="M1114 774c2,16 16,19 29,14 -13,2 -25,-4 -29,-14z"/>
  <path class="fil14" d="M857 273c-8,11 -7,26 -2,37 6,16 22,25 44,24l1 -3c-35,2 -51,-28 -43,-58z"/>
  <path class="fil14" d="M859 311c-1,0 -3,-3 -3,-4 -8,-7 -13,-15 -14,-26 -1,-11 2,-26 11,-32 -23,17 -17,54 6,62z"/>
  <path class="fil14" d="M898 354c-6,4 -26,3 -33,-7 -16,-2 -36,-14 -38,-39 -1,22 12,39 37,42 1,3 5,7 10,8 -2,0 -6,0 -7,-1 6,5 24,7 31,-1l0 -2z"/>
  <path class="fil14" d="M1172 311c12,-1 27,-7 29,-20l-2 2c2,-4 4,-16 0,-26 4,28 -14,39 -27,41l0 3z"/>
  <path class="fil14" d="M1174 329c23,5 50,-5 49,-33 0,-2 -1,1 -2,1 -2,24 -25,34 -47,32z"/>
  <path class="fil14" d="M1231 270l-3 -3c-2,2 -3,10 -4,15 -2,9 -4,14 -8,18 -5,4 -11,7 -20,8 6,1 13,-1 18,-3 7,-4 10,-9 12,-17 1,-7 2,-14 5,-18z"/>
  <path class="fil14" d="M1199 344c8,3 26,5 34,-6l-4 2c3,-3 7,-10 7,-15 -5,12 -19,20 -37,19z"/>
  <path class="fil14" d="M1067 157c23,19 27,64 -3,79 -7,4 -15,7 -15,15 1,-5 5,-7 10,-9 10,-4 20,-10 25,-21 11,-21 5,-51 -17,-64z"/>
  <path class="fil14" d="M972 155c1,2 7,3 13,4 3,0 6,0 8,0 35,6 45,30 40,51 -3,10 -9,16 -17,22 -17,14 -28,26 -21,55l5 0c-4,-32 6,-38 22,-53 5,-5 9,-9 12,-14 5,-9 7,-21 3,-32 -6,-15 -22,-28 -47,-30 -7,-1 -15,-1 -18,-3z"/>
  <path class="fil14" d="M1046 166c18,19 21,50 0,72 -2,1 -6,4 -7,6 -3,4 -5,5 -10,8 -3,1 -5,3 -7,5 -6,8 -7,19 -8,30 -2,-20 6,-30 14,-39 10,-10 20,-18 24,-30 8,-17 5,-36 -6,-52z"/>
  <path class="fil14" d="M929 249l1 8c2,-19 18,-28 35,-32 15,-4 33,-4 47,-10 -17,9 -52,8 -68,25 -9,9 -13,24 -3,45 0,0 1,1 1,2l-2 0c-3,-3 -4,-5 -5,-6 -1,-2 -2,-4 -2,-5 -1,-4 -2,-4 -4,-7 -3,-6 -4,-15 0,-20z"/>
  <path class="fil14" d="M1070 152c23,11 25,47 15,60 7,-18 2,-46 -15,-60z"/>
  <path class="fil14" d="M900 223l8 0c-12,7 -20,20 -19,34 -21,16 -17,58 11,63l0 3c-23,-4 -39,-23 -32,-50 1,1 1,12 2,11 0,0 1,0 1,-1 0,-11 5,-20 13,-26 0,-21 14,-30 20,-33l-4 -1z"/>
  <path class="fil14" d="M957 270c-6,-11 -2,-23 10,-27 -10,7 -10,16 -9,20 0,3 -1,5 -1,7z"/>
  <path class="fil14" d="M884 304c3,7 9,13 16,16 -4,1 -8,-1 -11,-3 -4,-4 -5,-8 -5,-13z"/>
  <path class="fil29" d="M996 171c4,3 6,8 7,13 1,9 -1,16 -6,20 -8,7 -22,8 -34,8 -25,-1 -60,0 -69,38 2,-17 10,-27 20,-33 16,-9 34,-9 48,-9 12,1 30,1 36,-9 2,-4 3,-9 1,-15 -2,-4 -3,-8 -3,-13z"/>
  <path class="fil14" d="M920 229c-8,6 -22,10 -26,21 1,-13 12,-21 26,-21z"/>
  <path class="fil14" d="M1231 306c-3,8 -9,11 -15,12 -1,0 -1,2 -2,2 9,1 17,-4 17,-14z"/>
  <path class="fil14" d="M1039 144c11,3 20,13 26,22 -2,-13 -12,-23 -26,-22z"/>
  <path class="fil14" d="M972 249c-7,6 -16,19 -14,38 -7,-19 1,-33 14,-38z"/>
  <path class="fil30" d="M1132 362c-1,0 -4,-6 -3,-7 3,-3 9,5 8,7 -1,1 -4,1 -5,0l0 0z"/>
  <path class="fil14" d="M855 660c26,11 49,-9 40,-31 2,20 -12,36 -40,31z"/>
  <path class="fil14" d="M819 665c13,10 45,6 42,-20 -1,18 -24,27 -42,20z"/>
  <path class="fil14" d="M956 614c1,15 -11,29 -32,28 20,5 38,-7 32,-28z"/>
  <path class="fil14" d="M911 676c27,8 47,-14 37,-38 3,21 -9,40 -37,38z"/>
  <path class="fil14" d="M950 645c22,4 41,-9 36,-32 0,20 -15,33 -37,31 0,0 0,1 1,1z"/>
  <path class="fil14" d="M892 720c24,7 50,-11 40,-39 4,24 -14,41 -40,39z"/>
  <path class="fil14" d="M891 689c13,7 40,2 42,-15 0,-1 -2,1 -2,1 -6,14 -28,17 -40,14z"/>
  <path class="fil14" d="M981 703c25,8 50,-5 44,-33 0,24 -19,36 -44,33z"/>
  <path class="fil14" d="M959 697c23,5 42,-7 39,-30 0,-1 -2,1 -2,1 -1,18 -14,30 -37,29z"/>
  <path class="fil14" d="M1005 646c1,16 -12,26 -31,24 17,7 37,-3 31,-24z"/>
  <path class="fil14" d="M980 725c25,6 45,-7 39,-32 0,-2 -1,1 -1,2 0,19 -12,31 -38,30z"/>
  <path class="fil14" d="M1007 720c23,8 47,-6 40,-33 1,23 -15,36 -40,33z"/>
  <path class="fil14" d="M884 760c26,7 47,-12 36,-41 4,25 -9,43 -36,41z"/>
  <path class="fil14" d="M953 753c20,6 34,-7 30,-27 0,-1 -2,-1 -2,0 1,16 -10,29 -28,27z"/>
  <path class="fil14" d="M934 692c15,6 38,-3 36,-24 -3,19 -22,25 -36,24z"/>
  <path class="fil14" d="M916 749c21,8 40,-4 38,-21 -1,10 -11,24 -38,21z"/>
  <path class="fil14" d="M966 752c24,10 49,-4 42,-33 1,23 -16,39 -42,33z"/>
  <path class="fil14" d="M900 788c25,6 46,-13 40,-35 0,0 -1,2 -1,2 0,19 -14,35 -39,33z"/>
  <path class="fil14" d="M838 779c20,8 43,0 44,-19 1,-2 -2,-1 -2,-1 -4,15 -20,24 -42,20z"/>
  <path class="fil14" d="M849 702c26,10 49,-10 45,-28 0,12 -14,33 -45,28z"/>
  <path class="fil14" d="M1007 694c12,0 19,-7 18,-17 0,-1 -1,0 -1,1 -1,8 -8,15 -17,16z"/>
  <path class="fil14" d="M916 627c12,0 19,-8 18,-17 0,-1 -2,1 -2,3 -2,7 -7,12 -16,14z"/>
  <path class="fil14" d="M934 681c11,-3 16,-12 13,-20 0,-1 -2,1 -1,3 0,7 -4,13 -12,17z"/>
  <path class="fil14" d="M1150 648c-29,7 -44,-10 -39,-32 1,20 10,34 39,32z"/>
  <path class="fil14" d="M1166 589c1,20 23,33 42,28 -18,9 -43,-4 -42,-28z"/>
  <path class="fil14" d="M1124 686c-23,4 -41,-9 -36,-33 0,21 14,35 37,32 0,0 -1,1 -1,1z"/>
  <path class="fil14" d="M1172 720c-27,8 -49,-10 -44,-35 0,20 15,37 44,35z"/>
  <path class="fil14" d="M1054 675c1,16 17,29 36,25 -17,8 -40,-2 -36,-25z"/>
  <path class="fil14" d="M1134 774c-26,9 -52,-14 -45,-42 -2,20 17,47 45,42z"/>
  <path class="fil14" d="M1111 730c-18,5 -37,-7 -36,-29 0,1 1,0 1,1 3,21 20,30 35,28z"/>
  <path class="fil14" d="M1182 800c-22,8 -43,-4 -43,-27 5,18 19,30 43,27z"/>
  <path class="fil14" d="M1097 762c-19,8 -33,-5 -31,-21 0,-1 1,-1 1,-1 2,15 12,26 30,22z"/>
  <path class="fil14" d="M1080 782c-29,-1 -37,-24 -25,-47 -6,21 -2,41 25,47z"/>
  <path class="fil14" d="M1001 767c26,-1 35,-26 23,-46 6,17 3,38 -23,46z"/>
  <path class="fil14" d="M962 785c24,7 47,-11 37,-39 4,24 -11,41 -37,39z"/>
  <path class="fil14" d="M1051 698c-6,23 1,41 25,45 -25,2 -37,-21 -25,-45z"/>
  <path class="fil14" d="M1187 679c-23,6 -43,-12 -38,-38 0,-1 1,0 1,0 -1,22 13,40 37,38z"/>
  <path class="fil14" d="M1105 697c-23,5 -38,-12 -34,-31 0,-1 2,2 2,2 2,18 10,30 32,29z"/>
  <path class="fil14" d="M1095 678c-12,3 -28,-3 -26,-24 3,19 14,24 26,24z"/>
  <path class="fil14" d="M1084 626c0,15 8,27 27,29 -9,2 -32,-2 -27,-29z"/>
  <path class="fil14" d="M1165 641c-22,6 -36,-10 -29,-32 -3,18 9,34 29,32z"/>
  <path class="fil14" d="M1028 751c14,0 23,-8 23,-19 0,-3 0,-2 -1,-3 -2,11 -8,18 -22,22z"/>
  <path class="fil14" d="M1022 795c20,3 34,-12 28,-33 0,18 -5,31 -28,33z"/>
  <path class="fil14" d="M1002 825c17,3 32,-10 28,-31 0,0 -3,1 -3,0 2,15 -5,30 -25,31z"/>
  <path class="fil14" d="M1071 816c-24,4 -32,-15 -27,-28 -1,1 1,-1 1,0 -2,12 4,27 26,28z"/>
  <path class="fil14" d="M1067 706c-11,-2 -15,-12 -13,-20 1,-1 2,1 2,3 -1,7 3,14 11,17z"/>
  <path class="fil14" d="M1125 671c-13,-2 -21,-17 -12,-32 -4,14 0,26 12,32z"/>
  <path class="fil14" d="M1107 742c-12,0 -19,-8 -18,-17 0,-1 2,1 2,3 2,7 7,12 16,14z"/>
  <path class="fil14" d="M1129 702c-1,21 9,37 34,35 -24,7 -41,-12 -34,-35z"/>
  <path class="fil14" d="M1204 813c-11,0 -18,-7 -17,-16 0,-1 2,1 2,2 1,7 7,13 15,14z"/>
  <path class="fil14" d="M1147 735c-1,21 9,37 32,36 2,0 -2,1 -2,1 -22,3 -36,-14 -30,-37z"/>
  <path class="fil14" d="M1124 789c2,20 14,34 36,30 3,-1 -1,1 -1,1 -21,7 -38,-8 -35,-31z"/>
  <path class="fil18 str1" d="M1101 809c3,4 8,3 10,0 4,-3 5,-9 5,-12 0,-2 1,-4 2,-5 1,0 3,0 5,2 4,4 6,10 4,16 -4,10 -17,13 -27,6"/>
  <path class="fil14" d="M1038 756c11,-3 15,-11 12,-22 0,-1 -2,1 -1,3 0,7 -3,15 -11,19z"/>
  <path class="fil14" d="M1107 789c-10,-6 -11,-17 -7,-25 1,0 1,2 2,3 0,0 0,1 0,2 -3,6 -1,14 5,20z"/>
  <path class="fil14" d="M925 760c12,1 19,-6 20,-15 0,-1 -3,1 -3,3 -2,7 -8,11 -17,12z"/>
  <path class="fil18 str1" d="M943 808c-4,1 -9,2 -14,2 -7,-1 -12,-5 -13,-11 -1,-5 1,-10 6,-15 3,-2 4,0 5,4 2,6 4,14 11,17"/>
  <path class="fil14" d="M905 728c11,0 18,-7 18,-15 0,-1 -2,0 -3,2 -1,6 -6,11 -15,13z"/>
  <path class="fil14" d="M1190 591c-20,10 -37,-4 -35,-21 2,15 15,26 35,21z"/>
  <path class="fil14" d="M954 808c10,-4 14,-12 10,-23 0,-1 -1,2 -1,3 1,7 -2,15 -9,20z"/>
  <path class="fil14" d="M1195 737c-9,-6 -7,-16 -5,-19 1,-1 2,1 1,2 -1,5 -1,12 4,17z"/>
  <path class="fil8" d="M905 326c-1,0 -2,-1 -3,0 -5,2 -15,0 -18,-3 2,7 12,9 18,4 2,-2 2,-1 3,-1z"/>
  <path class="fil10" d="M1163 300c8,3 17,1 23,-6 -1,10 -14,14 -23,8 -1,-1 -1,-2 0,-2z"/>
  <path class="fil10" d="M1162 297c5,2 11,1 15,-3 -2,6 -9,9 -15,3 0,0 0,-1 0,0z"/>
  <path class="fil14" d="M1036 180c5,9 5,18 1,24 -2,2 -1,6 -1,7 8,-6 10,-20 0,-31z"/>
  <path class="fil14" d="M1217 331c-8,9 -20,8 -24,8 -3,-1 -4,0 -5,0 8,5 25,5 29,-8z"/>
  <path class="fil14" d="M1124 242c45,0 43,-32 38,-51 1,14 4,44 -38,51z"/>
  <path class="fil14" d="M1127 241c17,-5 13,-25 14,-24 6,15 -3,26 -14,24z"/>
  <path class="fil25" d="M1134 272c6,-3 8,-9 7,-16 5,6 2,14 -4,16l-3 0z"/>
  <path class="fil18" d="M838 748c-24,4 -41,-16 -36,-36 1,-3 2,-4 5,-3 4,1 11,2 16,1 1,0 1,-1 1,-1 2,0 3,0 4,0 3,-2 5,-5 6,-9 0,0 0,-1 -1,-1 -10,1 -19,-1 -25,-8 -1,-2 -2,-3 -3,-5 -3,-7 -3,-15 0,-23 1,-3 2,-3 6,-1 15,6 39,4 38,-18 0,-2 0,-2 -2,-2 -14,6 -25,-2 -24,-13 0,-1 0,-4 3,-3 6,2 19,0 19,-8 0,-1 -1,-1 -1,0 -10,3 -19,-1 -23,-7 -2,-4 -3,-11 -1,-16 1,-1 2,-2 3,-2 21,8 41,-2 36,-27 0,-2 -1,-2 -2,-1 -7,5 -20,1 -19,-10 0,-3 2,-2 5,-2 19,-1 21,-20 12,-33 -10,-14 -8,-25 -3,-46 5,-19 6,-32 2,-48 -3,-8 -6,-15 -9,-22 -9,-19 -12,-35 -9,-56 0,-6 -1,-11 -4,-16 -20,-39 6,-88 47,-99 9,-3 15,-5 21,-10 21,-18 32,-21 58,-22 10,-1 12,-10 7,-18 -2,-3 -3,-7 -3,-10 0,-2 1,-3 3,-2 9,6 32,5 31,24 3,-7 2,-14 0,-18 -4,-7 -12,-10 -21,-13 -3,-1 -7,-2 -9,-5 -3,-2 -4,-6 1,-6 1,0 4,2 5,2 11,2 21,-1 30,-5 15,-6 28,-8 43,-5 10,-2 30,2 35,18 2,-1 1,-2 1,-4 -1,-6 3,-12 11,-12 1,0 1,1 1,1 1,14 15,25 36,15 23,5 33,19 35,37 1,4 1,9 1,13 0,9 -1,18 4,26 7,11 21,16 38,14 3,-1 5,0 8,1 11,7 18,18 22,29 6,21 2,42 -3,62 -2,8 -4,11 -5,19 0,2 0,3 0,5 -1,14 -4,28 -7,42 -4,16 -6,32 -1,52 2,8 3,12 5,21 2,9 3,18 -1,23 -12,15 -13,45 7,53 3,1 5,2 8,2 2,0 2,4 2,6 0,5 -4,8 -10,8 -1,0 -1,1 -1,2 3,5 12,4 15,2 1,-1 3,0 3,1 2,4 1,9 0,12 -3,6 -12,7 -18,4 -1,0 -1,0 -1,0 2,10 15,10 22,6 2,-1 3,-1 4,1 2,4 2,9 1,13 -1,8 -7,13 -16,15 -5,0 -11,-1 -15,-4 -1,0 -2,0 -2,1 -1,3 -1,6 0,8 2,3 4,4 7,5 0,0 1,1 1,1 6,10 23,9 31,1 1,-1 2,-1 3,-1 10,9 12,26 5,37 -4,7 -13,13 -24,13 -3,0 9,3 19,-2 3,-2 3,-2 5,1 4,8 4,16 2,23 -4,13 -18,20 -36,17 -1,0 -1,1 0,2 6,9 19,8 23,6 1,-1 3,2 4,3 2,6 2,13 0,18 -4,9 -14,14 -25,14 -2,-1 1,1 5,2 3,0 3,2 3,4 1,19 -13,25 -29,27 -1,0 -2,1 -3,1 -6,4 -20,8 -33,6 -5,0 -9,-2 -13,1 -7,4 -20,8 -34,11 -1,1 -1,2 -1,3 0,6 -3,12 -11,14 0,0 0,1 0,1 6,5 12,10 16,13 5,2 5,3 5,9 -5,31 -26,51 -45,68 -20,18 -37,37 -49,62 -1,2 -2,7 -5,9 -2,2 -4,2 -6,1 -3,-1 -4,-4 -5,-6 -8,-18 -20,-32 -33,-46 -20,-21 -41,-40 -55,-65 -7,-12 -11,-24 -10,-26 1,-3 5,-5 7,-6 2,-3 7,-7 13,-11 2,-3 5,-5 8,-6 1,0 2,0 3,-1 0,0 0,0 1,0 0,0 0,-1 0,-1 -1,-1 -2,-1 -3,-1 -5,1 -9,1 -13,-1 -2,-1 -3,-3 -4,-5 -2,0 -3,0 -3,-2 1,-1 1,-2 2,-3 0,-1 0,-1 0,-1 0,-3 0,-6 1,-10l-3 0c-18,2 -37,2 -52,-8 -5,-4 -10,-10 -12,-17 -1,-3 -5,-1 -5,-1 -29,2 -48,-12 -51,-34 0,-4 0,-5 5,-6 2,0 6,-1 8,-2z"/>
  <path class="fil14" d="M1122 223c2,37 -34,40 -46,49 10,-17 38,-12 46,-49z"/>
  <path class="fil14" d="M990 265c-5,-13 1,-24 12,-28 -7,6 -10,12 -10,21 0,2 -2,4 -2,7z"/>
  <path class="fil14" d="M1154 285c10,-1 17,-9 16,-18 -1,6 -5,10 -10,14 -4,2 -4,2 -6,4z"/>
  <path class="fil31" d="M1076 203c1,-10 -1,-21 -3,-26 -2,-5 -1,-6 1,-4 10,12 11,50 -12,60 -2,1 -4,2 -5,2 0,0 -1,-1 0,-2 1,-2 7,-6 9,-9 4,-3 9,-11 10,-21z"/>
  <path class="fil31" d="M1079 250c0,2 -2,3 -3,3 -2,0 -2,-1 -2,-2 1,-1 2,-3 4,-3 2,-2 4,-3 6,-4 5,-4 10,-9 12,-16 4,-10 5,-23 3,-34 -1,-1 -1,-4 -1,-5 0,-1 1,-2 1,-1 0,-3 -1,-7 -3,-12 -3,-5 0,-5 3,-1 4,7 7,21 7,33 -1,23 -8,35 -27,42z"/>
  <path class="fil31" d="M1118 217c2,-12 2,-25 -6,-36 0,-1 -1,-2 -1,-3 -1,-2 1,-4 3,-1 6,7 8,13 9,22 0,0 1,-1 2,-1 1,-1 1,3 1,6 0,5 -2,11 -4,13 -2,3 -5,4 -4,0z"/>
  <path class="fil31" d="M1055 171c-2,-2 -6,-7 -9,-9 -3,-2 -2,-4 2,-2 4,1 8,6 9,9 1,4 -1,4 -2,2z"/>
  <path class="fil31" d="M853 334c-1,-3 -3,-6 -6,-8 -4,-1 -7,-5 -9,-8 -1,-2 0,-2 0,-1 1,1 3,2 5,3 4,1 6,-2 1,-4 -6,-3 -11,-8 -13,-14 0,-2 -1,-2 -1,0 -1,21 15,37 23,32z"/>
  <path class="fil31" d="M847 286c-3,-12 -1,-28 12,-38 1,-1 2,-1 1,0 -2,2 -4,7 -4,11 0,0 0,1 0,0 2,-5 8,-12 15,-15 3,-2 3,-1 2,0 -8,9 -11,13 -14,22 -1,5 -5,5 -5,0 0,-1 0,-1 -1,0 -3,4 -4,16 -4,20 -1,2 -2,4 -2,0z"/>
  <path class="fil14" d="M855 334c5,8 13,11 22,10 1,0 1,1 3,1 -11,5 -23,1 -25,-11z"/>
  <path class="fil31" d="M845 316c-4,-4 -10,-11 -9,-25 1,-6 -2,-1 -3,4 -2,8 2,19 11,22 1,1 2,1 1,-1z"/>
  <path class="fil32" d="M2521 581c-25,13 -56,13 -81,7 -22,-6 -43,-19 -51,-41 -9,-27 7,-57 41,-52 2,0 3,2 2,4 -10,15 -13,35 -4,52 9,16 29,25 50,25 21,0 42,-10 46,-32 4,-23 -13,-38 -32,-49 -21,-12 -44,-19 -64,-33 -19,-13 -32,-29 -32,-53 -1,-31 17,-50 39,-58 20,-8 43,-7 64,-5 10,0 21,1 31,0 5,0 17,-1 23,-4 1,0 2,0 2,1 -1,8 -4,14 -10,19 -3,2 -7,3 -12,3 18,11 18,36 7,49 -9,9 -28,11 -36,2 -2,-2 -2,-3 0,-4 5,-3 9,-8 11,-14 5,-13 -1,-25 -12,-33 -18,-12 -51,-9 -65,7 -6,6 -8,16 -7,24 1,10 7,19 15,26 7,4 15,8 23,12 23,10 49,19 67,37 10,9 19,22 22,37 6,27 -5,58 -37,73z"/>
  <path class="fil32" d="M2354 576c1,0 1,1 0,2 -8,12 -31,13 -41,3 -1,-1 -1,-1 -2,0 -11,10 -34,10 -42,-4 0,-1 0,-1 1,-1 13,-1 21,-9 21,-23l0 -150 -63 145c-2,4 -5,6 -10,6 -5,0 -8,-2 -10,-6l-72 -170 0 176c0,8 1,15 6,19 4,3 12,4 19,3 1,0 1,1 0,1 -3,8 -26,12 -32,-3 -1,-1 -1,-1 -1,0 -3,13 -25,13 -31,5 -1,-2 -1,-3 0,-3 16,1 25,-4 25,-23l0 -182c0,-4 -1,-7 -3,-10 -2,-2 -7,-4 -11,-4 -1,0 -1,0 -1,-1 2,-2 4,-5 7,-6 7,-5 15,-6 23,-4 4,1 8,3 12,6 1,1 1,1 2,0 4,-3 8,-5 12,-6 4,-1 9,-1 13,0 3,0 7,2 10,4 3,1 5,4 7,6 0,1 0,1 -1,1 -11,0 -17,9 -13,20l55 126 51 -119c6,-12 -1,-26 -15,-27 -1,0 -1,0 -1,-1 2,-2 4,-5 7,-6 3,-2 7,-4 11,-4 4,-1 8,-1 12,0 4,1 8,3 12,6 1,1 1,1 2,0 4,-3 8,-5 12,-6 4,-1 8,-1 12,0 4,0 8,2 11,4 3,1 5,4 6,6 1,1 1,1 0,1 -11,-1 -21,3 -22,14 0,1 0,3 0,4l0 178c0,14 9,22 22,23z"/>
  <path class="fil32" d="M1824 577c1,0 2,0 1,1 -1,2 -3,5 -7,6 -6,5 -15,6 -23,4 -5,-1 -9,-3 -13,-7 -3,4 -8,6 -13,7 -8,2 -16,1 -23,-4 -3,-1 -5,-4 -7,-6 0,-1 0,-1 1,-1 12,-1 22,-9 22,-22l0 -176c0,-4 -1,-9 -3,-13 -2,-2 -4,-4 -7,-6 -3,-2 -7,-3 -12,-3 -1,0 -1,-1 -1,-2 2,-2 4,-4 7,-6 3,-2 7,-3 11,-4 9,-1 18,1 25,8 7,-7 16,-9 26,-8 4,1 7,2 10,4 4,2 6,4 7,6 1,1 0,2 -1,2 -7,0 -14,3 -18,9 -2,4 -3,9 -3,13l0 176c0,13 9,21 21,22z"/>
  <path class="fil32" d="M1483 506l0 8c0,19 0,35 0,54 9,1 15,10 12,19 -1,2 -2,1 -3,1 -6,-6 -17,-7 -31,-5 -34,5 -69,9 -99,-5 -68,-32 -79,-138 -37,-195 34,-45 87,-48 132,-34 10,3 27,5 35,-4 1,-1 1,0 2,1 1,14 -7,21 -20,21 9,10 10,22 7,32 -4,16 -21,27 -41,22 -1,0 -2,-1 -3,-1 0,-1 0,-1 1,-2 12,-7 15,-21 13,-31 -5,-20 -25,-27 -41,-26 -21,1 -36,12 -47,26 -13,18 -19,43 -20,66 -2,44 12,94 44,113 21,12 54,6 54,-23 0,-9 0,-27 0,-37 0,-15 -9,-17 -21,-18 -8,-1 -16,-3 -21,-9 -5,-6 -8,-16 -4,-29 1,-3 2,-6 4,-2 3,7 9,7 15,7 12,-2 24,-3 35,0 17,4 28,17 31,34 0,1 1,0 2,0 6,-5 15,-4 19,2 2,2 2,7 1,11 0,0 -1,0 -2,-1 -5,-5 -17,-3 -17,5z"/>
  <path class="fil32" d="M1739 609c3,0 -1,5 -3,7 -5,5 -13,8 -22,9 -30,2 -39,-20 -45,-45 -3,-10 -7,-24 -9,-34 -3,-11 -8,-24 -19,-29 -5,-3 -12,-3 -20,-2 -4,2 -7,3 -10,3 -4,1 -7,2 -11,3l0 35c0,12 9,20 21,21 1,0 1,0 1,1 -8,13 -31,13 -41,3 -8,11 -33,10 -41,-3 -1,-1 0,-1 1,-1 12,-1 20,-9 20,-21l0 -100c-19,-5 -30,-17 -35,-34 -6,-18 -2,-39 8,-55 19,-28 58,-37 93,-31 39,7 66,36 72,72 8,43 -14,86 -58,99 13,-1 24,1 32,6 25,16 30,46 39,71 3,8 6,16 12,21 4,3 9,5 15,4zm-131 -214c11,9 14,24 11,36 -3,10 -10,17 -19,21l0 30 0 9 0 11 0 5 0 2c21,-7 37,-19 48,-35 11,-16 16,-35 16,-57 0,-8 -1,-16 -4,-24 -3,-8 -7,-14 -12,-20 -16,-19 -43,-24 -66,-17 -21,6 -36,26 -30,49 3,12 13,21 27,22 5,0 9,-1 13,-3 11,-5 15,-17 15,-29 0,0 0,-1 1,0z"/>
  <path class="fil32" d="M2089 576c1,0 1,1 1,2 -9,12 -31,13 -42,3 -1,-1 -1,-1 -2,0 -11,10 -33,10 -41,-4 -1,-1 -1,-1 0,-1 14,-1 22,-9 22,-23l0 -150 -63 145c-2,4 -6,6 -10,6 -5,0 -9,-2 -11,-6l-72 -170 0 176c0,8 2,15 7,19 4,3 11,4 19,3 0,0 0,1 0,1 -3,8 -26,12 -33,-3 0,-1 -1,-1 -1,0 -3,13 -24,13 -31,5 -1,-2 0,-3 1,-3 16,1 25,-4 25,-23l0 -182c0,-4 -2,-7 -4,-10 -3,-3 -6,-4 -10,-4 -1,0 -2,0 -1,-1 1,-2 3,-5 7,-6 6,-5 15,-6 22,-4 5,1 9,3 13,6 1,1 0,1 2,0 3,-3 7,-5 12,-6 4,-1 8,-1 12,0 4,0 7,2 11,4 3,1 5,4 6,6 1,1 0,1 -1,1 -12,-1 -17,10 -12,20l54 126 52 -119c6,-13 0,-26 -15,-27 -1,0 -2,0 -1,-1 1,-2 3,-5 6,-6 4,-2 7,-4 11,-4 4,-1 8,-1 12,0 4,1 8,3 12,6 1,1 1,1 2,0 4,-3 8,-5 12,-6 5,-1 9,-1 13,0 3,0 7,2 10,4 3,1 6,4 7,6 0,1 0,1 -1,1 -11,0 -21,5 -21,19l0 177c0,14 8,22 21,23z"/>
  <path class="fil33" d="M2351 316c-3,-1 -3,-1 -1,-3 9,-12 28,-9 33,0 -1,-11 10,-14 17,-9 0,0 -1,0 -1,1 -2,2 -4,4 -4,7 -1,5 1,9 1,14 2,15 -4,27 -17,31 3,-22 -11,-38 -28,-41z"/>
  <path class="fil9" d="M1162 333c-6,-3 -18,-3 -24,1 5,-7 19,-7 24,-1z"/>
  <path class="fil9" d="M1162 293c-6,-2 -17,-2 -22,2 4,-7 17,-8 22,-2z"/>
  <path class="fil9" d="M1172 335c-7,-3 -19,-2 -26,2 6,-7 20,-8 26,-2z"/>
  <path class="fil9" d="M983 346c-3,-2 -8,-2 -12,-1 -4,1 -8,3 -11,5 4,-9 17,-11 23,-4z"/>
  <path class="fil9" d="M962 299c-3,-2 -7,-3 -12,-4 -4,0 -8,1 -12,3 6,-8 19,-7 24,1z"/>
  <path class="fil9" d="M997 510c-6,8 -22,12 -32,12 9,4 28,1 32,-12z"/>
  <path class="fil9" d="M994 514c-3,6 -8,10 -16,12 9,1 15,-4 16,-12z"/>
  <path class="fil9" d="M1065 329c-6,5 -7,12 -7,15 -2,-5 0,-13 7,-15z"/>
  <path class="fil9" d="M1152 318c-5,-3 -14,-4 -20,-1 5,-6 16,-5 20,1z"/>
  <path class="fil9" d="M956 318c-6,-3 -15,-3 -21,1 5,-7 17,-6 21,-1z"/>
  <path class="fil20" d="M958 553c7,1 10,8 9,14 -1,-6 -3,-10 -9,-14z"/>
  <path class="fil9" d="M866 498c3,11 9,18 19,20 -14,0 -19,-9 -19,-20z"/>
  <path class="fil9" d="M877 508c4,10 15,14 23,14 -10,3 -22,-2 -23,-14z"/>
  <path class="fil9" d="M1193 524c9,-6 13,-16 13,-26 3,10 -1,24 -13,26z"/>
  <path class="fil9" d="M920 524c0,7 4,13 9,17 4,3 -13,1 -9,-17z"/>
  <path class="fil9" d="M1179 516c-1,8 -6,12 -11,15 -1,0 -1,1 0,0 3,0 13,-3 11,-15z"/>
  <path class="fil9" d="M912 376c-7,-5 -20,-5 -29,-1 6,-8 22,-9 29,1z"/>
  <polygon class="fil9" points="1018,497 1012,513 1016,509 "/>
  <path class="fil33" d="M1366 629c5,5 6,11 5,15 4,-1 9,-2 14,-3 11,-1 21,0 29,2 25,8 39,33 37,59 -1,10 -4,20 -11,27 -5,6 -10,8 -16,6 -7,-2 -8,-11 -10,-21 -3,-16 -8,-31 -18,-42 -1,0 -1,-1 -1,-1 -26,-3 -44,15 -39,42 0,-5 3,-15 13,-17 -1,32 10,56 33,73 27,20 70,18 108,7 50,-13 88,-42 130,-67 32,-19 62,-34 99,-41 36,-6 74,-4 107,14 32,16 56,45 69,86 -30,5 -56,-4 -81,-17 -45,-22 -87,-17 -132,-1 -52,20 -122,55 -191,66 -50,8 -101,2 -139,-29 6,2 15,4 26,5 -58,-15 -89,-92 -44,-138 7,-7 12,-17 12,-25z"/>
  <path class="fil33" d="M2512 629c-6,5 -6,11 -6,15 -4,-1 -9,-2 -14,-3 -11,-1 -20,0 -29,2 -25,8 -39,33 -37,59 1,10 4,20 11,27 5,6 11,8 16,6 7,-2 8,-11 10,-21 2,-6 8,-30 19,-43 0,0 0,0 1,0 25,-3 44,15 39,42 -1,-5 -4,-15 -14,-17 2,35 -13,61 -37,76 -46,27 -120,5 -163,-19 -38,-22 -74,-49 -115,-67 -93,-42 -199,-22 -230,82 32,7 61,1 88,-19 1,-1 3,-2 4,-3l1 0 0 0 0 0 0 0 0 0 0 0c42,-16 81,-9 123,6 75,26 139,64 220,65 40,0 79,-9 107,-30 -6,2 -15,4 -27,5 61,-16 90,-90 44,-138 -6,-7 -12,-17 -11,-25z"/>
 </g>
</svg>
